<?xml version="1.0" standalone="no"?>
<!DOCTYPE svg PUBLIC "-//W3C//DTD SVG 1.1//EN" "http://www.w3.org/Graphics/SVG/1.1/DTD/svg11.dtd" >
<svg xmlns="http://www.w3.org/2000/svg">
<metadata></metadata>
<defs>
<font id="pf_beausans_probold_italic" horiz-adv-x="1298" >
<font-face units-per-em="2048" ascent="1536" descent="-512" />
<missing-glyph horiz-adv-x="587" />
<glyph unicode="&#xfb01;" horiz-adv-x="1251" d="M94 -385l172 1237h-143q-19 0 -24.5 8.5t-0.5 26.5l17 117q2 20 9 28.5t30 14.5l145 34l8 66q9 64 25.5 116t51.5 104t85 87t129.5 56.5t181.5 21.5q207 -7 340 -47q18 -5 22 -14.5t-3 -32.5l-33 -144q-12 -34 -47 -28q-139 24 -244 24q-110 0 -160 -39.5t-61 -117.5 l-8 -58h592q28 0 34.5 -7.5t1.5 -29.5l-139 -1001q-5 -25 -12 -31t-35 -6h-205q-25 0 -33 7.5t-4 29.5l115 815h-346l-156 -1145q-4 -29 -15 -40.5t-32 -18.5l-215 -70q-20 -8 -33.5 2t-9.5 35z" />
<glyph unicode="&#xfb02;" horiz-adv-x="1361" d="M94 -383l172 1239h-143q-36 0 -25 33l17 115q2 20 9 28.5t30 14.5l145 34l8 68q9 63 26 115.5t52 104t85.5 86.5t129.5 57t180 22q178 0 316 -37l161 33q24 2 32.5 -6t4.5 -31l-164 -1169q-6 -52 5.5 -70t54.5 -18q26 0 72 4q19 2 24 -2t6 -23l23 -166q2 -19 -6.5 -28 t-32.5 -15q-91 -29 -223 -29q-140 0 -192.5 66t-26.5 231l141 1000q-92 14 -162 14q-108 0 -158 -38t-61 -115l-8 -60h221q23 0 29 -8t0 -25l-21 -147q-6 -28 -13 -34q-8 -5 -26 -5h-221l-156 -1145q-4 -29 -15 -41.5t-32 -19.5l-215 -68q-20 -8 -33.5 1.5t-9.5 33.5z" />
<glyph horiz-adv-x="0" />
<glyph horiz-adv-x="682" />
<glyph unicode=" "  horiz-adv-x="587" />
<glyph unicode="&#x09;" horiz-adv-x="587" />
<glyph unicode="&#xa0;" horiz-adv-x="587" />
<glyph unicode="!" horiz-adv-x="598" d="M90 129q0 85 58 146t141 61q69 0 115.5 -44t46.5 -110q0 -83 -57 -142.5t-142 -59.5q-73 0 -117.5 41.5t-44.5 107.5zM209 502l82 889q0 43 51 43h209q22 0 33 -6t10.5 -15.5t-2.5 -21.5l-170 -887q-4 -24 -15 -31.5t-36 -7.5h-119q-28 0 -37.5 7.5t-5.5 29.5z" />
<glyph unicode="&#x22;" horiz-adv-x="952" d="M250 852l29 539q0 24 11.5 34.5t41.5 10.5h200q30 0 37 -11.5t2 -33.5l-120 -537q-6 -24 -17 -30.5t-37 -6.5h-104q-27 0 -35.5 6.5t-7.5 28.5zM637 852l27 539q2 24 13.5 34.5t39.5 10.5h203q52 0 41 -45l-123 -537q-6 -24 -17 -30.5t-37 -6.5h-104q-28 0 -37.5 6.5 t-5.5 28.5z" />
<glyph unicode="#" d="M104 289.5q-4 6.5 2 23.5l39 115q5 14 7.5 19t10.5 8.5t23 3.5h152l96 289h-153q-18 0 -22 7.5t1 24.5l39 111q4 12 6.5 17t11 10.5t23.5 5.5h156l90 254q5 17 11.5 21.5t29.5 4.5h116q24 0 28.5 -5t-1.5 -28l-82 -247h232l88 254q4 17 12 21.5t31 4.5h114 q24 0 29.5 -5.5t1.5 -27.5l-88 -247h158q18 0 21.5 -9t-3.5 -26l-41 -109q-8 -20 -15 -26t-24 -6h-153l-101 -289h158q28 0 16 -35l-39 -111q-7 -18 -14.5 -24t-21.5 -6h-156l-90 -254q-5 -18 -11.5 -23.5t-25.5 -5.5h-127q-19 0 -25 6t0 25l86 252h-231l-88 -254 q-5 -15 -7 -19t-9.5 -7t-22.5 -3h-125q-20 0 -26.5 6t-0.5 25l86 252h-149q-19 0 -23 6.5zM528 459h232l98 289h-231z" />
<glyph unicode="$" d="M135 170l72 147q10 20 21 24.5t28 -3.5q126 -58 240 -80l53 377q-140 67 -214.5 154t-74.5 215q0 158 102 265.5t291 119.5l25 174q1 7 2.5 11.5t3.5 7.5l3 4.5t5 2t5.5 0.5h8h9.5h43h9.5h8.5t6 -0.5t5 -2t2 -4.5t0.5 -7.5t-1.5 -11.5l-247 -1768q-2 -8 -4 -13l-3 -7.5 t-5.5 -4t-6 -1.5h-9.5h-11h-41h-9.5h-9t-6.5 0.5t-5.5 2t-3 4.5t-1 7.5t1.5 11.5l29 207q-163 23 -320 117q-26 11 -2 51zM535 1010q0 -59 51 -101l30 213q-81 -32 -81 -112zM606.5 -216.5q0.5 4.5 1.5 11.5l248 1768q1 8 3.5 13t3.5 7.5t5.5 4t5.5 1.5h9h10h39h9h8t6 -0.5 t4.5 -2t2 -4.5t1 -7.5t-1.5 -11.5l-25 -179q132 -23 235 -77q17 -7 18.5 -20t-9.5 -36l-58 -137q-10 -22 -19 -26t-26 2q-87 29 -178 43l-47 -347q303 -146 303 -385q0 -183 -112.5 -286.5t-301.5 -124.5l-28 -195q-1 -7 -2.5 -11.5t-3.5 -7.5l-3 -4.5t-5 -2t-5.5 -0.5h-8 h-9.5h-37h-9h-8.5t-6.5 0.5t-5 2t-2.5 4.5t-1 7.5zM778 256q55 18 83 58t28 92q0 62 -74 112z" />
<glyph unicode="%" horiz-adv-x="1945" d="M166 877q0 239 116.5 377.5t319.5 138.5q168 0 250 -92.5t82 -258.5q0 -231 -114.5 -369t-321.5 -138q-163 0 -247.5 90t-84.5 252zM399 883q0 -162 121 -162q90 0 138.5 91.5t48.5 229.5q0 162 -121 162q-92 0 -139.5 -90.5t-47.5 -230.5zM434 -27l1026 1442 q9 14 12.5 19t12.5 8.5t24 3.5h117q19 0 24 -10.5t-8 -30.5l-1015 -1434q-14 -20 -30 -28.5t-44 -8.5h-102q-41 0 -17 39zM1130 330q0 240 116 378t319 138q168 0 252 -92.5t84 -257.5q0 -230 -116 -369t-323 -139q-163 0 -247.5 90t-84.5 252zM1364 336q0 -162 119 -162 q92 0 140 91.5t48 230.5q0 161 -123 161q-89 0 -136.5 -91t-47.5 -230z" />
<glyph unicode="&#x26;" horiz-adv-x="1523" d="M123 301q0 158 98.5 291t251.5 223q-84 123 -84 260q0 181 117.5 282t290.5 101q149 0 241 -78.5t92 -212.5q0 -62 -19 -118.5t-46 -97t-70.5 -81t-78 -65.5t-82.5 -55q22 -37 102 -156q155 211 350 264q57 19 105 21q26 0 26 -23l25 -170q3 -29 -31 -35 q-118 -23 -195.5 -87.5t-138.5 -168.5q11 -15 154 -213q98 -133 102 -139q12 -12 4.5 -27.5t-30.5 -15.5h-217q-58 0 -80 31l-43 55q-9 12 -23 30t-23.5 30.5t-13.5 19.5q-94 -91 -197 -141t-233 -50q-166 0 -260 85.5t-94 240.5zM399 352q0 -54 34 -86.5t104 -32.5 q58 0 123.5 38t109.5 94q-14 21 -75 114t-93 144q-203 -121 -203 -271zM655 1085q0 -62 60 -153q71 44 111 87.5t40 102.5q0 39 -22.5 67t-63.5 28q-56 0 -90.5 -37t-34.5 -95z" />
<glyph unicode="'" horiz-adv-x="565" d="M250 852l29 539q3 45 53 45h200q30 0 37 -11.5t2 -33.5l-120 -537q-6 -24 -17 -30.5t-37 -6.5h-104q-27 0 -35.5 6.5t-7.5 28.5z" />
<glyph unicode="(" horiz-adv-x="692" d="M127 514q0 516 483 969q22 22 33.5 22t32.5 -18l92 -76q14 -13 15.5 -18.5t-13.5 -24.5q-174 -196 -262 -402t-88 -446q0 -157 37 -289t116 -262q15 -31 -14 -51l-113 -76q-17 -12 -26.5 -13t-15.5 4.5t-19 23.5q-121 155 -189.5 312t-68.5 345z" />
<glyph unicode=")" horiz-adv-x="708" d="M51 -31q174 199 261 402t87 446q0 306 -151 553q-7 12 -7.5 18.5t4 10.5t17.5 12l113 76q23 17 32.5 16.5t26.5 -20.5q258 -329 258 -676q0 -152 -38 -289.5t-110 -256t-149.5 -210.5t-183.5 -194q-24 -24 -35.5 -27t-30.5 10l-94 78q-27 24 0 51z" />
<glyph unicode="*" horiz-adv-x="1007" d="M231 1063q-3 6 7 35l53 116q18 42 51 25l195 -94q0 18 4 114.5t4 116.5q0 19 9.5 27t33.5 8h123q25 0 30 -6t0 -29l-57 -235l215 94q23 9 31.5 3.5t13.5 -30.5l25 -121q4 -22 -3 -30t-28 -10l-231 -56q13 -15 65.5 -87t61.5 -83q13 -19 9 -31t-28 -26l-106 -74 q-17 -12 -25 -13.5t-12.5 3.5t-12.5 22l-88 201l-139 -203q-16 -22 -29 -23.5t-26 13.5l-90 78q-17 14 -17 24t17 27l176 176l-205 56q-24 6 -27 12z" />
<glyph unicode="+" d="M180 625l23 157q4 29 12 37t31 8h334l51 361q4 23 13 30t32 7h184q27 0 34 -7t3 -30l-49 -361h334q23 0 28 -8t0 -37l-22 -157q-5 -26 -13 -34.5t-30 -8.5h-332l-53 -361q-5 -24 -12 -30.5t-33 -6.5h-185q-24 0 -32 7.5t-4 29.5l51 361h-334q-23 0 -29.5 9t-1.5 34z" />
<glyph unicode="," horiz-adv-x="559" d="M41 -233l100 524q5 24 16 34.5t36 10.5h227q30 0 37 -13t-2 -32l-215 -522q-11 -24 -19 -30.5t-31 -6.5h-104q-26 0 -37.5 9t-7.5 26z" />
<glyph unicode="-" horiz-adv-x="788" d="M117 514l26 184q5 27 12 35t29 8h506q23 0 29 -8.5t2 -34.5l-27 -184q-6 -43 -41 -43h-506q-36 0 -30 43z" />
<glyph unicode="." horiz-adv-x="591" d="M84 133q0 86 63.5 148.5t147.5 62.5q71 0 116.5 -45t45.5 -113q0 -86 -64 -148.5t-149 -62.5q-68 0 -114 45.5t-46 112.5z" />
<glyph unicode="/" horiz-adv-x="915" d="M-49 -160l862 1721q7 19 20 25.5t39 6.5h166q21 0 28 -7t-1 -30l-862 -1718q-15 -35 -68 -35h-160q-39 0 -24 37z" />
<glyph unicode="0" d="M117 537q0 250 77 444.5t228.5 307t355.5 112.5q248 0 370 -146t122 -411q0 -255 -78 -450.5t-230 -306t-358 -110.5q-243 0 -365 147.5t-122 412.5zM412 532q0 -303 219 -303q110 0 190 85.5t118 222t38 305.5q0 307 -221 307q-111 0 -190 -85.5t-116.5 -222.5 t-37.5 -309z" />
<glyph unicode="1" d="M217 41l23 162q4 28 11.5 34.5t31.5 6.5h211l118 860l-213 -37q-26 -4 -34 3t-3 30l21 149q4 16 6.5 23t11 15t23.5 13l346 93q48 13 86 10.5t59 -31t13 -78.5l-148 -1050h230q24 0 29 -6.5t1 -34.5l-24 -162q-5 -24 -12 -32.5t-27 -8.5h-727q-39 0 -33 41z" />
<glyph unicode="2" d="M109 135q0 191 249 402q134 116 351 243q127 76 174 130.5t47 119.5q0 50 -40 83.5t-130 33.5q-154 0 -330 -111q-40 -22 -57 6l-86 144q-15 35 14 55q229 160 498 160q194 0 313 -87t119 -257q0 -145 -102 -260t-285 -215q-123 -66 -232 -155.5t-157 -182.5h618 q26 0 33.5 -7t3.5 -34l-25 -162q-5 -24 -13 -32.5t-30 -8.5h-774q-82 0 -120.5 29.5t-38.5 105.5z" />
<glyph unicode="3" d="M102 143.5q0 11.5 17 30.5l90 141q17 24 29.5 26t35.5 -15q69 -45 150.5 -69t153.5 -24q124 0 191.5 59.5t72.5 156.5q2 75 -51 119t-150 44h-55h-17.5t-14.5 1.5t-12.5 4t-8 7t-6 11.5t-1.5 17.5t2 24.5l13 92q6 46 21 60t52 14h52q99 0 158 48t59 118q0 129 -181 129 q-157 0 -313 -92q-22 -14 -36.5 -13.5t-24.5 21.5l-72 143q-9 18 -6.5 30.5t20.5 22.5q105 76 233.5 113t252.5 37q88 0 165 -19.5t140 -59.5t99 -108t34 -157q-4 -110 -72.5 -195.5t-185.5 -128.5l-2 -10q107 -31 160 -110.5t51 -188.5q-5 -199 -153.5 -323t-385.5 -124 q-148 0 -278 36t-209 106q-17 13 -17 24.5z" />
<glyph unicode="4" d="M84 337.5q0 17.5 2 41.5l8 59q10 86 72 154l635 708q53 55 80 73q49 32 112 32h97q60 0 81 -29t11 -100l-107 -762h127q26 0 34.5 -7t4.5 -34l-22 -160q-4 -23 -14.5 -31t-33.5 -8h-131l-32 -235q-5 -25 -12.5 -32t-32.5 -7h-205q-45 0 -39 39l35 233h-555q-18 0 -31.5 1 t-29.5 5t-25 11t-19 19t-10 29.5zM403 522l3 -10h380l70 502l-10 6z" />
<glyph unicode="5" d="M106 178l99 152q17 20 29.5 20.5t37.5 -16.5q137 -94 308 -94q153 0 234 64.5t81 182.5q0 80 -50.5 123t-137.5 43q-54 0 -106.5 -11.5t-79.5 -22t-91 -37.5t-115 -7l-67 21q-43 13 -55.5 42.5t0.5 76.5l122 512q20 79 60.5 115t107.5 36h693q29 0 37 -7.5t4 -37.5 l-23 -162q-4 -26 -15.5 -35.5t-35.5 -9.5h-580l-67 -266q110 37 262 37q204 0 318 -100.5t114 -288.5q0 -128 -49 -231t-132.5 -168t-192 -99.5t-230.5 -34.5q-294 0 -475 154q-26 19 -5 49z" />
<glyph unicode="6" d="M127 516q0 189 49.5 350t143 281.5t239.5 189t328 68.5q172 0 278 -41q16 -5 18.5 -12t-5.5 -43l-43 -160q-5 -23 -22 -26.5t-34 3.5q-86 25 -190 25q-148 0 -252.5 -76.5t-155.5 -222.5q57 17 142.5 29t150.5 12q210 0 331.5 -93.5t121.5 -289.5q0 -107 -35 -197 t-93 -151t-135 -103.5t-159.5 -62t-167.5 -19.5q-261 0 -385.5 141.5t-124.5 397.5zM422 496q0 -125 60 -195t175 -70q116 0 192.5 64t76.5 182q0 83 -49.5 128.5t-147.5 45.5q-139 0 -297 -45q-10 -59 -10 -110z" />
<glyph unicode="7" d="M165.5 16q-6.5 16 6.5 35l729 1075h-637q-23 0 -29 9.5t-2 38.5l21 157q4 31 13.5 40t35.5 9h875q51 0 75.5 -23t18.5 -69l-10 -63q-9 -67 -54 -129l-708 -1051q-17 -26 -35.5 -35.5t-50.5 -9.5h-219q-23 0 -29.5 16z" />
<glyph unicode="8" d="M111 346q0 131 77.5 243.5t188.5 149.5l2 6q-69 32 -100 96t-31 136q0 101 46.5 184t123.5 135t172 80.5t196 28.5q206 0 317 -90t111 -246q0 -96 -48 -182.5t-160 -143.5l-2 -4q62 -23 103 -71t57 -101.5t16 -115.5q0 -202 -163.5 -338t-424.5 -136q-231 0 -356 98.5 t-125 270.5zM410 389q0 -71 49.5 -118.5t156.5 -47.5q72 0 127 22.5t84.5 58.5t43.5 74t14 75q0 79 -57 124.5t-154 45.5q-108 0 -186 -66.5t-78 -167.5zM532 963q0 -57 46 -95.5t122 -38.5q95 0 157.5 55.5t62.5 127.5q0 64 -42 101.5t-130 37.5q-101 0 -158.5 -53.5 t-57.5 -134.5z" />
<glyph unicode="9" d="M158 874q0 108 34.5 197.5t92.5 150.5t135 103.5t159.5 62t168.5 19.5q133 0 231 -37.5t158 -109t89 -169.5t29 -223q0 -151 -30.5 -284.5t-93.5 -244t-152.5 -190.5t-213 -124.5t-269.5 -44.5q-184 0 -287 40q-15 5 -17.5 12.5t5.5 43.5l51 160q4 13 9 19.5t14 7 t14.5 -0.5t17.5 -4q86 -25 191 -25q148 0 253 76.5t154 222.5q-56 -17 -141.5 -28.5t-151.5 -11.5q-101 0 -182 22t-141.5 67t-93.5 119t-33 174zM457 907q0 -83 49 -128.5t147 -45.5q135 0 299 45q9 70 9 111q0 125 -59.5 194.5t-174.5 69.5q-116 0 -193 -64t-77 -182z" />
<glyph unicode=":" horiz-adv-x="591" d="M86 145q4 82 65.5 140.5t141.5 58.5q75 0 120.5 -47.5t41.5 -120.5q-4 -81 -67.5 -138.5t-143.5 -57.5q-72 0 -117 46.5t-41 118.5zM188 872q5 82 66 140.5t143 58.5q74 0 119 -47t41 -119q-4 -81 -67.5 -139.5t-145.5 -58.5q-72 0 -117 46.5t-39 118.5z" />
<glyph unicode=";" horiz-adv-x="587" d="M47 -229l98 516q5 26 16 37.5t38 11.5h225q51 0 35 -49l-213 -514q-11 -25 -20 -33t-31 -8h-105q-26 0 -36.5 9.5t-6.5 29.5zM199 872q4 82 66.5 140.5t144.5 58.5q72 0 116 -47t39 -119q-4 -82 -65.5 -140t-143.5 -58q-72 0 -116.5 46.5t-40.5 118.5z" />
<glyph unicode="&#x3c;" d="M186 664q1 0 3 16.5t4.5 33t3.5 17.5q3 21 9 35t19 25t23 17t33 17l948 432q15 8 25 8.5t13.5 -5.5t4.5 -15.5t0 -21.5l-23 -166q-5 -31 -13.5 -43t-39.5 -29l-645 -287l559 -282q31 -19 37.5 -31.5t1.5 -44.5l-25 -154q-3 -12 -5.5 -19.5t-8 -14t-14 -5.5t-21.5 9 l-827 430q-37 18 -51.5 35.5t-10.5 42.5z" />
<glyph unicode="=" d="M170 399l23 162q5 24 12.5 31.5t30.5 7.5h892q23 0 28.5 -8.5t0.5 -32.5l-22 -156q-5 -25 -13 -35t-30 -10h-889q-39 0 -33 41zM231 827l21 158q5 26 13.5 34.5t31.5 8.5h889q23 0 28 -8t0 -35l-20 -158q-5 -25 -13 -34t-30 -9h-889q-23 0 -29.5 9.5t-1.5 33.5z" />
<glyph unicode="&#x3e;" d="M121 186l24 174q5 32 15 45.5t45 30.5l637 283l-563 285q-28 16 -33.5 30.5t0.5 42.5l20 146q3 14 5.5 22t8.5 15t15.5 6t23.5 -9l826 -432q25 -14 36 -22.5t18.5 -26.5t4.5 -45q-1 -1 -3 -17.5l-4 -33t-3 -16.5q-6 -26 -24.5 -43.5t-59.5 -34.5l-946 -430 q-31 -13 -39.5 -3.5t-3.5 33.5z" />
<glyph unicode="?" horiz-adv-x="1150" d="M217.5 1271.5q3.5 11.5 22.5 22.5q111 77 240.5 115.5t246.5 38.5q89 0 163.5 -16.5t137 -51t98 -95.5t35.5 -144q0 -59 -19 -113t-56 -101.5t-74 -83.5t-90 -79q-118 -100 -152 -137q-73 -77 -84 -148l-8 -47q-4 -23 -8.5 -27t-22.5 -4h-219q-22 0 -26.5 9t1.5 26l9 66 q7 59 31 111t65.5 97t74 73t83.5 67q74 60 114.5 112.5t40.5 110.5q0 47 -36 77t-109 30q-144 0 -320 -99q-20 -12 -31.5 -11.5t-21.5 17.5l-82 156q-7 17 -3.5 28.5zM309 117q0 84 63.5 145.5t147.5 61.5q64 0 110 -40.5t46 -111.5q0 -87 -61 -146t-148 -59q-68 0 -113 42 t-45 108z" />
<glyph unicode="@" horiz-adv-x="1951" d="M178 553q0 202 69 376t193.5 300t307 198t399.5 72q339 0 534 -179t195 -486q0 -135 -39.5 -249.5t-107 -192t-158.5 -121.5t-193 -44q-189 0 -235 119q-50 -42 -128.5 -69t-152.5 -27q-134 0 -207 85t-73 234q0 119 28 218t84.5 176t149.5 120t215 43q137 0 260 -36 q80 -23 65 -103q-20 -123 -65 -479q-6 -46 19 -72t81 -26q106 0 181 117.5t75 297.5q0 225 -139 355.5t-393 130.5q-146 0 -271 -40t-215 -110.5t-154 -165.5t-95 -206.5t-31 -231.5q0 -240 140.5 -387t393.5 -147q172 0 293 51q17 7 25 5t14 -16l47 -112q4 -16 -1 -24 t-25 -19q-71 -33 -172 -49.5t-183 -16.5q-178 0 -317.5 52t-229.5 147t-137 224.5t-47 287.5zM819 602q0 -149 125 -149q79 0 156 47q7 44 28.5 203t30.5 212q-63 13 -117 13q-101 0 -162 -85t-61 -241z" />
<glyph unicode="A" horiz-adv-x="1300" d="M-18 41l593 1284q30 67 63.5 89t96.5 24h121q69 0 97.5 -21t39.5 -92l234 -1284q1 -5 1 -9q0 -32 -32 -32h-227q-18 0 -27 1.5t-16.5 9t-10.5 22.5l-41 266h-452l-115 -260q-12 -23 -23 -31t-38 -8h-242q-26 0 -26 21q0 9 4 20zM526 553h312l-37 260l-31 293h-14 l-117 -293z" />
<glyph unicode="B" horiz-adv-x="1349" d="M115 125l168 1184q11 70 38.5 98.5t96.5 28.5h481q84 0 153 -18t123.5 -55t84.5 -99.5t30 -145.5q0 -110 -55 -194t-150 -129l-2 -15q174 -74 174 -297q0 -211 -153 -347t-387 -136h-500q-69 0 -91 28q-14 19 -15 55q0 19 4 42zM438 274h287q61 0 107 22t69.5 57t34 69 t10.5 67q0 70 -42.5 111t-125.5 41h-289zM524 891h269q28 0 55.5 7.5t55.5 24.5t45.5 51.5t17.5 80.5q0 50 -34.5 79t-92.5 29h-277z" />
<glyph unicode="C" horiz-adv-x="1277" d="M145 561q0 207 53.5 376t148.5 282t226.5 174t288.5 61q234 0 395 -88q21 -10 21 -26q0 -3 -1 -6q-1 -7 -13 -40l-60 -139q-12 -29 -25.5 -35.5t-39.5 4.5q-128 52 -271 52q-132 0 -223.5 -76t-134.5 -207t-43 -309q0 -160 63.5 -243t219.5 -83q60 0 126.5 14t94.5 24 t100 36q32 10 39 6t18 -31l68 -149q10 -30 5 -42.5t-27 -23.5q-212 -115 -484 -115q-545 0 -545 584z" />
<glyph unicode="D" horiz-adv-x="1384" d="M113 123l168 1186q11 67 39.5 96t97.5 29h364q146 0 253.5 -43.5t170 -123.5t92 -182t29.5 -229q0 -131 -23 -250.5t-77 -231.5t-134.5 -194t-205 -131t-279.5 -49h-391q-72 0 -92 30q-14 21 -14 59q0 16 2 34zM436 272h162q91 0 163.5 30.5t120 82t78.5 123.5t44.5 151 t13.5 168q0 78 -14 136t-47.5 104t-93.5 70t-146 24h-156q-76 -551 -125 -889z" />
<glyph unicode="E" horiz-adv-x="1216" d="M143 284v17q0 38 7 76l96 680q9 63 24 114.5t44.5 102.5t71.5 85.5t106.5 55.5t146.5 21h580q27 0 33 -10q4 -6 3 -18q0 -9 -2 -22l-24 -174q-5 -27 -14 -36t-33 -9h-490q-73 0 -105.5 -33.5t-39.5 -93.5l-23 -157h570q24 0 29.5 -9.5t0.5 -39.5l-22 -160 q-5 -26 -14 -36.5t-31 -10.5h-570l-32 -234q-3 -18 -2 -34q-1 -42 19 -62q28 -27 93 -27h537q26 0 32 -9t1 -40l-23 -174q-5 -26 -15 -36.5t-32 -10.5h-600q-73 0 -129 15t-91.5 41.5t-59.5 62.5t-32 77.5t-10 87.5z" />
<glyph unicode="F" horiz-adv-x="1175" d="M102 43l144 1014q52 379 407 379h578q26 0 33 -10q4 -6 4 -18q0 -9 -2 -22l-25 -174q-5 -26 -14.5 -35.5t-32.5 -9.5h-502q-73 0 -105.5 -33t-39.5 -94l-27 -188h563q25 0 30.5 -9t0.5 -40l-22 -160q-5 -26 -15 -36.5t-33 -10.5h-561l-80 -553q-5 -29 -12.5 -36t-38.5 -7 h-209q-25 0 -35 10q-7 7 -7 20q0 6 1 13z" />
<glyph unicode="G" horiz-adv-x="1374" d="M143 561q0 207 55.5 376.5t154 282t233 173.5t291.5 61q239 0 395 -88q12 -6 17 -11t4 -15.5t-3.5 -17.5t-11.5 -28l-59 -139q-10 -29 -24 -35.5t-40 4.5q-128 52 -272 52q-197 0 -307.5 -162t-110.5 -430q0 -160 63.5 -243t219.5 -83q121 0 208 31l58 436q6 43 53 43 h197q29 0 38 -9q5 -6 5 -18q0 -7 -2 -16l-70 -547q-4 -24 -7.5 -37.5t-16.5 -30t-35 -28.5q-76 -43 -179.5 -68.5t-169.5 -31t-127 -5.5q-557 0 -557 584z" />
<glyph unicode="H" horiz-adv-x="1441" d="M102 43l191 1348q4 24 15.5 33.5t35.5 9.5h211q29 0 37 -8.5t4 -34.5l-72 -510h537l74 510q4 25 15 34t36 9h209q30 0 38 -8q5 -5 5 -17q0 -8 -2 -18l-191 -1348q-5 -28 -13 -35.5t-38 -7.5h-209q-26 0 -35.5 9.5t-5.5 33.5l82 573h-539l-81 -573q-5 -27 -14 -35t-38 -8 h-211q-25 0 -35 10q-7 7 -7 20q0 6 1 13z" />
<glyph unicode="I" horiz-adv-x="653" d="M127 43l190 1348q4 24 16.5 33.5t37.5 9.5h211q29 0 37 -8q5 -6 5 -20q0 -7 -1 -15l-191 -1348q-5 -27 -13.5 -35t-37.5 -8h-211q-26 0 -36 10q-8 7 -8 21q0 5 1 12z" />
<glyph unicode="J" horiz-adv-x="1173" d="M15 102q0 11 12 37l75 168q10 21 22 23t28 -8q142 -66 290 -66q68 0 117.5 16t81 42.5t53.5 73.5t33.5 94.5t22.5 121.5l110 789q4 27 15.5 34t37.5 7h209q27 0 35 -7q5 -5 5 -18q0 -7 -1 -16l-121 -856q-14 -103 -36 -181t-64 -152t-102 -122t-152.5 -76.5t-212.5 -28.5 q-243 0 -438 105q-20 9 -20 20z" />
<glyph unicode="K" horiz-adv-x="1355" d="M102 43l191 1348q4 24 15.5 33.5t35.5 9.5h207q30 0 37.5 -7.5t3.5 -31.5l-78 -553l8 -4l219 243l291 314q24 24 43.5 31.5t59.5 7.5h256q20 0 24 -11q1 -2 1 -5q0 -10 -11 -23l-461 -482l340 -862q6 -15 6 -26q0 -25 -33 -25h-210h-31t-21.5 2t-19.5 7t-11.5 14 t-11.5 24l-235 627l-264 -275l-52 -356q-5 -29 -12.5 -36t-38.5 -7h-207q-25 0 -35 10q-7 7 -7 20q0 6 1 13z" />
<glyph unicode="L" horiz-adv-x="1146" d="M144 279q-1 10 -1 20q0 36 7 72l143 1024q9 43 51 43h211q29 0 37.5 -9t3.5 -34l-139 -994q-3 -19 -3 -35q0 -46 22 -68q28 -28 95 -28h506q23 0 29 -8q3 -5 4 -16q0 -8 -2 -21l-25 -182q-5 -24 -14 -33.5t-31 -9.5h-573q-71 0 -127 14.5t-91 40.5t-59.5 61t-33 76 t-10.5 87z" />
<glyph unicode="M" horiz-adv-x="1726" d="M102 41l177 1251q11 79 43.5 111.5t103.5 32.5h102q55 0 79 -20.5t42 -76.5l137 -495l86 -334h9l190 348l262 477q33 57 67 79t95 22h107q68 0 93 -28q18 -20 18 -65q0 -18 -3 -40l-178 -1262q-4 -28 -13.5 -34.5t-37.5 -6.5h-195q-27 0 -36 7t-5 34l119 840h-10 l-123 -236l-213 -387q-30 -55 -54 -72.5t-71 -17.5h-109q-50 0 -68 17t-32 73l-94 348l-68 250h-12l-115 -815q-4 -28 -13 -34.5t-36 -6.5h-203q-27 0 -36 7q-6 5 -6 19q0 7 1 15z" />
<glyph unicode="N" horiz-adv-x="1478" d="M102 43l177 1249q11 80 43.5 112t105.5 32h84q60 0 82.5 -16.5t52.5 -76.5l260 -587l125 -285h10l129 922q5 25 15 34t39 9h209q40 0 40 -33q0 -4 -1 -10l-177 -1252q-12 -72 -43 -106.5t-104 -34.5h-84q-60 0 -85 16.5t-50 73.5l-264 590l-123 285h-11l-129 -922 q-5 -27 -13.5 -35t-37.5 -8h-209q-25 0 -35 10q-7 7 -7 20q0 6 1 13z" />
<glyph unicode="O" horiz-adv-x="1449" d="M147 541q0 209 53 381t147.5 289t227 181t289.5 64q263 0 400 -151.5t137 -419.5q0 -195 -47.5 -360.5t-137.5 -287.5t-228 -191t-310 -69q-266 0 -398.5 145t-132.5 419zM461 561q0 -149 59 -226t191 -77q95 0 169.5 52.5t119 140.5t67.5 194.5t23 222.5q0 310 -252 310 q-92 0 -165.5 -53t-118.5 -141.5t-69 -197t-24 -225.5z" />
<glyph unicode="P" horiz-adv-x="1280" d="M102 43l181 1268q8 62 37.5 93.5t97.5 31.5h477q198 0 306 -110.5t108 -293.5q0 -38 -5.5 -78t-21.5 -91.5t-41.5 -98t-70.5 -92t-102.5 -78.5t-143 -53.5t-187.5 -20.5h-266l-68 -477q-4 -29 -12.5 -36t-38.5 -7h-209q-25 0 -35 10q-7 7 -7 20q0 6 1 13zM508 772h254 q108 0 169.5 64t61.5 165q0 66 -39 113t-133 47h-258z" />
<glyph unicode="Q" horiz-adv-x="1449" d="M147 541q0 209 53 381t147.5 289t227 181t289.5 64q263 0 400 -151.5t137 -419.5q0 -195 -47.5 -360.5t-137.5 -287.5t-228 -191t-310 -69q-266 0 -398.5 145t-132.5 419zM461 561q0 -149 59 -226t191 -77q95 0 169.5 52.5t119 140.5t67.5 194.5t23 222.5q0 310 -252 310 q-92 0 -165.5 -53t-118.5 -141.5t-69 -197t-24 -225.5zM532 -295l25 158q4 19 6 25t9 10t22 4h201q174 0 303 -41t196 -97q19 -14 19 -24q0 -9 -10 -25l-82 -141q-12 -18 -24 -19h-2q-12 0 -34 13q-175 98 -432 98h-170q-19 0 -24 8q-4 7 -4 20q0 5 1 11z" />
<glyph unicode="R" horiz-adv-x="1327" d="M102 43l181 1268q8 65 37 95t98 30h481q197 0 300.5 -96t103.5 -265q0 -146 -71 -249t-202 -158l-2 -6q79 -23 111.5 -72t44.5 -133l49 -410q6 -20 0 -33.5t-29 -13.5h-215q-13 0 -20 0.5t-18 2.5t-17.5 6t-12.5 12t-8 20l-36 362q-10 98 -58.5 138.5t-148.5 40.5h-187 l-75 -539q-4 -29 -13 -36t-39 -7h-213q-25 0 -35 10q-7 7 -7 20q0 6 1 13zM520 834h264q95 0 150 53t55 141q0 58 -34.5 95.5t-116.5 37.5h-273z" />
<glyph unicode="S" horiz-adv-x="1191" d="M52 132q0 12 11 36l78 164q12 24 24.5 28.5t35.5 -6.5q209 -96 385 -96q66 0 113.5 14t72 38t35 50.5t10.5 57.5q0 53 -41.5 88t-154.5 90q-104 50 -175.5 94.5t-128.5 98t-84.5 115t-27.5 134.5q0 194 135.5 307t382.5 113q116 0 230 -23.5t194 -66.5q23 -10 27 -24 q1 -4 1 -9q0 -14 -8 -37l-49 -153q-11 -28 -26 -33.5t-37 2.5q-198 66 -346 66q-91 0 -134 -36.5t-43 -92.5q0 -41 48 -80t163 -90q99 -44 165.5 -82.5t127 -92.5t90 -123t29.5 -155q0 -114 -43 -201.5t-120.5 -141.5t-179.5 -81t-226 -27q-144 0 -283 31.5t-235 97.5 q-16 12 -16 26z" />
<glyph unicode="T" horiz-adv-x="1140" d="M141 1208l27 183q5 27 12.5 35t30.5 8h1018q25 0 31 -8q4 -5 4 -18q0 -7 -2 -17l-27 -183q-5 -24 -13 -32.5t-30 -8.5h-361l-159 -1124q-5 -27 -13.5 -35t-37.5 -8h-213q-26 0 -35.5 9.5t-5.5 33.5l159 1124h-352q-22 1 -28 9q-5 6 -5 22v10z" />
<glyph unicode="U" horiz-adv-x="1425" d="M182 596l109 795q4 24 15.5 33.5t35.5 9.5h213q30 0 38 -8t3 -35l-115 -813q-9 -59 -9 -107q0 -45 8 -79q16 -74 80.5 -109t189.5 -35q139 0 211 16l159 1127q4 25 15 34t36 9h209q30 0 37 -8q4 -5 4 -16q0 -8 -2 -19l-170 -1192q-11 -78 -50 -126.5t-122 -70.5 q-106 -27 -344 -27q-120 0 -207.5 12.5t-157.5 42t-110.5 76.5t-65.5 116q-25 68 -25 158q0 92 15 216z" />
<glyph unicode="V" horiz-adv-x="1318" d="M172 1401v6q0 11 6 19q8 10 23 10h233q23 0 31.5 -8t13.5 -29l113 -694l49 -363h16l144 358l311 705q10 20 21.5 25.5t35.5 5.5h250q17 0 20 -12q1 -4 1 -8q0 -8 -4 -15l-609 -1292q-30 -66 -64 -87.5t-91 -21.5h-125q-64 0 -92 21t-41 90z" />
<glyph unicode="W" horiz-adv-x="1798" d="M174 1397q-1 9 -1 16q0 14 5 18q8 7 31 7h233q32 0 44.5 -8t13.5 -37l16 -594l10 -367h13l127 371l180 516q26 69 54.5 93t92.5 24h117q57 0 75 -23.5t23 -85.5l37 -539l23 -348h12l104 348l185 601q10 30 21 38.5t38 8.5h262q20 0 26 -8q2 -3 3 -8q0 -9 -6 -25 l-465 -1291q-27 -72 -56.5 -90t-93.5 -18h-108q-64 0 -89.5 20.5t-35.5 92.5l-39 544l-27 377h-8l-137 -377l-197 -544q-29 -69 -58.5 -91t-90.5 -22h-115q-27 0 -41 1t-32 6.5t-26.5 16t-15 30.5t-8.5 50z" />
<glyph unicode="X" horiz-adv-x="1226" d="M-34 14q-1 4 -1 8q0 10 8 19l521 704l-293 652q-9 12 -1.5 25.5t29.5 13.5h217q41 0 55.5 -8t24.5 -37l164 -400l273 400q19 29 35 37t57 8h243q22 0 26 -14q1 -3 0 -6q0 -11 -9 -21l-475 -647l323 -707q5 -15 -1.5 -28t-22.5 -13h-236q-36 0 -51.5 9t-28.5 38l-178 445 l-303 -445q-24 -30 -40 -38.5t-52 -8.5h-262q-18 0 -22 14z" />
<glyph unicode="Y" horiz-adv-x="1241" d="M164 1397q-2 5 -2 10q0 8 4 16q8 13 29 13h239q29 0 37.5 -9t15.5 -36l95 -285l84 -293h10l176 303l170 281q13 22 25.5 30.5t35.5 8.5h263q28 0 28 -17q0 -10 -8 -20l-569 -871l-68 -487q-5 -25 -12.5 -33t-32.5 -8h-219q-36 0 -36 31q0 5 1 10l66 483z" />
<glyph unicode="Z" horiz-adv-x="1249" d="M23 111l6 49q7 47 27.5 82t58.5 75l790 840v12h-604q-37 0 -31 43l25 179q4 29 12 37t31 8h868q67 0 90 -25q16 -17 16 -55q0 -16 -3 -37l-11 -68q-9 -72 -92 -159l-760 -811l3 -15h684q23 0 28 -8t0 -37l-26 -178q-5 -26 -12 -34.5t-27 -8.5h-973q-57 0 -82 26 q-20 20 -20 61q0 11 2 24z" />
<glyph unicode="[" horiz-adv-x="724" d="M78 -141l219 1573q6 43 49 43h432q16 0 20.5 -7t2.5 -26l-23 -156q-2 -18 -8.5 -24.5t-28.5 -6.5h-194l-170 -1220h196q19 0 24.5 -7t0.5 -24l-23 -154q-3 -34 -30 -34h-432q-41 0 -35 43z" />
<glyph unicode="\" horiz-adv-x="915" d="M190 1554q-6 19 4.5 29t30.5 10h166q27 0 36.5 -8t14.5 -29l379 -1714q9 -39 -35 -39h-161q-30 0 -42 7t-16 30z" />
<glyph unicode="]" horiz-adv-x="739" d="M57 -147l23 151q5 19 11 25t24 6h196l172 1220h-198q-18 0 -22.5 6.5t-2.5 24.5l21 152q5 24 11.5 30.5t26.5 6.5h429q42 0 32 -43l-221 -1573q-3 -43 -45 -43h-432q-18 0 -22.5 6.5t-2.5 30.5z" />
<glyph unicode="^" horiz-adv-x="1159" d="M134 785q-4 11 7 28l451 617q45 61 100 61h74q30 0 47 -7.5t22.5 -17.5t14.5 -34l278 -615q7 -18 -0.5 -29.5t-25.5 -11.5h-182q-45 0 -52 31l-168 405h-6l-278 -397q-17 -25 -31 -33t-39 -8h-190q-18 0 -22 11z" />
<glyph unicode="_" horiz-adv-x="993" d="M-121 -258l10 68q5 30 11 37.5t30 7.5h992q23 0 27 -8t-1 -37l-8 -68q-5 -26 -12 -34.5t-29 -8.5h-991q-22 0 -28 9.5t-1 33.5z" />
<glyph unicode="`" horiz-adv-x="1085" d="M341 1546.5q2 10.5 15 16.5l191 104q22 8 29 4.5t16 -18.5l215 -361q10 -21 7.5 -29t-17.5 -16l-92 -59q-26 -14 -48 8l-307 330q-11 10 -9 20.5z" />
<glyph unicode="a" horiz-adv-x="1189" d="M104 395q0 330 151.5 517.5t434.5 187.5q198 0 414 -56q32 -10 40 -26q4 -8 3 -18q0 -10 -4 -21q-74 -493 -121 -893q-3 -30 -31 -39q-199 -70 -434 -70q-453 0 -453 418zM403 426q0 -199 209 -199q65 0 142 25q46 363 84 582q-75 16 -162 16q-53 0 -100 -24.5 t-85.5 -73.5t-62 -132.5t-25.5 -193.5z" />
<glyph unicode="b" horiz-adv-x="1200" d="M94 82q-3 7 -3 15q0 10 3 22l189 1337q4 25 14 33t33 8h205q25 0 33.5 -8t4.5 -33l-57 -397q128 45 252 45q375 0 375 -430q0 -114 -22 -215.5t-70 -190t-118 -153t-172 -101.5t-226 -37q-253 0 -414 80q-21 11 -27 25zM403 252q67 -21 152 -21q124 0 205.5 106.5 t81.5 299.5q0 211 -170 211q-88 0 -189 -39z" />
<glyph unicode="c" horiz-adv-x="1017" d="M106 424q0 326 144.5 502t394.5 176q187 0 322 -66q18 -10 21 -22q1 -3 1 -7q0 -11 -6 -28l-57 -160q-4 -15 -13.5 -20t-19.5 -3.5t-31 7.5q-106 28 -200 28q-87 0 -145.5 -52.5t-83.5 -135t-25 -190.5q0 -209 186 -209q112 0 235 45q23 9 33.5 6t16.5 -25l55 -157 q8 -20 3 -33.5t-28 -24.5q-152 -78 -377 -78q-426 0 -426 447z" />
<glyph unicode="d" horiz-adv-x="1200" d="M104 418q0 203 63.5 356t193 241.5t309.5 88.5q100 0 209 -23l55 375q5 25 14 33t35 8h203q25 0 33 -8q5 -5 5 -18q0 -6 -1 -15l-185 -1335q-5 -26 -13 -38.5t-32 -23.5q-181 -82 -444 -82q-445 0 -445 441zM410 442q0 -109 49 -160t149 -51q79 0 156 23l80 571 q-81 23 -158 23q-40 0 -77 -12t-74 -41.5t-64 -74.5t-44 -116.5t-17 -161.5z" />
<glyph unicode="e" horiz-adv-x="1105" d="M102 395q0 174 43 310t120 222t180 130.5t227 44.5q199 0 300 -81t101 -226q0 -193 -122.5 -286t-383.5 -93q-90 0 -164 10q-3 -28 -3 -51q0 -67 28 -95q38 -38 154 -40q48 0 119.5 15t127.5 36q25 8 34 5t16 -20l63 -161q16 -28 -22 -49q-74 -45 -188.5 -67t-211.5 -22 q-199 0 -308.5 105.5t-109.5 312.5zM432 635q62 -4 88 -4q154 0 210 28.5t56 96.5q0 43 -30.5 70.5t-100.5 27.5q-81 0 -142.5 -54t-80.5 -165z" />
<glyph unicode="f" horiz-adv-x="804" d="M94 -385l172 1237h-147q-21 0 -24 9q-1 4 -1 9q0 7 2 17l17 117q2 20 9.5 28.5t29.5 14.5l145 32l16 117q46 322 355 322q145 0 245 -33q22 -7 25 -17q2 -3 2 -8q0 -7 -4 -18l-41 -170q-6 -19 -16.5 -23.5t-28.5 0.5q-77 15 -131 15q-61 0 -87.5 -25t-33.5 -72l-14 -92 h237q19 0 25 -6.5t2 -26.5l-21 -157q-5 -20 -11.5 -26.5t-29.5 -6.5h-233l-156 -1145q-4 -28 -14.5 -40t-30.5 -19l-215 -70q-9 -4 -16 -4q-10 0 -17 6q-11 8 -11 24q0 5 1 11z" />
<glyph unicode="g" horiz-adv-x="1200" d="M106 432q0 203 65.5 351t202 231.5t333.5 83.5q258 0 415 -78q23 -14 30 -28q4 -8 4 -21q0 -7 -1 -15l-137 -956q-15 -106 -46.5 -184.5t-88 -141.5t-147.5 -95t-216 -32q-93 0 -198 19t-181 47q-27 12 -31 24.5t5 28.5l51 162q10 23 20 26.5t39 -4.5q153 -49 264 -49 q88 0 135 21.5t70 68.5t37 142q-97 -31 -235 -31q-201 0 -295.5 113.5t-94.5 316.5zM406 461q0 -205 186 -205q96 0 176 27l74 540q-68 23 -148 23q-58 0 -107.5 -20t-91 -62.5t-65.5 -120t-24 -182.5z" />
<glyph unicode="h" horiz-adv-x="1210" d="M82 37l201 1421q6 39 45 39h204q26 0 33.5 -8t3.5 -31l-53 -387q103 33 252 33q211 0 297 -117q63 -86 63 -228q0 -51 -8 -110l-86 -612q-5 -25 -11.5 -31t-35.5 -6h-205q-25 0 -34 7.5t-5 29.5l82 573q7 53 7 95v29q-4 53 -42 83.5t-114 30.5q-39 0 -99 -8t-98 -19 l-108 -784q-4 -25 -12.5 -31t-34.5 -6h-205q-25 0 -33 8q-5 5 -5 16q0 6 1 13z" />
<glyph unicode="i" horiz-adv-x="620" d="M121 37l139 1001q4 23 13.5 30t33.5 7h203q29 0 36.5 -7t2.5 -30l-141 -1001q-5 -24 -12.5 -30.5t-35.5 -6.5h-202q-25 0 -33 8q-5 5 -5 16q0 6 1 13zM287 1329q0 81 57 139t133 58q63 0 104.5 -41.5t41.5 -104.5q0 -79 -60 -135.5t-133 -56.5q-63 0 -103 39.5t-40 101.5 z" />
<glyph unicode="j" horiz-adv-x="634" d="M-168 -264q-3 12 -3 21t3 15q7 10 31 21q77 31 126.5 64t80.5 77.5t47 94t28 125.5l123 884q4 23 13.5 30t33.5 7h209q26 0 32.5 -7t2.5 -30l-125 -882q-27 -194 -88.5 -316t-154.5 -186.5t-242 -104.5q-20 -6 -32 -6q-5 0 -9 1q-11 4 -17 22zM297 1329q0 81 57 139 t135 58q62 0 103 -41.5t41 -104.5q0 -80 -59.5 -136t-133.5 -56q-62 0 -102.5 40t-40.5 101z" />
<glyph unicode="k" horiz-adv-x="1095" d="M80 39l201 1421q4 23 13.5 30t33.5 7h207q27 0 32.5 -6.5t1.5 -30.5l-106 -760l6 -4l326 351q20 18 31.5 23t39.5 5h248q31 0 31 -16q0 -12 -17 -27l-311 -319l221 -672q3 -9 3 -16q0 -25 -35 -25h-215q-27 0 -39.5 8t-16.5 31l-139 455l-188 -193q-5 -26 -39 -262 q-5 -25 -12 -32t-35 -7h-203q-40 0 -40 30q0 4 1 9z" />
<glyph unicode="l" horiz-adv-x="655" d="M129 274l170 1184q3 19 9.5 27.5t13.5 10t26 1.5h199q25 0 34 -7.5t5 -29.5l-160 -1136q-2 -18 -3 -32q0 -26 8 -38q11 -18 54 -18q26 0 72 4q19 2 24.5 -2.5t6.5 -22.5l22 -166v-7q0 -14 -6 -21q-8 -9 -31 -15q-91 -29 -223 -29q-141 -1 -193 65q-36 45 -36 137 q0 43 8 95z" />
<glyph unicode="m" horiz-adv-x="1849" d="M82 37l123 874q11 74 42 113t105 57q35 7 126 14t151 7q239 0 352 -96q72 44 173.5 71t197.5 27q409 0 409 -388q0 -55 -8 -118l-80 -561q-5 -24 -12 -30.5t-33 -6.5h-205q-25 0 -33 7.5t-4 29.5l76 526q7 54 7 97q0 80 -23 123q-35 67 -162 67q-41 0 -100 -10.5 t-90 -26.5q10 -46 10 -101q0 -61 -12 -134l-76 -541q-5 -25 -12 -31t-35 -6h-205q-25 0 -34 7.5t-5 29.5l78 553q7 52 7 94q0 27 -3 50q-7 59 -53 90.5t-138 31.5q-84 0 -133 -10l-112 -809q-5 -24 -13 -30.5t-34 -6.5h-205q-25 0 -33 8q-5 5 -5 16q0 6 1 13z" />
<glyph unicode="n" horiz-adv-x="1210" d="M82 37l125 878q11 73 43.5 113t101.5 53q39 7 133.5 14t153.5 7q284 0 397 -122q83 -90 83 -268q0 -65 -11 -141l-74 -534q-5 -25 -12 -31t-35 -6h-205q-25 0 -34 7.5t-5 29.5l78 553q6 45 6 83q1 36 -5 65q-12 59 -60.5 88.5t-143.5 29.5q-78 0 -133 -10l-114 -809 q-5 -25 -12 -31t-35 -6h-203q-25 0 -34 8q-6 5 -6 17q0 5 1 12z" />
<glyph unicode="o" horiz-adv-x="1181" d="M102 401q0 331 160 516t422 185q219 0 329.5 -115.5t110.5 -333.5q0 -311 -154 -493.5t-429 -182.5q-220 0 -329.5 108.5t-109.5 315.5zM406 436q0 -104 40 -155.5t127 -51.5q82 0 139.5 59t84 151t26.5 206q0 205 -166 205q-120 0 -185.5 -114t-65.5 -300z" />
<glyph unicode="p" horiz-adv-x="1200" d="M23 -383l188 1335q5 25 14.5 38t34.5 26q190 82 436 82q99 0 175 -22.5t125.5 -62t81.5 -97.5t45.5 -124.5t13.5 -148.5q0 -111 -22 -210.5t-67.5 -182t-110.5 -142t-154 -93t-195 -33.5q-112 0 -219 24l-56 -389q-4 -23 -12.5 -29t-34.5 -6h-207q-25 0 -33 6q-4 5 -4 16 q0 5 1 13zM406 260q77 -22 159 -22q118 0 196.5 95.5t78.5 291.5q0 117 -51 167t-152 50q-83 0 -154 -23z" />
<glyph unicode="q" horiz-adv-x="1200" d="M104 410q0 341 154 514.5t444 173.5q257 0 418 -80q22 -11 28 -26q3 -7 3 -18q0 -8 -2 -18l-184 -1339q-5 -24 -13 -31.5t-32 -7.5h-209q-40 0 -37 39l55 393q-132 -33 -235 -33q-200 0 -295 116t-95 317zM408 449q0 -112 44.5 -162.5t133.5 -50.5q88 0 176 24l80 565 q-68 23 -148 23q-126 0 -206 -98.5t-80 -300.5z" />
<glyph unicode="r" horiz-adv-x="813" d="M104 43l113 815q8 53 14 80t18.5 57.5t31.5 45t50 27t77 19.5q167 17 320 17q57 0 112 -2q33 0 43 -10q6 -6 6 -21q0 -9 -2 -20l-33 -183q-4 -28 -18.5 -34.5t-40.5 0.5q-77 11 -289 24l-117 -815q-4 -28 -14.5 -35.5t-38.5 -7.5h-191q-25 0 -35 8q-7 6 -7 21q0 6 1 14z " />
<glyph unicode="s" horiz-adv-x="989" d="M46 100q0 10 9 31l62 139q10 23 22.5 27.5t32.5 -6.5q155 -70 297 -70q72 0 107.5 28t35.5 73q0 36 -36 63.5t-125 63.5q-141 60 -213 136.5t-72 182.5q0 156 108.5 245t307.5 89q204 0 338 -70q20 -10 22 -22v-2q0 -11 -10 -33l-49 -131q-10 -22 -22 -26t-30 5 q-146 47 -256 47q-58 0 -86 -28.5t-28 -59.5q0 -34 30.5 -56.5t118.5 -61.5q57 -24 97.5 -45t82 -51.5t66.5 -63.5t41 -79t16 -101q0 -172 -124 -259.5t-324 -87.5q-112 0 -221.5 25t-182.5 76q-15 12 -15 22z" />
<glyph unicode="t" horiz-adv-x="837" d="M104 895l17 111q3 13 4 17t5 10t10 8.5t18 5.5l151 34l41 191q6 24 17.5 35.5t33.5 17.5l193 61q7 2 13 2q11 0 17 -6q10 -8 5 -32l-39 -275h227q22 -1 28 -9q3 -5 3 -12q0 -6 -2 -14l-21 -145q-6 -28 -13 -34q-8 -5 -26 -5h-227l-72 -520q-2 -14 -2 -26q-1 -38 17 -56 q22 -23 84 -23q44 0 141 15q19 4 26 -2.5t9 -22.5l22 -168v-8.5v-8t-1.5 -6.5t-4 -7t-7.5 -5.5t-13 -5.5q-113 -35 -285 -35q-169 0 -237 73q-51 56 -51 156q0 31 5 66l82 584h-141q-21 0 -25 8q-3 6 -3 18q0 6 1 13z" />
<glyph unicode="u" horiz-adv-x="1191" d="M143 483l80 555q5 25 12 32t35 7h207q41 0 35 -39l-76 -549q-9 -62 -10 -109q0 -24 3 -44q7 -60 50.5 -87.5t136.5 -27.5q69 0 140 10l110 807q5 25 13 32t36 7h205q36 0 36 -30q0 -4 -1 -9l-123 -874q-11 -72 -43.5 -111.5t-101.5 -56.5q-48 -8 -140.5 -14.5 t-150.5 -6.5q-290 1 -392 115q-73 82 -73 247q0 66 12 146z" />
<glyph unicode="v" horiz-adv-x="1112" d="M125 1038q-2 8 -2 15q1 11 5 15q6 8 26 7h215q30 0 39 -6.5t14 -30.5l67 -420l46 -346h10l139 349l180 415q11 24 21.5 31.5t40.5 7.5h233q17 0 21 -8q1 -3 1 -6q0 -7 -5 -19l-443 -944q-31 -67 -62 -87.5t-89 -20.5h-150q-50 0 -76 22t-39 86z" />
<glyph unicode="w" horiz-adv-x="1574" d="M123 1040v5q0 19 6 25q7 8 27 7h221q20 0 27.5 -1.5t13 -8.5t6.5 -23l16 -387l9 -309h12l106 258l135 320q25 54 52 76t80 22h106q25 0 40.5 -6t25 -22t13.5 -28.5t11 -41.5l45 -316l37 -264h12l93 326l116 370q7 22 16 27.5t33 5.5l234 2q20 0 26 -7q2 -3 2 -8 q0 -8 -6 -22l-358 -940q-28 -66 -59 -88t-82 -22h-103q-58 0 -80 19t-34 87l-45 295l-39 279h-9l-124 -283l-130 -291q-32 -65 -59.5 -85.5t-81.5 -20.5h-110q-51 0 -76 22.5t-31 87.5z" />
<glyph unicode="x" horiz-adv-x="1038" d="M-36 12q-1 3 0 6q0 11 13 27l406 522l-231 471q-8 10 -2.5 23.5t24.5 13.5h223q29 0 41 -7.5t23 -31.5l106 -262l174 262q13 23 28.5 31t45.5 8h248q21 -1 23 -13q0 -2 1 -4q0 -10 -8 -18l-370 -469l264 -528q5 -12 5 -21q0 -22 -34 -22h-219q-29 0 -42 10t-24 35 l-129 313l-219 -313q-19 -25 -35 -35t-45 -10h-239q-24 0 -28 12z" />
<glyph unicode="y" horiz-adv-x="1110" d="M-37 -385q-1 3 -1 7q0 9 5 26l43 155q7 24 18 27.5t35 -4.5q93 -27 148 -27q66 0 100.5 26t71.5 103l51 111h-47q-45 0 -63.5 17t-28.5 71l-170 909q-10 39 29 39h221q30 0 40 -7t11 -30l55 -413l45 -357h13l151 363l172 403q11 25 21.5 33t38.5 8h247q24 0 24 -14 q0 -7 -7 -19l-572 -1228q-64 -136 -146 -198t-218 -62q-127 0 -254 43q-29 10 -33 18z" />
<glyph unicode="z" horiz-adv-x="1001" d="M4 88l10 62q11 73 64 126l547 553l-4 9h-424q-23 0 -29.5 8t-1.5 31l22 159q5 24 12.5 31.5t30.5 7.5h699q54 -1 74 -17q16 -13 15 -44q0 -9 -1 -21l-10 -71q-10 -69 -58 -117l-544 -553l4 -10h491q23 0 29 -7t2 -30l-21 -166q-5 -24 -12 -31.5t-29 -7.5h-780 q-87 0 -87 72q0 8 1 16z" />
<glyph unicode="{" horiz-adv-x="833" d="M164 602l18 119q4 32 33 41q62 14 90 44.5t41 104.5l35 201q12 70 24 116t33.5 93t52 74.5t76.5 49t111.5 28t152.5 0.5q34 -3 31 -27l-18 -150q-1 -22 -9 -29.5t-26 -9.5q-86 -4 -119.5 -46.5t-46.5 -133.5l-31 -194q-27 -169 -174 -226l-2 -6q48 -20 74 -48.5 t37.5 -79.5t-2.5 -126l-31 -227q-9 -66 16.5 -103t120.5 -51q16 -1 20.5 -6t2.5 -16l-23 -162q-3 -29 -28 -29q-431 9 -377 402l26 201q10 82 -9 115t-75 44q-27 9 -24 37z" />
<glyph unicode="|" horiz-adv-x="548" d="M221 -295v1872q0 43 41 43h158q28 0 35.5 -8.5t7.5 -34.5v-1872q0 -26 -7.5 -34.5t-35.5 -8.5h-158q-41 0 -41 43z" />
<glyph unicode="}" horiz-adv-x="833" d="M72 -162l18 156q2 37 35 37q37 2 64 11.5t44 23.5t28.5 38t18 48.5t11.5 60.5l35 236q27 172 174 223l2 8q-72 27 -99 84.5t-10 169.5l29 186q4 27 1 51.5t-14.5 43.5t-42.5 34t-83 23q-17 4 -21 8.5t-2 15.5l23 156q3 29 28 29q216 -1 310 -104.5t67 -295.5l-24 -159 q-10 -82 9 -115.5t75 -44.5q18 -5 23 -13t1 -26l-16 -117q-4 -34 -33 -41q-62 -14 -90.5 -46t-40.5 -105l-39 -242q-13 -75 -29.5 -127.5t-49 -102.5t-79 -78t-120.5 -42.5t-173 -7.5q-17 0 -24.5 6t-5.5 18z" />
<glyph unicode="~" d="M176 551q-18 15 4 41q143 184 324 184q49 0 105 -19t97 -41.5t89.5 -41.5t85.5 -19q43 0 75 21.5t84 73.5q21 24 43 8l105 -88q18 -18 0 -45q-144 -193 -330 -193q-49 0 -104 18t-95.5 39.5t-89.5 39.5t-86 18q-47 0 -82 -17t-77 -59q-29 -26 -45 -10z" />
<glyph unicode="&#xa1;" horiz-adv-x="598" d="M53 -328l166 879q5 25 16.5 34t40.5 9h119q42 0 39 -39l-80 -883q-2 -22 -12.5 -34.5t-38.5 -12.5h-209q-51 0 -41 47zM197 874q0 83 62.5 144t143.5 61q68 0 112 -42.5t44 -108.5q0 -83 -63 -144t-144 -61q-66 0 -110.5 42.5t-44.5 108.5z" />
<glyph unicode="&#xa2;" horiz-adv-x="1296" d="M205 424q0 326 144 502t394 176h2l25 166q4 18 11 23t22 5h61q18 0 22.5 -5t0.5 -23l-25 -174q107 -14 203 -58q18 -10 21 -21.5t-5 -35.5l-57 -162q-4 -15 -13 -20t-19 -3.5t-31 7.5q-57 17 -136 28l-82 -583q73 6 185 43q23 9 33 6t16 -25l55 -157q8 -19 3.5 -33 t-27.5 -25q-125 -64 -301 -75l-25 -175q-5 -19 -9.5 -23.5t-21.5 -4.5h-61q-16 0 -22.5 5.5t-2.5 22.5l25 175q-385 21 -385 444zM506 453q0 -173 121 -203l82 579q-103 -24 -153 -125.5t-50 -250.5z" />
<glyph unicode="&#xa3;" d="M121 80l8 59q6 40 21 65.5t53 61.5q79 66 110 141.5t43 184.5h-133q-23 0 -28.5 7t-1.5 30l16 112q5 25 12 33t29 8h108q-10 78 -10 154q0 231 133.5 345t374.5 114q99 0 197 -23t166 -61q19 -11 20 -23t-12 -47l-51 -127q-12 -29 -24.5 -33.5t-41.5 6.5q-116 46 -231 46 q-50 0 -87 -11.5t-60.5 -33.5t-38 -53t-20.5 -70t-7.5 -85t0.5 -98h311q24 0 28.5 -6t0.5 -35l-17 -112q-5 -23 -12 -30t-27 -7h-297q-5 -54 -10 -83.5t-17.5 -82.5t-36.5 -96t-59 -78h564q25 0 30.5 -6.5t1.5 -34.5l-24 -174q-5 -24 -11.5 -30.5t-29.5 -6.5h-850 q-45 0 -70.5 20.5t-19.5 59.5z" />
<glyph unicode="&#xa5;" d="M149 397.5q-5 8.5 1 28.5l14 90q1 3 2.5 9.5t2 9t2 6.5t3.5 5.5t5.5 3.5t8 2.5t11.5 0.5h964q22 0 26.5 -9t-1.5 -28l-14 -90q-1 -4 -2.5 -11.5l-2 -10t-2.5 -7t-5 -5.5t-8 -2t-13 -1h-336l-49 -354q-5 -24 -12.5 -29.5t-36.5 -5.5h-211q-41 0 -35 35l51 354h-336 q-22 0 -27 8.5zM186.5 659.5q-4.5 8.5 1.5 28.5l13 90q1 15 3 21.5t9.5 11t22.5 4.5h174l-187 524q-5 12 3.5 24.5t29.5 12.5h236q28 0 37.5 -7.5t15.5 -31.5l82 -282l71 -275h11l147 277l160 284q11 19 23.5 27t35.5 8h252q26 0 26.5 -12.5t-10.5 -24.5l-327 -524h186 q19 0 24 -9t-1 -28l-13 -90q-1 -4 -2 -10.5t-2 -9t-2.5 -6.5t-3 -5t-5 -3t-8 -2.5t-11.5 -0.5h-965q-22 0 -26.5 8.5z" />
<glyph unicode="&#xa7;" horiz-adv-x="1236" d="M142 -155.5q-1 10.5 10 30.5l57 133q11 21 18.5 24t28.5 -7q119 -52 217 -52q92 0 133 33.5t41 81.5q0 73 -139 191q-72 62 -118.5 107t-93.5 101.5t-70 112t-23 111.5q0 89 53 174.5t152 138.5q-43 71 -43 158q0 151 109.5 237t316.5 86q199 0 319 -61 q18 -10 19.5 -20.5t-9.5 -34.5l-49 -127q-11 -24 -19.5 -27.5t-31.5 6.5q-115 43 -211 43q-158 0 -158 -102q0 -10 2.5 -21t6 -20t11.5 -21.5t13.5 -20.5t17.5 -21.5t19 -21t22 -22.5t22 -21.5t24.5 -23t23.5 -22.5q56 -54 83.5 -82t69 -72.5t61.5 -73t42 -65t30.5 -69.5 t8.5 -68q0 -80 -54.5 -162t-146.5 -139q43 -76 43 -162q-2 -62 -30 -119t-80.5 -104.5t-140.5 -76t-201 -28.5q-206 0 -342 78q-13 10 -14 20.5zM479 750q0 -41 46.5 -102.5t150.5 -166.5q69 -69 100 -96q53 45 53 115q0 12 -2.5 24.5t-9 26.5t-12 25t-18 27t-20.5 26.5 t-26 30t-28 30.5t-32.5 34.5t-33.5 35.5q-81 77 -106 106q-26 -20 -44 -51t-18 -65z" />
<glyph unicode="&#xa8;" horiz-adv-x="1122" d="M377 1343q0 67 53 120t117 53q54 0 91.5 -38.5t37.5 -95.5q0 -64 -54.5 -116t-117.5 -52q-54 0 -90.5 37.5t-36.5 91.5zM784 1343q0 67 53 120t119 53q54 0 90.5 -38t36.5 -94q0 -65 -53.5 -117.5t-116.5 -52.5q-55 0 -92 37.5t-37 91.5z" />
<glyph unicode="&#xa9;" horiz-adv-x="1712" d="M174 717q0 207 97 376.5t267.5 266t379.5 96.5q157 0 295 -57t237 -155t156 -235t57 -292q0 -207 -97 -376.5t-268 -266.5t-380 -97t-379.5 97t-267.5 266.5t-97 376.5zM319 717q0 -173 77.5 -310.5t214.5 -213.5t307 -76t306.5 76t214 213.5t77.5 310.5 q0 170 -77.5 306.5t-214 214t-306.5 77.5q-127 0 -238.5 -45.5t-190.5 -124.5t-124.5 -190t-45.5 -238zM530 702q0 204 109.5 330.5t286.5 126.5q90 0 169.5 -35.5t123.5 -91.5q9 -19 8 -22t-15 -17l-61 -65l-10 -10t-8.5 -4.5t-12.5 1t-14 11.5q-83 73 -178 73 q-103 0 -156 -79t-53 -218q0 -134 53 -213t154 -79q98 0 172 71q7 7 12 10.5t8 5.5t7.5 0.5l6 -2t8 -6.5t9.5 -8l72 -65q19 -16 0 -39q-45 -53 -124.5 -91t-168.5 -38q-180 0 -289 127.5t-109 326.5z" />
<glyph unicode="&#xaa;" horiz-adv-x="821" d="M121 813q0 461 424 461q144 0 266 -31q20 -7 29.5 -15.5t10 -18.5t-0.5 -23q-5 -41 -40 -284t-40 -284q-5 -18 -10 -24.5t-23 -13.5q-121 -52 -309 -52q-164 0 -235.5 73.5t-71.5 211.5zM358 844q0 -65 28 -94t89 -29q28 0 90 12q21 172 49 342q-41 10 -86 10 q-75 0 -122.5 -58t-47.5 -183z" />
<glyph unicode="&#xab;" horiz-adv-x="1144" d="M135 520q8 42 45 92l219 306q22 28 40 37.5t57 9.5h182q19 0 23 -13t-9 -32l-286 -402l188 -416q10 -22 0 -33.5t-35 -11.5h-180q-40 0 -54 9t-26 34l-143 332q-28 61 -21 88zM555 520q7 38 47 92l219 306q20 28 38 37.5t59 9.5h180q20 0 24 -13t-10 -32l-287 -402 l189 -416q20 -45 -33 -45h-184q-39 0 -53 9t-25 34l-144 332q-27 59 -20 88z" />
<glyph unicode="&#xac;" d="M180 625l23 157q4 28 13.5 36.5t33.5 8.5h926q24 0 31 -8.5t3 -36.5l-77 -557q-5 -25 -13.5 -33t-36.5 -8h-163q-41 0 -35 41l49 357h-719q-24 0 -31.5 9.5t-3.5 33.5z" />
<glyph unicode="&#xad;" horiz-adv-x="788" d="M117 514l26 184q5 27 12 35t29 8h506q23 0 29 -8.5t2 -34.5l-27 -184q-6 -43 -41 -43h-506q-36 0 -30 43z" />
<glyph unicode="&#xae;" horiz-adv-x="1191" d="M170 979q0 136 65.5 247.5t178.5 174.5t248 63q206 0 344.5 -139.5t138.5 -345.5q0 -133 -66 -243t-177.5 -172t-244.5 -62q-209 0 -348 136.5t-139 340.5zM281 981q0 -161 108 -271t268 -110q161 0 268 108t107 273q0 162 -108 272.5t-267 110.5t-267.5 -110.5 t-108.5 -272.5zM457 737v469q0 51 53 51h180q85 0 130.5 -43t45.5 -116q0 -42 -21.5 -78t-58.5 -53v-2q52 -17 66 -78l39 -148q4 -20 -12 -20h-88q-9 0 -13 0.5t-8.5 4.5t-7.5 13q-3 11 -17.5 63.5t-17.5 67.5q-15 66 -80 66h-67v-197q0 -12 -4 -15t-17 -3h-84q-18 0 -18 18 zM580 1032h98q31 0 48 16t17 42q0 59 -63 59h-100v-117z" />
<glyph unicode="&#xaf;" horiz-adv-x="788" d="M211 1237l18 123q4 28 13 35.5t34 7.5h537q24 0 30.5 -7.5t2.5 -35.5l-19 -123q-6 -43 -45 -43h-536q-41 0 -35 43z" />
<glyph unicode="&#xb0;" horiz-adv-x="944" d="M199 1104q0 143 97.5 238.5t244.5 95.5q143 0 242.5 -96t99.5 -238q0 -147 -98.5 -241.5t-245.5 -94.5q-146 0 -243 94.5t-97 241.5zM375 1104q0 -77 46.5 -125.5t119.5 -48.5q74 0 121 48t47 126q0 74 -47.5 121t-120.5 47q-72 0 -119 -47.5t-47 -120.5z" />
<glyph unicode="&#xb1;" d="M98 39l25 166q4 26 12.5 33.5t32.5 7.5h922q24 0 31 -8t3 -33l-24 -166q-6 -41 -47 -41h-920q-23 0 -30 8.5t-5 32.5zM201 754l22 159q4 28 13.5 36.5t33.5 8.5h330l49 355q6 43 45 43h185q28 0 34.5 -8.5t1.5 -34.5l-49 -355h330q24 0 31.5 -8.5t3.5 -36.5l-23 -159 q-6 -43 -49 -43h-328l-49 -355q-5 -27 -13 -35t-36 -8h-182q-43 0 -37 43l49 355h-330q-38 0 -32 43z" />
<glyph unicode="&#xb4;" horiz-adv-x="1044" d="M469 1251q32 61 93.5 179t92.5 178q18 34 47 24l201 -53q32 -8 12 -37q-48 -58 -142 -175.5t-142 -176.5q-13 -19 -21.5 -22t-25.5 3q-18 7 -53 19.5t-52 19.5q-28 9 -10 41z" />
<glyph unicode="&#xb6;" horiz-adv-x="1159" d="M174 995q0 203 123.5 323t314.5 120h170q16 0 20.5 -6t4.5 -25l-100 -719q-5 -19 -11.5 -25t-23.5 -6h-170q-160 0 -244 93t-84 245zM420 -291l2 158q0 32 33 35q77 8 128 27t81 50.5t44.5 68.5t22.5 93l178 1268q6 29 37 29h172q33 0 33 -29l-184 -1298 q-33 -222 -151.5 -320t-362.5 -110h-5h-5h-4.5t-4.5 0.5t-3.5 1.5t-3.5 2.5t-2.5 3.5t-2 5t-1.5 6.5t-1 8.5z" />
<glyph unicode="&#xb7;" horiz-adv-x="587" d="M141 573q0 86 63.5 148.5t147.5 62.5q71 0 116.5 -44t45.5 -111q0 -86 -64 -148.5t-149 -62.5q-69 0 -114.5 44t-45.5 111z" />
<glyph unicode="&#xb8;" horiz-adv-x="1024" d="M178 -458.5q-2 8.5 6 28.5l29 74q10 21 17 24t20 -4q79 -29 141 -29q107 0 115 72q3 62 -109 62q-51 0 -57 4q-4 3 -8 8q-18 15 8 61l111 215q1 1 4 5t5 6t6.5 4t10.5 2h92q15 0 15 -7t-4 -12l-86 -166q231 -12 231 -188q0 -89 -80.5 -154t-220.5 -65q-60 0 -126 13.5 t-105 31.5q-13 6 -15 14.5z" />
<glyph unicode="&#xba;" horiz-adv-x="815" d="M121 821q0 215 110 334t291 119q158 0 238 -79t80 -228q0 -202 -108 -320.5t-294 -118.5q-159 0 -238 75t-79 218zM354 842q0 -61 24 -91t77 -30q71 0 112 68t41 169q0 123 -100 123q-72 0 -113 -65t-41 -174z" />
<glyph unicode="&#xbb;" horiz-adv-x="1144" d="M61 102l301 416l-174 402q-7 18 2.5 31.5t28.5 13.5h182q39 0 54 -9.5t26 -37.5l135 -306q25 -56 19 -92q-10 -40 -45 -88l-238 -332q-19 -26 -35 -34.5t-55 -8.5h-184q-53 0 -17 45zM481 102l303 416l-174 402q-10 19 -0.5 32t29.5 13h182q39 0 54 -9.5t26 -37.5 l137 -306q1 -4 6 -18t6 -18l4.5 -18t2 -18.5t-1.5 -19.5q-11 -44 -43 -88l-240 -332q-19 -25 -36 -34t-56 -9h-180q-52 0 -19 45z" />
<glyph unicode="&#xbf;" horiz-adv-x="1085" d="M43 -109q0 201 238 394q7 6 36 29.5t37.5 31t33 28.5t33.5 31t27.5 29.5t26.5 32.5t19 31t16 35.5t8 35.5l8 47q5 21 8.5 25t20.5 4h221q21 0 25 -6.5t2 -26.5l-10 -65q-7 -58 -29 -107.5t-61.5 -93t-68.5 -69t-79 -64.5q-4 -3 -6.5 -5t-5.5 -4.5t-6 -4.5 q-74 -61 -114 -113.5t-40 -112.5q0 -110 141 -110q133 0 307 98q40 22 52 -6l82 -156q7 -17 3.5 -28.5t-22.5 -22.5q-107 -74 -236.5 -111.5t-244.5 -37.5q-87 0 -161 16.5t-133.5 50.5t-93.5 91.5t-34 133.5zM526 874q0 87 62 146t149 59q68 0 113 -41t45 -106 q0 -85 -64 -147t-147 -62q-64 0 -111 40.5t-47 110.5z" />
<glyph unicode="&#xc0;" horiz-adv-x="1300" d="M-18 41l593 1284q30 67 63.5 89t96.5 24h121q69 0 97.5 -21t39.5 -92l234 -1284q5 -41 -31 -41h-227q-18 0 -27 1.5t-16.5 9t-10.5 22.5l-41 266h-452l-115 -260q-12 -23 -23 -31t-38 -8h-242q-36 0 -22 41zM475 1794l133 145q18 11 27 10t20 -12l316 -295 q16 -19 16 -26.5t-12 -20.5l-72 -82q-11 -12 -20.5 -13t-26.5 9l-377 244q-25 14 -4 41zM526 553h312l-37 260l-31 293h-14l-117 -293z" />
<glyph unicode="&#xc1;" horiz-adv-x="1300" d="M-18 41l593 1284q30 67 63.5 89t96.5 24h121q69 0 97.5 -21t39.5 -92l234 -1284q5 -41 -31 -41h-227q-18 0 -27 1.5t-16.5 9t-10.5 22.5l-41 266h-452l-115 -260q-12 -23 -23 -31t-38 -8h-242q-36 0 -22 41zM526 553h312l-37 260l-31 293h-14l-117 -293zM675 1631.5 q0 9.5 17 25.5l346 256q14 12 22 13t27 -15l115 -160q10 -12 6.5 -23t-16.5 -16l-401 -201q-17 -8 -27.5 -6t-20.5 15l-59 90q-9 12 -9 21.5z" />
<glyph unicode="&#xc2;" horiz-adv-x="1300" d="M-18 41l593 1284q30 67 63.5 89t96.5 24h121q69 0 97.5 -21t39.5 -92l234 -1284q5 -41 -31 -41h-227q-18 0 -27 1.5t-16.5 9t-10.5 22.5l-41 266h-452l-115 -260q-12 -23 -23 -31t-38 -8h-242q-36 0 -22 41zM432 1579q-20 23 6 49l287 232q77 57 127 57q35 0 61.5 -13 t59.5 -44l227 -232q16 -15 13.5 -24.5t-21.5 -28.5l-57 -59q-18 -23 -56 2l-260 155l-293 -153q-19 -12 -27 -12t-22 16zM526 553h312l-37 260l-31 293h-14l-117 -293z" />
<glyph unicode="&#xc3;" horiz-adv-x="1300" d="M-18 41l593 1284q30 67 63.5 89t96.5 24h121q69 0 97.5 -21t39.5 -92l234 -1284q5 -41 -31 -41h-227q-18 0 -27 1.5t-16.5 9t-10.5 22.5l-41 266h-452l-115 -260q-12 -23 -23 -31t-38 -8h-242q-36 0 -22 41zM384.5 1602q-1.5 8 10.5 26q111 178 269 178q52 0 131 -41 t120 -41q48 0 105 72q4 4 8.5 9.5t5.5 8t4.5 4.5t4 2.5t4 0t6 -1.5t8.5 -4l92 -41q20 -11 22.5 -17.5t-6.5 -30.5q-95 -194 -262 -194q-49 0 -134 40t-128 40q-51 0 -104 -62q-15 -19 -24 -22t-30 8l-79 47q-22 11 -23.5 19zM526 553h312l-37 260l-31 293h-14l-117 -293z " />
<glyph unicode="&#xc4;" horiz-adv-x="1300" d="M-18 41l593 1284q30 67 63.5 89t96.5 24h121q69 0 97.5 -21t39.5 -92l234 -1284q5 -41 -31 -41h-227q-18 0 -27 1.5t-16.5 9t-10.5 22.5l-41 266h-452l-115 -260q-12 -23 -23 -31t-38 -8h-242q-36 0 -22 41zM436 1642q0 67 53 120t117 53q54 0 91.5 -38.5t37.5 -95.5 q0 -64 -54.5 -116t-117.5 -52q-54 0 -90.5 37.5t-36.5 91.5zM526 553h312l-37 260l-31 293h-14l-117 -293zM844 1642q0 67 53 120t119 53q54 0 90.5 -38t36.5 -94q0 -65 -53.5 -117.5t-116.5 -52.5q-55 0 -92 37.5t-37 91.5z" />
<glyph unicode="&#xc5;" horiz-adv-x="1300" d="M-18 41l593 1284q30 67 63.5 89t96.5 24h121q69 0 97.5 -21t39.5 -92l234 -1284q5 -41 -31 -41h-227q-18 0 -27 1.5t-16.5 9t-10.5 22.5l-41 266h-452l-115 -260q-12 -23 -23 -31t-38 -8h-242q-36 0 -22 41zM526 553h312l-37 260l-31 293h-14l-117 -293zM582 1669 q0 118 82 199.5t198 81.5q97 0 156 -56.5t59 -148.5q0 -116 -85 -197.5t-197 -81.5q-97 0 -155 55.5t-58 147.5zM733 1688q0 -37 21.5 -59.5t58.5 -22.5q46 0 80.5 33t34.5 85q0 37 -23.5 60.5t-60.5 23.5q-48 0 -79.5 -33.5t-31.5 -86.5z" />
<glyph unicode="&#xc6;" horiz-adv-x="1837" d="M-19.5 10.5q-5.5 10.5 5.5 30.5l520 1108q74 156 178.5 221.5t265.5 65.5h893q23 0 28 -8t1 -37l-25 -183q-5 -25 -12 -33t-29 -8h-446q-75 0 -110.5 -35t-43.5 -98l-20 -151h543q23 0 27 -8t-1 -37l-24 -168q-5 -26 -12 -34.5t-29 -8.5h-541l-31 -228 q-10 -70 18.5 -99.5t96.5 -29.5h516q24 0 29.5 -8t1.5 -37l-25 -182q-5 -25 -13 -34t-30 -9h-600q-173 0 -241.5 79t-63.5 222h-385l-121 -262q-8 -21 -20 -30t-37 -9h-240q-18 0 -23.5 10.5zM526 545h312l69 514q10 76 35 125q-69 0 -109.5 -26t-66.5 -73l-96 -217z" />
<glyph unicode="&#xc7;" horiz-adv-x="1277" d="M145 561q0 207 53.5 376t148.5 282t226.5 174t288.5 61q234 0 395 -88q24 -12 20 -32q-1 -7 -13 -40l-60 -139q-12 -29 -25.5 -35.5t-39.5 4.5q-128 52 -271 52q-132 0 -223.5 -76t-134.5 -207t-43 -309q0 -160 63.5 -243t219.5 -83q60 0 126.5 14t94.5 24t100 36 q32 10 39 6t18 -31l68 -149q10 -30 5 -42.5t-27 -23.5q-191 -104 -453 -115l-45 -88q231 -12 231 -188q0 -89 -80.5 -154t-220.5 -65q-60 0 -126 13.5t-105 31.5q-13 6 -14.5 14.5t6.5 28.5l28 74q10 21 17 24t20 -4q79 -29 141 -29q107 0 115 72q3 62 -108 62h-16 q-38 0 -46 7l-4 5q-18 15 8 61l72 142q-449 47 -449 577z" />
<glyph unicode="&#xc8;" horiz-adv-x="1216" d="M143 284q-2 46 7 93l96 680q9 63 24 114.5t44.5 102.5t71.5 85.5t106.5 55.5t146.5 21h580q26 0 32.5 -10t1.5 -40l-24 -174q-5 -27 -14 -36t-33 -9h-490q-73 0 -105.5 -33.5t-39.5 -93.5l-23 -157h570q24 0 29.5 -9.5t0.5 -39.5l-22 -160q-5 -26 -14 -36.5t-31 -10.5 h-570l-32 -234q-10 -69 17.5 -96t92.5 -27h537q26 0 32 -9t1 -40l-23 -174q-5 -26 -15 -36.5t-32 -10.5h-600q-73 0 -129 15t-91.5 41.5t-59.5 62.5t-32 77.5t-10 87.5zM530 1794l134 145q18 11 27 10t20 -12l315 -295q16 -19 16 -26.5t-12 -20.5l-72 -82q-11 -12 -20.5 -13 t-26.5 9l-376 244q-26 14 -5 41z" />
<glyph unicode="&#xc9;" horiz-adv-x="1216" d="M143 284q-2 46 7 93l96 680q9 63 24 114.5t44.5 102.5t71.5 85.5t106.5 55.5t146.5 21h580q26 0 32.5 -10t1.5 -40l-24 -174q-5 -27 -14 -36t-33 -9h-490q-73 0 -105.5 -33.5t-39.5 -93.5l-23 -157h570q24 0 29.5 -9.5t0.5 -39.5l-22 -160q-5 -26 -14 -36.5t-31 -10.5 h-570l-32 -234q-10 -69 17.5 -96t92.5 -27h537q26 0 32 -9t1 -40l-23 -174q-5 -26 -15 -36.5t-32 -10.5h-600q-73 0 -129 15t-91.5 41.5t-59.5 62.5t-32 77.5t-10 87.5zM683 1631.5q0 9.5 17 25.5l347 256q14 12 22 13t27 -15l114 -160q10 -12 6.5 -23t-16.5 -16l-401 -201 q-17 -8 -27 -6t-20 15l-60 90q-9 12 -9 21.5z" />
<glyph unicode="&#xca;" horiz-adv-x="1216" d="M143 284q-2 46 7 93l96 680q9 63 24 114.5t44.5 102.5t71.5 85.5t106.5 55.5t146.5 21h580q26 0 32.5 -10t1.5 -40l-24 -174q-5 -27 -14 -36t-33 -9h-490q-73 0 -105.5 -33.5t-39.5 -93.5l-23 -157h570q24 0 29.5 -9.5t0.5 -39.5l-22 -160q-5 -26 -14 -36.5t-31 -10.5 h-570l-32 -234q-10 -69 17.5 -96t92.5 -27h537q26 0 32 -9t1 -40l-23 -174q-5 -26 -15 -36.5t-32 -10.5h-600q-73 0 -129 15t-91.5 41.5t-59.5 62.5t-32 77.5t-10 87.5zM481 1579q-20 23 6 49l287 232q77 57 127 57q35 0 61.5 -13t59.5 -44l227 -232q16 -15 13.5 -24.5 t-21.5 -28.5l-57 -59q-18 -23 -56 2l-260 155l-293 -153q-19 -12 -27 -12t-22 16z" />
<glyph unicode="&#xcb;" horiz-adv-x="1216" d="M143 284q-2 46 7 93l96 680q9 63 24 114.5t44.5 102.5t71.5 85.5t106.5 55.5t146.5 21h580q26 0 32.5 -10t1.5 -40l-24 -174q-5 -27 -14 -36t-33 -9h-490q-73 0 -105.5 -33.5t-39.5 -93.5l-23 -157h570q24 0 29.5 -9.5t0.5 -39.5l-22 -160q-5 -26 -14 -36.5t-31 -10.5 h-570l-32 -234q-10 -69 17.5 -96t92.5 -27h537q26 0 32 -9t1 -40l-23 -174q-5 -26 -15 -36.5t-32 -10.5h-600q-73 0 -129 15t-91.5 41.5t-59.5 62.5t-32 77.5t-10 87.5zM494 1642q0 67 53 120t117 53q54 0 91.5 -38.5t37.5 -95.5q0 -64 -54.5 -116t-117.5 -52 q-54 0 -90.5 37.5t-36.5 91.5zM901 1642q0 67 53 120t119 53q54 0 90.5 -38t36.5 -94q0 -65 -53.5 -117.5t-116.5 -52.5q-55 0 -92 37.5t-37 91.5z" />
<glyph unicode="&#xcc;" horiz-adv-x="653" d="M125 1794l133 145q18 11 27 10t20 -12l316 -295q16 -19 16 -26.5t-12 -20.5l-72 -82q-11 -12 -20.5 -13t-26.5 9l-377 244q-25 14 -4 41zM127 43l190 1348q4 24 16.5 33.5t37.5 9.5h211q29 0 37 -8.5t4 -34.5l-191 -1348q-5 -27 -13.5 -35t-37.5 -8h-211q-26 0 -36.5 9.5 t-6.5 33.5z" />
<glyph unicode="&#xcd;" horiz-adv-x="653" d="M127 43l190 1348q4 24 16.5 33.5t37.5 9.5h211q29 0 37 -8.5t4 -34.5l-191 -1348q-5 -27 -13.5 -35t-37.5 -8h-211q-26 0 -36.5 9.5t-6.5 33.5zM368 1631.5q0 9.5 17 25.5l346 256q14 12 22 13t27 -15l115 -160q10 -12 6.5 -23t-16.5 -16l-402 -201q-17 -8 -27 -6t-20 15 l-59 90q-9 12 -9 21.5z" />
<glyph unicode="&#xce;" horiz-adv-x="653" d="M115 1579q-20 23 6 49l287 232q77 57 127 57q35 0 61 -13t59 -44l228 -232q15 -15 12.5 -24.5t-21.5 -28.5l-57 -59q-17 -22 -55 2l-260 155l-293 -153q-19 -12 -27 -12t-22 16zM127 43l190 1348q4 24 16.5 33.5t37.5 9.5h211q29 0 37 -8.5t4 -34.5l-191 -1348 q-5 -27 -13.5 -35t-37.5 -8h-211q-26 0 -36.5 9.5t-6.5 33.5z" />
<glyph unicode="&#xcf;" horiz-adv-x="653" d="M127 43l190 1348q4 24 16.5 33.5t37.5 9.5h211q29 0 37 -8.5t4 -34.5l-191 -1348q-5 -27 -13.5 -35t-37.5 -8h-211q-26 0 -36.5 9.5t-6.5 33.5zM158 1649q0 67 53 119.5t117 52.5q54 0 91.5 -38t37.5 -95q0 -64 -54.5 -116t-117.5 -52q-54 0 -90.5 37.5t-36.5 91.5z M565 1649q0 67 53 119.5t119 52.5q54 0 90.5 -37.5t36.5 -93.5q0 -65 -53.5 -117.5t-116.5 -52.5q-55 0 -92 37.5t-37 91.5z" />
<glyph unicode="&#xd0;" horiz-adv-x="1384" d="M70 672l14 110q4 26 13.5 34.5t33.5 8.5h82l68 484q11 69 39.5 97t97.5 28q34 0 182 1t182 1q118 0 211.5 -29t155.5 -80t103 -124.5t59 -159t18 -187.5q0 -131 -23 -250t-77 -231.5t-134.5 -194t-205 -131t-279.5 -49.5h-393q-71 0 -92 29.5t-10 95.5l69 504h-80 q-40 0 -34 43zM438 274h133q117 0 204 41.5t139.5 117t78 174t25.5 220.5q0 79 -14 137t-47 104.5t-93 70.5t-147 24h-154l-47 -338h227q25 0 32 -8.5t3 -34.5l-14 -110q-6 -43 -47 -43h-230q-5 -38 -24.5 -177.5t-24.5 -177.5z" />
<glyph unicode="&#xd1;" horiz-adv-x="1478" d="M102 43l177 1249q11 80 43.5 112t105.5 32h84q60 0 82.5 -16.5t52.5 -76.5l260 -587l125 -285h10l129 922q5 25 15 34t39 9h209q45 0 39 -43l-177 -1252q-12 -72 -43 -106.5t-104 -34.5h-84q-60 0 -85 16.5t-50 73.5l-264 590l-123 285h-11l-129 -922q-5 -27 -13.5 -35 t-37.5 -8h-209q-25 0 -35 9.5t-6 33.5zM534 1616q-1 8 11 26q111 179 268 179q52 0 131.5 -41t120.5 -41q48 0 104 71q4 4 8.5 9.5t5.5 8t4.5 4.5t4 2.5t4 0t6 -1.5t8.5 -4l93 -41q20 -11 22.5 -17t-6.5 -30q-95 -195 -262 -195q-49 0 -134 40t-128 40q-53 0 -105 -61 q-15 -19 -23 -22t-30 7l-80 47q-22 11 -23 19z" />
<glyph unicode="&#xd2;" horiz-adv-x="1449" d="M147 541q0 209 53 381t147.5 289t227 181t289.5 64q263 0 400 -151.5t137 -419.5q0 -195 -47.5 -360.5t-137.5 -287.5t-228 -191t-310 -69q-266 0 -398.5 145t-132.5 419zM461 561q0 -149 59 -226t191 -77q95 0 169.5 52.5t119 140.5t67.5 194.5t23 222.5q0 310 -252 310 q-92 0 -165.5 -53t-118.5 -141.5t-69 -197t-24 -225.5zM563 1800l133 146q18 11 27 10t20 -12l316 -295q16 -19 16 -26.5t-12 -20.5l-72 -82q-11 -12 -20.5 -13t-26.5 9l-377 243q-25 14 -4 41z" />
<glyph unicode="&#xd3;" horiz-adv-x="1449" d="M147 541q0 209 53 381t147.5 289t227 181t289.5 64q263 0 400 -151.5t137 -419.5q0 -195 -47.5 -360.5t-137.5 -287.5t-228 -191t-310 -69q-266 0 -398.5 145t-132.5 419zM461 561q0 -149 59 -226t191 -77q95 0 169.5 52.5t119 140.5t67.5 194.5t23 222.5q0 310 -252 310 q-92 0 -165.5 -53t-118.5 -141.5t-69 -197t-24 -225.5zM779.5 1643.5q0.5 9.5 17.5 25.5l346 256q14 12 22 13t27 -15l115 -160q10 -12 6 -23t-17 -16l-401 -200q-17 -8 -27 -6.5t-20 14.5l-60 90q-9 12 -8.5 21.5z" />
<glyph unicode="&#xd4;" horiz-adv-x="1449" d="M147 541q0 209 53 381t147.5 289t227 181t289.5 64q263 0 400 -151.5t137 -419.5q0 -195 -47.5 -360.5t-137.5 -287.5t-228 -191t-310 -69q-266 0 -398.5 145t-132.5 419zM461 561q0 -149 59 -226t191 -77q95 0 169.5 52.5t119 140.5t67.5 194.5t23 222.5q0 310 -252 310 q-92 0 -165.5 -53t-118.5 -141.5t-69 -197t-24 -225.5zM514 1579q-20 23 6 49l287 232q77 57 127 57q35 0 61.5 -13t59.5 -44l227 -232q16 -15 13.5 -24.5t-21.5 -28.5l-57 -59q-18 -23 -56 2l-260 155l-293 -153q-19 -12 -27 -12t-22 16z" />
<glyph unicode="&#xd5;" horiz-adv-x="1449" d="M147 541q0 209 53 381t147.5 289t227 181t289.5 64q263 0 400 -151.5t137 -419.5q0 -195 -47.5 -360.5t-137.5 -287.5t-228 -191t-310 -69q-266 0 -398.5 145t-132.5 419zM461 561q0 -149 59 -226t191 -77q95 0 169.5 52.5t119 140.5t67.5 194.5t23 222.5q0 310 -252 310 q-92 0 -165.5 -53t-118.5 -141.5t-69 -197t-24 -225.5zM517.5 1618.5q-1.5 8.5 10.5 26.5q111 178 269 178q52 0 131.5 -41t120.5 -41q48 0 104 71q4 4 8.5 9.5t5.5 8t4.5 4.5t4 2.5t4 0t6 -1.5t8.5 -4l92 -41q20 -11 23 -17t-6 -30q-95 -195 -263 -195q-49 0 -134 40 t-128 40q-52 0 -104 -61q-15 -19 -23 -22t-30 7l-80 47q-22 11 -23.5 19.5z" />
<glyph unicode="&#xd6;" horiz-adv-x="1449" d="M147 541q0 209 53 381t147.5 289t227 181t289.5 64q263 0 400 -151.5t137 -419.5q0 -195 -47.5 -360.5t-137.5 -287.5t-228 -191t-310 -69q-266 0 -398.5 145t-132.5 419zM461 561q0 -149 59 -226t191 -77q95 0 169.5 52.5t119 140.5t67.5 194.5t23 222.5q0 310 -252 310 q-92 0 -165.5 -53t-118.5 -141.5t-69 -197t-24 -225.5zM588 1653q0 67 53 119.5t117 52.5q54 0 91.5 -38t37.5 -95q0 -64 -54.5 -116t-117.5 -52q-54 0 -90.5 37.5t-36.5 91.5zM995 1653q0 67 53 119.5t119 52.5q54 0 90.5 -37.5t36.5 -93.5q0 -65 -53.5 -117.5 t-116.5 -52.5q-55 0 -92 37.5t-37 91.5z" />
<glyph unicode="&#xd8;" horiz-adv-x="1449" d="M80.5 55.5q0.5 8.5 17.5 26.5l119 129q-70 131 -70 330q0 209 53 381t147.5 289t227 181t289.5 64q245 0 385 -137l105 113q26 33 45 10l39 -35q11 -10 10.5 -19.5t-16.5 -25.5l-117 -125q86 -142 86 -352q0 -195 -47.5 -360.5t-137.5 -287.5t-228 -191t-310 -69 q-262 0 -399 146l-107 -115q-17 -17 -24 -18t-17 10l-39 37q-12 10 -11.5 18.5zM461 561q0 -30 4 -84l569 613q-62 88 -196 88q-92 0 -165.5 -53t-118.5 -141.5t-69 -197t-24 -225.5zM502 362q58 -104 209 -104q95 0 169.5 52.5t119 140.5t67.5 194.5t23 222.5q0 43 -11 115 z" />
<glyph unicode="&#xd9;" horiz-adv-x="1425" d="M167.5 383.5q0.5 92.5 14.5 212.5l109 795q4 24 15.5 33.5t35.5 9.5h213q30 0 38 -8t3 -35l-115 -813q-17 -112 -1.5 -185.5t80.5 -109t190 -35.5q139 0 211 16l159 1127q4 25 15 34t36 9h209q30 0 37 -8t2 -35l-170 -1192q-11 -78 -50 -126.5t-122 -70.5 q-106 -27 -344 -27q-120 0 -207.5 12.5t-157.5 42t-110.5 76.5t-65.5 116t-24.5 161.5zM559 1794l133 145q18 11 27 10t20 -12l316 -295q16 -19 16 -26.5t-12 -20.5l-72 -82q-11 -12 -20.5 -13t-26.5 9l-377 244q-25 14 -4 41z" />
<glyph unicode="&#xda;" horiz-adv-x="1425" d="M167.5 383.5q0.5 92.5 14.5 212.5l109 795q4 24 15.5 33.5t35.5 9.5h213q30 0 38 -8t3 -35l-115 -813q-17 -112 -1.5 -185.5t80.5 -109t190 -35.5q139 0 211 16l159 1127q4 25 15 34t36 9h209q30 0 37 -8t2 -35l-170 -1192q-11 -78 -50 -126.5t-122 -70.5 q-106 -27 -344 -27q-120 0 -207.5 12.5t-157.5 42t-110.5 76.5t-65.5 116t-24.5 161.5zM745 1631.5q0 9.5 17 25.5l346 256q14 12 22 13t27 -15l115 -160q10 -12 6.5 -23t-16.5 -16l-402 -201q-17 -8 -27 -6t-20 15l-59 90q-9 12 -9 21.5z" />
<glyph unicode="&#xdb;" horiz-adv-x="1425" d="M167.5 383.5q0.5 92.5 14.5 212.5l109 795q4 24 15.5 33.5t35.5 9.5h213q30 0 38 -8t3 -35l-115 -813q-17 -112 -1.5 -185.5t80.5 -109t190 -35.5q139 0 211 16l159 1127q4 25 15 34t36 9h209q30 0 37 -8t2 -35l-170 -1192q-11 -78 -50 -126.5t-122 -70.5 q-106 -27 -344 -27q-120 0 -207.5 12.5t-157.5 42t-110.5 76.5t-65.5 116t-24.5 161.5zM518 1579q-20 23 6 49l287 232q77 57 127 57q35 0 61.5 -13t59.5 -44l227 -232q16 -15 13.5 -24.5t-21.5 -28.5l-57 -59q-18 -23 -56 2l-260 155l-293 -153q-19 -12 -27 -12t-22 16z " />
<glyph unicode="&#xdc;" horiz-adv-x="1425" d="M167.5 383.5q0.5 92.5 14.5 212.5l109 795q4 24 15.5 33.5t35.5 9.5h213q30 0 38 -8t3 -35l-115 -813q-17 -112 -1.5 -185.5t80.5 -109t190 -35.5q139 0 211 16l159 1127q4 25 15 34t36 9h209q30 0 37 -8t2 -35l-170 -1192q-11 -78 -50 -126.5t-122 -70.5 q-106 -27 -344 -27q-120 0 -207.5 12.5t-157.5 42t-110.5 76.5t-65.5 116t-24.5 161.5zM530 1642q0 67 53 120t117 53q54 0 91.5 -38.5t37.5 -95.5q0 -64 -54.5 -116t-117.5 -52q-54 0 -90.5 37.5t-36.5 91.5zM938 1642q0 67 53 120t119 53q54 0 90.5 -38t36.5 -94 q0 -65 -53.5 -117.5t-116.5 -52.5q-55 0 -92 37.5t-37 91.5z" />
<glyph unicode="&#xdd;" horiz-adv-x="1241" d="M164 1397q-5 13 2.5 26t28.5 13h239q29 0 37.5 -9t15.5 -36l95 -285l84 -293h10l176 303l170 281q13 22 25.5 30.5t35.5 8.5h263q26 0 28 -12.5t-8 -24.5l-569 -871l-68 -487q-5 -25 -12.5 -33t-32.5 -8h-219q-41 0 -35 41l66 483zM632 1631.5q0 9.5 17 25.5l346 256 q14 12 22 13t27 -15l115 -160q10 -12 6.5 -23t-16.5 -16l-401 -201q-17 -8 -27.5 -6t-20.5 15l-59 90q-9 12 -9 21.5z" />
<glyph unicode="&#xde;" horiz-adv-x="1280" d="M102 45l193 1362q6 41 47 41h207q28 0 35 -8.5t2 -32.5l-29 -205h309q197 0 303.5 -111t106.5 -296q0 -38 -5.5 -78t-22 -91.5t-42.5 -97t-71 -91t-103 -78t-143 -52.5t-187 -20h-264l-32 -242q-5 -27 -15 -36t-39 -9h-209q-47 0 -41 45zM475 541h258q105 0 166.5 65 t61.5 158q0 31 -8 58.5t-26.5 53.5t-54.5 41t-86 15h-256z" />
<glyph unicode="&#xdf;" horiz-adv-x="1200" d="M86 49l135 959q31 238 162.5 365.5t341.5 127.5q211 0 319.5 -97.5t108.5 -254.5q0 -54 -16.5 -108.5t-64 -115t-120.5 -96.5l-2 -8q174 -81 174 -323q0 -278 -152 -417.5t-423 -139.5q-36 0 -44 7t-3 32l22 161q5 22 11 29.5t28 11.5q64 7 113.5 31t77 56t45 73.5 t23 77.5t5.5 74q0 183 -163 202q-46 8 -61 21t-9 51l10 76q6 39 22.5 54.5t61.5 19.5q74 5 122 59t48 139q0 61 -33.5 101t-107.5 40q-92 0 -140.5 -60.5t-62.5 -154.5l-139 -993q-5 -28 -15 -38.5t-41 -10.5h-192q-47 0 -41 49z" />
<glyph unicode="&#xe0;" horiz-adv-x="1189" d="M104 395q0 330 151.5 517.5t434.5 187.5q198 0 414 -56q32 -10 39.5 -26.5t-0.5 -38.5q-74 -493 -121 -893q-3 -30 -31 -39q-199 -70 -434 -70q-453 0 -453 418zM403 426q0 -199 209 -199q65 0 142 25q46 363 84 582q-75 16 -162 16q-53 0 -100 -24.5t-85.5 -73.5 t-62 -132.5t-25.5 -193.5zM425 1546.5q2 10.5 15 16.5l191 104q22 8 29 4.5t16 -18.5l215 -361q10 -21 7.5 -29t-17.5 -16l-93 -59q-25 -14 -47 8l-307 330q-11 10 -9 20.5z" />
<glyph unicode="&#xe1;" horiz-adv-x="1189" d="M104 395q0 330 151.5 517.5t434.5 187.5q198 0 414 -56q32 -10 39.5 -26.5t-0.5 -38.5q-74 -493 -121 -893q-3 -30 -31 -39q-199 -70 -434 -70q-453 0 -453 418zM403 426q0 -199 209 -199q65 0 142 25q46 363 84 582q-75 16 -162 16q-53 0 -100 -24.5t-85.5 -73.5 t-62 -132.5t-25.5 -193.5zM610 1251q32 61 94 178.5t93 178.5q18 34 47 24l200 -53q33 -9 13 -37q-48 -59 -142.5 -176.5t-142.5 -175.5q-13 -19 -21.5 -22t-25.5 3q-18 7 -52 19.5t-52 19.5q-29 9 -11 41z" />
<glyph unicode="&#xe2;" horiz-adv-x="1189" d="M104 395q0 330 151.5 517.5t434.5 187.5q198 0 414 -56q32 -10 39.5 -26.5t-0.5 -38.5q-74 -493 -121 -893q-3 -30 -31 -39q-199 -70 -434 -70q-453 0 -453 418zM323.5 1246q1.5 8 14.5 26l297 280q77 64 127 64q44 0 71 -14t52 -50l223 -278q13 -18 11.5 -27.5 t-19.5 -27.5l-62 -52q-27 -21 -55 4l-240 199l-301 -215q-17 -11 -27.5 -10.5t-23.5 16.5l-59 62q-10 15 -8.5 23zM403 426q0 -199 209 -199q65 0 142 25q46 363 84 582q-75 16 -162 16q-53 0 -100 -24.5t-85.5 -73.5t-62 -132.5t-25.5 -193.5z" />
<glyph unicode="&#xe3;" horiz-adv-x="1189" d="M104 395q0 330 151.5 517.5t434.5 187.5q198 0 414 -56q32 -10 39.5 -26.5t-0.5 -38.5q-74 -493 -121 -893q-3 -30 -31 -39q-199 -70 -434 -70q-453 0 -453 418zM327 1311q-1 8 11 26q111 179 268 179q52 0 131.5 -41t120.5 -41q49 0 105 71q4 4 8.5 9.5t5.5 8t4.5 4.5 t4 2.5t4 0t6 -1.5t8.5 -4l92 -41q20 -11 22.5 -17t-6.5 -30q-95 -195 -262 -195q-49 0 -134 40t-128 40q-53 0 -105 -61q-15 -19 -23 -22t-30 7l-80 47q-22 11 -23 19zM403 426q0 -199 209 -199q65 0 142 25q46 363 84 582q-75 16 -162 16q-53 0 -100 -24.5t-85.5 -73.5 t-62 -132.5t-25.5 -193.5z" />
<glyph unicode="&#xe4;" horiz-adv-x="1189" d="M104 395q0 330 151.5 517.5t434.5 187.5q198 0 414 -56q32 -10 39.5 -26.5t-0.5 -38.5q-74 -493 -121 -893q-3 -30 -31 -39q-199 -70 -434 -70q-453 0 -453 418zM381 1354q0 67 53 119.5t117 52.5q54 0 91.5 -38t37.5 -95q0 -64 -54.5 -116t-117.5 -52q-54 0 -90.5 37.5 t-36.5 91.5zM403 426q0 -199 209 -199q65 0 142 25q46 363 84 582q-75 16 -162 16q-53 0 -100 -24.5t-85.5 -73.5t-62 -132.5t-25.5 -193.5zM788 1354q0 67 53.5 119.5t119.5 52.5q54 0 90 -37.5t36 -93.5q0 -65 -53.5 -117.5t-115.5 -52.5q-55 0 -92.5 37.5t-37.5 91.5z " />
<glyph unicode="&#xe5;" horiz-adv-x="1189" d="M104 395q0 330 151.5 517.5t434.5 187.5q198 0 414 -56q32 -10 39.5 -26.5t-0.5 -38.5q-74 -493 -121 -893q-3 -30 -31 -39q-199 -70 -434 -70q-453 0 -453 418zM403 426q0 -199 209 -199q65 0 142 25q46 363 84 582q-75 16 -162 16q-53 0 -100 -24.5t-85.5 -73.5 t-62 -132.5t-25.5 -193.5zM506 1368q0 118 82 199.5t198 81.5q97 0 156 -56.5t59 -148.5q0 -116 -85 -197.5t-197 -81.5q-97 0 -155 55.5t-58 147.5zM657 1386q0 -37 21.5 -59t58.5 -22q46 0 80.5 33t34.5 85q0 37 -23.5 60.5t-60.5 23.5q-48 0 -79.5 -34t-31.5 -87z" />
<glyph unicode="&#xe6;" horiz-adv-x="1724" d="M80 279q0 205 123.5 302t363.5 97q92 0 191 -12q16 43 16 79q0 117 -162 117q-140 0 -282 -37q-36 -9 -45 25l-33 145q-4 22 2 30t25 15q186 64 395 64q217 0 301 -100q131 98 321 98q193 -1 298.5 -81.5t105.5 -221.5q0 -363 -506 -363q-85 0 -164 8q-4 -36 -4 -49 q0 -92 46.5 -129t152.5 -37q82 0 223 50q23 8 30.5 6t14.5 -19l66 -151q6 -18 0.5 -28t-25.5 -21q-75 -45 -183.5 -67t-203.5 -22q-202 0 -305 89q-84 -46 -189 -67.5t-196 -21.5q-109 0 -186 24t-117 68t-57 94.5t-17 115.5zM381 322q0 -55 33.5 -82t105.5 -27 q130 0 215 47q-14 72 -14 121q-3 53 4 96q-55 8 -121 8q-104 0 -163.5 -36t-59.5 -127zM1059 635q21 -4 88 -4q152 0 209 31.5t57 101.5q0 43 -31.5 70.5t-99.5 27.5q-187 0 -223 -227z" />
<glyph unicode="&#xe7;" horiz-adv-x="1017" d="M106 424q0 326 144.5 502t394.5 176q187 0 322 -66q18 -10 21 -21.5t-5 -35.5l-57 -160q-4 -15 -13.5 -20t-19.5 -3.5t-31 7.5q-106 28 -200 28q-87 0 -145.5 -52.5t-83.5 -135t-25 -190.5q0 -209 186 -209q112 0 235 45q23 9 33.5 6t16.5 -25l55 -157q8 -20 3 -33.5 t-28 -24.5q-130 -66 -338 -78l-45 -88q232 -12 232 -188q0 -89 -80.5 -154t-220.5 -65q-61 0 -127 13.5t-105 31.5q-13 6 -14.5 14.5t6.5 28.5l29 74q10 21 17 24t20 -4q79 -29 141 -29q107 0 115 72q3 62 -109 62q-51 0 -57 4q-4 3 -8 8q-18 15 8 61l71 142 q-338 41 -338 440z" />
<glyph unicode="&#xe8;" horiz-adv-x="1105" d="M102 395q0 174 43 310t120 222t180 130.5t227 44.5q199 0 300 -81t101 -226q0 -193 -122.5 -286t-383.5 -93q-90 0 -164 10q-13 -108 24.5 -146t154.5 -40q48 0 119.5 15t127.5 36q25 8 34 5t16 -20l63 -161q16 -28 -22 -49q-74 -45 -188.5 -67t-211.5 -22 q-199 0 -308.5 105.5t-109.5 312.5zM380 1546.5q2 10.5 15 16.5l191 104q22 8 29 4.5t16 -18.5l215 -361q10 -21 7.5 -29t-17.5 -16l-93 -59q-25 -14 -47 8l-307 330q-11 10 -9 20.5zM432 635q62 -4 88 -4q154 0 210 28.5t56 96.5q0 43 -30.5 70.5t-100.5 27.5 q-81 0 -142.5 -54t-80.5 -165z" />
<glyph unicode="&#xe9;" horiz-adv-x="1105" d="M102 395q0 174 43 310t120 222t180 130.5t227 44.5q199 0 300 -81t101 -226q0 -193 -122.5 -286t-383.5 -93q-90 0 -164 10q-13 -108 24.5 -146t154.5 -40q48 0 119.5 15t127.5 36q25 8 34 5t16 -20l63 -161q16 -28 -22 -49q-74 -45 -188.5 -67t-211.5 -22 q-199 0 -308.5 105.5t-109.5 312.5zM432 635q62 -4 88 -4q154 0 210 28.5t56 96.5q0 43 -30.5 70.5t-100.5 27.5q-81 0 -142.5 -54t-80.5 -165zM600 1251q32 61 93 179t93 178q18 34 48 24l200 -53q33 -9 13 -37q-48 -59 -142.5 -176.5t-142.5 -175.5q-13 -19 -21.5 -22 t-25.5 3q-18 7 -53 19.5t-52 19.5q-28 9 -10 41z" />
<glyph unicode="&#xea;" horiz-adv-x="1105" d="M102 395q0 174 43 310t120 222t180 130.5t227 44.5q199 0 300 -81t101 -226q0 -193 -122.5 -286t-383.5 -93q-90 0 -164 10q-13 -108 24.5 -146t154.5 -40q48 0 119.5 15t127.5 36q25 8 34 5t16 -20l63 -161q16 -28 -22 -49q-74 -45 -188.5 -67t-211.5 -22 q-199 0 -308.5 105.5t-109.5 312.5zM321.5 1246q1.5 8 14.5 26l297 280q77 64 127 64q44 0 71 -14t52 -50l223 -278q13 -18 11.5 -27.5t-19.5 -27.5l-62 -52q-27 -21 -55 4l-240 199l-301 -215q-17 -11 -27.5 -10.5t-23.5 16.5l-59 62q-10 15 -8.5 23zM432 635q62 -4 88 -4 q154 0 210 28.5t56 96.5q0 43 -30.5 70.5t-100.5 27.5q-81 0 -142.5 -54t-80.5 -165z" />
<glyph unicode="&#xeb;" horiz-adv-x="1105" d="M102 395q0 174 43 310t120 222t180 130.5t227 44.5q199 0 300 -81t101 -226q0 -193 -122.5 -286t-383.5 -93q-90 0 -164 10q-13 -108 24.5 -146t154.5 -40q48 0 119.5 15t127.5 36q25 8 34 5t16 -20l63 -161q16 -28 -22 -49q-74 -45 -188.5 -67t-211.5 -22 q-199 0 -308.5 105.5t-109.5 312.5zM387 1354q0 67 53 119.5t117 52.5q54 0 91.5 -38t37.5 -95q0 -64 -54.5 -116t-117.5 -52q-54 0 -90.5 37.5t-36.5 91.5zM432 635q62 -4 88 -4q154 0 210 28.5t56 96.5q0 43 -30.5 70.5t-100.5 27.5q-81 0 -142.5 -54t-80.5 -165z M795 1354q0 67 53 119.5t119 52.5q54 0 90.5 -37.5t36.5 -93.5q0 -65 -53.5 -117.5t-116.5 -52.5q-55 0 -92 37.5t-37 91.5z" />
<glyph unicode="&#xec;" horiz-adv-x="624" d="M102 1546.5q2 10.5 15 16.5l190 104q22 8 29 4.5t16 -18.5l215 -361q10 -21 7.5 -29t-17.5 -16l-92 -59q-25 -14 -47 8l-307 330q-11 10 -9 20.5zM123 37l139 1001q4 23 13.5 30t33.5 7h203q29 0 35.5 -6.5t1.5 -30.5l-139 -1001q-5 -24 -12.5 -30.5t-35.5 -6.5h-202 q-25 0 -33 7.5t-4 29.5z" />
<glyph unicode="&#xed;" horiz-adv-x="624" d="M123 37l139 1001q4 23 13.5 30t33.5 7h203q29 0 35.5 -6.5t1.5 -30.5l-139 -1001q-5 -24 -12.5 -30.5t-35.5 -6.5h-202q-25 0 -33 7.5t-4 29.5zM322 1251q32 61 93.5 179t92.5 178q18 34 47 24l201 -53q32 -8 12 -37q-48 -59 -142.5 -176.5t-142.5 -175.5 q-13 -19 -21.5 -22t-25.5 3q-17 7 -52 19.5t-52 19.5q-28 9 -10 41z" />
<glyph unicode="&#xee;" horiz-adv-x="624" d="M40.5 1246q1.5 8 14.5 26l297 280q77 64 127 64q44 0 71 -14t52 -50l223 -278q13 -18 11.5 -27.5t-19.5 -27.5l-61 -52q-27 -21 -56 4l-239 199l-301 -215q-17 -11 -27.5 -10.5t-23.5 16.5l-60 62q-10 15 -8.5 23zM123 37l139 1001q4 23 13.5 30t33.5 7h203 q29 0 35.5 -6.5t1.5 -30.5l-139 -1001q-5 -24 -12.5 -30.5t-35.5 -6.5h-202q-25 0 -33 7.5t-4 29.5z" />
<glyph unicode="&#xef;" horiz-adv-x="624" d="M100 1343q0 67 53 120t117 53q54 0 91.5 -38.5t37.5 -95.5q0 -64 -54.5 -116t-117.5 -52q-54 0 -90.5 37.5t-36.5 91.5zM123 37l139 1001q4 23 13.5 30t33.5 7h203q29 0 35.5 -6.5t1.5 -30.5l-139 -1001q-5 -24 -12.5 -30.5t-35.5 -6.5h-202q-25 0 -33 7.5t-4 29.5z M508 1343q0 67 53 120t119 53q54 0 90.5 -38t36.5 -94q0 -65 -53.5 -117.5t-116.5 -52.5q-55 0 -92 37.5t-37 91.5z" />
<glyph unicode="&#xf0;" horiz-adv-x="1185" d="M96 371q-5 276 151 441t421 165q89 0 166 -35q8 3 12 10q-24 128 -101 228l-153 -105q-21 -15 -33 4l-31 51q-5 13 -2.5 19t15.5 16l133 92q-60 60 -127 107q-34 19 -12 47l69 100q12 18 24 21t31 -8q112 -52 209 -133q16 11 46.5 32t55 39t46.5 35q30 26 41 0l30 -43 q11 -18 9.5 -23.5t-19.5 -19.5l-129 -94q100 -105 143.5 -249t43.5 -339q-2 -61 -8.5 -119.5t-24.5 -135t-45.5 -142.5t-75.5 -132t-109.5 -112t-152 -75t-199.5 -29q-81 0 -146 14.5t-110.5 41t-78 61.5t-51 80t-27.5 90.5t-11 99.5zM397 410q0 -181 158 -181q64 0 113 29 t78 79t44.5 105.5t22.5 120.5q7 51 4 123q-82 51 -176 51q-66 0 -115.5 -29.5t-76 -78.5t-39.5 -104t-13 -115z" />
<glyph unicode="&#xf1;" horiz-adv-x="1210" d="M82 37l125 878q11 73 43.5 113t101.5 53q39 7 133.5 14t153.5 7q284 0 397 -122t72 -409l-74 -534q-5 -25 -12 -31t-35 -6h-205q-25 0 -34 7.5t-5 29.5l78 553q12 89 0.5 148t-60 88.5t-143.5 29.5q-78 0 -133 -10l-114 -809q-5 -25 -12 -31t-35 -6h-203q-25 0 -34 7.5 t-5 29.5zM286 1299q-1 8 11 26q111 178 268 178q52 0 131.5 -41t120.5 -41q48 0 105 72q19 22 20.5 23t20.5 -5l92 -41q20 -11 22.5 -17t-6.5 -30q-95 -194 -262 -194q-49 0 -134 40t-128 40q-52 0 -105 -62q-15 -19 -23.5 -22t-29.5 8l-80 47q-22 11 -23 19z" />
<glyph unicode="&#xf2;" horiz-adv-x="1181" d="M102 401q0 331 160 516t422 185q219 0 329.5 -115.5t110.5 -333.5q0 -311 -154 -493.5t-429 -182.5q-220 0 -329.5 108.5t-109.5 315.5zM374 1546.5q2 10.5 15 16.5l191 104q22 8 29 4.5t16 -18.5l215 -361q10 -21 7 -28.5t-18 -16.5l-92 -59q-25 -14 -47 8l-307 330 q-11 10 -9 20.5zM406 436q0 -104 40 -155.5t127 -51.5q82 0 139.5 59t84 151t26.5 206q0 205 -166 205q-120 0 -185.5 -114t-65.5 -300z" />
<glyph unicode="&#xf3;" horiz-adv-x="1181" d="M102 401q0 331 160 516t422 185q219 0 329.5 -115.5t110.5 -333.5q0 -311 -154 -493.5t-429 -182.5q-220 0 -329.5 108.5t-109.5 315.5zM406 436q0 -104 40 -155.5t127 -51.5q82 0 139.5 59t84 151t26.5 206q0 205 -166 205q-120 0 -185.5 -114t-65.5 -300zM602 1251 q31 61 93 179t93 178q18 34 48 24l200 -53q33 -9 13 -37q-48 -59 -142.5 -176.5t-142.5 -175.5q-13 -19 -21.5 -22t-25.5 3q-18 7 -53 19.5t-52 19.5q-28 9 -10 41z" />
<glyph unicode="&#xf4;" horiz-adv-x="1181" d="M102 401q0 331 160 516t422 185q219 0 329.5 -115.5t110.5 -333.5q0 -311 -154 -493.5t-429 -182.5q-220 0 -329.5 108.5t-109.5 315.5zM311.5 1245.5q1.5 7.5 14.5 26.5l297 280q77 64 127 64q44 0 70.5 -14t51.5 -50l224 -278q13 -18 11 -27.5t-20 -27.5l-61 -52 q-27 -21 -55 4l-240 199l-301 -215q-17 -11 -27.5 -10.5t-23.5 16.5l-60 62q-9 15 -7.5 22.5zM406 436q0 -104 40 -155.5t127 -51.5q82 0 139.5 59t84 151t26.5 206q0 205 -166 205q-120 0 -185.5 -114t-65.5 -300z" />
<glyph unicode="&#xf5;" horiz-adv-x="1181" d="M102 401q0 331 160 516t422 185q219 0 329.5 -115.5t110.5 -333.5q0 -311 -154 -493.5t-429 -182.5q-220 0 -329.5 108.5t-109.5 315.5zM337 1311q-1 8 11 26q111 179 268 179q52 0 131.5 -41t120.5 -41q49 0 105 71q4 4 8.5 9.5t5.5 8t4.5 4.5t4 2.5t4 0t6 -1.5t8.5 -4 l92 -41q20 -11 22.5 -17t-6.5 -30q-95 -195 -262 -195q-49 0 -134 40t-128 40q-52 0 -104 -61q-15 -19 -23.5 -22t-30.5 7l-80 47q-22 11 -23 19zM406 436q0 -104 40 -155.5t127 -51.5q82 0 139.5 59t84 151t26.5 206q0 205 -166 205q-120 0 -185.5 -114t-65.5 -300z" />
<glyph unicode="&#xf6;" horiz-adv-x="1181" d="M102 401q0 331 160 516t422 185q219 0 329.5 -115.5t110.5 -333.5q0 -311 -154 -493.5t-429 -182.5q-220 0 -329.5 108.5t-109.5 315.5zM377 1354q0 67 53 119.5t117 52.5q54 0 91.5 -38t37.5 -95q0 -64 -54.5 -116t-117.5 -52q-54 0 -90.5 37.5t-36.5 91.5zM406 436 q0 -104 40 -155.5t127 -51.5q82 0 139.5 59t84 151t26.5 206q0 205 -166 205q-120 0 -185.5 -114t-65.5 -300zM784 1354q0 67 53 119.5t119 52.5q54 0 90.5 -37.5t36.5 -93.5q0 -65 -53.5 -117.5t-116.5 -52.5q-55 0 -92 37.5t-37 91.5z" />
<glyph unicode="&#xf7;" d="M180 623l25 163q5 25 12.5 33t30.5 8h930q23 0 30 -9t2 -32l-22 -161q-6 -43 -47 -43h-926q-41 0 -35 41zM459 258q0 85 63 148t146 63q71 0 115 -43.5t44 -110.5q0 -87 -63 -150t-150 -63q-67 0 -111 45t-44 111zM573 1081q0 85 63 147t146 62q72 0 117 -42.5t45 -110.5 q0 -86 -64 -148.5t-149 -62.5q-68 0 -113 44t-45 111z" />
<glyph unicode="&#xf8;" horiz-adv-x="1181" d="M52.5 25.5q0.5 6.5 3.5 10.5t12 13l96 96q-62 100 -62 256q0 331 160 516t422 185q214 0 328 -117l96 96q14 12 19 13t16 -9l26 -26q11 -10 10.5 -17.5t-12.5 -19.5l-104 -104q61 -104 61 -265q0 -311 -154 -493.5t-429 -182.5q-215 0 -326 105l-94 -92q-20 -20 -33 -4 l-29 26q-7 7 -6.5 13.5zM406 436q0 -35 2 -51l389 387q-41 78 -140 78q-120 0 -185.5 -114t-65.5 -300zM434 299q40 -70 139 -70q82 0 139.5 59t84 151t26.5 206q0 23 -2 37z" />
<glyph unicode="&#xf9;" horiz-adv-x="1191" d="M143 483l80 555q5 25 12 32t35 7h207q41 0 35 -39l-76 -549q-14 -93 -7 -153t50.5 -87.5t136.5 -27.5q69 0 140 10l110 807q5 25 13 32t36 7h205q41 0 35 -39l-123 -874q-11 -72 -43.5 -111.5t-101.5 -56.5q-48 -8 -140.5 -14.5t-150.5 -6.5q-289 0 -391.5 114.5 t-61.5 393.5zM370 1546.5q2 10.5 15 16.5l190 104q22 8 29.5 4.5t16.5 -18.5l215 -361q10 -21 7 -28.5t-18 -16.5l-92 -59q-25 -14 -47 8l-307 330q-11 10 -9 20.5z" />
<glyph unicode="&#xfa;" horiz-adv-x="1191" d="M143 483l80 555q5 25 12 32t35 7h207q41 0 35 -39l-76 -549q-14 -93 -7 -153t50.5 -87.5t136.5 -27.5q69 0 140 10l110 807q5 25 13 32t36 7h205q41 0 35 -39l-123 -874q-11 -72 -43.5 -111.5t-101.5 -56.5q-48 -8 -140.5 -14.5t-150.5 -6.5q-289 0 -391.5 114.5 t-61.5 393.5zM608 1251q31 61 93 178.5t94 178.5q18 34 47 24l200 -53q33 -9 13 -37q-48 -59 -142.5 -176.5t-142.5 -175.5q-13 -19 -21.5 -22t-25.5 3q-17 7 -52 19.5t-53 19.5q-28 9 -10 41z" />
<glyph unicode="&#xfb;" horiz-adv-x="1191" d="M143 483l80 555q5 25 12 32t35 7h207q41 0 35 -39l-76 -549q-14 -93 -7 -153t50.5 -87.5t136.5 -27.5q69 0 140 10l110 807q5 25 13 32t36 7h205q41 0 35 -39l-123 -874q-11 -72 -43.5 -111.5t-101.5 -56.5q-48 -8 -140.5 -14.5t-150.5 -6.5q-289 0 -391.5 114.5 t-61.5 393.5zM319.5 1246q1.5 8 14.5 26l297 280q77 64 127 64q44 0 71 -14t52 -50l223 -278q13 -18 11.5 -27.5t-19.5 -27.5l-62 -52q-27 -21 -55 4l-240 199l-301 -215q-17 -11 -27.5 -10.5t-23.5 16.5l-59 62q-10 15 -8.5 23z" />
<glyph unicode="&#xfc;" horiz-adv-x="1191" d="M143 483l80 555q5 25 12 32t35 7h207q41 0 35 -39l-76 -549q-14 -93 -7 -153t50.5 -87.5t136.5 -27.5q69 0 140 10l110 807q5 25 13 32t36 7h205q41 0 35 -39l-123 -874q-11 -72 -43.5 -111.5t-101.5 -56.5q-48 -8 -140.5 -14.5t-150.5 -6.5q-289 0 -391.5 114.5 t-61.5 393.5zM391 1356q0 67 53 119.5t117 52.5q54 0 91.5 -38t37.5 -95q0 -64 -54.5 -116t-117.5 -52q-54 0 -90.5 37.5t-36.5 91.5zM799 1356q0 67 53 119.5t119 52.5q54 0 90.5 -37.5t36.5 -93.5q0 -65 -53.5 -117.5t-116.5 -52.5q-55 0 -92 37.5t-37 91.5z" />
<glyph unicode="&#xfd;" horiz-adv-x="1110" d="M-37 -385q-4 8 4 33l43 155q7 24 18 27.5t35 -4.5q93 -27 148 -27q66 0 100.5 26t71.5 103l51 111h-47q-45 0 -63.5 17t-28.5 71l-170 909q-10 39 29 39h221q30 0 40 -7t11 -30l55 -413l45 -357h13l151 363l172 403q11 25 21.5 33t38.5 8h247q37 0 17 -33l-572 -1228 q-64 -136 -146 -198t-218 -62q-127 0 -254 43q-29 10 -33 18zM543 1251q32 61 93 179t93 178q18 34 47 24l201 -53q32 -8 12 -37q-48 -58 -142 -175.5t-142 -176.5q-13 -19 -22 -22t-26 3q-18 7 -52 19.5t-52 19.5q-28 9 -10 41z" />
<glyph unicode="&#xfe;" horiz-adv-x="1200" d="M23 -383l256 1817q6 41 47 41h206q26 0 34 -9.5t3 -33.5l-51 -351q107 17 182 17q121 0 207.5 -33t136 -96t71.5 -142t22 -182q0 -140 -35.5 -259.5t-103 -210t-173 -142t-237.5 -51.5q-112 0 -219 24l-56 -389q-4 -23 -12.5 -29t-34.5 -6h-207q-25 0 -32.5 6.5 t-3.5 28.5zM406 260q77 -22 159 -22q119 0 197 97.5t78 287.5q0 119 -50.5 169t-152.5 50q-83 0 -154 -23z" />
<glyph unicode="&#xff;" horiz-adv-x="1110" d="M-37 -385q-4 8 4 33l43 155q7 24 18 27.5t35 -4.5q93 -27 148 -27q66 0 100.5 26t71.5 103l51 111h-47q-45 0 -63.5 17t-28.5 71l-170 909q-10 39 29 39h221q30 0 40 -7t11 -30l55 -413l45 -357h13l151 363l172 403q11 25 21.5 33t38.5 8h247q37 0 17 -33l-572 -1228 q-64 -136 -146 -198t-218 -62q-127 0 -254 43q-29 10 -33 18zM330 1350q0 67 53 119.5t117 52.5q54 0 91.5 -38t37.5 -95q0 -64 -54.5 -116t-117.5 -52q-54 0 -90.5 37.5t-36.5 91.5zM737 1350q0 67 53 119.5t119 52.5q54 0 90.5 -37.5t36.5 -93.5q0 -65 -53.5 -117.5 t-116.5 -52.5q-55 0 -92 37.5t-37 91.5z" />
<glyph unicode="&#x131;" horiz-adv-x="624" d="M123 37l139 1001q4 23 13.5 30t33.5 7h203q29 0 35.5 -6.5t1.5 -30.5l-139 -1001q-5 -24 -12.5 -30.5t-35.5 -6.5h-202q-25 0 -33 7.5t-4 29.5z" />
<glyph unicode="&#x152;" horiz-adv-x="1898" d="M145 543q0 424 190.5 668.5t518.5 244.5q180 0 307 -65q88 43 203 43h530q25 0 31.5 -12.5t1.5 -37.5l-24 -174q-5 -27 -13.5 -36t-31.5 -9h-453q-65 0 -102.5 -34.5t-45.5 -92.5q-11 -79 -20 -157h543q35 0 35 -29q0 -12 -3 -21l-22 -159q-6 -47 -47 -47h-545l-33 -234 q-18 -123 113 -123h516q27 0 33.5 -11.5t1.5 -37.5l-25 -172q-5 -27 -14 -37t-33 -10h-577q-126 0 -203 41q-137 -64 -311 -64q-259 0 -390 148.5t-131 417.5zM461 561q0 -305 250 -305q78 0 149 41q-5 32 8 121l78 561q10 69 31 158q-51 39 -143 39q-94 0 -166.5 -48.5 t-117 -134t-67 -195t-22.5 -237.5z" />
<glyph unicode="&#x153;" horiz-adv-x="1822" d="M102 401q0 331 160 516t422 185q227 0 338 -135q141 135 364 135q190 0 297 -80t107 -221q0 -365 -508 -365q-91 0 -162 10q-4 -36 -4 -51q0 -94 47.5 -130t151.5 -36q97 0 221 52q17 5 25.5 5.5t13.5 -4t10 -16.5l64 -151q12 -27 -25 -49q-75 -45 -183.5 -67t-205.5 -22 q-234 0 -332 125q-144 -125 -362 -125q-220 0 -329.5 108.5t-109.5 315.5zM406 436q0 -104 40 -155.5t127 -51.5q82 0 139.5 59t84 151t26.5 206q0 205 -166 205q-120 0 -185.5 -114t-65.5 -300zM1149 635q62 -4 88 -4q152 0 209 31.5t57 101.5q0 43 -30.5 70.5t-100.5 27.5 q-187 0 -223 -227z" />
<glyph unicode="&#x178;" horiz-adv-x="1241" d="M164 1397q-5 13 2.5 26t28.5 13h239q29 0 37.5 -9t15.5 -36l95 -285l84 -293h10l176 303l170 281q13 22 25.5 30.5t35.5 8.5h263q26 0 28 -12.5t-8 -24.5l-569 -871l-68 -487q-5 -25 -12.5 -33t-32.5 -8h-219q-41 0 -35 41l66 483zM438 1657q0 67 53 119.5t117 52.5 q54 0 91.5 -38t37.5 -95q0 -64 -54.5 -116t-117.5 -52q-54 0 -90.5 37.5t-36.5 91.5zM846 1657q0 67 53 119.5t119 52.5q54 0 90.5 -37.5t36.5 -93.5q0 -65 -53.5 -117.5t-116.5 -52.5q-55 0 -92 37.5t-37 91.5z" />
<glyph unicode="&#x192;" d="M61 -181.5q-1 8.5 5 27.5l40 134q4 19 13 23.5t26 -1.5q53 -12 99 -12q64 1 97.5 45.5t59.5 150.5q22 85 40.5 169t40 188.5t28.5 138.5h-158q-15 0 -21.5 6.5t-7.5 13t-1 23.5v123q3 41 43 41h190q26 135 31 155q12 45 21.5 76.5t27.5 76.5t37 76t49 65t65 54.5t83.5 34 t105.5 13.5q126 0 217 -27q19 -6 22.5 -16t-2.5 -27l-26 -137q-4 -19 -13.5 -22.5t-35.5 1.5q-59 11 -113 11q-72 0 -111.5 -43t-64.5 -146q-6 -24 -15.5 -69.5t-17.5 -73.5h195q21 0 26.5 -6t5.5 -29l-2 -133q0 -25 -7 -33t-32 -8h-229q-11 -47 -46.5 -228.5t-57.5 -265.5 q-17 -63 -29 -103.5t-31 -90t-38 -80t-48.5 -62.5t-64 -49t-81.5 -28t-104 -11q-129 0 -198 39q-12 7 -13 15.5z" />
<glyph unicode="&#x2c6;" horiz-adv-x="1163" d="M309.5 1245.5q1.5 7.5 14.5 26.5l297 280q77 64 127 64q44 0 70.5 -14t51.5 -50l224 -278q13 -18 11 -27.5t-20 -27.5l-61 -52q-27 -21 -55 4l-240 199l-301 -215q-17 -11 -27.5 -10.5t-23.5 16.5l-60 62q-9 15 -7.5 22.5z" />
<glyph unicode="&#x2c7;" horiz-adv-x="1155" d="M354 1509q-18 27 8 47l70 58q18 12 27.5 13t23.5 -11l238 -203l305 203q19 12 30 12.5t25 -12.5l52 -53q15 -19 12.5 -29t-21.5 -29l-323 -299q-46 -43 -115 -43q-59 0 -88 39z" />
<glyph unicode="&#x2d8;" horiz-adv-x="1138" d="M340 1417q-16 21 10 45l92 78q5 3 8.5 5t6.5 3t5 2t4.5 0t4 -1t4 -2t3.5 -3.5t4 -4.5l5 -5q117 -139 230 -139q57 0 117 27.5t155 115.5q22 16 27.5 16t17.5 -12l66 -67q25 -25 2 -48q-213 -247 -426 -247q-109 0 -195 67t-141 170z" />
<glyph unicode="&#x2d9;" horiz-adv-x="1101" d="M530 1354q0 77 57 134.5t130 57.5q63 0 104 -41.5t41 -103.5q0 -77 -58.5 -133t-131.5 -56q-60 0 -101 40.5t-41 101.5z" />
<glyph unicode="&#x2da;" horiz-adv-x="1124" d="M500 1368q0 118 82 199.5t198 81.5q97 0 156 -57.5t59 -149.5q0 -115 -85 -196t-197 -81q-97 0 -155 55.5t-58 147.5zM649 1386q0 -37 22.5 -59t59.5 -22q45 0 79 33t34 85q0 37 -23 60.5t-61 23.5q-47 0 -79 -35t-32 -86z" />
<glyph unicode="&#x2db;" horiz-adv-x="976" d="M184 -309q0 76 67 178t163 162q27 18 51 18l108 2q12 0 13.5 -8.5t-8.5 -15.5q-175 -144 -175 -258q0 -66 93 -66q50 0 118 14q17 6 26.5 2.5t10.5 -20.5l17 -76q6 -32 -25 -41q-110 -47 -254 -47q-104 0 -154.5 43t-50.5 113z" />
<glyph unicode="&#x2dc;" horiz-adv-x="1153" d="M319 1289q-1 8 11 26q111 178 268 178q52 0 131.5 -41t120.5 -41q47 0 104 72q19 22 20.5 23t20.5 -5l92 -41q20 -11 23 -17t-6 -30q-95 -194 -262 -194q-49 0 -134 39.5t-128 39.5q-53 0 -105 -61q-15 -19 -23.5 -22t-29.5 8l-80 47q-22 11 -23 19z" />
<glyph unicode="&#x2dd;" horiz-adv-x="1132" d="M386 1225.5q-2 8.5 9 25.5l187 357q18 34 47 24l194 -53q35 -12 13 -37l-285 -352q-12 -17 -21 -21t-26 2l-98 39q-18 7 -20 15.5zM717.5 1225.5q-1.5 8.5 9.5 25.5l186 357q18 34 48 24l194 -53q34 -12 12 -37l-284 -352q-12 -17 -21 -21t-26 2l-99 39q-18 7 -19.5 15.5 z" />
<glyph unicode="&#x3a9;" horiz-adv-x="1531" d="M33 49l24 172q4 28 15 36.5t32 8.5h168l9 8q-107 107 -107 340q0 191 54.5 349.5t150.5 266t229 167t289 59.5q263 0 411 -156t148 -426q0 -166 -59 -325.5t-185 -274.5l5 -8h169q20 0 28.5 -8.5t4.5 -36.5l-24 -176q-5 -26 -14.5 -35.5t-34.5 -9.5h-439q-57 0 -80 28 t-16 89l8 51q4 32 18 58t28.5 41t52.5 50q225 196 225 539q0 322 -277 322q-176 0 -279.5 -151.5t-103.5 -399.5q0 -97 26.5 -169t82.5 -136q40 -48 51.5 -75.5t5.5 -74.5l-6 -53q-15 -119 -127 -119h-446q-25 0 -33 10t-4 39z" />
<glyph unicode="&#x3c0;" horiz-adv-x="1218" d="M82 39l131 922q7 55 35.5 84.5t91.5 29.5h735q64 0 85 -29.5t14 -84.5l-132 -922q-5 -25 -12 -32t-35 -7h-204q-45 0 -39 39l112 795h-381l-112 -795q-5 -25 -12 -32t-35 -7h-203q-45 0 -39 39z" />
<glyph unicode="&#x401;" horiz-adv-x="1216" d="M143 284q-2 46 7 93l96 680q9 63 24 114.5t44.5 102.5t71.5 85.5t106.5 55.5t146.5 21h580q26 0 32.5 -10t1.5 -40l-24 -174q-5 -27 -14 -36t-33 -9h-490q-73 0 -105.5 -33.5t-39.5 -93.5l-23 -157h570q24 0 29.5 -9.5t0.5 -39.5l-22 -160q-5 -26 -14 -36.5t-31 -10.5 h-570l-32 -234q-10 -69 17.5 -96t92.5 -27h537q26 0 32 -9t1 -40l-23 -174q-5 -26 -15 -36.5t-32 -10.5h-600q-73 0 -129 15t-91.5 41.5t-59.5 62.5t-32 77.5t-10 87.5zM496 1653q0 67 53 119.5t117 52.5q54 0 91.5 -38t37.5 -95q0 -64 -54.5 -116t-117.5 -52 q-54 0 -90.5 37.5t-36.5 91.5zM903 1653q0 67 53 119.5t119 52.5q54 0 90.5 -37.5t36.5 -93.5q0 -65 -53.5 -117.5t-116.5 -52.5q-55 0 -92 37.5t-37 91.5z" />
<glyph unicode="&#x402;" horiz-adv-x="1599" d="M141 1208l27 183q5 27 12.5 35t30.5 8h1087q24 0 30.5 -7.5t2.5 -35.5l-26 -183q-5 -24 -13 -32.5t-30 -8.5h-447l-41 -278q182 49 344 49q200 0 306 -106.5t106 -317.5q0 -92 -24 -186t-70.5 -186.5t-124.5 -176.5t-178 -145q-20 -13 -31.5 -12.5t-24.5 18.5l-98 117 q-16 25 10 51q116 99 182 227t66 252q0 103 -52 157t-169 54q-131 0 -277 -47l-84 -598q-5 -24 -12 -31.5t-31 -7.5h-223q-45 0 -39 39l160 1128h-336q-22 0 -28.5 8.5t-4.5 32.5z" />
<glyph unicode="&#x403;" horiz-adv-x="1142" d="M102 43l144 1014q9 62 26 114.5t48 102.5t74.5 85t107.5 56t143 21h590q24 0 31 -10t2 -40l-25 -174q-5 -26 -14.5 -35.5t-32.5 -9.5h-504q-73 0 -105.5 -33t-39.5 -94l-144 -997q-5 -29 -12.5 -36t-38.5 -7h-209q-25 0 -35 9.5t-6 33.5zM648.5 1631.5q0.5 9.5 17.5 25.5 l346 256q14 12 22 13t27 -15l115 -160q10 -12 6 -23t-17 -16l-401 -201q-17 -8 -27 -6t-20 15l-60 90q-9 12 -8.5 21.5z" />
<glyph unicode="&#x404;" horiz-adv-x="1277" d="M145 561q0 207 53.5 376t148.5 282t226.5 174t288.5 61q234 0 395 -88q24 -12 20 -32q-1 -7 -13 -40l-60 -139q-12 -29 -25.5 -35.5t-39.5 4.5q-128 52 -271 52q-142 0 -235.5 -79.5t-128.5 -228.5h465q23 0 29.5 -8t2.5 -31l-24 -174q-4 -24 -11.5 -30.5t-31.5 -6.5 h-467q-28 -360 283 -360q60 0 126.5 14t94.5 24t100 36q32 10 39 6t18 -31l68 -149q10 -30 5 -42.5t-27 -23.5q-212 -115 -484 -115q-545 0 -545 584z" />
<glyph unicode="&#x405;" horiz-adv-x="1191" d="M52 129q-2 12 11 39l78 164q12 24 24.5 28.5t35.5 -6.5q209 -96 385 -96q66 0 113.5 14t72 38t35 50.5t10.5 57.5q0 53 -41.5 88t-154.5 90q-104 50 -175.5 94.5t-128.5 98t-84.5 115t-27.5 134.5q0 194 135.5 307t382.5 113q116 0 230 -23.5t194 -66.5q23 -10 27 -24 t-7 -46l-49 -153q-11 -28 -26 -33.5t-37 2.5q-198 66 -346 66q-91 0 -134 -36.5t-43 -92.5q0 -41 48 -80t163 -90q99 -44 165.5 -82.5t127 -92.5t90 -123t29.5 -155q0 -114 -43 -201.5t-120.5 -141.5t-179.5 -81t-226 -27q-144 0 -283 31.5t-235 97.5q-14 11 -16 23z" />
<glyph unicode="&#x406;" horiz-adv-x="653" d="M127 43l190 1348q4 24 16.5 33.5t37.5 9.5h211q29 0 37 -8.5t4 -34.5l-191 -1348q-5 -27 -13.5 -35t-37.5 -8h-211q-26 0 -36.5 9.5t-6.5 33.5z" />
<glyph unicode="&#x407;" horiz-adv-x="653" d="M127 43l190 1348q4 24 16.5 33.5t37.5 9.5h211q29 0 37 -8.5t4 -34.5l-191 -1348q-5 -27 -13.5 -35t-37.5 -8h-211q-26 0 -36.5 9.5t-6.5 33.5zM164 1659q0 67 53 119.5t117 52.5q54 0 91.5 -38t37.5 -95q0 -64 -54.5 -116t-117.5 -52q-54 0 -90.5 37.5t-36.5 91.5z M571 1659q0 67 53 119.5t119 52.5q54 0 90.5 -37.5t36.5 -93.5q0 -65 -53.5 -117.5t-116.5 -52.5q-55 0 -92 37.5t-37 91.5z" />
<glyph unicode="&#x408;" horiz-adv-x="1173" d="M15.5 100q-1.5 10 11.5 39l75 168q10 21 22 23t28 -8q142 -66 290 -66q68 0 117.5 16t81 42.5t53.5 73.5t33.5 94.5t22.5 121.5l110 789q4 27 15.5 34t37.5 7h209q27 0 35 -7t4 -34l-121 -856q-14 -103 -36 -181t-64 -152t-102 -122t-152.5 -76.5t-212.5 -28.5 q-243 0 -438 105q-18 8 -19.5 18z" />
<glyph unicode="&#x409;" horiz-adv-x="2060" d="M-18 143q-18 43 28 70q59 30 100.5 60t77.5 76.5t60.5 96t50 134t46 174t48.5 231.5l62 313q14 75 45.5 106.5t101.5 31.5h610q71 0 96.5 -33.5t14.5 -106.5l-55 -381h276q83 0 151.5 -14t115 -37.5t82 -56.5t56 -67.5t33.5 -75.5t17 -75t4 -71q0 -108 -38.5 -203 t-107.5 -164.5t-171.5 -110t-225.5 -40.5h-504q-69 0 -91 30t-11 95l145 1038h-282l-29 -143q-76 -376 -105 -486q-66 -249 -168 -374q-109 -135 -311 -201q-43 -15 -61 31zM1178 274h282q62 0 108.5 21t71 55.5t35.5 70t11 71.5q0 75 -41.5 119t-126.5 44h-287z" />
<glyph unicode="&#x40a;" horiz-adv-x="2088" d="M102 29v8l191 1356q6 41 45 41h221q23 0 31 -5.5t8 -17.5t-2 -18q-60 -425 -70 -494h463q54 390 70 496q6 39 47 39h219q25 0 33 -4.5t8 -18.5q0 -12 -2 -16q-16 -105 -70 -490h277q115 0 201 -26t134 -65t77.5 -94.5t38 -102.5t8.5 -101q0 -228 -150 -372t-393 -144 h-504q-58 0 -82 20.5t-24 63.5q0 11 4 39l71 520h-460l-86 -606q-5 -24 -12.5 -30.5t-35.5 -6.5h-221q-35 0 -35 29zM1204 272h283q63 0 110 21t71 55t35 69.5t11 71.5q0 154 -170 154h-287q-4 -30 -53 -371z" />
<glyph unicode="&#x40b;" horiz-adv-x="1589" d="M141 1208l27 183q5 27 12.5 35t30.5 8h1083q23 0 29 -8.5t2 -34.5l-27 -183q-6 -41 -41 -41h-442l-41 -278q199 47 354 47q438 0 375 -465l-57 -420q-6 -32 -18 -41.5t-42 -9.5h-196q-53 0 -47 51l55 400q19 113 -21 173t-171 60q-125 0 -267 -49l-84 -596 q-5 -24 -12 -31.5t-31 -7.5h-223q-45 0 -39 39l160 1128h-336q-22 0 -28.5 8.5t-4.5 32.5z" />
<glyph unicode="&#x40c;" horiz-adv-x="1337" d="M102 33l193 1368q4 22 12 27.5t27 5.5h235q22 0 28.5 -5.5t0.5 -27.5l-74 -522h172q32 0 58 6t57.5 24t59.5 57t49 97l139 346q11 29 45 29h233q22 0 25 -15t-4 -26l-144 -367q-65 -177 -202 -256l-2 -10q49 -20 80 -44t48 -58.5t24 -63.5t14 -82l67 -475q6 -41 -33 -41 h-239q-33 0 -39 29l-51 426q-17 109 -67.5 147.5t-158.5 38.5h-166l-81 -608q-4 -22 -11.5 -27.5t-29.5 -5.5h-234q-14 0 -20.5 1.5t-10 9t-0.5 22.5zM675 1637.5q0 9.5 17 25.5l346 256q14 12 22 13t27 -15l115 -160q10 -12 6.5 -23t-16.5 -16l-401 -200q-17 -8 -27.5 -6.5 t-20.5 14.5l-59 90q-9 12 -9 21.5z" />
<glyph unicode="&#x40e;" horiz-adv-x="1206" d="M120 6.5q-5 6.5 1 30.5l43 170q7 23 17.5 26t33.5 -4q57 -8 117 -8q69 2 105 23t65 80l47 92h-53q-48 0 -67.5 16.5t-31.5 71.5l-223 897q-9 39 33 39h229q34 0 42.5 -7.5t13.5 -33.5l88 -416l63 -338h14l156 354l182 398q13 27 24 35t42 8h246q35 0 20 -35l-567 -1165 q-75 -153 -165 -215t-249 -62q-105 0 -196 29q-25 8 -30 14.5zM416 1731q-16 21 10 45l92 77q5 3 8.5 5t6.5 3t5 2t4.5 0t4 -1t4 -2t3.5 -3.5t4 -4.5l5 -5q117 -139 230 -139q57 0 117 27.5t155 115.5q22 16 27.5 16t17.5 -12l66 -67q12 -12 13.5 -21.5t-1.5 -14t-10 -11.5 q-214 -248 -426 -248q-109 0 -195 67.5t-141 170.5z" />
<glyph unicode="&#x40f;" horiz-adv-x="1441" d="M117 137l176 1258q6 39 47 39h217q29 0 35 -7t4 -32l-160 -1127h539l158 1127q6 39 47 39h219q29 0 35.5 -7.5t1.5 -31.5l-179 -1258q-11 -72 -43 -104.5t-102 -32.5h-299l-59 -307q-6 -39 -41 -39h-172q-22 0 -27.5 9t-3.5 32l27 305h-312q-130 0 -108 137z" />
<glyph unicode="&#x410;" horiz-adv-x="1300" d="M-18 41l593 1284q30 67 63.5 89t96.5 24h121q69 0 97.5 -21t39.5 -92l234 -1284q5 -41 -31 -41h-227q-18 0 -27 1.5t-16.5 9t-10.5 22.5l-41 266h-452l-115 -260q-12 -23 -23 -31t-38 -8h-242q-36 0 -22 41zM526 553h312l-37 260l-31 293h-14l-117 -293z" />
<glyph unicode="&#x411;" horiz-adv-x="1320" d="M115 125l164 1171q11 72 44 105t103 33h772q23 0 28.5 -8t0.5 -35l-27 -183q-5 -24 -12 -32.5t-27 -8.5h-596l-37 -252h277q115 0 201.5 -27.5t134 -67.5t76 -96.5t37 -104t8.5 -101.5q0 -229 -147.5 -373.5t-393.5 -144.5h-504q-70 0 -91.5 28.5t-10.5 96.5zM438 274 h283q50 0 90 14.5t65 37t42 52t23.5 58t6.5 56.5q0 75 -42.5 119t-127.5 44h-286z" />
<glyph unicode="&#x412;" horiz-adv-x="1349" d="M115 125l168 1184q11 70 38.5 98.5t96.5 28.5h481q84 0 153 -18t123.5 -55t84.5 -99.5t30 -145.5q0 -110 -55 -194t-150 -129l-2 -15q174 -74 174 -297q0 -211 -153 -347t-387 -136h-500q-70 0 -91.5 28.5t-10.5 96.5zM438 274h287q61 0 107 22t69.5 57t34 69t10.5 67 q0 70 -42.5 111t-125.5 41h-289zM524 891h269q28 0 55.5 7.5t55.5 24.5t45.5 51.5t17.5 80.5q0 50 -34.5 79t-92.5 29h-277z" />
<glyph unicode="&#x413;" horiz-adv-x="1142" d="M102 43l144 1014q9 62 26 114.5t48 102.5t74.5 85t107.5 56t143 21h590q24 0 31 -10t2 -40l-25 -174q-5 -26 -14.5 -35.5t-32.5 -9.5h-504q-73 0 -105.5 -33t-39.5 -94l-144 -997q-5 -29 -12.5 -36t-38.5 -7h-209q-25 0 -35 9.5t-6 33.5z" />
<glyph unicode="&#x414;" horiz-adv-x="1550" d="M-43 -301l41 461q2 18 4 29t8 26t14.5 23t23.5 15t36 9l74 6q70 70 115 159t89 257l156 600q21 76 59 113t119 37h654q66 0 94.5 -36t17.5 -102l-145 -1028l80 -6q35 -3 50.5 -17t14.5 -35.5t-4 -49.5l-88 -457q-5 -21 -14.5 -31t-28.5 -10h-176q-23 0 -28 9.5t-3 33.5 l31 295h-889l-61 -295q-9 -43 -51 -43h-160q-36 0 -33 37zM496 266h520q64 473 125 897h-369l-104 -422q-52 -202 -88 -299t-84 -176z" />
<glyph unicode="&#x415;" horiz-adv-x="1216" d="M143 284q-2 46 7 93l96 680q9 63 24 114.5t44.5 102.5t71.5 85.5t106.5 55.5t146.5 21h580q26 0 32.5 -10t1.5 -40l-24 -174q-5 -27 -14 -36t-33 -9h-490q-73 0 -105.5 -33.5t-39.5 -93.5l-23 -157h570q24 0 29.5 -9.5t0.5 -39.5l-22 -160q-5 -26 -14 -36.5t-31 -10.5 h-570l-32 -234q-10 -69 17.5 -96t92.5 -27h537q26 0 32 -9t1 -40l-23 -174q-5 -26 -15 -36.5t-32 -10.5h-600q-73 0 -129 15t-91.5 41.5t-59.5 62.5t-32 77.5t-10 87.5z" />
<glyph unicode="&#x416;" horiz-adv-x="2011" d="M1 15q-5 15 3 26l191 475q21 52 38 85t43.5 66t64 56t89.5 41l2 10q-60 36 -90 96t-41 160l-41 367q-6 41 33 41h229q33 0 35 -29l41 -346q8 -61 27 -100t48.5 -56t55 -22.5t62.5 -5.5h133l73 522q0 22 7.5 27.5t29.5 5.5h232q15 0 21.5 -1.5t10 -9t0.5 -22.5l-71 -522 h137q36 0 63.5 5.5t61.5 22.5t63.5 56t53.5 100l139 346q11 29 43 29h227q22 0 25 -15t-4 -26l-142 -367q-68 -191 -204 -256v-10q47 -18 79 -44t49 -60.5t25 -66.5t12 -77l56 -475q6 -41 -33 -41h-240q-30 0 -36 29l-54 440q-17 103 -61.5 137.5t-151.5 34.5h-143l-86 -608 q-4 -22 -12 -27.5t-29 -5.5h-229q-23 0 -30 5.5t-3 27.5l86 608h-135q-109 0 -167.5 -34.5t-97.5 -137.5l-178 -440q-11 -29 -43 -29h-239q-23 0 -28 15z" />
<glyph unicode="&#x417;" horiz-adv-x="1245" d="M32 120.5q0 12.5 17 43.5l76 145q11 24 22.5 29t38.5 -8q176 -82 338 -82q156 0 235 65.5t79 167.5q0 70 -51.5 112.5t-157.5 43.5h-99q-52 0 -64 12t-7 49l16 119q4 39 22 50.5t60 11.5h100q103 0 166.5 47.5t63.5 132.5q0 61 -53.5 91t-143.5 30q-155 0 -342 -70 q-30 -9 -41 -3t-22 34l-49 137q-12 36 -8 46t34 28q94 52 218.5 79t252.5 27q98 0 182 -18.5t151.5 -56.5t106.5 -103t39 -150q0 -116 -73 -215t-193 -149l-2 -10q213 -67 213 -287q0 -142 -79.5 -255t-219.5 -175t-315 -62q-137 0 -271 28t-223 91q-17 12 -17 24.5z" />
<glyph unicode="&#x418;" horiz-adv-x="1488" d="M123 141l176 1256q6 39 47 39h213q29 0 35.5 -7.5t1.5 -31.5l-129 -922h12l209 287l426 581q38 57 70 75t92 18h76q73 0 97 -32t13 -112l-170 -1253q-6 -39 -45 -39h-217q-29 0 -37.5 8t-3.5 31l131 919h-10l-221 -307l-416 -561q-41 -57 -70.5 -73.5t-87.5 -16.5h-82 q-74 0 -97.5 35t-12.5 106z" />
<glyph unicode="&#x419;" horiz-adv-x="1488" d="M123 141l176 1256q6 39 47 39h213q29 0 35.5 -7.5t1.5 -31.5l-129 -922h12l209 287l426 581q38 57 70 75t92 18h76q73 0 97 -32t13 -112l-170 -1253q-6 -39 -45 -39h-217q-29 0 -37.5 8t-3.5 31l131 919h-10l-221 -307l-416 -561q-41 -57 -70.5 -73.5t-87.5 -16.5h-82 q-74 0 -97.5 35t-12.5 106zM545 1724q-16 21 10 45l92 78q5 3 8.5 5t6.5 3t5 2t4.5 0t4 -1t4 -2t3.5 -3.5t4 -4.5l5 -5q117 -139 230 -139q57 0 117 27.5t155 115.5q22 16 27.5 16t17.5 -12l66 -67q12 -12 13.5 -21.5t-1.5 -14t-10 -11.5q-214 -248 -426 -248 q-109 0 -195 67t-141 170z" />
<glyph unicode="&#x41a;" horiz-adv-x="1337" d="M102 33l193 1368q4 22 12 27.5t27 5.5h235q22 0 28.5 -5.5t0.5 -27.5l-74 -522h172q32 0 58 6t57.5 24t59.5 57t49 97l139 346q11 29 45 29h233q22 0 25 -15t-4 -26l-144 -367q-65 -177 -202 -256l-2 -10q49 -20 80 -44t48 -58.5t24 -63.5t14 -82l67 -475q6 -41 -33 -41 h-239q-33 0 -39 29l-51 426q-17 109 -67.5 147.5t-158.5 38.5h-166l-81 -608q-4 -22 -11.5 -27.5t-29.5 -5.5h-234q-14 0 -20.5 1.5t-10 9t-0.5 22.5z" />
<glyph unicode="&#x41b;" horiz-adv-x="1443" d="M-18 143q-18 43 28 70q59 30 100.5 60t77.5 76.5t60.5 96t50 134t46 174t48.5 231.5l62 311q14 75 45.5 106.5t101.5 31.5h713q65 0 92 -36.5t16 -101.5l-176 -1259q-5 -24 -13 -30.5t-34 -6.5h-221q-35 0 -35 29v8q80 591 158 1126h-385l-29 -143q-76 -376 -105 -486 q-66 -249 -168 -374q-109 -135 -311 -201q-43 -15 -61 31z" />
<glyph unicode="&#x41c;" horiz-adv-x="1726" d="M102 41l177 1251q11 79 43.5 111.5t103.5 32.5h102q55 0 79 -20.5t42 -76.5l137 -495l86 -334h9l190 348l262 477q33 57 67 79t95 22h107q68 0 93 -28.5t15 -104.5l-178 -1262q-4 -28 -13.5 -34.5t-37.5 -6.5h-195q-27 0 -36 7t-5 34l119 840h-10l-123 -236l-213 -387 q-30 -55 -54 -72.5t-71 -17.5h-109q-50 0 -68 17t-32 73l-94 348l-68 250h-12l-115 -815q-4 -28 -13 -34.5t-36 -6.5h-203q-27 0 -36 7t-5 34z" />
<glyph unicode="&#x41d;" horiz-adv-x="1441" d="M102 43l191 1348q4 24 15.5 33.5t35.5 9.5h211q29 0 37 -8.5t4 -34.5l-72 -510h537l74 510q4 25 15 34t36 9h209q30 0 38 -8t3 -35l-191 -1348q-5 -28 -13 -35.5t-38 -7.5h-209q-26 0 -35.5 9.5t-5.5 33.5l82 573h-539l-81 -573q-5 -27 -14 -35t-38 -8h-211 q-25 0 -35 9.5t-6 33.5z" />
<glyph unicode="&#x41e;" horiz-adv-x="1449" d="M147 541q0 209 53 381t147.5 289t227 181t289.5 64q263 0 400 -151.5t137 -419.5q0 -195 -47.5 -360.5t-137.5 -287.5t-228 -191t-310 -69q-266 0 -398.5 145t-132.5 419zM461 561q0 -149 59 -226t191 -77q95 0 169.5 52.5t119 140.5t67.5 194.5t23 222.5q0 310 -252 310 q-92 0 -165.5 -53t-118.5 -141.5t-69 -197t-24 -225.5z" />
<glyph unicode="&#x41f;" horiz-adv-x="1441" d="M102 39l177 1257q11 73 45 106.5t102 33.5h887q70 0 94.5 -33t13.5 -107l-176 -1257q-5 -25 -12 -32t-35 -7h-219q-43 0 -37 39l158 1124h-537l-157 -1124q-5 -25 -12.5 -32t-35.5 -7h-219q-43 0 -37 39z" />
<glyph unicode="&#x420;" horiz-adv-x="1280" d="M102 43l181 1268q8 62 37.5 93.5t97.5 31.5h477q198 0 306 -110.5t108 -293.5q0 -38 -5.5 -78t-21.5 -91.5t-41.5 -98t-70.5 -92t-102.5 -78.5t-143 -53.5t-187.5 -20.5h-266l-68 -477q-4 -29 -12.5 -36t-38.5 -7h-209q-25 0 -35 9.5t-6 33.5zM508 772h254 q108 0 169.5 64t61.5 165q0 66 -39 113t-133 47h-258z" />
<glyph unicode="&#x421;" horiz-adv-x="1277" d="M145 561q0 207 53.5 376t148.5 282t226.5 174t288.5 61q234 0 395 -88q24 -12 20 -32q-1 -7 -13 -40l-60 -139q-12 -29 -25.5 -35.5t-39.5 4.5q-128 52 -271 52q-132 0 -223.5 -76t-134.5 -207t-43 -309q0 -160 63.5 -243t219.5 -83q60 0 126.5 14t94.5 24t100 36 q32 10 39 6t18 -31l68 -149q10 -30 5 -42.5t-27 -23.5q-212 -115 -484 -115q-545 0 -545 584z" />
<glyph unicode="&#x422;" horiz-adv-x="1140" d="M141 1208l27 183q5 27 12.5 35t30.5 8h1018q24 0 30.5 -8.5t2.5 -34.5l-27 -183q-5 -24 -13 -32.5t-30 -8.5h-361l-159 -1124q-5 -27 -13.5 -35t-37.5 -8h-213q-26 0 -35.5 9.5t-5.5 33.5l159 1124h-352q-22 0 -28.5 8.5t-4.5 32.5z" />
<glyph unicode="&#x423;" horiz-adv-x="1206" d="M120 6.5q-5 6.5 1 30.5l43 170q7 23 17.5 26t33.5 -4q57 -8 117 -8q69 2 105 23t65 80l47 92h-53q-48 0 -67.5 16.5t-31.5 71.5l-223 897q-9 39 33 39h229q34 0 42.5 -7.5t13.5 -33.5l88 -416l63 -338h14l156 354l182 398q13 27 24 35t42 8h246q35 0 20 -35l-567 -1165 q-75 -153 -165 -215t-249 -62q-105 0 -196 29q-25 8 -30 14.5z" />
<glyph unicode="&#x424;" horiz-adv-x="1724" d="M150 629q0 198 89 354.5t245.5 250t359.5 118.5l6 43q6 39 47 39h219q26 0 33.5 -8t3.5 -31l-6 -43q260 -32 393 -168.5t133 -364.5q0 -294 -192 -484.5t-508 -223.5l-12 -72q-5 -24 -13 -31.5t-33 -7.5h-219q-43 0 -37 39l11 74q-254 26 -387 163t-133 353zM446 653 q0 -122 63 -200.5t193 -98.5l107 752q-88 -16 -159 -61.5t-114.5 -109t-66.5 -136t-23 -146.5zM1004 354q95 16 169.5 60t118.5 106.5t66 134t22 148.5q0 119 -65 202.5t-205 102.5z" />
<glyph unicode="&#x425;" horiz-adv-x="1226" d="M-33.5 14q-4.5 14 6.5 27l521 704l-293 652q-9 12 -1.5 25.5t29.5 13.5h217q41 0 55.5 -8t24.5 -37l164 -400l273 400q19 29 35 37t57 8h243q22 0 25.5 -14t-8.5 -27l-475 -647l323 -707q5 -15 -1.5 -28t-22.5 -13h-236q-36 0 -51.5 9t-28.5 38l-178 445l-303 -445 q-24 -30 -40 -38.5t-52 -8.5h-262q-17 0 -21.5 14z" />
<glyph unicode="&#x426;" horiz-adv-x="1517" d="M117 137l178 1260q6 39 45 39h219q29 0 35.5 -7.5t1.5 -31.5l-160 -1127h539l160 1127q5 24 13.5 31.5t31.5 7.5h219q29 0 35.5 -7.5t1.5 -31.5l-158 -1123h98q47 0 59 -24.5t5 -67.5l-86 -473q-9 -39 -43 -39h-164q-23 0 -30 8.5t-5 32.5l27 289h-914q-68 0 -93.5 33.5 t-14.5 103.5z" />
<glyph unicode="&#x427;" horiz-adv-x="1329" d="M170 783.5q-17 91.5 0 213.5l57 400q5 24 13.5 31.5t31.5 7.5h217q26 0 33.5 -8t3.5 -31l-51 -369q-21 -147 36 -207.5t226 -60.5q100 0 199 18l86 619q6 39 47 39h217q26 0 33.5 -8t3.5 -31l-190 -1358q-5 -24 -13.5 -31.5t-34.5 -7.5h-217q-45 0 -39 39l68 465 q-127 -19 -240 -19q-152 0 -255.5 35t-159 103.5t-72.5 160z" />
<glyph unicode="&#x428;" horiz-adv-x="2011" d="M117 137l178 1260q6 39 45 39h221q29 0 35.5 -7.5t1.5 -31.5l-158 -1127h404l157 1127q6 39 48 39h217q29 0 36.5 -7.5t2.5 -31.5l-160 -1127h399l160 1127q5 24 13.5 31.5t33.5 7.5h219q43 0 37 -39l-178 -1260q-11 -71 -43.5 -104t-97.5 -33h-1467q-66 0 -90.5 33.5 t-13.5 103.5z" />
<glyph unicode="&#x429;" horiz-adv-x="2088" d="M117 137l178 1260q6 39 45 39h221q29 0 35.5 -7.5t1.5 -31.5l-158 -1127h404l157 1127q6 39 48 39h217q29 0 36.5 -7.5t2.5 -31.5l-160 -1127h399l160 1127q6 39 45 39h221q26 0 33.5 -8t3.5 -31l-158 -1123h97q49 0 60.5 -24t2.5 -68l-86 -473q-6 -39 -41 -39h-166 q-23 0 -29 8.5t-1 32.5l22 289h-1487q-66 0 -90.5 33.5t-13.5 103.5z" />
<glyph unicode="&#x42a;" horiz-adv-x="1675" d="M137 1208l27 181q5 30 10.5 37.5t28.5 7.5h624q74 0 97.5 -36t11.5 -102l-51 -383h276q115 0 201 -27.5t133.5 -67.5t76.5 -96.5t37.5 -104t8.5 -101.5q0 -221 -151 -368.5t-394 -147.5h-500q-71 0 -91.5 31t-12.5 92q24 175 72.5 522t72.5 522h-448q-40 0 -29 41z M793 272h280q62 0 109 21t72 54.5t37 69t12 72.5q0 75 -42.5 119.5t-125.5 44.5h-289z" />
<glyph unicode="&#x42b;" horiz-adv-x="1826" d="M115 125q4 36 28 206.5t69.5 493.5t80.5 572q6 39 45 39h221q26 0 33.5 -8t3.5 -31l-68 -482h277q115 0 201.5 -27.5t134 -67.5t76 -96.5t37 -104t8.5 -101.5q0 -108 -38.5 -203t-107.5 -164.5t-171 -110t-224 -40.5h-504q-70 0 -91.5 28.5t-10.5 96.5zM438 274h283 q62 0 108.5 21t71 55t36 69.5t11.5 72.5q0 75 -42.5 119t-127.5 44h-286zM1329 39l191 1356q6 39 45 39h221q26 0 33.5 -8t3.5 -31l-193 -1356q-5 -25 -12.5 -32t-32.5 -7h-221q-41 0 -35 39z" />
<glyph unicode="&#x42c;" horiz-adv-x="1320" d="M115 125q4 36 28 206.5t69.5 493.5t80.5 572q6 39 45 39h221q26 0 33.5 -8t3.5 -31l-68 -482h277q115 0 201.5 -27.5t134 -67.5t76 -96.5t37 -104t8.5 -101.5q0 -224 -148.5 -371t-392.5 -147h-504q-70 0 -91.5 28.5t-10.5 96.5zM438 274h279q63 0 110.5 21t72.5 55 t36.5 69.5t11.5 72.5q0 75 -42.5 119t-127.5 44h-286z" />
<glyph unicode="&#x42d;" horiz-adv-x="1282" d="M44 115q-1 12 15 43l70 139q13 26 25.5 30t38.5 -8q157 -67 307 -67q164 0 263 99t126 267h-471q-24 0 -30.5 7t-2.5 30l25 174q5 26 12 33.5t29 7.5h464q10 147 -61.5 226.5t-212.5 79.5q-129 0 -283 -54q-23 -7 -33.5 -1t-21.5 32l-51 139q-11 36 -6 48t33 26 q179 86 409 86q275 0 409 -153.5t134 -442.5q0 -265 -83.5 -462.5t-246 -307t-385.5 -109.5q-282 0 -453 115q-18 11 -19 23z" />
<glyph unicode="&#x42e;" horiz-adv-x="1947" d="M102 39l193 1356q6 39 45 39h217q29 0 35.5 -7.5t1.5 -31.5l-72 -516h213q76 271 241.5 424t409.5 153q255 0 382.5 -156.5t127.5 -431.5q0 -266 -80 -466t-238 -312.5t-376 -112.5q-132 0 -231.5 40.5t-161 115.5t-91.5 176t-30 226q0 27 4 81h-207l-82 -577 q-5 -25 -12 -32t-35 -7h-217q-43 0 -37 39zM1001 561q0 -305 232 -305q90 0 160 49.5t111.5 135t63 192.5t21.5 229q0 314 -231 314q-110 0 -192.5 -84.5t-123.5 -223t-41 -307.5z" />
<glyph unicode="&#x42f;" horiz-adv-x="1341" d="M23.5 14q-5.5 14 1.5 33q29 76 80.5 217t66.5 180q30 81 84.5 134t142.5 81l2 3q-93 35 -139.5 116.5t-46.5 190.5q0 144 68.5 250.5t185 160.5t264.5 54h486q126 0 102 -125l-178 -1274q-4 -23 -12.5 -29t-32.5 -6h-219q-28 0 -34.5 6.5t-6.5 28.5q48 351 77 545h-184 q-93 0 -151 -40.5t-95 -138.5l-133 -356q-11 -29 -30.5 -37t-49.5 -8h-219q-24 0 -29.5 14zM528 977q0 -68 40 -107t118 -39h264l43 328h-270q-101 0 -148 -53.5t-47 -128.5z" />
<glyph unicode="&#x430;" horiz-adv-x="1189" d="M104 395q0 330 151.5 517.5t434.5 187.5q198 0 414 -56q32 -10 39.5 -26.5t-0.5 -38.5q-74 -493 -121 -893q-3 -30 -31 -39q-199 -70 -434 -70q-453 0 -453 418zM403 426q0 -199 209 -199q65 0 142 25q46 363 84 582q-75 16 -162 16q-53 0 -100 -24.5t-85.5 -73.5 t-62 -132.5t-25.5 -193.5z" />
<glyph unicode="&#x431;" horiz-adv-x="1169" d="M100 436q0 89 4 115q8 95 17 166t27 162t41.5 158.5t62 140t87.5 123t119.5 91.5t155.5 60q138 30 394 57q22 1 28 -3.5t11 -22.5l20 -154q0 -5 0.5 -15t0 -14t-2 -10.5t-5 -9.5t-10 -6.5t-16.5 -5.5q-43 -7 -129 -17t-123 -18q-83 -16 -133 -34t-91.5 -53.5t-66 -90 t-42.5 -140.5l4 -4q131 86 319 86q171 0 258.5 -110t87.5 -291q0 -88 -17.5 -171.5t-59.5 -164.5t-105 -142t-161.5 -99.5t-221.5 -41.5q-80 0 -146 14t-112.5 37t-81.5 58t-56 73.5t-34.5 86.5t-18 93t-4.5 97zM397 410q0 -187 170 -187q55 0 99 23t71.5 59.5t46 84t26 93 t7.5 90.5q0 177 -166 177q-56 0 -115.5 -17.5t-99.5 -48.5q-39 -140 -39 -274z" />
<glyph unicode="&#x432;" horiz-adv-x="1136" d="M92 119l86 610q24 177 144 277t331 100q185 0 288 -73.5t108 -192.5q0 -38 -9 -76.5t-43 -85.5t-90 -72v-10q168 -58 168 -225q0 -172 -142 -283t-386 -111q-267 0 -426 80q-22 11 -28 25.5t-1 36.5zM397 227q94 -16 156 -16q108 0 165.5 46t57.5 118q0 102 -158 102h-32 q-27 0 -36 8.5t-5 32.5l14 98q3 20 12 30t19 13t35 7q69 6 104 37t35 75q0 39 -33 67.5t-96 28.5q-77 0 -115 -41t-47 -106z" />
<glyph unicode="&#x433;" horiz-adv-x="1017" d="M57 258q0 42 13 81.5t32.5 71t53.5 63t65.5 54.5t78.5 49.5t82.5 44t88.5 42.5q20 10 59 27.5t59.5 28t45.5 25.5t36 31t11 33q0 34 -24 44.5t-68 10.5q-48 0 -142.5 -22t-177.5 -54q-36 -14 -51 23l-47 125q-6 17 -6.5 28t5 18.5t8 9.5t11.5 7q206 105 457 105 q154 0 245 -64t91 -188q0 -60 -22 -111.5t-57.5 -91t-96 -78t-120 -67.5t-146.5 -66q-35 -15 -56.5 -25t-48 -25.5t-41 -29.5t-25 -33t-10.5 -40q0 -36 27.5 -49t83.5 -13q58 0 154 23t190 63q4 1 13.5 4t13.5 3.5t10.5 -0.5t11 -7.5t8.5 -17.5l54 -139q5 -11 6 -19.5 t-1.5 -13.5t-4.5 -7.5t-8 -5.5l-5 -4q-103 -62 -231 -90t-231 -28q-193 0 -293.5 65.5t-100.5 208.5z" />
<glyph unicode="&#x434;" horiz-adv-x="1212" d="M102 403q3 92 26.5 177t69 158.5t108.5 128t149 85.5t186 31q142 0 236 -41l10 4q5 154 -44.5 234t-183.5 80q-111 0 -241 -35q-2 0 -9 -2t-11 -2t-9.5 2t-9.5 8.5t-6 17.5l-29 176q-3 14 1 22.5t6 9.5t9 3q160 60 318 60q509 0 493 -613q-2 -75 -8 -145t-23.5 -167.5 t-45 -178.5t-76 -165t-112 -142t-158 -95t-209.5 -37q-102 0 -180.5 23.5t-127.5 62t-79 94.5t-41 115.5t-9 130.5zM406 408q0 -177 159 -177q56 0 101.5 23.5t75.5 64t51.5 88t33.5 103.5t17.5 100.5t7.5 89.5q-79 43 -201 43q-56 0 -100 -22t-70.5 -56t-44 -79.5t-24 -89 t-6.5 -88.5z" />
<glyph unicode="&#x435;" horiz-adv-x="1105" d="M102 395q0 174 43 310t120 222t180 130.5t227 44.5q199 0 300 -81t101 -226q0 -193 -122.5 -286t-383.5 -93q-90 0 -164 10q-13 -108 24.5 -146t154.5 -40q48 0 119.5 15t127.5 36q25 8 34 5t16 -20l63 -161q16 -28 -22 -49q-74 -45 -188.5 -67t-211.5 -22 q-199 0 -308.5 105.5t-109.5 312.5zM432 635q62 -4 88 -4q154 0 210 28.5t56 96.5q0 43 -30.5 70.5t-100.5 27.5q-81 0 -142.5 -54t-80.5 -165z" />
<glyph unicode="&#x436;" horiz-adv-x="1638" d="M-2 37l152 354q17 40 30.5 64t36 50.5t54 44.5t75.5 30v4q-53 23 -79 70t-38 118l-32 268q0 35 26 35h217q9 0 13.5 -1t9.5 -7t8 -18l37 -226q16 -81 51 -111t94 -30h66l51 360q4 22 11 27.5t28 5.5h217q14 0 20.5 -1.5t10 -9t0.5 -22.5l-49 -360h61q58 0 99.5 29.5 t80.5 111.5l99 226q10 26 36 26h230q17 0 20.5 -12.5t-2.5 -22.5l-112 -268q-53 -144 -166 -188l-4 -4q41 -11 68 -29t42 -45t22 -51.5t13 -63.5l51 -354v-3q1 -34 -28 -34h-224q-23 0 -30 25l-47 315q-20 123 -154 123h-86l-62 -430q-4 -22 -11.5 -27.5t-26.5 -5.5h-218 q-22 0 -28 5.5t-2 27.5l59 430h-80q-133 0 -188 -123l-137 -315q-9 -25 -37 -25h-226q-38 0 -22 37z" />
<glyph unicode="&#x437;" horiz-adv-x="1009" d="M29 100l53 148q6 18 19 20.5t36 -6.5q147 -43 266 -43q115 0 170.5 36.5t55.5 96.5q0 32 -15 53t-48 32.5t-69.5 17t-95.5 8.5q-38 4 -51 17.5t-8 43.5l10 66q4 33 23 45t53 14q113 9 168 32t55 81q0 48 -36.5 70t-110.5 22q-44 0 -116.5 -13t-135.5 -34q-23 -7 -33 -4.5 t-16 18.5l-39 137q-8 22 -5 35.5t27 24.5q81 38 186.5 60t205.5 22q173 0 274.5 -67t101.5 -197q0 -90 -51.5 -161.5t-138.5 -107.5v-4q73 -25 114.5 -86t41.5 -143q0 -114 -69 -195.5t-179.5 -120t-247.5 -38.5q-236 0 -381 71q-27 11 -14 49z" />
<glyph unicode="&#x438;" horiz-adv-x="1191" d="M139.5 261.5q-11.5 101.5 7.5 246.5l76 530q5 25 12 32t35 7h207q41 0 35 -39l-76 -549q-14 -93 -7.5 -153t50 -87.5t135.5 -27.5q71 0 142 10l110 807q5 25 13 32t36 7h205q41 0 35 -39l-123 -874q-11 -72 -43.5 -111.5t-101.5 -56.5q-143 -21 -295 -21 q-145 0 -238.5 29t-148 92.5t-66 165z" />
<glyph unicode="&#x439;" horiz-adv-x="1191" d="M139.5 261.5q-11.5 101.5 7.5 246.5l76 530q5 25 12 32t35 7h207q41 0 35 -39l-76 -549q-14 -93 -7.5 -153t50 -87.5t135.5 -27.5q71 0 142 10l110 807q5 25 13 32t36 7h205q41 0 35 -39l-123 -874q-11 -72 -43.5 -111.5t-101.5 -56.5q-143 -21 -295 -21 q-145 0 -238.5 29t-148 92.5t-66 165zM334 1413q-16 21 10 45l92 78q5 3 8.5 5t6.5 3t5 2t4.5 0t4 -1t4 -2t3.5 -3.5t4 -4.5l5 -5q117 -139 230 -139q57 0 117 27.5t155 115.5q22 16 27.5 16t17.5 -12l66 -68q12 -12 13.5 -21.5t-1.5 -14t-10 -11.5q-213 -247 -426 -247 q-109 0 -195 67t-141 170z" />
<glyph unicode="&#x43a;" horiz-adv-x="1140" d="M82 33l141 1009q4 22 12 27.5t27 5.5h217q23 0 30 -5.5t3 -27.5l-51 -356h92q61 0 106 28.5t80 108.5l101 226q10 26 37 26h221q17 0 20.5 -12.5t-2.5 -22.5l-112 -268q-53 -143 -164 -188l-4 -4q41 -11 67.5 -29t41.5 -45.5t21.5 -51t12.5 -63.5l55 -354v-3 q1 -34 -28 -34h-224q-23 0 -30 25l-50 315q-19 117 -155 117h-117l-59 -424q-4 -22 -11.5 -27.5t-29.5 -5.5h-217q-14 0 -20.5 1.5t-10 9t-0.5 22.5z" />
<glyph unicode="&#x43b;" horiz-adv-x="1181" d="M-12.5 172q4.5 12 32.5 25q51 22 81.5 42.5t61.5 56t52 91t42 138t42 206.5l39 223q12 67 43.5 94t97.5 27h555q68 0 90 -29t11 -96l-129 -911q-5 -25 -13.5 -32t-34.5 -7h-202q-46 0 -37 41l110 793h-241l-21 -107q-19 -103 -34 -175.5t-34 -145.5t-38.5 -122t-45.5 -97 t-56 -80t-69.5 -61.5t-86.5 -49.5t-107 -37q-29 -10 -41.5 -4.5t-17.5 29.5l-47 147q-7 29 -2.5 41z" />
<glyph unicode="&#x43c;" horiz-adv-x="1505" d="M82 39l129 917q15 119 137 119h119q47 0 75 -16t40 -66l102 -321l66 -236h14l149 256l170 291q29 53 62 72.5t90 19.5h119q121 0 106 -114l-131 -922q-4 -25 -13.5 -32t-35.5 -7h-195q-26 0 -35.5 7.5t-5.5 31.5l82 584h-10l-108 -195l-129 -231q-23 -40 -48 -55t-67 -15 h-96q-44 0 -64.5 14.5t-32.5 55.5l-65 227l-51 190h-9l-79 -575q-4 -25 -14 -32t-36 -7h-196q-23 0 -33 7.5t-6 31.5z" />
<glyph unicode="&#x43d;" horiz-adv-x="1204" d="M82 41l141 995q6 39 47 39h201q29 0 36 -7t3 -32l-47 -350h368l50 350q6 39 49 39h200q29 0 36.5 -7t2.5 -32l-141 -995q-5 -27 -12 -34t-35 -7h-201q-45 0 -39 41l58 412h-371l-57 -412q-5 -27 -12.5 -34t-36.5 -7h-201q-45 0 -39 41z" />
<glyph unicode="&#x43e;" horiz-adv-x="1181" d="M102 401q0 331 160 516t422 185q219 0 329.5 -115.5t110.5 -333.5q0 -311 -154 -493.5t-429 -182.5q-220 0 -329.5 108.5t-109.5 315.5zM406 436q0 -104 40 -155.5t127 -51.5q82 0 139.5 59t84 151t26.5 206q0 205 -166 205q-120 0 -185.5 -114t-65.5 -300z" />
<glyph unicode="&#x43f;" horiz-adv-x="1210" d="M82 37l125 878q11 73 43.5 113t101.5 53q39 7 133.5 14t153.5 7q284 0 397 -122t72 -409l-74 -534q-5 -25 -12 -31t-35 -6h-205q-25 0 -34 7.5t-5 29.5l78 553q12 89 0.5 148t-60 88.5t-143.5 29.5q-78 0 -133 -10l-114 -809q-5 -25 -12 -31t-35 -6h-203q-25 0 -34 7.5 t-5 29.5z" />
<glyph unicode="&#x440;" horiz-adv-x="1200" d="M23 -383l188 1335q5 25 14.5 38t34.5 26q190 82 436 82q99 0 175 -22.5t125.5 -62t81.5 -97.5t45.5 -124.5t13.5 -148.5q0 -111 -22 -210.5t-67.5 -182t-110.5 -142t-154 -93t-195 -33.5q-112 0 -219 24l-56 -389q-4 -23 -12.5 -29t-34.5 -6h-207q-25 0 -32.5 6.5 t-3.5 28.5zM406 260q77 -22 159 -22q118 0 196.5 95.5t78.5 291.5q0 117 -51 167t-152 50q-83 0 -154 -23z" />
<glyph unicode="&#x441;" horiz-adv-x="1017" d="M106 424q0 326 144.5 502t394.5 176q187 0 322 -66q18 -10 21 -21.5t-5 -35.5l-57 -160q-4 -15 -13.5 -20t-19.5 -3.5t-31 7.5q-106 28 -200 28q-87 0 -145.5 -52.5t-83.5 -135t-25 -190.5q0 -209 186 -209q112 0 235 45q23 9 33.5 6t16.5 -25l55 -157q8 -20 3 -33.5 t-28 -24.5q-152 -78 -377 -78q-426 0 -426 447z" />
<glyph unicode="&#x442;" horiz-adv-x="1849" d="M82 37l123 874q11 74 42 113t105 57q35 7 126 14t151 7q239 0 352 -96q72 44 173.5 71t197.5 27q467 0 401 -506l-80 -561q-5 -24 -12 -30.5t-33 -6.5h-205q-25 0 -33 7.5t-4 29.5l76 526q19 153 -16 220t-162 67q-41 0 -100 -10.5t-90 -26.5q20 -96 -2 -235l-76 -541 q-5 -25 -12 -31t-35 -6h-205q-25 0 -34 7.5t-5 29.5l78 553q11 85 4 144t-53 90.5t-138 31.5q-84 0 -133 -10l-112 -809q-5 -24 -13 -30.5t-34 -6.5h-205q-25 0 -33 7.5t-4 29.5z" />
<glyph unicode="&#x443;" horiz-adv-x="1110" d="M-37 -385q-4 8 4 33l43 155q7 24 18 27.5t35 -4.5q93 -27 148 -27q66 0 100.5 26t71.5 103l51 111h-47q-45 0 -63.5 17t-28.5 71l-170 909q-10 39 29 39h221q30 0 40 -7t11 -30l55 -413l45 -357h13l151 363l172 403q11 25 21.5 33t38.5 8h247q37 0 17 -33l-572 -1228 q-64 -136 -146 -198t-218 -62q-127 0 -254 43q-29 10 -33 18z" />
<glyph unicode="&#x444;" horiz-adv-x="1529" d="M109 463q0 120 34 222.5t92.5 175.5t137 126t166 79.5t180.5 29.5l53 364q4 23 13 30t32 7h201q34 0 41 -6.5t2 -30.5l-51 -368q208 -8 332 -130.5t124 -338.5q0 -174 -71 -315.5t-211.5 -230.5t-331.5 -100l-49 -352q-5 -24 -13.5 -31.5t-33.5 -7.5h-207q-22 0 -29.5 9 t-7.5 30l51 352q-222 18 -338 147.5t-116 338.5zM389 467q0 -108 52.5 -179t154.5 -83l88 641q-133 -11 -214 -110.5t-81 -268.5zM885 203q98 11 167 71.5t99.5 144t30.5 181.5q0 223 -207 244q-15 -102 -44.5 -316t-45.5 -325z" />
<glyph unicode="&#x445;" horiz-adv-x="1038" d="M-35.5 12.5q-4.5 12.5 12.5 32.5l406 522l-231 471q-8 10 -2.5 23.5t24.5 13.5h223q29 0 41 -7.5t23 -31.5l106 -262l174 262q13 23 28.5 31t45.5 8h248q21 0 23.5 -12.5t-7.5 -22.5l-370 -469l264 -528q19 -43 -29 -43h-219q-29 0 -42 10t-24 35l-129 313l-219 -313 q-19 -25 -35 -35t-45 -10h-239q-23 0 -27.5 12.5z" />
<glyph unicode="&#x446;" horiz-adv-x="1286" d="M145 485l78 553q5 25 12 31t35 6h203q25 0 33 -7.5t4 -29.5l-74 -528q-14 -97 -7 -160.5t52 -94t140 -30.5q103 0 178 37q-19 88 4 238l76 538q5 24 12 30.5t33 6.5h206q25 0 34 -7.5t5 -29.5l-79 -577q-18 -122 3.5 -180t112.5 -93q41 -17 51.5 -37t-0.5 -61l-124 -457 q-8 -32 -35 -32h-150q-18 0 -24 7.5t-4 26.5l49 365q-47 22 -78 63q-150 -92 -338 -92q-258 0 -352 128.5t-56 385.5z" />
<glyph unicode="&#x447;" horiz-adv-x="1144" d="M132.5 599.5q-12.5 76.5 4.5 172.5l39 270q6 33 39 33h217q24 0 30.5 -6.5t2.5 -26.5l-35 -241q-17 -120 16 -161.5t142 -41.5q92 0 174 23l59 421q6 33 39 33h215q24 0 31.5 -6.5t3.5 -26.5l-141 -1009q-5 -21 -12.5 -27t-30.5 -6h-215q-37 0 -31 33l49 350 q-129 -25 -219 -25q-121 0 -202.5 28.5t-122 82.5t-53 130.5z" />
<glyph unicode="&#x448;" horiz-adv-x="1851" d="M138 273q-16 93 3 206l80 559q5 24 13.5 31.5t33.5 7.5h205q43 0 37 -39l-76 -524q-22 -150 15.5 -218.5t164.5 -68.5q41 0 99.5 9.5t89.5 25.5q-20 97 2 238l76 538q5 24 13.5 31.5t33.5 7.5h205q44 0 38 -39l-77 -553q-11 -85 -5 -144t51.5 -90.5t137.5 -31.5 q76 0 135 12l113 807q5 25 12 32t35 7h205q43 0 37 -39l-123 -874q-11 -74 -41.5 -113t-104.5 -55q-37 -8 -128.5 -15.5t-149.5 -7.5q-238 0 -355 97q-72 -44 -171.5 -70.5t-196.5 -26.5q-125 0 -212.5 36.5t-133 103.5t-61.5 160z" />
<glyph unicode="&#x449;" horiz-adv-x="1939" d="M138 273q-16 93 3 206l80 559q5 24 13.5 31.5t33.5 7.5h205q43 0 37 -39l-76 -524q-22 -150 15.5 -218.5t164.5 -68.5q41 0 99 9.5t88 25.5q-20 93 2 223l78 553q5 24 13 30.5t34 6.5h202q25 0 33 -7.5t4 -29.5l-73 -528q-11 -61 -8.5 -113t17.5 -90.5t57 -60t110 -21.5 q103 0 178 37q-20 94 2 238l76 538q5 25 12 31t35 6h205q25 0 34 -7.5t5 -29.5l-78 -577q-18 -121 3 -179.5t111 -93.5q41 -17 51.5 -37t0.5 -61l-125 -457q-6 -32 -35 -32h-148q-33 0 -30 34l49 365q-55 27 -76 63q-150 -92 -330 -92q-189 0 -303 97q-71 -44 -169.5 -69.5 t-192.5 -25.5q-125 0 -212.5 36.5t-133 103.5t-61.5 160z" />
<glyph unicode="&#x44a;" horiz-adv-x="1353" d="M84 881l22 151q5 27 13 35t31 8h493q59 0 80.5 -25.5t13.5 -80.5l-30 -217q111 26 213 26q378 0 378 -336q0 -62 -13.5 -121.5t-49.5 -123.5t-92 -111.5t-150 -78t-213 -30.5q-272 0 -426 80q-22 11 -27 26t1 38l100 713h-315q-35 0 -29 47zM633 244q68 -19 158 -19 q58 0 100.5 18t65 48t32.5 61t10 64q0 125 -137 125q-86 0 -188 -31z" />
<glyph unicode="&#x44b;" horiz-adv-x="1611" d="M92 83q-6 15 0 38l129 917q4 23 13.5 30t33.5 7h205q27 0 34 -7t3 -30l-39 -286q111 26 213 26q107 0 182.5 -25t117.5 -72t60.5 -105.5t18.5 -133.5q0 -62 -13.5 -121.5t-49.5 -123.5t-92 -111.5t-150 -78t-213 -30.5t-233.5 20.5t-190.5 59.5q-23 11 -29 26zM397 244 q70 -19 158 -19q58 0 101 18t66 48t33.5 61t10.5 64q0 125 -139 125q-85 0 -187 -31zM1130 41l140 995q6 39 47 39h199q29 0 36.5 -7t3.5 -32l-139 -995q-5 -27 -13.5 -34t-37.5 -7h-199q-43 0 -37 41z" />
<glyph unicode="&#x44c;" horiz-adv-x="1122" d="M92 83q-6 15 0 38l129 917q4 23 13.5 30t33.5 7h205q27 0 34 -7t3 -30l-39 -286q111 26 213 26q107 0 182.5 -25t117.5 -72t60.5 -105.5t18.5 -133.5q0 -62 -13.5 -121.5t-49.5 -123.5t-92 -111.5t-150 -78t-213 -30.5t-233.5 20.5t-190.5 59.5q-23 11 -29 26zM397 244 q70 -19 158 -19q58 0 101 18t66 48t33.5 61t10.5 64q0 125 -139 125q-85 0 -187 -31z" />
<glyph unicode="&#x44d;" horiz-adv-x="1015" d="M35 83.5q-1 12.5 10 35.5l61 149q10 22 21 25t35 -6q110 -43 221 -43q108 0 168 51.5t84 157.5h-291q-27 0 -20 26l20 158q1 9 2.5 13t8 8t18.5 4h282q6 174 -170 174q-92 0 -211 -37q-26 -9 -38.5 -6.5t-18.5 24.5l-45 158q-8 25 -2 36t35 21q150 70 327 70 q212 0 320.5 -114.5t108.5 -340.5q0 -318 -148 -494t-403 -176q-218 0 -357 84q-17 10 -18 22.5z" />
<glyph unicode="&#x44e;" horiz-adv-x="1626" d="M82 41l141 995q6 39 47 39h199q30 0 37.5 -7.5t3.5 -31.5l-49 -356h151q62 204 193.5 314t335.5 110q215 0 320.5 -115.5t105.5 -331.5q0 -316 -151.5 -498t-418.5 -182q-216 0 -322 108t-106 310q0 18 4 54h-145l-57 -408q-5 -26 -14 -33.5t-38 -7.5h-198q-45 0 -39 41z M872 430q0 -100 37.5 -149.5t118.5 -49.5q75 0 130.5 58t82.5 150.5t27 205.5q0 97 -38.5 151t-115.5 54q-110 0 -176 -113t-66 -307z" />
<glyph unicode="&#x44f;" horiz-adv-x="1169" d="M24 10q-4 10 3 27l106 278q24 68 63.5 110.5t118.5 59.5q0 1 1 2t1 2q-85 33 -118 90.5t-33 137.5q0 165 107.5 261.5t291.5 96.5h451q54 0 78.5 -18t24 -47t-2.5 -66l-125 -911q-6 -33 -43 -33h-207q-23 0 -29.5 6.5t-4.5 26.5l53 375h-160q-72 0 -116 -25.5t-72 -95.5 q-16 -42 -45 -124t-43 -120q-10 -27 -26.5 -35t-43.5 -8h-205q-21 0 -25 10zM459 711q0 -105 129 -105h200l33 242h-211q-80 0 -115.5 -42t-35.5 -95z" />
<glyph unicode="&#x451;" horiz-adv-x="1105" d="M102 395q0 174 43 310t120 222t180 130.5t227 44.5q199 0 300 -81t101 -226q0 -193 -122.5 -286t-383.5 -93q-90 0 -164 10q-13 -108 24.5 -146t154.5 -40q48 0 119.5 15t127.5 36q25 8 34 5t16 -20l63 -161q16 -28 -22 -49q-74 -45 -188.5 -67t-211.5 -22 q-199 0 -308.5 105.5t-109.5 312.5zM373 1350q0 67 53 119.5t117 52.5q54 0 91.5 -38t37.5 -95q0 -64 -54.5 -116t-117.5 -52q-54 0 -90.5 37.5t-36.5 91.5zM432 635q62 -4 88 -4q154 0 210 28.5t56 96.5q0 43 -30.5 70.5t-100.5 27.5q-81 0 -142.5 -54t-80.5 -165z M780 1350q0 67 53 119.5t119 52.5q54 0 90.5 -37.5t36.5 -93.5q0 -65 -53.5 -117.5t-116.5 -52.5q-55 0 -92 37.5t-37 91.5z" />
<glyph unicode="&#x452;" horiz-adv-x="1202" d="M100 37l162 1153h-84q-17 0 -20.5 5t0.5 22l10 79q6 27 29 27h84l18 135q6 39 45 39h207q26 0 33.5 -8t3.5 -31l-19 -135h342q24 0 21 -31l-12 -71q-1 -18 -7 -24.5t-20 -6.5h-344l-25 -186q97 30 226 30q194 0 295.5 -104.5t101.5 -313.5q0 -237 -117 -444.5 t-299 -321.5q-39 -23 -65 13l-91 117q-5 6 -6 11.5t3 12t8 11t14 14.5l4 4q127 127 188.5 268t61.5 272q0 205 -197 205q-83 0 -162 -24l-100 -715q-5 -24 -13.5 -31.5t-33.5 -7.5h-205q-25 0 -33 7.5t-4 29.5z" />
<glyph unicode="&#x453;" horiz-adv-x="1017" d="M57 258q0 42 13 81.5t32.5 71t53.5 63t65.5 54.5t78.5 49.5t82.5 44t88.5 42.5q20 10 59 27.5t59.5 28t45.5 25.5t36 31t11 33q0 34 -24 44.5t-68 10.5q-48 0 -142.5 -22t-177.5 -54q-36 -14 -51 23l-47 125q-6 17 -6.5 28t5 18.5t8 9.5t11.5 7q206 105 457 105 q154 0 245 -64t91 -188q0 -60 -22 -111.5t-57.5 -91t-96 -78t-120 -67.5t-146.5 -66q-35 -15 -56.5 -25t-48 -25.5t-41 -29.5t-25 -33t-10.5 -40q0 -36 27.5 -49t83.5 -13q58 0 154 23t190 63q4 1 13.5 4t13.5 3.5t10.5 -0.5t11 -7.5t8.5 -17.5l54 -139q5 -11 6 -19.5 t-1.5 -13.5t-4.5 -7.5t-8 -5.5l-5 -4q-103 -62 -231 -90t-231 -28q-193 0 -293.5 65.5t-100.5 208.5zM508 1282q32 60 93.5 178t92.5 178q18 35 47 25l201 -53q32 -8 12 -37q-48 -59 -142 -176.5t-142 -175.5q-13 -19 -21.5 -22t-25.5 3q-17 7 -52 19.5t-53 19.5 q-28 9 -10 41z" />
<glyph unicode="&#x454;" horiz-adv-x="1017" d="M106 424q0 326 144.5 502t394.5 176q187 0 322 -66q18 -10 21 -21.5t-5 -35.5l-57 -162q-4 -15 -13.5 -20t-19.5 -3.5t-31 7.5q-132 35 -200 35q-88 0 -146.5 -47t-77.5 -134h287q16 0 20.5 -6t2.5 -18l-21 -160q-6 -27 -29 -27h-288q-12 -200 184 -200q112 0 235 45 q23 9 33.5 6t16.5 -25l55 -157q8 -20 3 -33.5t-28 -24.5q-152 -78 -377 -78q-426 0 -426 447z" />
<glyph unicode="&#x455;" horiz-adv-x="989" d="M46 98.5q-1 9.5 9 32.5l62 139q10 23 22.5 27.5t32.5 -6.5q155 -70 297 -70q72 0 107.5 28t35.5 73q0 36 -36 63.5t-125 63.5q-141 60 -213 136.5t-72 182.5q0 156 108.5 245t307.5 89q204 0 338 -70q20 -10 21.5 -21.5t-9.5 -35.5l-49 -131q-10 -22 -22 -26t-30 5 q-146 47 -256 47q-58 0 -86 -28.5t-28 -59.5q0 -34 30.5 -56.5t118.5 -61.5q57 -24 97.5 -45t82 -51.5t66.5 -63.5t41 -79t16 -101q0 -172 -124 -259.5t-324 -87.5q-112 0 -221.5 25t-182.5 76q-14 11 -15 20.5z" />
<glyph unicode="&#x456;" horiz-adv-x="620" d="M121 37l139 1001q4 23 13.5 30t33.5 7h203q29 0 36.5 -7t2.5 -30l-141 -1001q-5 -24 -12.5 -30.5t-35.5 -6.5h-202q-25 0 -33 7.5t-4 29.5zM287 1329q0 81 57 139t133 58q63 0 104.5 -41.5t41.5 -104.5q0 -79 -60 -135.5t-133 -56.5q-63 0 -103 39.5t-40 101.5z" />
<glyph unicode="&#x457;" horiz-adv-x="624" d="M98 1356q0 67 53 119.5t117 52.5q54 0 91.5 -38t37.5 -95q0 -64 -54.5 -116t-117.5 -52q-54 0 -90.5 37.5t-36.5 91.5zM123 37l139 1001q4 23 13.5 30t33.5 7h203q29 0 35.5 -6.5t1.5 -30.5l-139 -1001q-5 -24 -12.5 -30.5t-35.5 -6.5h-202q-25 0 -33 7.5t-4 29.5z M506 1356q0 67 53 119.5t119 52.5q54 0 90.5 -37.5t36.5 -93.5q0 -65 -53.5 -117.5t-116.5 -52.5q-55 0 -92 37.5t-37 91.5z" />
<glyph unicode="&#x458;" horiz-adv-x="634" d="M-168 -264q-6 25 0.5 35.5t30.5 21.5q77 31 126.5 64t80.5 77.5t47 94t28 125.5l123 884q4 23 13.5 30t33.5 7h209q26 0 32.5 -7t2.5 -30l-125 -882q-27 -194 -88.5 -316t-154.5 -186.5t-242 -104.5q-29 -8 -40.5 -4.5t-17.5 21.5zM297 1329q0 81 57 139t135 58 q62 0 103 -41.5t41 -104.5q0 -80 -59.5 -136t-133.5 -56q-62 0 -102.5 40t-40.5 101z" />
<glyph unicode="&#x459;" horiz-adv-x="1699" d="M-12.5 172q4.5 12 32.5 25q51 22 81.5 42.5t61.5 56t52 91t42 138t42 206.5l39 223q12 67 43.5 94t97.5 27h506q63 0 83.5 -26t12.5 -84l-30 -213q117 26 215 26q107 0 182.5 -25t117.5 -72t60.5 -105.5t18.5 -133.5q0 -62 -13.5 -122t-50 -123.5t-93 -111t-150.5 -78 t-214 -30.5q-119 0 -233.5 20.5t-190.5 59.5q-22 11 -27 26t1 38l98 713h-184l-21 -107q-19 -103 -34 -175.5t-34 -145.5t-38.5 -122t-45.5 -97t-56 -80t-69.5 -61.5t-86.5 -49.5t-107 -37q-29 -10 -41.5 -4.5t-17.5 29.5l-47 147q-7 29 -2.5 41zM981 242q67 -17 154 -17 q58 0 101 18t66 48t33.5 61t10.5 64q0 125 -140 125q-84 0 -186 -31z" />
<glyph unicode="&#x45a;" horiz-adv-x="1722" d="M82 41l141 995q6 39 49 39h201q29 0 36 -7t3 -32l-45 -329h313l47 331q4 23 13 30t32 7h205q29 0 36.5 -7t2.5 -30l-41 -286q117 26 211 26q107 0 182.5 -25t117.5 -72t60.5 -105.5t18.5 -133.5q0 -62 -13.5 -121.5t-49.5 -123.5t-92 -111.5t-150 -78t-213 -30.5 t-232.5 20.5t-189.5 59.5q-22 11 -27.5 26t0.5 38l50 356h-312l-63 -436q-5 -27 -12.5 -34t-36.5 -7h-201q-47 0 -41 41zM1004 244q68 -19 153 -19q58 0 101 18t66 48t33.5 61t10.5 64q0 125 -139 125q-82 0 -182 -31z" />
<glyph unicode="&#x45b;" horiz-adv-x="1210" d="M82 37l164 1159h-86q-13 0 -17 5.5t0 21.5l11 80q3 26 26 26h84l19 129q6 39 45 39h204q26 0 33.5 -8t3.5 -31l-16 -129h348q24 0 21 -31l-11 -71q-4 -20 -10 -25.5t-20 -5.5h-349l-26 -197q50 16 125.5 25.5t126.5 9.5q211 0 298 -117.5t56 -338.5l-78 -541 q-5 -25 -11.5 -31t-35.5 -6h-205q-25 0 -34 7.5t-5 29.5l70 504q10 71 7.5 124t-39.5 83t-113 30q-130 0 -197 -28l-100 -713q-4 -25 -12.5 -31t-34.5 -6h-205q-25 0 -33 7.5t-4 29.5z" />
<glyph unicode="&#x45c;" horiz-adv-x="1140" d="M82 33l141 1009q4 22 12 27.5t27 5.5h217q23 0 30 -5.5t3 -27.5l-51 -356h92q61 0 106 28.5t80 108.5l101 226q10 26 37 26h221q17 0 20.5 -12.5t-2.5 -22.5l-112 -268q-53 -143 -164 -188l-4 -4q41 -11 67.5 -29t41.5 -45.5t21.5 -51t12.5 -63.5l55 -354v-3 q1 -34 -28 -34h-224q-23 0 -30 25l-50 315q-19 117 -155 117h-117l-59 -424q-4 -22 -11.5 -27.5t-29.5 -5.5h-217q-14 0 -20.5 1.5t-10 9t-0.5 22.5zM555 1251q32 61 93 179t93 178q18 34 47 24l201 -53q32 -8 12 -37q-48 -58 -142 -175.5t-142 -176.5q-13 -19 -21.5 -22 t-25.5 3q-18 7 -53 19.5t-52 19.5q-28 9 -10 41z" />
<glyph unicode="&#x45e;" horiz-adv-x="1110" d="M-37 -385q-4 8 4 33l43 155q7 24 18 27.5t35 -4.5q93 -27 148 -27q66 0 100.5 26t71.5 103l51 111h-47q-45 0 -63.5 17t-28.5 71l-170 909q-10 39 29 39h221q30 0 40 -7t11 -30l55 -413l45 -357h13l151 363l172 403q11 25 21.5 33t38.5 8h247q37 0 17 -33l-572 -1228 q-64 -136 -146 -198t-218 -62q-127 0 -254 43q-29 10 -33 18zM311 1417q-15 21 11 45l92 78q5 3 8.5 5t6.5 3t5 2t4.5 0t4 -1t4 -2t3.5 -3.5t4 -4.5l5 -5q117 -139 229 -139q57 0 118 27.5t155 115.5q22 16 27.5 16t17.5 -12l65 -67q25 -25 2 -48q-213 -247 -426 -247 q-109 0 -195 67t-141 170z" />
<glyph unicode="&#x45f;" horiz-adv-x="1191" d="M143 483l80 555q5 25 12 32t35 7h207q41 0 35 -39l-76 -549q-14 -93 -7 -153t50.5 -87.5t136.5 -27.5q69 0 140 10l110 807q5 25 13 32t36 7h205q41 0 35 -39l-123 -874q-11 -72 -43.5 -111.5t-101.5 -56.5q-48 -8 -140.5 -14.5t-150.5 -6.5q-289 0 -391.5 114.5 t-61.5 393.5zM356 -541l76 383q4 14 7.5 22t13.5 14.5t26 6.5l221 23q42 0 31 -43l-164 -404q-11 -25 -19 -32t-30 -7h-123q-25 0 -34.5 9t-4.5 28z" />
<glyph unicode="&#x490;" horiz-adv-x="1153" d="M102 43l144 1014q9 63 24 114t45 102t73 85.5t110.5 56t154.5 21.5h348l35 239q5 24 13.5 31.5t31.5 7.5h191q26 0 33.5 -8t3.5 -31l-54 -375q-11 -70 -43 -101.5t-106 -31.5h-414q-73 0 -105.5 -33t-39.5 -94l-144 -997q-5 -29 -12.5 -36t-38.5 -7h-209q-25 0 -35 9.5 t-6 33.5z" />
<glyph unicode="&#x491;" horiz-adv-x="987" d="M82 41l102 717q8 56 19.5 98t36.5 85.5t61 71t95 45t136 17.5l281 2l33 234q6 37 45 37h172q27 0 34 -7t3 -30l-49 -346q-11 -67 -44.5 -99t-103.5 -32h-307q-65 0 -93 -27t-34 -84l-98 -682q-5 -27 -13.5 -34t-38.5 -7h-196q-47 0 -41 41z" />
<glyph unicode="&#x4d9;" horiz-adv-x="1105" d="M66 283q0 362 507 362q88 0 162 -10q0 9 1 26t1 25q0 96 -46 131t-150 35q-90 0 -224 -49q-23 -10 -31 -8t-14 20l-65 152q-6 18 -0.5 28t24.5 21q71 45 180.5 66.5t206.5 21.5q222 0 320 -101.5t98 -316.5q0 -175 -41 -310t-116 -221.5t-178.5 -130.5t-231.5 -44 q-190 0 -296.5 80.5t-106.5 222.5zM352 315q0 -41 31.5 -68.5t99.5 -27.5q188 0 224 227q-26 5 -89 5q-152 0 -209 -32.5t-57 -103.5z" />
<glyph unicode="&#x2000;" horiz-adv-x="978" />
<glyph unicode="&#x2001;" horiz-adv-x="1956" />
<glyph unicode="&#x2002;" horiz-adv-x="978" />
<glyph unicode="&#x2003;" horiz-adv-x="1956" />
<glyph unicode="&#x2004;" horiz-adv-x="652" />
<glyph unicode="&#x2005;" horiz-adv-x="489" />
<glyph unicode="&#x2006;" horiz-adv-x="326" />
<glyph unicode="&#x2007;" horiz-adv-x="326" />
<glyph unicode="&#x2008;" horiz-adv-x="244" />
<glyph unicode="&#x2009;" horiz-adv-x="391" />
<glyph unicode="&#x200a;" horiz-adv-x="108" />
<glyph unicode="&#x2010;" horiz-adv-x="788" d="M117 514l26 184q5 27 12 35t29 8h506q23 0 29 -8.5t2 -34.5l-27 -184q-6 -43 -41 -43h-506q-36 0 -30 43z" />
<glyph unicode="&#x2011;" horiz-adv-x="788" d="M117 514l26 184q5 27 12 35t29 8h506q23 0 29 -8.5t2 -34.5l-27 -184q-6 -43 -41 -43h-506q-36 0 -30 43z" />
<glyph unicode="&#x2012;" horiz-adv-x="788" d="M117 514l26 184q5 27 12 35t29 8h506q23 0 29 -8.5t2 -34.5l-27 -184q-6 -43 -41 -43h-506q-36 0 -30 43z" />
<glyph unicode="&#x2013;" horiz-adv-x="993" d="M66 541l18 129q6 43 47 43h830q38 0 32 -43l-16 -129q-4 -28 -14 -35.5t-35 -7.5h-830q-24 0 -30 7.5t-2 35.5z" />
<glyph unicode="&#x2014;" horiz-adv-x="1986" d="M63 541l17 129q6 43 49 43h1827q39 0 33 -43l-17 -129q-4 -28 -14 -35.5t-35 -7.5h-1827q-24 0 -30.5 7.5t-2.5 35.5z" />
<glyph unicode="&#x2018;" horiz-adv-x="673" d="M199 894q-7 15 6 32l213 489q7 16 9.5 20.5t8.5 12t12.5 9t18.5 1.5h104q25 0 35.5 -9.5t7.5 -29.5l-98 -493q-5 -24 -15.5 -35.5t-37.5 -11.5h-227q-30 0 -37 15z" />
<glyph unicode="&#x2019;" horiz-adv-x="673" d="M246 918l98 493q3 12 5.5 19t7.5 14.5t14.5 10.5t23.5 3h228q54 0 34 -47l-213 -489q-11 -27 -20 -35t-31 -8h-104q-26 0 -36.5 9.5t-6.5 29.5z" />
<glyph unicode="&#x201a;" horiz-adv-x="559" d="M43 -229l96 516q7 26 18 37.5t36 11.5h227q51 0 35 -49l-213 -514q-11 -25 -20.5 -33t-31.5 -8h-104q-26 0 -36.5 9.5t-6.5 29.5z" />
<glyph unicode="&#x201c;" horiz-adv-x="1021" d="M199 894q-7 15 6 32l213 489q7 16 9.5 20.5t8.5 12t12.5 9t18.5 1.5h104q25 0 35.5 -9.5t7.5 -29.5l-98 -493q-5 -24 -15.5 -35.5t-37.5 -11.5h-227q-30 0 -37 15zM637 926l213 489q9 20 12.5 26t13 11.5t25.5 5.5h105q50 0 41 -39l-97 -493q-5 -23 -16.5 -35t-38.5 -12 h-225q-53 0 -33 47z" />
<glyph unicode="&#x201d;" horiz-adv-x="1021" d="M203 918l100 493q4 17 7 25t13.5 15t28.5 7h228q50 0 34 -47l-215 -489q-8 -20 -12.5 -27t-13 -11.5t-23.5 -4.5h-106q-50 0 -41 39zM635 918l98 493q5 24 15.5 35.5t37.5 11.5h228q53 0 33 -47l-213 -489q-11 -27 -19.5 -35t-30.5 -8h-106q-25 0 -35.5 9.5t-7.5 29.5z " />
<glyph unicode="&#x201e;" horiz-adv-x="993" d="M41 -233l100 524q5 23 16 34t36 11h227q30 0 37 -13t-2 -32l-215 -522q-11 -24 -19 -30.5t-31 -6.5h-104q-26 0 -37.5 9t-7.5 26zM455 -233l100 524q5 24 14.5 34.5t36.5 10.5h228q52 0 34 -45l-215 -522q-11 -24 -19 -30.5t-30 -6.5h-106q-26 0 -37 9t-6 26z" />
<glyph unicode="&#x2020;" horiz-adv-x="1148" d="M158 797l24 172q5 25 13 34t30 9h307l56 387q4 23 13 30t32 7h188q29 0 35.5 -6.5t1.5 -30.5l-53 -387h309q20 0 26.5 -9.5t4.5 -33.5l-25 -172q-4 -29 -11.5 -36t-31.5 -7h-309l-129 -928q-5 -24 -13 -30.5t-36 -6.5h-189q-24 0 -32 7.5t-4 29.5l133 928h-310 q-24 0 -29 7t-1 36z" />
<glyph unicode="&#x2021;" horiz-adv-x="1148" d="M96 360l25 172q5 25 12 33t29 8h309l31 222h-309q-23 0 -28.5 7.5t-0.5 33.5l24 172q5 26 12 34.5t29 8.5h310l49 348q4 23 13 30t32 7h188q29 0 35.5 -6.5t1.5 -30.5l-47 -348h309q20 0 26.5 -9.5t4.5 -33.5l-25 -172q-5 -26 -12.5 -33.5t-30.5 -7.5h-309l-31 -222h310 q23 0 29 -8.5t1 -32.5l-24 -172q-4 -29 -11 -36t-30 -7h-309l-70 -491q-5 -24 -13 -30.5t-36 -6.5h-189q-24 0 -32 7.5t-4 29.5l71 491h-309q-24 0 -29.5 7.5t-1.5 35.5z" />
<glyph unicode="&#x2022;" horiz-adv-x="884" d="M205 600q0 133 98 232.5t229 99.5q113 0 180.5 -73.5t67.5 -186.5q0 -137 -99 -231.5t-230 -94.5q-109 0 -177.5 72t-68.5 182z" />
<glyph unicode="&#x2026;" horiz-adv-x="1701" d="M82 133q0 86 63.5 148.5t147.5 62.5q71 0 116.5 -45t45.5 -115q0 -86 -64 -147.5t-149 -61.5q-69 0 -114.5 45t-45.5 113zM639 133q0 85 64 148t147 63q72 0 117 -45t45 -115q0 -85 -64.5 -147t-148.5 -62q-68 0 -114 45.5t-46 112.5zM1188 133q0 86 63.5 148.5 t147.5 62.5q71 0 115.5 -45t44.5 -115q0 -86 -63 -147.5t-148 -61.5q-69 0 -114.5 45t-45.5 113z" />
<glyph unicode="&#x202f;" horiz-adv-x="391" />
<glyph unicode="&#x2030;" horiz-adv-x="2805" d="M164 877q0 239 116.5 377.5t319.5 138.5q168 0 250 -92.5t82 -258.5q0 -231 -114.5 -369t-321.5 -138q-163 0 -247.5 90t-84.5 252zM397 883q0 -162 121 -162q90 0 138.5 91.5t48.5 229.5q0 162 -121 162q-92 0 -139.5 -90.5t-47.5 -230.5zM432 -27l1026 1442 q9 14 12.5 19t12.5 8.5t24 3.5h117q19 0 24 -10.5t-8 -30.5l-1015 -1434q-14 -20 -30 -28.5t-44 -8.5h-102q-41 0 -17 39zM1141 330q0 240 115.5 378t318.5 138q168 0 252 -92.5t84 -257.5q0 -230 -115.5 -369t-322.5 -139q-163 0 -247.5 90t-84.5 252zM1374 336 q0 -162 119 -162q92 0 140 91.5t48 230.5q0 161 -122 161q-60 0 -103 -44.5t-62.5 -115.5t-19.5 -161zM1991 330q0 240 115.5 378t318.5 138q168 0 252 -92.5t84 -257.5q0 -230 -116 -369t-323 -139q-163 0 -247 89.5t-84 252.5zM2224 336q0 -162 119 -162q92 0 140 91.5 t48 230.5q0 161 -123 161q-89 0 -136.5 -91t-47.5 -230z" />
<glyph unicode="&#x2039;" horiz-adv-x="747" d="M135 520q8 42 45 92l219 306q22 28 40 37.5t57 9.5h182q19 0 23 -13t-9 -32l-286 -402l180 -416q15 -45 -35 -45h-172q-40 0 -54 9t-26 34l-143 332q-28 61 -21 88z" />
<glyph unicode="&#x203a;" horiz-adv-x="747" d="M68 102l305 424l-174 394q-7 19 2.5 32t29.5 13h181q39 0 54 -9.5t26 -37.5l135 -310q23 -51 16 -92q-11 -45 -41 -86l-237 -330q-18 -25 -36 -34t-55 -9h-188q-51 0 -18 45z" />
<glyph unicode="&#x2044;" horiz-adv-x="362" d="M-383 -27l1026 1442q9 14 12.5 19t12.5 8.5t24 3.5h117q19 0 24 -10.5t-8 -30.5l-1015 -1434q-14 -20 -30 -28.5t-44 -8.5h-103q-40 0 -16 39z" />
<glyph unicode="&#x205f;" horiz-adv-x="489" />
<glyph unicode="&#x20ac;" d="M102 522l13 88q1 3 2.5 10t2 8.5l2 6t3.5 6t5 3.5t7 2.5t10 0.5h846q22 0 26.5 -9t-1.5 -28l-12 -88q-2 -22 -7.5 -29.5t-27.5 -7.5h-432q-10 -123 58.5 -180t207.5 -57q54 0 107.5 10t85 20.5t89.5 32.5q29 10 39.5 6.5t18.5 -22.5l72 -156q8 -25 1.5 -36t-28.5 -23 q-179 -103 -447 -103q-256 0 -393 131.5t-127 376.5h-98q-19 0 -22 7t-1 30zM137 776l15 88q2 28 10 33q6 4 22 4h95q136 498 626 498q94 0 192.5 -19.5t172.5 -58.5q22 -10 23.5 -23.5t-11.5 -42.5l-61 -151q-5 -15 -12.5 -21t-18 -4.5t-29.5 8.5q-131 46 -248 46 q-229 0 -307 -232h426q15 0 21 -4t5.5 -12.5t-1.5 -20.5l-17 -88q-1 -12 -1 -14.5t-2 -9.5t-5 -8l-9 -3t-15 -2h-846q-19 0 -23 7.5t-2 29.5z" />
<glyph unicode="&#x2122;" horiz-adv-x="1787" d="M131 1305v102q0 29 29 29h620q27 0 27 -29v-102q0 -27 -27 -27h-213v-627q0 -26 -28 -26h-144q-30 0 -30 26v627h-205q-29 0 -29 27zM868 651v703q0 80 88 80h70q38 0 59.5 -13t34.5 -45l105 -264q4 -16 34.5 -90.5t38.5 -91.5h7q3 13 37 97t36 89l105 258q12 32 34.5 46 t63.5 14h61q89 0 89 -80v-703q0 -16 -5.5 -19t-25.5 -3h-133q-14 0 -18 0.5t-6.5 5t-2.5 16.5v463h-8l-49 -141l-76 -195q-12 -31 -27 -42t-45 -11h-69q-32 0 -46 11t-26 42q-42 97 -72 185l-53 145h-6v-457q0 -16 -5 -19t-24 -3h-137q-14 0 -18.5 0.5t-7.5 5.5t-3 16z" />
<glyph unicode="&#x2202;" horiz-adv-x="1171" d="M123 358q0 150 42.5 268.5t114 190t158.5 108t183 36.5q56 0 122.5 -14.5t110.5 -47.5q4 46 4 64q0 151 -86 223t-270 90q-15 1 -20.5 3t-10.5 9.5t0 22.5l21 137q6 37 38 37q294 -2 439 -142.5t145 -437.5q0 -224 -45.5 -402.5t-127.5 -294t-194 -176.5t-245 -61 q-81 0 -147 20t-119.5 63.5t-83 120.5t-29.5 183zM397 381q0 -95 40.5 -139.5t101.5 -44.5q108 0 188.5 117.5t108.5 349.5q-83 73 -209 73q-66 0 -119.5 -52.5t-82 -133.5t-28.5 -170z" />
<glyph unicode="&#x220f;" horiz-adv-x="1441" d="M68 -211l211 1507q11 73 45 106.5t102 33.5h887q70 0 94.5 -33t13.5 -107l-211 -1507q-5 -26 -13 -32.5t-36 -6.5h-217q-43 0 -37 39l193 1374h-537l-192 -1374q-5 -26 -13 -32.5t-36 -6.5h-220q-40 0 -34 39z" />
<glyph unicode="&#x2211;" horiz-adv-x="1204" d="M-14 -174q0 36 8 72q2 16 7.5 32.5t10.5 28t17 30t17.5 26t21.5 29t20 26.5q73 91 213.5 274t212.5 274q-82 150 -272 484q-37 64 -37 115q0 18 2 28q3 47 10 76q4 28 8 33q12 45 41.5 63.5t81.5 18.5h854q20 0 27.5 -5t7.5 -22q0 -3 -1 -8t-1 -8l-27 -181 q-5 -24 -13 -32.5t-30 -8.5h-596l-4 -16q128 -232 242 -428q15 -27 20.5 -38t11 -27t5.5 -31q0 -27 -13.5 -50t-50.5 -71l-26 -35l-346 -446q0 -3 1 -6.5t1 -6.5h673q19 0 26 -4t7 -20q0 -13 -2 -19q0 -6 -4 -34q-12 -102 -20 -148q-6 -43 -46 -43h-966q-92 0 -92 78z" />
<glyph unicode="&#x221a;" horiz-adv-x="1280" d="M45 635q0 14 29 24q61 24 181.5 69.5t182.5 68.5q15 6 25 6q27 0 33 -33l122 -694h3q1 0 2 -1t2 -1h4l20 55q102 278 290 782t255 684q11 25 21.5 31t35.5 6h156q31 0 31 -16q0 -12 -6 -27l-725 -1839q-17 -43 -53 -65.5t-79 -22.5t-71.5 16t-38.5 62l-166 790 q-71 -26 -190 -71q-2 -2 -15 -2q-19 0 -22 18l-25 146q0 3 -1 7t-1 7z" />
<glyph unicode="&#x221e;" horiz-adv-x="1570" d="M121 565q0 144 102.5 245t259.5 101q154 0 353 -186q84 90 168.5 138t195.5 48q154 0 253 -96.5t99 -247.5q0 -144 -105.5 -247t-262.5 -103q-89 0 -171 50t-177 139q-52 -49 -83.5 -75t-78.5 -57t-95.5 -44t-105.5 -13q-151 0 -251.5 98t-100.5 250zM350 565 q0 -63 39.5 -107t95.5 -44q57 0 114 41.5t101 105.5q-110 152 -215 152q-56 0 -95.5 -43.5t-39.5 -104.5zM973 563q117 -149 215 -149q55 0 94 45t39 108q0 62 -39.5 104t-95.5 42q-53 0 -109.5 -43.5t-103.5 -106.5z" />
<glyph unicode="&#x222b;" horiz-adv-x="876" d="M-108.5 -373.5q-3.5 10.5 2.5 27.5l28 129q4 19 12.5 22.5t30.5 1.5q52 -8 94 -8q98 0 142.5 63.5t77.5 237.5q36 197 159 924q45 249 64 320q54 205 155 285q88 69 228 69q90 0 166 -21q14 -4 20 -6.5t9.5 -11t0.5 -23.5l-22 -120q-4 -21 -15.5 -27t-31.5 -4 q-57 9 -101 6q-83 -1 -126 -57t-70 -189q-26 -117 -55 -282.5t-62.5 -374t-44.5 -275.5q-5 -29 -14 -86q-13 -79 -19.5 -118t-20 -106.5t-25 -102t-32 -86.5t-42 -79t-53.5 -60t-69 -48.5t-85.5 -27t-106.5 -11.5q-97 0 -170 23q-21 5 -24.5 15.5z" />
<glyph unicode="&#x2248;" horiz-adv-x="1296" d="M158 416q-18 18 0 43q148 184 325 184q49 0 105 -18.5t97 -41t89 -41t84 -18.5q45 0 81.5 21.5t80.5 68.5q25 29 45 9l102 -86q17 -17 2 -45q-68 -89 -155 -142t-176 -53q-47 0 -101.5 18.5t-95 41t-89.5 41t-87 18.5q-88 0 -166 -78q-26 -26 -47 -8zM213 858 q148 184 326 184q50 0 106.5 -18t97 -40t88.5 -40t84 -18q45 0 80.5 21t79.5 69q27 28 47 8l103 -86q18 -18 2 -47q-68 -89 -156 -141t-178 -52q-47 0 -101.5 18.5t-95 40t-89.5 40t-87 18.5q-90 0 -166 -76q-25 -25 -45 -10l-94 88q-21 15 -2 41z" />
<glyph unicode="&#x2260;" d="M121 159q-4 12 12 29l156 170h-109q-36 0 -30 41l22 162q5 24 12.5 31.5t30.5 7.5h295l168 184h-436q-23 0 -29.5 9.5t-1.5 33.5l20 158q5 26 13.5 34.5t31.5 8.5h625l152 164q2 2 8 8.5t7.5 8.5t6 6.5t7 5.5t7 4t8 3.5t8.5 1.5t11 1h119q45 0 12 -39l-149 -164h67 q23 0 28.5 -8t0.5 -35l-23 -158q-5 -25 -13 -34t-30 -9h-254l-169 -184h403q22 0 27 -9t0 -32l-21 -156q-5 -25 -13 -35t-30 -10h-588l-159 -176q-24 -35 -64 -35h-117q-18 0 -22 12z" />
<glyph unicode="&#x2264;" horiz-adv-x="1296" d="M96 39l25 166q5 24 12 31.5t29 7.5h932q23 0 29 -8t1 -33l-22 -160q-5 -25 -13 -34t-30 -9h-928q-41 0 -35 39zM199 760l10 80q4 34 21.5 51t50.5 31l944 368q25 11 35 4.5t6 -34.5l-25 -170q-5 -32 -13 -44t-38 -22q-64 -22 -312 -107.5t-313 -107.5v-4 q205 -80 570 -219q28 -10 33.5 -23t0.5 -45l-24 -170q-4 -28 -15 -34.5t-34 1.5q-164 72 -464 203t-384 168q-58 27 -49 74z" />
<glyph unicode="&#x2265;" horiz-adv-x="1296" d="M96 43l23 160q5 25 12.5 33t30.5 8h932q23 0 29.5 -8t2.5 -31l-24 -166q-5 -24 -13.5 -31.5t-31.5 -7.5h-928q-39 0 -33 43zM139 348l25 170q4 36 17 48.5t65 29.5q373 134 602 209v4l-563 215q-26 10 -32 23t-1 43l24 170q4 28 16 34.5t32 -4.5q373 -161 845 -368 q27 -11 38 -29t7 -53l-10 -80q-5 -27 -20 -44t-49 -30l-957 -371q-23 -9 -33 -2t-6 35z" />
<glyph unicode="&#x25ca;" horiz-adv-x="1085" d="M78 651l358 690h168l352 -690l-354 -688h-168q-6 12 -171.5 328t-184.5 360zM315 653q11 -30 105 -213t102 -200q13 26 101 205t102 206l-207 414q-171 -337 -203 -412z" />
<glyph unicode="&#x25fc;" horiz-adv-x="1075" d="M0 0v1075h1075v-1075h-1075z" />
</font>
</defs>
</svg>
