<?xml version="1.0" standalone="no"?>
<!DOCTYPE svg PUBLIC "-//W3C//DTD SVG 1.1//EN" "http://www.w3.org/Graphics/SVG/1.1/DTD/svg11.dtd" >
<svg xmlns="http://www.w3.org/2000/svg">
<metadata></metadata>
<defs>
<font id="pf_beausans_problack_italic" horiz-adv-x="1384" >
<font-face units-per-em="2048" ascent="1536" descent="-512" />
<missing-glyph horiz-adv-x="606" />
<glyph unicode="&#xfb01;" horiz-adv-x="1343" d="M96 840l25 166q2 21 9 30t32 15l143 36l6 43q6 48 15.5 87.5t27 84t42 79.5t63 67.5t87 54t116 34.5t149.5 13q213 -5 371 -49q22 -5 28.5 -15t-0.5 -40l-41 -176q-13 -42 -55 -35q-133 22 -237 22q-98 0 -149 -33.5t-62 -121.5l-4 -25l602 -2q34 0 41 -7.5t2 -33.5 l-140 -993q-3 -16 -4.5 -21t-6.5 -11.5t-14.5 -7.5t-27.5 -1h-264q-47 0 -41 41l109 764h-293l-152 -1081q-4 -34 -17 -48.5t-36 -21.5l-270 -84q-22 -7 -38 2.5t-12 36.5l166 1196h-141q-21 0 -26 7.5t-3 27.5z" />
<glyph unicode="&#xfb02;" horiz-adv-x="1466" d="M97.5 820q-5.5 9 0.5 26l23 160q2 21 9 30t32 15l143 36l6 43q9 68 25.5 122.5t52.5 112.5t88 96.5t137.5 63.5t196.5 25q186 0 346 -39l201 39q23 4 33.5 -6t7.5 -33l-158 -1126q-7 -54 4.5 -74t59.5 -20q25 0 71 4q23 1 28 -3t7 -24l25 -215q1 -20 -7.5 -28.5 t-35.5 -16.5q-102 -31 -254 -31q-55 0 -96.5 6.5t-76.5 22.5t-55.5 43t-34.5 67t-12.5 95t10.5 127l132 903q-73 8 -132 8q-99 0 -148 -30.5t-60 -116.5l-4 -25h200q25 0 30 -8.5t-1 -28.5l-27 -184q-1 -5 -2 -13.5t-2 -11.5t-3 -8t-6 -6l-10 -2.5t-16 -1.5h-200l-152 -1083 q-4 -34 -17 -48.5t-36 -21.5l-270 -84q-22 -7 -38 2.5t-12 36.5l166 1196h-141q-22 0 -27.5 9z" />
<glyph horiz-adv-x="0" />
<glyph horiz-adv-x="682" />
<glyph unicode=" "  horiz-adv-x="606" />
<glyph unicode="&#x09;" horiz-adv-x="606" />
<glyph unicode="&#xa0;" horiz-adv-x="606" />
<glyph unicode="!" horiz-adv-x="636" d="M88 145q0 95 63.5 162.5t157.5 67.5q79 0 134 -50t55 -124q0 -94 -62.5 -159t-159.5 -65q-85 0 -136.5 47.5t-51.5 120.5zM199 522l80 862q2 30 14 40t47 10h252q38 0 46 -11.5t3 -38.5l-170 -862q-4 -25 -14 -32t-35 -7h-174q-31 0 -42 7.5t-7 31.5z" />
<glyph unicode="&#x22;" horiz-adv-x="1114" d="M268 803l35 579q2 29 15.5 40.5t48.5 11.5h229q37 0 45 -14.5t0 -37.5l-125 -579q-6 -25 -16 -32t-35 -7h-150q-31 0 -41 7.5t-6 31.5zM719 803l35 579q5 30 17 41t46 11h230q38 0 46 -12.5t3 -39.5l-127 -579q-6 -25 -17 -32t-37 -7h-149q-31 0 -41 7.5t-6 31.5z" />
<glyph unicode="#" d="M137 311l49 154q5 12 7.5 16t11 7.5t24.5 3.5h138l77 229h-137q-19 0 -23.5 8t1.5 25l51 147q6 14 8 18t11 9.5t24 5.5h137l90 250q6 18 14.5 23t36.5 5h146q26 0 30.5 -5.5t-2.5 -30.5l-79 -242h196l86 250q4 17 14.5 22.5t36.5 5.5h146q29 0 34 -5.5t-3 -30.5l-84 -242 h151q29 0 14 -35l-57 -145q-7 -22 -14.5 -27.5t-22.5 -5.5h-143l-78 -229h148q16 0 18.5 -9t-4.5 -26l-53 -146q-10 -19 -18 -25.5t-21 -6.5h-142l-88 -248q-7 -19 -14 -25t-29 -6h-163q-20 0 -24.5 5t1.5 30l86 244h-199l-86 -248q-4 -11 -5.5 -15t-6.5 -9t-12.5 -6 t-20.5 -1h-159q-24 0 -28.5 5t1.5 30l86 244h-137q-35 0 -21 32zM598 492h195l81 229h-196z" />
<glyph unicode="$" d="M162 127q-22 14 2 61l86 179q13 26 24.5 30.5t34.5 -6.5q121 -49 240 -78l41 291q-74 34 -127.5 68t-102 81t-73.5 108.5t-25 135.5q0 77 28.5 146.5t81.5 124t138 88t190 35.5l25 176q2 9 3.5 14.5t5 7.5t5.5 2.5t9.5 0t11.5 -0.5h51q4 0 11 0.5t9.5 0.5t6.5 -1t4.5 -4 t0.5 -7.5t-1 -12.5l-250 -1774q-2 -9 -3.5 -14.5t-5.5 -7.5t-5.5 -2.5t-10 0t-12.5 0.5h-51q-4 0 -12.5 -0.5t-9.5 0t-6 2.5t-2.5 7.5t1.5 14.5l29 205q-176 24 -342 129zM594 1006q0 -51 41 -82l20 151q-61 -10 -61 -69zM655.5 -218.5q0.5 4.5 1.5 11.5l250 1774 q2 9 3.5 14.5t5.5 7.5t6 2.5t10 0t12 -0.5h43q4 0 12.5 0.5t9.5 0t6 -2.5t2.5 -7.5t-1.5 -14.5l-27 -187q138 -26 248 -84q10 -5 14.5 -11t3.5 -16t-4 -18t-10 -26l-57 -152q-11 -29 -24 -35.5t-36 0.5q-74 22 -178 41l-37 -276q318 -173 318 -408q0 -180 -117 -284.5 t-315 -122.5l-29 -195q-2 -9 -3.5 -14.5t-5 -7.5t-5.5 -2.5t-9.5 0t-11.5 0.5h-43q-4 0 -9.5 -0.5t-8 -0.5t-6 0.5t-5 2t-3 4t-1 7zM840 311q33 16 51 45t18 58q0 38 -45 73z" />
<glyph unicode="%" horiz-adv-x="2048" d="M127 885q0 245 120.5 377.5t336.5 132.5q174 0 261 -92t87 -261q0 -231 -120.5 -369t-332.5 -138q-175 0 -263.5 91t-88.5 259zM406 891q0 -131 96 -131q69 0 110 73t41 207q0 129 -96 129q-69 0 -110 -72t-41 -206zM424 -68q-4 14 8 31l1038 1473q11 18 20.5 23t33.5 5 h145q24 0 29.5 -12.5t-8.5 -32.5l-1024 -1462q-28 -39 -88 -39h-127q-23 0 -27 14zM1174 338q0 245 120 377.5t336 132.5q174 0 261 -91.5t87 -260.5q0 -231 -120 -369.5t-332 -138.5q-175 0 -263.5 91t-88.5 259zM1452 344q0 -131 96 -131q69 0 110.5 73.5t41.5 207.5 q0 129 -96 129q-69 0 -110.5 -72.5t-41.5 -206.5z" />
<glyph unicode="&#x26;" horiz-adv-x="1562" d="M119 328q0 156 90.5 279.5t236.5 215.5q-71 114 -71 234q0 124 61.5 216.5t160 138.5t218.5 46q159 0 256.5 -82t97.5 -223q0 -241 -278 -410l61 -88q145 177 330 230q72 20 119 22q19 2 25 -2.5t6 -21.5l30 -217q2 -18 -4.5 -26.5t-30.5 -14.5q-109 -24 -182 -75 t-121 -134q85 -111 166 -221q24 -32 111 -146q13 -12 4 -30.5t-37 -18.5h-268q-74 0 -101 37l-24 31q-40 51 -53 71q-91 -82 -190.5 -123t-229.5 -41q-180 0 -281.5 92t-101.5 261zM461 387q0 -36 24 -63t84 -27q42 0 93 22.5t86 57.5q-23 34 -70 102.5t-72 106.5 q-64 -38 -104.5 -90t-40.5 -109zM698 1067q0 -35 43 -102q54 32 77.5 61t23.5 64q0 29 -15.5 48t-40.5 19q-40 0 -64 -25.5t-24 -64.5z" />
<glyph unicode="'" horiz-adv-x="661" d="M268 803l35 579q5 30 17.5 41t46.5 11h229q37 0 45 -14.5t0 -37.5l-125 -579q-6 -25 -16 -32t-35 -7h-150q-31 0 -41 7.5t-6 31.5z" />
<glyph unicode="(" horiz-adv-x="772" d="M154 510q0 504 469 973q20 20 33 25t21.5 1t29.5 -20l116 -94q12 -9 15 -12t6.5 -9.5t-0.5 -13.5t-13 -19q-165 -197 -247 -395.5t-82 -435.5q0 -130 34.5 -249t106.5 -253q11 -24 5.5 -37.5t-30.5 -31.5l-143 -95q-22 -14 -34 -14.5t-20 6.5t-26 31q-55 77 -94 143 t-74.5 146.5t-54 169.5t-18.5 184z" />
<glyph unicode=")" horiz-adv-x="792" d="M69 -29.5q-2 12.5 17 37.5q169 203 248.5 393.5t79.5 434.5q0 252 -140 505q-12 24 -8 31.5t29 22.5l145 94q17 11 21.5 14t14.5 7t15 1t12 -9t17 -19q238 -333 238 -674q0 -122 -25.5 -236.5t-66 -205.5t-104.5 -184t-125 -163t-144 -153q-23 -23 -33.5 -30.5t-22 -7 t-28.5 14.5l-119 95q-19 19 -21 31.5z" />
<glyph unicode="*" horiz-adv-x="1042" d="M222 1044q-3 6 9 39l66 142q20 46 53 32l180 -94l5 207q0 25 10.5 34t40.5 9h145q30 0 35.5 -6.5t1.5 -36.5l-55 -213l192 92q25 10 36 1.5t17 -38.5l27 -139q5 -29 -1.5 -38t-35.5 -13l-211 -45q8 -11 54 -66t67 -84q15 -25 10 -35.5t-34 -31.5l-132 -90 q-26 -17 -32 -14.5t-17 32.5q-15 34 -41 92t-41 92l-120 -186q-18 -25 -33 -26.5t-33 16.5q-43 34 -106 90q-20 19 -21 28t21 31l165 158l-192 49q-27 6 -30 12z" />
<glyph unicode="+" d="M209 608l27 189q4 33 13 41t36 8h313l47 346q6 41 51 41h230q31 0 38.5 -7.5t2.5 -33.5l-47 -346h315q25 0 30 -7.5t1 -41.5l-27 -189q-6 -47 -45 -47h-315l-50 -344q-5 -27 -12.5 -34t-38.5 -7h-229q-47 0 -41 41l49 344h-313q-41 0 -35 47z" />
<glyph unicode="," horiz-adv-x="606" d="M47 -238l100 547q5 30 16 38.5t46 8.5h252q37 0 42.5 -12t-5.5 -35l-215 -547q-7 -24 -17 -31t-35 -7h-135q-31 0 -42 7t-7 31z" />
<glyph unicode="-" horiz-adv-x="880" d="M147 516l29 203q4 33 13 41t34 8h537q26 0 31.5 -7.5t1.5 -41.5l-29 -203q-6 -47 -47 -47h-537q-39 0 -33 47z" />
<glyph unicode="." horiz-adv-x="624" d="M88 147q0 92 70 160t161 68q78 0 128.5 -48.5t50.5 -123.5q0 -92 -71 -159t-163 -67q-75 0 -125.5 48.5t-50.5 121.5z" />
<glyph unicode="/" horiz-adv-x="944" d="M-53 -156l858 1717q8 19 20.5 25.5t46.5 6.5h195q26 0 33 -9.5t-4 -29.5l-856 -1714q-10 -23 -27 -30t-55 -7h-189q-43 0 -22 41z" />
<glyph unicode="0" d="M133 555q0 387 188 617.5t510 230.5q253 0 382.5 -148.5t129.5 -416.5q0 -258 -82.5 -452.5t-240 -301.5t-369.5 -107q-257 0 -387.5 152t-130.5 426zM502 549q0 -256 182 -256q132 0 211.5 141t79.5 400q0 256 -184 256q-131 0 -210 -140t-79 -401z" />
<glyph unicode="1" d="M236 43l30 205q2 18 4.5 27t9.5 13t11.5 4.5t19.5 0.5h193l106 758l-202 -37q-29 -6 -37 1t-4 36l26 188q1 15 3.5 23.5t11.5 17.5t26 14l371 97q95 27 152.5 -2.5t41.5 -124.5l-135 -971h219h16.5t10 -2t7 -7t1 -13.5t-1.5 -22.5l-31 -205q-4 -26 -13 -34.5t-30 -8.5 h-772q-22 0 -30 9t-4 34z" />
<glyph unicode="2" d="M135 154q0 109 69 209.5t197 201.5q110 89 357 242q112 70 147 110.5t35 88.5q0 81 -127 81q-153 0 -332 -104q-23 -13 -37 -12t-24 20l-107 180q-22 39 13 60q256 172 536 172q203 0 330 -91t127 -265q0 -267 -383 -474q-103 -54 -207.5 -133t-150.5 -147h579 q33 0 39 -8q8 -9 4 -37l-31 -205q-4 -26 -14.5 -34.5t-34.5 -8.5h-811q-87 0 -130.5 32t-43.5 122z" />
<glyph unicode="3" d="M142.5 153.5q0.5 10.5 19.5 34.5l108 174q18 30 32.5 33t43.5 -16q140 -90 291 -90q103 0 159 48.5t56 129.5q0 59 -43 90t-119 31h-51h-17.5t-15 1t-13.5 3t-10 5.5t-8 9t-4 13.5t-2 19t2 25l17 110q7 53 24 68.5t60 15.5h55q79 0 124.5 34.5t45.5 92.5q0 53 -35 75.5 t-106 22.5q-149 0 -305 -90q-22 -14 -40.5 -13.5t-29.5 24.5l-86 174q-11 23 -8.5 35.5t24.5 29.5q109 82 243.5 120t262.5 38q85 0 163.5 -18t148 -56t111.5 -106.5t42 -159.5q0 -108 -63.5 -193t-188.5 -133l-2 -10q201 -67 201 -291q0 -204 -155 -330.5t-404 -126.5 q-158 0 -289 39t-219 109q-20 18 -19.5 28.5z" />
<glyph unicode="4" d="M115 373l10 71q6 44 27.5 92t52.5 82l610 668q26 29 42 44t45 35t65 29t82 9h122q61 0 82 -31t11 -108l-101 -721h119q34 0 40 -8q9 -9 5 -37l-29 -205q-4 -25 -15.5 -34t-35.5 -9h-125l-30 -207q-5 -27 -13.5 -35t-38.5 -8h-264q-49 0 -43 43l31 205h-522q-33 0 -55 4 t-42.5 16t-28 38t-1.5 67zM496 551l2 -10h305l53 379l-14 6z" />
<glyph unicode="5" d="M118.5 160.5q-1.5 12.5 12.5 32.5l121 194q11 16 22 19.5t21 0t33 -17.5q71 -43 148.5 -65.5t141.5 -22.5q275 0 275 195q0 59 -37.5 95t-107.5 36q-16 0 -33 -1.5t-30.5 -3.5t-31.5 -7t-28 -8t-29.5 -10.5t-26.5 -10.5t-29 -12t-28 -11q-27 -12 -63 -16.5t-72 4.5 l-96 27q-57 16 -70.5 51.5t2.5 83.5l127 501q23 93 64 130.5t120 37.5h713h7q16 0 22 -0.5t14.5 -5.5t7 -15.5t-1.5 -29.5l-29 -203q-4 -31 -17.5 -42t-41.5 -11h-565l-47 -176q102 23 225 23q216 0 333.5 -105.5t117.5 -298.5q0 -110 -35 -201t-94.5 -153t-139.5 -105 t-169.5 -62.5t-186.5 -19.5q-302 0 -498 158q-19 13 -20.5 25.5z" />
<glyph unicode="6" d="M147 530q0 258 91 455.5t267.5 309.5t414.5 112q188 0 313 -45q11 -4 14 -7t6 -17t-6 -40l-51 -202q-11 -45 -63 -25q-100 25 -205 25q-252 0 -350 -213q149 35 247 35q475 0 475 -394q0 -107 -36 -197.5t-97 -154t-142 -108.5t-171 -66t-184 -21q-138 0 -240 39.5 t-163.5 114.5t-90.5 174t-29 225zM518 516q0 -227 189 -227q93 0 157 53.5t64 153.5q0 131 -162 131q-96 0 -244 -37q-4 -54 -4 -74z" />
<glyph unicode="7" d="M159 18q-7 18 7 37l708 1020h-583q-25 0 -33 10.5t-4 42.5l27 197q6 40 15 48.5t40 8.5h913q59 0 83 -25t18 -73l-11 -67q-10 -74 -57 -142l-700 -1020q-23 -32 -46.5 -43.5t-64.5 -11.5h-276q-29 0 -36 18z" />
<glyph unicode="8" d="M125 365q0 128 71 233t173 143l2 7q-113 55 -113 213q0 104 50 190t132 140t181.5 83t203.5 29q221 0 338 -88.5t117 -253.5q0 -89 -42.5 -174.5t-145.5 -141.5l-2 -4q44 -17 77 -50t50 -72.5t24.5 -77t7.5 -74.5q0 -151 -86 -264t-225.5 -169.5t-308.5 -56.5 q-235 0 -369.5 102t-134.5 286zM498 416q0 -58 39.5 -99t124.5 -41q58 0 102.5 19t68 48.5t35 60t11.5 59.5q0 67 -43.5 104t-124.5 37q-96 0 -154.5 -54t-58.5 -134zM612 948q0 -45 32.5 -74.5t94.5 -29.5q83 0 128.5 44t45.5 97q0 48 -32.5 79.5t-102.5 31.5 q-83 0 -124.5 -40.5t-41.5 -107.5z" />
<glyph unicode="9" d="M172 860q0 107 36 197.5t97 154t142.5 108.5t171.5 66t184 21q138 0 240 -39.5t163 -114.5t90 -174t29 -225q0 -258 -91 -455.5t-267 -309.5t-414 -112q-200 0 -328 46q-8 3 -9.5 3.5t-7 5t-5.5 10t1.5 17t6.5 27.5l65 203q5 15 14.5 22t15.5 7.5t19.5 -2.5t14.5 -3 q96 -24 205 -24q252 0 350 213q-149 -35 -248 -35q-475 0 -475 393zM545 889q0 -131 162 -131q95 0 243 37q4 54 4 73q0 228 -188 228q-93 0 -157 -53.5t-64 -153.5z" />
<glyph unicode=":" horiz-adv-x="628" d="M88 147q0 92 70 160t161 68q78 0 128.5 -48.5t50.5 -123.5q0 -92 -71 -159t-163 -67q-75 0 -125.5 48.5t-50.5 121.5zM182 825q0 91 71 159.5t163 68.5q77 0 126.5 -47.5t49.5 -120.5q0 -93 -70 -161.5t-164 -68.5q-75 0 -125.5 48.5t-50.5 121.5z" />
<glyph unicode=";" horiz-adv-x="628" d="M49 -231l96 532q6 32 18.5 43.5t45.5 11.5h252q34 0 40 -17.5t-5 -37.5l-211 -532q-11 -27 -21 -36t-33 -9h-135q-59 0 -47 45zM182 825q0 91 71 159.5t163 68.5q77 0 126.5 -47.5t49.5 -120.5q0 -93 -70 -161.5t-164 -68.5q-75 0 -125.5 48.5t-50.5 121.5z" />
<glyph unicode="&#x3c;" d="M219 664l10 65q3 26 11 44t24.5 31.5t28 19.5t37.5 18l950 442q25 13 37.5 9.5t13 -17.5t-1.5 -33l-26 -196q-5 -38 -15 -52.5t-51 -33.5l-578 -263l504 -266q35 -19 41.5 -35.5t-0.5 -50.5l-26 -180q-3 -17 -6 -27t-9.5 -18t-18 -7t-28.5 11l-825 442q-43 24 -59.5 45.5 t-12.5 51.5z" />
<glyph unicode="=" d="M172 348l29 199q4 29 12 36t33 7h954q24 0 29.5 -8t1.5 -37l-27 -191q-6 -49 -47 -49h-948q-24 0 -32.5 9.5t-4.5 33.5zM240 825l26 191q4 33 14 41t37 8h945q26 0 31 -7.5t1 -41.5l-26 -191q-6 -47 -47 -47h-945q-42 0 -36 47z" />
<glyph unicode="&#x3e;" d="M150.5 132q-0.5 14 1.5 34l26 203q5 37 16 51.5t52 34.5l575 266l-502 262q-35 19 -41.5 33.5t-1.5 52.5l27 174q3 17 6 27t9.5 18t18.5 7t30 -11l821 -442q29 -14 42.5 -24t23.5 -32.5t6 -56.5l-11 -65q-4 -31 -26.5 -52.5t-73.5 -44.5l-946 -442q-26 -13 -39 -10 t-13.5 17z" />
<glyph unicode="?" horiz-adv-x="1222" d="M218.5 1263q3.5 12 25.5 25q123 83 261 122.5t265 39.5q91 0 168 -14.5t145.5 -47t108 -94.5t39.5 -147q0 -55 -17 -105t-51.5 -95.5t-68 -79t-84.5 -76.5q-8 -7 -43 -38t-45.5 -41.5t-38.5 -37.5t-39 -42.5t-28 -39.5t-25 -45.5t-11 -44.5l-8 -51q-4 -23 -9 -27t-26 -4 h-276q-23 0 -26.5 10t1.5 27l10 75q7 47 24 91t35.5 73.5t50.5 64.5t51 52.5t55 48.5q66 54 97.5 94.5t31.5 94.5q0 33 -30 50t-67 17q-75 0 -147.5 -21.5t-169.5 -72.5q-8 -4 -10.5 -5.5t-8.5 -4t-8 -2.5t-6 -0.5t-5.5 1.5t-4.5 4.5t-5 6.5l-5 10l-101 201q-8 16 -4.5 28z M346 123q0 91 71 159t163 68q77 0 126.5 -47.5t49.5 -120.5q0 -94 -68.5 -157.5t-163.5 -63.5q-76 0 -127 45.5t-51 116.5z" />
<glyph unicode="@" horiz-adv-x="1949" d="M166 561q0 194 70 367t196 302.5t315 205t414 75.5q346 0 538.5 -178.5t192.5 -484.5q0 -138 -43 -257t-114.5 -198.5t-165.5 -124.5t-195 -45q-88 0 -145 23.5t-92 83.5l-11 2q-119 -90 -278 -90q-90 0 -151.5 45t-88 113.5t-26.5 154.5q0 258 111 399.5t329 141.5 q194 0 362 -45q24 -7 30 -19.5t1 -32.5l-61 -456q-7 -54 11.5 -80.5t51.5 -26.5q91 0 163.5 110.5t72.5 282.5q0 215 -128.5 337t-381.5 122q-169 0 -311.5 -59.5t-236.5 -159.5t-146 -230t-52 -272q0 -234 134 -376t384 -142q149 0 297 47q7 7 21.5 3.5t21.5 -25.5l39 -117 q4 -11 4 -20t-1 -13t-8 -9t-7.5 -5t-9.5 -4q-169 -72 -363 -72q-183 0 -326 54t-233.5 152t-137 230t-46.5 291zM870 608q0 -69 22.5 -97t68.5 -28q52 0 114 33l47 342q-52 10 -80 10q-84 0 -128 -70t-44 -190z" />
<glyph unicode="A" horiz-adv-x="1339" d="M-23 39l570 1268q35 78 75.5 103.5t110.5 25.5h162q40 0 62 -3t45 -15t35 -38.5t18 -70.5l213 -1270q1 -6 1 -11q0 -28 -30 -28h-295q-26 0 -39.5 6.5t-17.5 28.5l-31 246h-391l-98 -236q-10 -19 -15.5 -26.5t-18.5 -13t-36 -5.5h-299q-25 0 -25 20q0 8 4 19zM592 584 h225l-14 159l-23 295h-16l-111 -301z" />
<glyph unicode="B" horiz-adv-x="1388" d="M117 135l164 1163q6 38 13.5 60t23 41t42 27t68.5 8h492q86 0 156.5 -17t127 -53t88 -99t31.5 -149q0 -214 -188 -321l-2 -13q161 -75 161 -293q0 -100 -41.5 -190t-114 -156t-175.5 -104.5t-220 -38.5h-516q-81 0 -101 29q-13 19 -13 57q0 22 4 49zM516 334h236 q44 0 76 16t49 41.5t24.5 50.5t7.5 50q0 51 -30 80.5t-88 29.5h-236zM598 905h209q49 0 86 28t37 91q0 37 -23.5 57.5t-64.5 20.5h-217z" />
<glyph unicode="C" horiz-adv-x="1333" d="M150 563q0 207 55 376t153 281.5t232.5 173t294.5 60.5q242 0 403 -90q29 -16 29 -35t-19 -53l-71 -168q-17 -40 -32 -47t-50 6q-79 27 -131.5 37t-124.5 10q-69 0 -129 -30.5t-108 -91t-75.5 -161t-27.5 -231.5q0 -141 53.5 -208.5t179.5 -67.5q22 0 43.5 1t42.5 4.5 t37 6t37.5 8.5t33 9t34 11t30 10.5t31.5 11.5t29 11q32 12 41.5 7.5t23.5 -37.5l80 -189q12 -29 7 -44.5t-29 -27.5q-226 -129 -504 -129q-151 0 -262 42.5t-177.5 121.5t-98 184t-31.5 238z" />
<glyph unicode="D" horiz-adv-x="1404" d="M117 135l164 1163q6 38 13.5 60t23 41t42 27t68.5 8h365q126 0 224 -31.5t160 -84.5t101.5 -129t55.5 -157.5t16 -177.5q0 -81 -9.5 -160t-33 -165t-59.5 -161t-94 -143.5t-131 -117.5t-174.5 -78t-221.5 -29h-400q-81 0 -101 29q-13 19 -13 57q0 22 4 49zM518 336h88 q78 0 140 26.5t102.5 71.5t67 107.5t38 130t11.5 143.5q0 140 -58 213.5t-200 73.5h-82z" />
<glyph unicode="E" horiz-adv-x="1255" d="M145 296v17q0 38 7 76l92 655q9 64 25 117.5t47.5 105.5t75.5 87.5t111.5 57.5t153.5 22h600q25 0 31 -8q3 -5 4 -18q0 -10 -2 -24l-33 -231q-5 -27 -13.5 -36t-31.5 -9h-464q-123 0 -136 -117l-12 -86h533q24 0 28.5 -8t-0.5 -43l-31 -213q-5 -28 -13 -37.5t-30 -9.5 h-532l-20 -154q-1 -26 -2 -44.5t7 -31t15 -19.5t22.5 -11t28 -5t31.5 -1h518q24 0 29.5 -7.5t1.5 -41.5l-33 -232q-9 -47 -43 -47h-629q-76 0 -135.5 16t-96 44t-61.5 66t-33 81t-10 89z" />
<glyph unicode="F" horiz-adv-x="1191" d="M102 41l142 1003q8 62 27.5 117t54.5 106t83 87.5t117.5 58t153.5 21.5h596q24 0 30 -8q3 -5 3 -18q0 -10 -2 -24l-33 -231q-4 -26 -13.5 -35.5t-29.5 -9.5h-483q-123 0 -136 -117l-18 -127h522q25 0 30 -8t1 -43l-29 -213q-9 -47 -47 -47h-522l-72 -512 q-5 -27 -12.5 -34t-38.5 -7h-283q-42 0 -42 32q0 4 1 9z" />
<glyph unicode="G" horiz-adv-x="1425" d="M150 563q0 207 58 376t159.5 281t239.5 173t298 61q243 0 404 -90q29 -16 29 -35t-19 -53l-72 -168q-17 -40 -32 -47t-50 6q-79 27 -131.5 37t-124.5 10q-70 0 -132.5 -30.5t-114.5 -90.5t-82.5 -161.5t-30.5 -231.5q0 -141 53.5 -208.5t179.5 -67.5q91 0 172 22l50 397 q6 43 53 43h262q34 0 41 -8q4 -5 4 -16q0 -8 -2 -19l-66 -534q-4 -29 -8.5 -46.5t-21.5 -39t-47 -37.5q-198 -109 -500 -109q-151 0 -262 42.5t-177.5 121.5t-98 184t-31.5 238z" />
<glyph unicode="H" horiz-adv-x="1490" d="M102 43l191 1348q6 43 51 43h283q31 0 38.5 -8.5t2.5 -34.5l-68 -484h440l68 484q6 43 53 43h281q34 0 41 -8q4 -5 4 -16q0 -8 -2 -19l-191 -1348q-3 -16 -4.5 -21t-6.5 -12t-14.5 -8.5t-27.5 -1.5h-280q-44 0 -44 34q0 4 1 9l77 541h-440l-78 -541q-5 -27 -13 -35 t-38 -8h-283q-42 0 -42 34q0 4 1 9z" />
<glyph unicode="I" horiz-adv-x="733" d="M131 43l191 1348q6 43 53 43h280q34 0 41 -8q4 -5 4 -16q0 -8 -2 -19l-190 -1348q-3 -16 -4.5 -21t-6.5 -12t-14.5 -8.5t-27.5 -1.5h-281q-44 0 -44 34q0 4 1 9z" />
<glyph unicode="J" horiz-adv-x="1206" d="M25 143l88 213q10 24 22 26.5t31 -7.5q144 -56 276 -56q47 0 83.5 7.5t63 20t47 35t33 44.5t22.5 58t15.5 66t12.5 77l106 768q3 19 10 27.5t15 10t27 1.5h284q12 0 17 -0.5t12.5 -2t8 -5.5t3.5 -12v-6q0 -6 -2 -13l-121 -860q-14 -98 -36.5 -174.5t-67 -151t-107 -123.5 t-159.5 -79t-222 -30q-254 0 -450 103q-12 5 -17 12q-5 5 -5 15q0 13 10 36z" />
<glyph unicode="K" horiz-adv-x="1421" d="M102 41l191 1352q6 41 51 41h281q31 0 38.5 -7.5t2.5 -33.5l-66 -463l6 -4l205 227l211 233q31 31 52 39.5t73 8.5h321q22 0 26 -13q1 -3 0 -6q0 -11 -13 -24l-467 -484l329 -852q7 -18 7 -30q0 -25 -33 -25h-285q-59 0 -72 7q-20 9 -32 46l-201 555l-201 -200l-51 -367 q-5 -27 -12.5 -34t-38.5 -7h-281q-42 0 -42 32q0 4 1 9z" />
<glyph unicode="L" horiz-adv-x="1177" d="M148 296q-1 10 -1 21q0 36 7 72l139 1004q6 43 51 43h285q31 0 38.5 -8.5t2.5 -34.5l-133 -953q-1 -26 -2 -44.5t7 -31t15 -19.5t22.5 -11t28 -5t31.5 -1h471q27 0 34 -8q4 -5 4 -20q0 -9 -1 -21l-33 -232q-9 -47 -49 -47h-580q-76 0 -135 16t-96 44t-62 66t-33.5 81 t-10.5 89z" />
<glyph unicode="M" horiz-adv-x="1804" d="M101 20q-1 3 -1 7q0 5 2 12l174 1233q12 94 48.5 128t117.5 34h140q60 0 86.5 -22t44.5 -79l116 -366l97 -342h8l217 370l197 332q35 58 72.5 82.5t107.5 24.5h135q72 0 102 -30q22 -22 22 -75q0 -20 -3 -43l-176 -1247q-3 -19 -9 -27.5t-13.5 -10t-26.5 -1.5h-263 q-12 0 -17 0.5t-12.5 2t-8.5 5.5t-4 11.5t1 19.5l101 711h-10l-99 -185l-176 -307q-29 -51 -56 -70.5t-69 -19.5h-133q-46 0 -62.5 17t-35.5 73l-76 246l-64 221h-12l-96 -686q-2 -15 -5 -22.5t-9.5 -11.5t-12.5 -4.5t-20 -0.5h-277q-12 0 -17 0.5t-12.5 2t-8.5 5.5t-4 12z " />
<glyph unicode="N" horiz-adv-x="1544" d="M102 43l174 1229q12 96 47 129t121 33h103q72 0 97.5 -15t57.5 -78l211 -446l127 -279h15l108 775q5 26 14 34.5t40 8.5h282q40 0 40 -33q0 -4 -1 -10l-172 -1229q-12 -77 -49 -119.5t-119 -42.5h-102q-71 0 -100.5 16t-57.5 76l-201 422l-135 303h-14l-111 -774 q-5 -27 -13 -35t-38 -8h-283q-42 0 -42 34q0 4 1 9z" />
<glyph unicode="O" horiz-adv-x="1476" d="M150 559q0 268 86.5 470.5t251.5 314.5t386 112q273 0 412 -155.5t139 -426.5q0 -268 -81 -468t-247.5 -314.5t-402.5 -114.5q-544 0 -544 582zM545 575q0 -123 46 -187t148 -64q73 0 130.5 46t91 122.5t50.5 167.5t17 190q0 125 -42.5 193.5t-145.5 68.5 q-94 0 -163 -81.5t-100.5 -200.5t-31.5 -255z" />
<glyph unicode="P" horiz-adv-x="1327" d="M102 41l179 1257q9 64 40.5 100t106.5 36h496q210 0 320 -112t110 -298q0 -31 -4 -66t-19 -90t-40 -104t-72.5 -101.5t-110 -90t-159 -61.5t-214.5 -24h-194l-64 -446q-5 -27 -12.5 -34t-38.5 -7h-283q-42 0 -42 32q0 4 1 9zM584 791h204q77 0 126 53.5t49 132.5 q0 51 -27.5 87t-93.5 36h-215z" />
<glyph unicode="Q" horiz-adv-x="1476" d="M150 559q0 268 86.5 470.5t251.5 314.5t386 112q273 0 412 -155.5t139 -426.5q0 -268 -81 -468t-247.5 -314.5t-402.5 -114.5q-544 0 -544 582zM532 -328l29 199q5 25 11 32t28 7h211q175 0 306.5 -40t207.5 -103q18 -13 18 -26q0 -11 -12 -28l-98 -172q-13 -22 -27 -24 h-3q-13 0 -34 12q-196 104 -442 104h-166q-22 0 -28 9q-3 5 -3 13q0 7 2 17zM545 575q0 -123 46 -187t148 -64q73 0 130.5 46t91 122.5t50.5 167.5t17 190q0 125 -42.5 193.5t-145.5 68.5q-94 0 -163 -81.5t-100.5 -200.5t-31.5 -255z" />
<glyph unicode="R" horiz-adv-x="1380" d="M102 41l179 1257q8 70 38 103t109 33h500q213 0 317.5 -94t104.5 -271q0 -142 -69.5 -249t-203.5 -163l-2 -4q86 -23 122 -74t44 -137l47 -389q6 -29 1.5 -41t-27.5 -12h-265h-8q-21 0 -32.5 1t-27 5t-24 15.5t-10.5 29.5l-33 342q-8 91 -47 129.5t-135 38.5h-129 l-74 -520q-5 -27 -12.5 -34t-38.5 -7h-283q-42 0 -42 32q0 4 1 9zM594 864h227q55 0 96 36.5t41 103.5q0 42 -25.5 69t-78.5 27h-227z" />
<glyph unicode="S" horiz-adv-x="1224" d="M45 156q0 15 16 43l91 194q18 34 33 39t44 -8q209 -96 377 -96q43 0 74.5 9t47.5 21t25 28.5t11 27.5t2 22q0 28 -28 53t-111 64q-100 49 -170 93.5t-130 100t-90 122.5t-30 145q0 200 139 321t399 121q128 0 246 -23.5t191 -70.5q32 -18 36 -33q1 -3 1 -7q0 -17 -13 -56 l-55 -170q-13 -39 -32.5 -46.5t-53.5 5.5q-195 59 -330 59q-125 0 -125 -80q0 -27 27 -51t104 -59q110 -46 188.5 -91.5t139 -102.5t90 -128t29.5 -158q0 -230 -160 -348.5t-438 -118.5q-145 0 -288 37.5t-236 110.5q-21 15 -21 31z" />
<glyph unicode="T" horiz-adv-x="1169" d="M131 1155l33 229q4 33 13 41.5t34 8.5h1046q27 0 34 -8q4 -5 4 -21q0 -9 -1 -21l-32 -229q-9 -47 -50 -47h-340l-151 -1065q-5 -27 -13 -35t-38 -8h-283q-42 0 -42 34q0 4 1 9l152 1065h-332q-37 0 -37 32q0 7 2 15z" />
<glyph unicode="U" horiz-adv-x="1474" d="M165 394q-1 15 -1 32q0 69 14 149l115 816q6 43 51 43h283q31 0 38.5 -8.5t2.5 -34.5l-121 -852q-4 -31 -5 -57q0 -78 38 -118q50 -53 184 -53q135 0 182 11l150 1069q5 24 15.5 33.5t35.5 9.5h280q31 0 39 -8q4 -5 4 -17q0 -8 -2 -18l-170 -1192q-12 -73 -47.5 -122 t-109.5 -71q-111 -33 -377 -33q-103 0 -183.5 8.5t-149.5 28.5t-115.5 52t-82 79t-50 109.5t-18.5 143.5z" />
<glyph unicode="V" horiz-adv-x="1355" d="M168 1397v6q0 33 31 33h293q33 0 42.5 -9.5t14.5 -35.5l76 -549l47 -406h16l154 402l231 563q10 22 24.5 28.5t41.5 6.5h315q26 0 26 -19q0 -8 -5 -20l-588 -1270q-16 -37 -33.5 -61.5t-32.5 -37.5t-38.5 -19.5t-40.5 -7.5t-50 -1h-143q-72 0 -105 25t-49 104z" />
<glyph unicode="W" horiz-adv-x="1898" d="M169 1410q-1 3 -1 5q0 5 4 10l6 9t10 4.5t13 1.5h16h291q23 0 33.5 -1t22 -6.5t15.5 -18t5 -34.5l6 -417l10 -394h14l142 404l118 336q31 82 61 104.5t99 22.5h137q63 0 81 -21.5t26 -91.5l29 -383l26 -356h15l102 354l127 434q12 42 25 53t47 11l340 2q18 0 25 -2 q6 -3 10 -15q1 -3 1 -7q0 -11 -8 -30l-473 -1263q-18 -47 -33.5 -73.5t-38 -38.5t-40.5 -14.5t-58 -2.5h-117q-74 0 -97 10q-43 19 -55 108q-1 2 -1 5l-33 374l-35 414h-12l-156 -411l-143 -377q-15 -36 -29.5 -59t-27.5 -36.5t-34.5 -19.5t-38 -7t-50.5 -1h-129h-12 q-64 0 -83 12q-31 20 -42 109l-109 1276q1 13 -1 21z" />
<glyph unicode="X" horiz-adv-x="1296" d="M-36 16q-1 5 -1 9q0 12 8 24l518 703l-284 634q-12 17 -3.5 33.5t36.5 16.5h272q49 0 66.5 -10t31.5 -46l123 -327l213 327q21 33 43 44.5t70 11.5h307q25 0 29 -16q1 -3 1 -7q0 -13 -12 -27l-464 -634l323 -703q5 -18 -3 -33.5t-26 -15.5h-299q-42 0 -61.5 12t-36.5 49 l-139 373l-244 -373q-30 -38 -50.5 -49.5t-62.5 -11.5h-333q-17 0 -22 16z" />
<glyph unicode="Y" horiz-adv-x="1310" d="M160 1386q-3 7 -3 13q0 10 6 19q10 16 38 16h299q20 0 32 -2.5t18.5 -11t8.5 -15t6 -25.5l72 -250l65 -274h13l145 279l146 254q13 25 27 35t42 10h334q18 0 27 -4t9 -12t-2 -14t-7 -15l-570 -889l-63 -453q-5 -28 -14 -37.5t-39 -9.5h-283q-40 0 -40 37q0 4 1 10l61 447 z" />
<glyph unicode="Z" horiz-adv-x="1267" d="M25 117l8 63q12 90 104 185l666 722l4 21h-520q-37 0 -37 32q0 7 2 15l33 229q4 33 13 41.5t34 8.5h905q69 0 91 -25q16 -17 16 -57q0 -17 -3 -39l-12 -88q-11 -72 -106 -181l-645 -700l2 -16h579q27 0 34 -8t3 -41l-33 -232q-9 -47 -49 -47h-985q-64 0 -89 26 q-18 19 -18 57q0 16 3 34z" />
<glyph unicode="[" horiz-adv-x="802" d="M96 -137l219 1564q6 48 56 48h469q16 0 20 -6t2 -25l-31 -209q-1 -13 -3 -18t-9.5 -8t-23.5 -3h-174l-158 -1122h180q29 0 23 -29l-29 -207q-5 -24 -8.5 -28t-20.5 -4h-471q-47 0 -41 47z" />
<glyph unicode="\" horiz-adv-x="944" d="M182 1548q-12 45 41 45h193q32 0 42 -8.5t15 -30.5l381 -1708q5 -19 -5 -31t-34 -12h-188q-36 0 -51 8t-19 31z" />
<glyph unicode="]" horiz-adv-x="825" d="M81 -178.5q-3 5.5 1 28.5l29 205q6 29 32 29h179l157 1122h-180q-26 0 -23 29l29 205q4 22 11.5 28.5t25.5 6.5h465q25 0 33.5 -12t3.5 -36l-219 -1564q-5 -25 -16 -36t-36 -11h-471q-18 0 -21 5.5z" />
<glyph unicode="^" horiz-adv-x="1236" d="M148.5 795.5q1.5 9.5 9.5 21.5l440 608q52 70 121 70h102q29 0 47.5 -4.5t29.5 -16.5t15 -20.5t11 -28.5l270 -604q7 -18 -1 -31.5t-26 -13.5h-223q-48 0 -55 31l-154 385h-8l-258 -377q-17 -24 -32 -32.5t-40 -8.5h-227q-12 0 -17.5 6t-4 15.5z" />
<glyph unicode="_" horiz-adv-x="993" d="M-125 -281l12 84q5 35 10.5 42.5t30.5 7.5h992q25 0 29.5 -7.5t0.5 -42.5l-12 -84q-5 -28 -13 -37.5t-30 -9.5h-991q-23 0 -28.5 10t-0.5 37z" />
<glyph unicode="`" horiz-adv-x="1105" d="M314 1556.5q1 13.5 14 20.5l225 131q23 10 31 8t16 -20l231 -387q6 -9 7.5 -16t-2 -13t-7.5 -9.5l-12 -10.5l-117 -74q-23 -20 -47 4l-329 346q-11 7 -10 20.5z" />
<glyph unicode="a" horiz-adv-x="1241" d="M104 391q0 337 146 522t430 185q258 0 471 -60q23 -6 33 -16q11 -10 11 -25q0 -10 -3 -24q-67 -413 -119 -883q-5 -19 -10 -26t-21 -13q-203 -76 -495 -76q-104 0 -182 20.5t-127 56t-79.5 89t-42.5 113.5t-12 137zM481 457q0 -90 35.5 -130t106.5 -40q70 0 120 18 q7 56 15.5 125.5t10.5 88t8.5 63t13 83.5t20.5 117q-53 15 -100 15q-103 0 -166.5 -85t-63.5 -255z" />
<glyph unicode="b" horiz-adv-x="1257" d="M96 98q-3 9 -4 20q0 11 4 23l185 1309q5 27 15.5 36t39.5 9h262q31 0 40 -8.5t5 -36.5l-55 -391q126 49 241 49q373 0 373 -420q0 -110 -20.5 -210t-69 -193t-120 -160t-180.5 -107.5t-245 -40.5q-278 0 -438 86q-27 15 -33 35zM483 307q46 -14 107 -14q107 0 171 89.5 t64 250.5q0 158 -129 158q-64 0 -147 -41z" />
<glyph unicode="c" horiz-adv-x="1060" d="M109 434q0 174 40.5 304t115.5 210t176 119t229 39q179 0 323 -64q25 -10 29 -22q1 -4 1 -10q0 -12 -7 -33l-66 -207q-9 -27 -29 -28.5t-49 8.5q-130 24 -180 24q-205 0 -205 -293q0 -85 33 -126.5t119 -41.5q84 0 227 39q23 9 36.5 6.5t17.5 -28.5l65 -203q8 -21 4 -36 t-33 -30q-167 -84 -405 -84q-442 0 -442 457z" />
<glyph unicode="d" horiz-adv-x="1257" d="M106 422q0 323 146.5 504.5t413.5 181.5q92 0 200 -21l54 363q5 27 16 36t41 9h260q27 -1 37 -9q7 -6 7 -21q0 -7 -1 -15l-180 -1309q-4 -21 -7 -31t-14.5 -23t-31.5 -24q-182 -86 -461 -86q-108 0 -191 22t-137 61t-88.5 96t-49 122t-14.5 144zM483 461q0 -168 164 -168 q56 0 111 14l65 467q-57 17 -123 17q-37 0 -72.5 -16t-69.5 -51t-54.5 -103t-20.5 -160z" />
<glyph unicode="e" horiz-adv-x="1177" d="M102 397q0 343 155.5 526t440.5 183q73 0 135 -9.5t119 -32.5t97 -59t64 -91.5t24 -127.5q0 -182 -126.5 -275t-367.5 -93q-85 0 -158 8q0 -5 -1 -14.5t-1 -14.5q0 -36 11 -58.5t36 -33t51 -13.5t70 -3q81 0 215 43q30 9 39 6t15 -21l77 -192q6 -19 -0.5 -29t-25.5 -22 q-75 -46 -202 -71.5t-226 -25.5q-238 0 -339.5 104.5t-101.5 315.5zM518 645q16 -2 49 -2q114 0 157.5 24t43.5 76q0 30 -20.5 50t-67.5 20q-136 0 -162 -168z" />
<glyph unicode="f" horiz-adv-x="892" d="M93 814q-1 4 -1 9q0 7 2 17l25 166q2 20 9.5 29.5t31.5 15.5l143 32l14 103q49 336 373 336q52 0 138 -9t145 -30q24 -7 27 -17q2 -4 2 -8q0 -9 -5 -20l-53 -219q-7 -22 -17 -25.5t-30 2.5q-82 14 -129 14q-54 0 -73 -19.5t-25 -55.5l-11 -60h234q19 0 25 -6t2 -25 l-29 -208q-6 -23 -12 -26q-9 -5 -31 -5h-225l-152 -1081q-4 -34 -17 -48.5t-36 -21.5l-271 -84q-9 -3 -17 -3q-11 0 -20 5q-16 10 -12 37l166 1196h-147q-21 0 -24 9z" />
<glyph unicode="g" horiz-adv-x="1257" d="M109 442q0 306 155 482t461 176q122 0 241.5 -22t202.5 -64q28 -16 36 -34q5 -11 5 -25q0 -9 -2 -19l-135 -942q-66 -453 -532 -453q-198 0 -394 70q-27 12 -30.5 29.5t4.5 27.5l61 185q8 24 20.5 29.5t43.5 -1.5q156 -39 233 -39q124 0 173 43t67 162q-96 -27 -215 -27 q-395 0 -395 422zM481 487q0 -85 39 -117t117 -32q77 0 127 18l57 414q-46 14 -106 14q-47 0 -86 -13.5t-73.5 -45t-54.5 -92.5t-20 -146z" />
<glyph unicode="h" horiz-adv-x="1271" d="M82 39l199 1415q5 24 15 32.5t34 8.5h266q34 0 41 -7.5t2 -33.5l-51 -373q44 11 117.5 19t117.5 8q210 0 301 -109q69 -83 69 -223q0 -45 -7 -96l-90 -641q-5 -26 -12.5 -32.5t-41.5 -6.5h-266q-25 0 -35.5 9.5t-7.5 29.5l82 575q6 57 6 87q0 13 -1 21q-19 68 -113 71 q-108 0 -164 -21l-103 -733q-3 -15 -4.5 -20.5t-7 -11t-14.5 -6.5t-27 -1h-264q-24 0 -34 10q-8 7 -8 20q0 4 1 9z" />
<glyph unicode="i" horiz-adv-x="684" d="M119 41l139 993q5 24 15 32.5t36 8.5h264q31 0 38.5 -7.5t2.5 -33.5l-139 -993q-5 -27 -12.5 -34t-38.5 -7h-264q-42 0 -42 32q0 4 1 9zM295 1327q0 92 66.5 158.5t154.5 66.5q72 0 120 -47.5t48 -120.5q0 -95 -68.5 -159t-154.5 -64q-72 0 -119 46.5t-47 119.5z" />
<glyph unicode="j" horiz-adv-x="686" d="M-170 -179q6 10 37 23q137 58 194.5 129t77.5 207l119 854q5 24 15 32.5t36 8.5h269q31 0 37 -7.5t1 -33.5l-122 -882q-20 -145 -60.5 -247t-107 -171t-147.5 -110.5t-197 -74.5q-32 -8 -42 -9h-4q-8 0 -15 4q-8 6 -15 24l-72 207q-6 23 -6 35q0 7 2 11zM299 1327 q0 92 66.5 158.5t154.5 66.5q72 0 120 -47.5t48 -120.5q0 -95 -68.5 -159t-154.5 -64q-72 0 -119 46.5t-47 119.5z" />
<glyph unicode="k" horiz-adv-x="1167" d="M82 43l201 1415q5 24 15 32.5t34 8.5h268q34 0 40 -7.5t1 -33.5l-96 -682l6 -4l242 264q27 25 43 33t49 8h305q43 0 43 -18q0 -13 -23 -37l-315 -315l219 -656q3 -10 3 -18q0 -33 -50 -33h-270q-31 0 -45.5 10t-20.5 39l-115 383l-139 -143q-11 -104 -37 -246 q-3 -16 -4.5 -21t-6.5 -12t-14.5 -8.5t-27.5 -1.5h-264q-42 0 -42 34q0 4 1 9z" />
<glyph unicode="l" horiz-adv-x="720" d="M122 211q2 55 11 127l164 1116q2 16 6 24.5t13 12t14.5 4t21.5 0.5h254q27 0 37 -8t6 -31l-149 -1071q-3 -21 -3 -37q0 -25 7 -37q11 -20 59 -20q26 0 72 4q23 1 28 -3t7 -24l24 -215q1 -20 -7.5 -28.5t-35.5 -16.5q-102 -31 -254 -31q-55 0 -96.5 6.5t-76.5 22.5t-55 43 t-34 67q-13 36 -13 84v11z" />
<glyph unicode="m" horiz-adv-x="1902" d="M82 41l125 879q8 69 35.5 107t95.5 54q43 9 144.5 17t170.5 8q251 0 377 -90q65 41 161.5 66.5t180.5 25.5q106 0 187 -24.5t132.5 -69t82.5 -107.5q30 -63 36 -141q2 -28 2 -57q0 -53 -6 -111l-80 -557q-5 -27 -12.5 -34t-38.5 -7h-264q-42 0 -42 32q0 4 1 9l74 516 q7 46 7 82q1 61 -19 99q-32 60 -138 59q-22 0 -65 -7t-68 -14q3 -32 3 -69q0 -61 -9 -132l-76 -534q-5 -27 -12.5 -34t-38.5 -7h-268q-25 0 -35.5 10.5t-7.5 30.5l80 559q4 33 4 61q0 65 -22 99q-32 50 -134 49q-51 0 -98 -8l-107 -760q-3 -16 -4.5 -21t-6.5 -11.5 t-14.5 -7.5t-27.5 -1h-264q-42 0 -42 32q0 4 1 9z" />
<glyph unicode="n" horiz-adv-x="1271" d="M84 41l125 879q8 69 35.5 107t95.5 54q42 9 149 17t177 8q150 0 252 -28t166 -92q66 -64 86 -168q10 -51 9 -113q0 -64 -10 -140l-73 -524q-3 -15 -4.5 -20.5t-7 -11.5t-15 -7.5t-27.5 -1.5h-266q-25 0 -35.5 10.5t-7.5 30.5l80 559q4 33 4 60q0 66 -23 100 q-33 50 -137 49q-61 0 -108 -8l-107 -760q-3 -16 -4.5 -21t-6.5 -11.5t-14.5 -7.5t-27.5 -1h-264q-42 0 -42 32q0 4 1 9z" />
<glyph unicode="o" horiz-adv-x="1228" d="M104 408q0 328 162 513t445 185q231 0 345.5 -118.5t114.5 -342.5q0 -307 -159 -487.5t-447 -180.5q-461 0 -461 431zM483 455q0 -85 30 -123.5t91 -38.5q85 0 137 91.5t52 244.5q0 162 -119 162q-87 0 -139 -86.5t-52 -249.5z" />
<glyph unicode="p" horiz-adv-x="1257" d="M23 -385l184 1317q5 28 16.5 45t44.5 33q179 86 459 86q134 0 227.5 -33.5t144.5 -97t73 -142t22 -182.5q0 -136 -34.5 -254t-101.5 -208.5t-174 -142.5t-243 -52q-98 0 -201 20l-57 -389q-5 -26 -12 -31.5t-41 -5.5h-267q-26 0 -35 8q-6 5 -6 17q0 5 1 12zM483 317 q54 -16 123 -16q96 0 155.5 82t59.5 231q0 92 -40.5 129t-123.5 37q-55 0 -110 -14z" />
<glyph unicode="q" horiz-adv-x="1257" d="M106 410q0 686 617 686q122 0 239.5 -22t200.5 -64q28 -16 35 -34q4 -10 4 -23q0 -10 -2 -21l-178 -1311q-5 -27 -13 -35t-38 -8h-269q-43 0 -43 38v5l56 385q-93 -26 -215 -26q-105 0 -182 31t-123 89t-67.5 135t-21.5 175zM485 467q0 -89 35.5 -129.5t106.5 -40.5 q79 0 129 18l65 457q-46 14 -106 14q-103 0 -166.5 -79.5t-63.5 -239.5z" />
<glyph unicode="r" horiz-adv-x="874" d="M96 51l105 764q17 126 31 163q25 64 94 88q35 13 86 19q136 18 319 18q77 0 162 -3q39 0 49 -12q7 -7 6 -23q0 -9 -2 -21l-41 -227q-4 -28 -18 -34t-47 -1q-122 19 -283 29l-108 -760q-4 -31 -17.5 -41t-46.5 -10h-242q-29 0 -41 10q-8 7 -8 23q0 8 2 18z" />
<glyph unicode="s" horiz-adv-x="1026" d="M46 122q2 8 11 28l76 169q11 28 24 32.5t36 -7.5q168 -70 290 -70q90 0 90 62q0 19 -24.5 37t-99.5 53q-286 126 -289 336q0 156 114.5 250t319.5 94q98 0 197 -21.5t165 -56.5q27 -15 27 -28q0 -12 -12 -42l-58 -145q-12 -28 -24.5 -34t-38.5 3q-158 45 -256 45 q-25 0 -40 -12.5t-18.5 -22.5t-3.5 -16q0 -24 22 -40t87 -44q77 -32 129.5 -62.5t96.5 -72.5t65.5 -97t21.5 -124q0 -176 -128 -267.5t-345 -91.5q-117 0 -232.5 28.5t-187.5 84.5q-11 8 -14 16q-2 5 -2 9q0 3 1 7z" />
<glyph unicode="t" horiz-adv-x="903" d="M97 832.5q0 9.5 1 21.5l21 145q4 16 6 21.5t9.5 10.5t23.5 9l145 37l27 189q4 27 16.5 38.5t36.5 18.5l276 84q9 2 17 2q12 1 18 -5q12 -10 8 -36l-40 -293h221q25 -1 29 -9q2 -4 2 -9q0 -8 -3 -19l-26 -184q-1 -5 -2 -13.5t-2 -11.5t-3 -8t-6 -6l-10 -2.5t-16 -1.5h-221 l-60 -432q-2 -12 -1 -23q0 -32 15 -46q21 -19 78 -19q59 0 136 14q33 3 36 -29l29 -217q0 -2 -0.5 -7t-1 -7.5t-1.5 -6t-3 -6t-5 -5t-8 -5t-12 -4.5q-135 -41 -323 -41q-176 0 -254 79q-61 62 -61 165q0 28 4 58l73 532h-139q-15 0 -22.5 6t-7.5 15.5z" />
<glyph unicode="u" horiz-adv-x="1253" d="M150 514l71 520q5 26 13.5 33.5t39.5 7.5h269q42 0 42 -32q0 -4 -1 -9l-78 -555q-5 -45 -5 -80q-1 -20 1 -36q4 -46 38.5 -69.5t104.5 -23.5q57 0 109 9l104 755q5 27 13.5 34t41.5 7h265q40 0 40 -32q0 -4 -1 -9l-123 -874q-8 -71 -35.5 -108.5t-95.5 -53.5 q-43 -8 -151.5 -16.5t-172.5 -8.5q-309 -1 -421 121q-81 87 -80 266q0 70 12 154z" />
<glyph unicode="v" horiz-adv-x="1183" d="M119 1028q-2 12 -2 20q1 12 5 18q8 10 34 9h264q42 0 55 -7.5t19 -39.5l45 -344l36 -340h13l135 348l135 330q14 34 28 43.5t56 9.5h291q21 1 25 -9q2 -3 1 -8q0 -9 -6 -22l-440 -927q-34 -75 -70.5 -96t-101.5 -21h-197q-57 0 -84.5 24t-40.5 93z" />
<glyph unicode="w" horiz-adv-x="1640" d="M115 1028q-1 8 -1 14q0 16 7 24q10 10 37 9h272h14h13t10.5 -0.5t9.5 -2t6.5 -4.5t6 -7.5t3 -11t1.5 -15.5l10 -262l6 -317h12l103 250l88 202q31 64 58.5 85.5t82.5 21.5h135q26 0 42.5 -6t27 -23.5t14.5 -29.5t12 -44l37 -227l29 -219h12l90 332l72 231q7 24 14 33 t14.5 10.5t32.5 1.5l293 2q28 0 35 -9q3 -4 3 -12q0 -10 -5 -26l-375 -919q-30 -70 -61.5 -93.5t-87.5 -23.5h-121q-63 0 -89 19.5t-40 94.5l-41 236l-37 227h-10l-107 -225l-110 -238q-43 -77 -70 -95.5t-88 -18.5h-129q-56 0 -82.5 24t-36.5 93z" />
<glyph unicode="x" horiz-adv-x="1097" d="M-37 16q-1 4 -1 8q0 12 13 27l402 516l-234 469q-8 12 -1 24.5t28 12.5h287q36 0 50.5 -9t24.5 -38l68 -205l121 205q17 28 35.5 37.5t52.5 9.5h319q22 -1 26 -13l2 -6q0 -9 -9 -18l-369 -469l260 -516q12 -20 2 -35.5t-39 -15.5h-270q-35 0 -51 13.5t-27 45.5l-92 252 l-164 -252q-22 -32 -42 -45.5t-54 -13.5h-303q-29 0 -35 16z" />
<glyph unicode="y" horiz-adv-x="1200" d="M47 -402q-2 5 -2 12q0 11 4 28l47 196q5 27 17.5 30.5t38.5 -3.5q55 -8 94 -8q70 0 101 20.5t67 95.5l43 90h-62q-51 0 -66.5 18.5t-27.5 74.5l-182 874q-2 9 -2 17q0 30 39 30h280q42 0 55 -8t17 -39l35 -344l37 -340h12l137 348l129 328q14 34 28.5 44.5t53.5 10.5h317 q28 0 28 -18q0 -8 -7 -21l-580 -1218q-62 -134 -148 -199.5t-235 -65.5q-118 0 -237 31q-26 6 -31 16z" />
<glyph unicode="z" horiz-adv-x="1056" d="M10 94l13 84q11 77 69 135l463 461l-8 10h-350q-26 0 -32 7.5t-1 33.5l29 207q4 25 15 34t32 9h735q53 0 75 -15q16 -11 17 -43q0 -10 -2 -22l-14 -100q-10 -75 -60 -125l-456 -457l6 -12h407q22 0 29.5 -8t3.5 -33l-29 -215q-4 -29 -12 -37t-31 -8h-805q-50 0 -75 24 q-20 19 -20 53q0 8 1 17z" />
<glyph unicode="{" horiz-adv-x="925" d="M176 588l21 137q4 37 36 47q65 18 91 41t38 80l39 192q19 97 31 142.5t45 106.5t82 85t136 39.5t212 7.5q42 -3 39 -30l-18 -181q-4 -27 -14 -36t-29 -11q-49 -4 -79.5 -17.5t-49 -44t-27 -60.5t-18.5 -87l-27 -149q-13 -78 -53.5 -128t-126.5 -75l-2 -6q86 -28 111 -80 t8 -174l-21 -160q-6 -26 -2 -51t17.5 -45t48.5 -34.5t90 -20.5q29 -3 26 -27l-28 -196q-3 -38 -35 -35q-137 0 -232.5 33t-144.5 94.5t-65 139.5t-3 177l19 146q10 68 -9.5 96t-74.5 41q-37 9 -31 43z" />
<glyph unicode="|" horiz-adv-x="624" d="M242 -334v1925q0 47 47 47h182q33 0 41 -9.5t8 -37.5v-1925q0 -28 -8 -37.5t-41 -9.5h-182q-47 0 -47 47z" />
<glyph unicode="}" horiz-adv-x="925" d="M94 -145l21 188q4 27 14 36t29 11q49 4 79.5 17.5t49 44t27 60.5t18.5 87l26 176q13 78 54 128t127 75l2 6q-86 28 -111 80t-8 174l20 133q5 26 1 51t-16 45t-46.5 35t-91.5 21q-14 2 -21 8t-6 18l27 189q3 38 35 35q502 0 444 -445l-18 -119q-10 -68 9.5 -96t74.5 -41 q36 -9 30 -43l-18 -137q-4 -36 -37 -47q-68 -20 -94 -42t-37 -79l-39 -219q-11 -55 -20.5 -90.5t-28 -82t-41 -76t-60.5 -60.5t-86 -46.5t-116.5 -23.5t-153.5 -2q-42 3 -39 31z" />
<glyph unicode="~" d="M180.5 568q0.5 8 4 13t12.5 17q142 197 346 197q50 0 104.5 -17.5t93 -39t85.5 -39t85 -17.5q45 0 81 19t81 63q27 27 45 12l144 -125q19 -19 -2 -43q-79 -103 -173 -154t-190 -51q-47 0 -101 17.5t-94 38t-88.5 38t-87.5 17.5q-48 0 -78.5 -15t-70.5 -55 q-15 -16 -24 -19t-23 5l-142 123q-8 7 -7.5 15z" />
<glyph unicode="&#xa1;" horiz-adv-x="636" d="M39 -319l162 849q6 45 59 45h174q24 0 33.5 -10t5.5 -35l-72 -849q-3 -17 -5 -22.5t-8 -16t-18 -14t-32 -3.5h-252q-34 0 -43.5 12.5t-3.5 43.5zM186 854q0 94 71 160.5t163 66.5q78 0 127 -48t49 -122q0 -91 -71 -159t-163 -68q-75 0 -125.5 49t-50.5 121z" />
<glyph unicode="&#xa2;" d="M258 434q0 321 131.5 485t366.5 185l32 209q3 41 43 41h119q28 0 34 -8t1 -33l-33 -217q93 -13 191 -54q24 -11 28 -22.5t-6 -42.5l-65 -207q-9 -27 -29 -28.5t-49 8.5q-130 24 -180 24q-205 0 -205 -293q0 -85 32.5 -126.5t118.5 -41.5q85 0 228 39q23 9 36 6.5 t17 -28.5l66 -203q8 -21 4 -36t-33 -30q-125 -64 -307 -79l-33 -220q-1 -3 -2 -8.5t-1.5 -7.5l-1.5 -6t-2.5 -5t-3.5 -4t-5 -3.5t-6.5 -1.5t-8.5 -1.5t-12 -0.5h-119q-38 0 -35 38l33 222q-344 47 -344 450z" />
<glyph unicode="&#xa3;" d="M133 98l10 74q6 44 21.5 74t54.5 71q53 58 81.5 107.5t45.5 118.5h-117q-25 0 -31.5 7t-2.5 32l20 141q5 27 13 36t32 9h86q-2 20 -6.5 57t-7 65t-2.5 54q0 154 70 258.5t190 152.5t284 48q114 0 222.5 -25t183.5 -67q25 -17 25.5 -30.5t-17.5 -55.5l-61 -158 q-16 -37 -32 -42t-50 9q-119 41 -240 41q-183 0 -166 -307h256q19 0 23.5 -1t9 -11t-1.5 -33l-20 -141q-4 -25 -12 -32t-29 -7h-244q-12 -77 -32 -132t-64 -106h540h7q23 0 28 -6t0 -37l-31 -223q-4 -26 -12.5 -32.5t-32.5 -6.5h-884q-49 0 -81.5 24t-25.5 74z" />
<glyph unicode="&#xa5;" d="M139.5 405.5q-4.5 8.5 1.5 28.5l17 111q1 5 2 11.5t2 9.5t2.5 7t4.5 5.5t8 2.5t13 1h1072q21 0 24.5 -9t-2.5 -28l-16 -111q-1 -5 -2.5 -13.5t-2 -11.5t-3.5 -6.5t-8.5 -4.5t-14.5 -1h-344l-51 -358q-3 -14 -4.5 -19.5t-7 -11t-15 -7t-27.5 -1.5h-276q-24 0 -34 9.5 t-7 29.5l51 358h-356q-22 0 -26.5 8.5zM179.5 686.5q-3.5 8.5 2.5 28.5l15 110q1 4 2.5 11.5t2 9.5t3 6.5t5.5 5.5t8 2.5t13 1.5h152l-178 467q-7 16 3 31.5t38 15.5h299q27 0 40 -6t17 -13.5t10 -29.5l68 -242l70 -264h10l143 269l139 245q13 22 27 31.5t41 9.5h324 q11 0 18 -1t10.5 -4t5.5 -5t0.5 -7.5t-2 -8t-4 -10t-4.5 -9.5l-305 -469h150q21 0 24 -9t-4 -28l-14 -110q-1 -4 -2.5 -11.5l-2 -10t-2.5 -7t-5 -5.5t-8 -2t-13 -1h-1071q-22 0 -25.5 8.5z" />
<glyph unicode="&#xa7;" horiz-adv-x="1335" d="M161 -141q0 11 11 37l74 165q13 25 21.5 27.5t31.5 -8.5q110 -47 219 -47q61 0 92 25t31 55q0 55 -123 161q-72 62 -118 106.5t-92.5 100t-68.5 110t-22 109.5q0 90 52.5 179.5t162.5 142.5q-43 69 -43 154q0 157 111.5 243t320.5 86q223 0 350 -63q24 -10 26 -23.5 t-11 -48.5l-56 -147q-14 -30 -25.5 -35.5t-37.5 4.5q-127 43 -203 43q-59 0 -89 -16t-30 -56q0 -17 8.5 -35.5t26.5 -39.5t33 -36t41 -39.5t37 -35.5q78 -76 122 -122t89 -103.5t64.5 -108t19.5 -102.5q0 -81 -54.5 -163.5t-152.5 -141.5q23 -51 33 -84t10 -74 q-2 -49 -19 -94t-54.5 -88t-91.5 -74.5t-135.5 -50.5t-180.5 -19q-220 0 -367 86q-13 10 -13 21zM555 750q0 -68 174 -242q22 -22 88 -84q31 33 31 82q0 40 -42 95.5t-116 129.5l-106 103q-29 -37 -29 -84z" />
<glyph unicode="&#xa8;" horiz-adv-x="1110" d="M350 1333q0 82 60 141.5t137 59.5q63 0 105 -44t42 -110q0 -74 -61.5 -134t-134.5 -60q-62 0 -105 43t-43 104zM791 1333q0 82 59.5 141.5t138.5 59.5q62 0 103 -43t41 -109q0 -75 -60.5 -135.5t-132.5 -60.5q-65 0 -107 42.5t-42 104.5z" />
<glyph unicode="&#xa9;" horiz-adv-x="1726" d="M174 717q0 155 57.5 292t157 235t239 155t296.5 57t296 -57t238.5 -155t157 -235t57.5 -292t-57.5 -292.5t-157 -235.5t-238.5 -155t-296 -57q-210 0 -382 97t-270 266.5t-98 376.5zM348 717q0 -165 75.5 -296t206.5 -203.5t294 -72.5t294 72.5t206 203.5t75 296t-75 296 t-206 203t-294 72t-294 -72t-206.5 -203t-75.5 -296zM551 711q0 191 101.5 308.5t267.5 117.5q115 0 189.5 -40.5t125.5 -117.5q6 -9 6 -16q0 -11 -14 -19l-121 -86q-9 -6 -16 -6q-12 0 -19 10q-31 46 -66.5 65t-84.5 19q-75 0 -115.5 -61t-40.5 -174q0 -111 41.5 -173.5 t116.5 -62.5q100 0 157 84q6 12 19 12q8 0 16 -8l121 -86q14 -8 14 -20q0 -6 -6 -15q-50 -77 -124.5 -117t-190.5 -40q-173 0 -275 119.5t-102 306.5z" />
<glyph unicode="&#xaa;" horiz-adv-x="856" d="M121 815q0 234 108 345.5t332 111.5q159 0 281 -33q20 -7 29.5 -15.5t10 -18.5t-0.5 -23l-80 -566q-5 -18 -10 -24.5t-23 -13.5q-66 -28 -158.5 -40t-163.5 -12q-176 0 -250.5 75t-74.5 214zM408 852q0 -94 86 -94q30 0 63 8q15 132 39 276q-27 7 -53 7q-63 0 -99 -48.5 t-36 -148.5z" />
<glyph unicode="&#xab;" horiz-adv-x="1269" d="M132 528q0 5 1 9q6 42 45 92l211 297q25 32 44.5 42.5t64.5 10.5h233q20 0 24 -13t-12 -36l-282 -393l190 -433q10 -24 -0.5 -36.5t-34.5 -12.5h-231q-44 0 -60 9.5t-28 35.5l-143 346q-24 60 -22 82zM616 537q6 40 46 92l210 297q25 32 44.5 42.5t64.5 10.5h233 q19 0 22.5 -13t-9.5 -36l-283 -393l189 -433q10 -25 0.5 -37t-33.5 -12h-234q-42 0 -58.5 10t-27.5 35l-143 346q-27 66 -21 91z" />
<glyph unicode="&#xac;" d="M209 608l27 189q4 33 15.5 41t39.5 8h936q16 0 24 -2t13 -13.5t2 -33.5l-80 -574q-5 -28 -14 -37.5t-39 -9.5h-195q-45 0 -39 47l47 338h-696q-47 0 -41 47z" />
<glyph unicode="&#xad;" horiz-adv-x="880" d="M147 516l29 203q4 33 13 41t34 8h537q26 0 31.5 -7.5t1.5 -41.5l-29 -203q-6 -47 -47 -47h-537q-39 0 -33 47z" />
<glyph unicode="&#xae;" horiz-adv-x="1234" d="M174 981q0 140 68.5 253t186 176t259.5 63q216 0 356 -140t140 -352q0 -207 -146.5 -346t-357.5 -139q-142 0 -257.5 62.5t-182 174t-66.5 248.5zM305 983q0 -159 108 -268t267 -109q162 0 267.5 104t105.5 273q0 160 -107 268.5t-266 108.5q-158 0 -266.5 -109.5 t-108.5 -267.5zM477 750v452q0 51 58 51h180q89 0 133.5 -39.5t44.5 -113.5q0 -96 -82 -129v-2q33 -10 47.5 -27t22.5 -49l34 -141q3 -10 2 -15.5t-10 -5.5h-110q-22 0 -28 8q-3 5 -5 13l-29 120q-12 35 -25.5 49.5t-43.5 14.5h-48v-186q0 -11 -3.5 -15t-14.5 -4h-104 q-19 0 -19 19zM618 1044h84q19 0 32.5 11.5t13.5 31.5q0 46 -46 46h-84v-89z" />
<glyph unicode="&#xaf;" horiz-adv-x="880" d="M236 1249l22 152q4 33 14.5 41t38.5 8h578q26 0 34.5 -8t4.5 -41l-23 -152q-6 -47 -51 -47h-578q-46 0 -40 47z" />
<glyph unicode="&#xb0;" horiz-adv-x="1079" d="M227 1069q0 155 110.5 262t270.5 107t270.5 -107t110.5 -262q0 -160 -110 -266.5t-271 -106.5q-162 0 -271.5 105.5t-109.5 267.5zM446 1069q0 -77 45.5 -123.5t118.5 -46.5t117.5 45.5t44.5 124.5q0 72 -45 117t-117 45t-118 -45t-46 -117z" />
<glyph unicode="&#xb1;" d="M135 45l27 193q4 33 14.5 41t38.5 8h928q26 0 34.5 -8t4.5 -41l-27 -193q-9 -47 -53 -47h-928q-48 0 -39 47zM233 774l27 189q4 33 14.5 41t38.5 8h308l47 340q6 47 51 47h229q31 0 38.5 -10.5t2.5 -36.5l-47 -340h307q28 0 36.5 -8t4.5 -41l-26 -189q-9 -47 -56 -47 h-307l-47 -338q-5 -28 -14 -37.5t-39 -9.5h-230q-45 0 -39 47l48 338h-308q-48 0 -39 47z" />
<glyph unicode="&#xb4;" horiz-adv-x="1105" d="M413 1222q-3 7 7 31l194 383q8 18 18 23.5t32 1.5l239 -62q17 -4 20 -16t-8 -22l-299 -381q-10 -18 -20 -21.5t-27 2.5l-137 49q-16 5 -19 12z" />
<glyph unicode="&#xb6;" horiz-adv-x="1255" d="M201 987q0 203 122 328t324 125h166q19 0 25 -8.5t4 -30.5l-103 -723q-5 -24 -12 -31.5t-27 -7.5h-165q-171 0 -252.5 93t-81.5 255zM461 -92q0 38 39 41q96 11 153 39.5t82 70.5t33 109l174 1237q8 35 43 35h227q23 0 32.5 -9t6.5 -26l-182 -1290q-16 -117 -62.5 -201.5 t-122 -135t-168.5 -76.5t-214 -32h-7h-6.5h-5.5t-5.5 1t-4.5 2t-4 3t-3 4.5t-2.5 6t-1.5 8t-1 10.5v203z" />
<glyph unicode="&#xb7;" horiz-adv-x="628" d="M145 563q0 91 71 159.5t163 68.5q77 0 126.5 -47.5t49.5 -120.5q0 -93 -69.5 -161.5t-163.5 -68.5q-75 0 -126 48.5t-51 121.5z" />
<glyph unicode="&#xb8;" horiz-adv-x="1056" d="M125.5 -510.5q-0.5 1.5 0.5 5.5t2 6.5t3 9.5t4 12l33 100q7 22 14.5 26t24.5 -3q98 -31 162 -31q108 0 118 72q4 34 -25.5 48.5t-88.5 14.5h-18q-29 0 -36 1.5t-16 10.5q-22 22 8 72l135 248q1 1 5 5.5t6 6.5t7 4t11 2h111q15 0 16 -8t-6 -12l-100 -189q268 -12 268 -215 q0 -49 -21 -93.5t-61.5 -81t-108 -58t-153.5 -21.5q-71 0 -151 16.5t-128 39.5q-5 2 -8 3.5t-5 4t-2.5 4z" />
<glyph unicode="&#xba;" horiz-adv-x="847" d="M123 827q0 216 108.5 332.5t305.5 116.5q163 0 249 -81t86 -226q0 -202 -108.5 -322.5t-306.5 -120.5q-334 0 -334 301zM408 852q0 -49 17.5 -70.5t53.5 -21.5q48 0 77.5 51.5t29.5 140.5q0 90 -68 90q-50 0 -80 -48t-30 -142z" />
<glyph unicode="&#xbb;" horiz-adv-x="1269" d="M56 67q-6 12 12 37l309 433l-172 393q-9 23 -0.5 36t28.5 13h234q45 0 61.5 -10.5t30.5 -42.5l129 -297q23 -59 17 -92q-6 -39 -46 -91l-241 -346q-19 -25 -38 -35t-61 -10h-233q-24 0 -30 12zM538 67q-6 12 13 37l307 433l-170 393q-9 23 -0.5 36t27.5 13h235 q45 0 61 -10.5t29 -42.5l131 -297q21 -49 15 -92q-11 -50 -43 -91l-242 -346q-19 -25 -38.5 -35t-61.5 -10h-232q-25 0 -31 12z" />
<glyph unicode="&#xbf;" horiz-adv-x="1142" d="M41 -129q0 193 221 381q8 7 43 38t45.5 41.5t38.5 37.5t39 42.5t28 39.5t25 45.5t11 44.5l8 51q4 23 9 27t26 4h276q23 0 26.5 -10t-1.5 -27l-11 -76q-7 -47 -24 -90.5t-35 -73.5t-50 -65t-51 -52.5t-55 -48.5q-45 -37 -67.5 -58.5t-42 -56.5t-19.5 -73q0 -36 24 -56 t66 -20q72 0 132 20t161 72q18 10 25.5 12t14.5 -2.5t14 -19.5l100 -201q8 -16 4.5 -28t-25.5 -25q-111 -77 -250 -114.5t-266 -37.5q-88 0 -164 15t-139.5 47t-100 87.5t-36.5 129.5zM516 860q0 94 68.5 157.5t163.5 63.5q76 0 127 -45t51 -116q0 -91 -71 -159.5 t-163 -68.5q-77 0 -126.5 47.5t-49.5 120.5z" />
<glyph unicode="&#xc0;" horiz-adv-x="1339" d="M-23 39l570 1268q35 78 75.5 103.5t110.5 25.5h162q40 0 62 -3t45 -15t35 -38.5t18 -70.5l213 -1270q6 -39 -29 -39h-295q-26 0 -39.5 6.5t-17.5 28.5l-31 246h-391l-98 -236q-10 -19 -15.5 -26.5t-18.5 -13t-36 -5.5h-299q-35 0 -21 39zM472 1797q-2 13 9 24l162 161 q19 12 29 11t24 -15l342 -329q12 -12 14.5 -20.5t-0.5 -13t-12 -13.5l-98 -105q-13 -11 -21 -12t-26 10l-410 283q-11 6 -13 19zM592 584h225l-14 159l-23 295h-16l-111 -301z" />
<glyph unicode="&#xc1;" horiz-adv-x="1339" d="M-23 39l570 1268q35 78 75.5 103.5t110.5 25.5h162q40 0 62 -3t45 -15t35 -38.5t18 -70.5l213 -1270q6 -39 -29 -39h-295q-26 0 -39.5 6.5t-17.5 28.5l-31 246h-391l-98 -236q-10 -19 -15.5 -26.5t-18.5 -13t-36 -5.5h-299q-35 0 -21 39zM592 584h225l-14 159l-23 295 h-16l-111 -301zM665 1634q-2 4 1 13t16 20l377 289q18 12 26.5 12.5t26.5 -12.5l141 -180q11 -11 8 -23.5t-16 -17.5l-438 -236q-20 -9 -27.5 -7.5t-19.5 13.5l-86 115q-7 10 -9 14z" />
<glyph unicode="&#xc2;" horiz-adv-x="1339" d="M-23 39l570 1268q35 78 75.5 103.5t110.5 25.5h162q40 0 62 -3t45 -15t35 -38.5t18 -70.5l213 -1270q6 -39 -29 -39h-295q-26 0 -39.5 6.5t-17.5 28.5l-31 246h-391l-98 -236q-10 -19 -15.5 -26.5t-18.5 -13t-36 -5.5h-299q-35 0 -21 39zM403.5 1603q-1.5 10 3 17.5 t17.5 21.5l291 248q90 76 159 76q44 0 76 -18t72 -58l238 -245q17 -19 14 -32t-27 -32l-71 -74q-14 -18 -28 -18t-38 18l-274 181l-304 -175q-19 -13 -31 -13t-28 18l-57 63q-11 12 -12.5 22zM592 584h225l-14 159l-23 295h-16l-111 -301z" />
<glyph unicode="&#xc3;" horiz-adv-x="1339" d="M-23 39l570 1268q35 78 75.5 103.5t110.5 25.5h162q40 0 62 -3t45 -15t35 -38.5t18 -70.5l213 -1270q6 -39 -29 -39h-295q-26 0 -39.5 6.5t-17.5 28.5l-31 246h-391l-98 -236q-10 -19 -15.5 -26.5t-18.5 -13t-36 -5.5h-299q-35 0 -21 39zM368 1613q-1 10 13 29 q123 199 295 199q53 0 139.5 -46t132.5 -46q25 0 49 18.5t62 63.5q20 25 23.5 27t23.5 -7l94 -47q25 -13 27.5 -21t-13.5 -38q-114 -217 -290 -217q-50 0 -140 45t-133 45q-56 0 -110 -66q-15 -17 -20.5 -22t-17 -5t-28.5 11l-82 51q-24 16 -25 26zM592 584h225l-14 159 l-23 295h-16l-111 -301z" />
<glyph unicode="&#xc4;" horiz-adv-x="1339" d="M-23 39l570 1268q35 78 75.5 103.5t110.5 25.5h162q40 0 62 -3t45 -15t35 -38.5t18 -70.5l213 -1270q6 -39 -29 -39h-295q-26 0 -39.5 6.5t-17.5 28.5l-31 246h-391l-98 -236q-10 -19 -15.5 -26.5t-18.5 -13t-36 -5.5h-299q-35 0 -21 39zM420 1657q0 82 60 141.5 t136 59.5q63 0 105.5 -44t42.5 -110q0 -74 -62 -134.5t-135 -60.5q-61 0 -104 43t-43 105zM592 584h225l-14 159l-23 295h-16l-111 -301zM860 1657q0 82 60 141.5t139 59.5q62 0 102.5 -43t40.5 -109q0 -76 -60.5 -136.5t-131.5 -60.5q-65 0 -107.5 43t-42.5 105z" />
<glyph unicode="&#xc5;" horiz-adv-x="1339" d="M-23 39l570 1268q29 62 57.5 90t69.5 35q-111 60 -111 200q0 137 94 227.5t224 90.5q109 0 176 -64t67 -168q0 -95 -48.5 -169.5t-129.5 -114.5q50 -5 74.5 -30.5t34.5 -94.5l213 -1270q6 -39 -29 -39h-295q-26 0 -39.5 6.5t-17.5 28.5l-31 246h-391l-98 -236 q-10 -19 -15.5 -26.5t-18.5 -13t-36 -5.5h-299q-35 0 -21 39zM592 584h225l-14 159l-23 295h-16l-111 -301zM752 1657q0 -37 20 -58.5t55 -21.5q44 0 76.5 31.5t32.5 83.5q0 35 -22.5 57.5t-57.5 22.5q-43 0 -73.5 -33t-30.5 -82z" />
<glyph unicode="&#xc6;" horiz-adv-x="1929" d="M-23 12q-8 12 7 37l489 1051q50 105 104 172.5t118 102.5t127 47t153 12h964q24 0 29.5 -8t1.5 -42l-33 -231q-4 -26 -13.5 -35.5t-29.5 -9.5h-432q-124 0 -137 -117l-12 -86h514q23 0 27.5 -8t0.5 -43l-30 -213q-6 -47 -43 -47h-514l-21 -154q-6 -37 -0.5 -61t23 -34.5 t35.5 -13.5t47 -3h503q26 0 31.5 -7.5t1.5 -41.5l-33 -232q-5 -27 -13.5 -37t-31.5 -10h-639q-74 0 -130 16t-89.5 41t-54.5 63.5t-29 76.5t-10 86h-379l-104 -236q-12 -27 -25 -37t-45 -10h-299q-21 0 -29 12zM608 578h283l65 466q5 34 19 86q-69 0 -107 -26t-61 -74 l-94 -211z" />
<glyph unicode="&#xc7;" horiz-adv-x="1333" d="M150 563q0 207 55 376t153 281.5t232.5 173t294.5 60.5q242 0 403 -90q29 -16 29 -35t-19 -53l-71 -168q-17 -40 -32 -47t-50 6q-79 27 -131.5 37t-124.5 10q-69 0 -129 -30.5t-108 -91t-75.5 -161t-27.5 -231.5q0 -141 53.5 -208.5t179.5 -67.5q22 0 43.5 1t42.5 4.5 t37 6t37.5 8.5t33 9t34 11t30 10.5t31.5 11.5t29 11q32 12 41.5 7.5t23.5 -37.5l80 -189q12 -29 7 -44.5t-29 -27.5q-204 -116 -449 -126l-35 -89q85 -4 147 -24t96 -51t49.5 -65.5t15.5 -72.5q0 -49 -18 -92.5t-55 -81t-104 -60t-155 -22.5q-72 0 -153 16t-134 38 q-18 6 -22 15t2 32l32 100q7 21 19.5 24t32.5 -5q94 -27 157 -27q113 0 113 72q0 63 -127 63h-15h-13h-9.5h-8t-6.5 0.5t-6 1t-4.5 1.5t-4 2.5t-3.5 3t-4 3.5q-7 5 -10 11t-2.5 14t1 13t4.5 17t5 17l62 150q-243 24 -357 177t-114 402z" />
<glyph unicode="&#xc8;" horiz-adv-x="1255" d="M145 296.5q-2 46.5 7 92.5l92 655q9 64 25 117.5t47.5 105.5t75.5 87.5t111.5 57.5t153.5 22h600q26 0 31.5 -8t1.5 -42l-33 -231q-5 -27 -13.5 -36t-31.5 -9h-464q-123 0 -136 -117l-12 -86h533q24 0 28.5 -8t-0.5 -43l-31 -213q-5 -28 -13 -37.5t-30 -9.5h-532 l-20 -154q-1 -26 -2.5 -44.5t7 -31t15.5 -19.5t22.5 -11t28 -5t31.5 -1h518q24 0 29.5 -7.5t1.5 -41.5l-33 -232q-9 -47 -43 -47h-629q-76 0 -135.5 16t-96 44t-61.5 66t-33 81t-10 89.5zM513 1797q-2 13 9 24l162 161q19 12 29 11t24 -15l342 -329q12 -12 14.5 -20.5 t-0.5 -13t-12 -13.5l-98 -105q-13 -11 -21 -12t-26 10l-410 283q-11 6 -13 19z" />
<glyph unicode="&#xc9;" horiz-adv-x="1255" d="M145 296.5q-2 46.5 7 92.5l92 655q9 64 25 117.5t47.5 105.5t75.5 87.5t111.5 57.5t153.5 22h600q26 0 31.5 -8t1.5 -42l-33 -231q-5 -27 -13.5 -36t-31.5 -9h-464q-123 0 -136 -117l-12 -86h533q24 0 28.5 -8t-0.5 -43l-31 -213q-5 -28 -13 -37.5t-30 -9.5h-532 l-20 -154q-1 -26 -2.5 -44.5t7 -31t15.5 -19.5t22.5 -11t28 -5t31.5 -1h518q24 0 29.5 -7.5t1.5 -41.5l-33 -232q-9 -47 -43 -47h-629q-76 0 -135.5 16t-96 44t-61.5 66t-33 81t-10 89.5zM671 1634q-2 4 1 13t16 20l377 289q18 12 26.5 12.5t26.5 -12.5l142 -180 q11 -11 7.5 -23.5t-16.5 -17.5l-438 -236q-20 -9 -27.5 -7.5t-19.5 13.5l-86 115q-7 10 -9 14z" />
<glyph unicode="&#xca;" horiz-adv-x="1255" d="M145 296.5q-2 46.5 7 92.5l92 655q9 64 25 117.5t47.5 105.5t75.5 87.5t111.5 57.5t153.5 22h600q26 0 31.5 -8t1.5 -42l-33 -231q-5 -27 -13.5 -36t-31.5 -9h-464q-123 0 -136 -117l-12 -86h533q24 0 28.5 -8t-0.5 -43l-31 -213q-5 -28 -13 -37.5t-30 -9.5h-532 l-20 -154q-1 -26 -2.5 -44.5t7 -31t15.5 -19.5t22.5 -11t28 -5t31.5 -1h518q24 0 29.5 -7.5t1.5 -41.5l-33 -232q-9 -47 -43 -47h-629q-76 0 -135.5 16t-96 44t-61.5 66t-33 81t-10 89.5zM458.5 1603q-1.5 10 3 17.5t17.5 21.5l291 248q90 76 160 76q44 0 75.5 -18t71.5 -58 l238 -245q17 -19 14.5 -32t-26.5 -32l-72 -74q-14 -18 -28 -18t-38 18l-274 181l-303 -175q-19 -13 -31.5 -13t-28.5 18l-57 63q-11 12 -12.5 22z" />
<glyph unicode="&#xcb;" horiz-adv-x="1255" d="M145 296.5q-2 46.5 7 92.5l92 655q9 64 25 117.5t47.5 105.5t75.5 87.5t111.5 57.5t153.5 22h600q26 0 31.5 -8t1.5 -42l-33 -231q-5 -27 -13.5 -36t-31.5 -9h-464q-123 0 -136 -117l-12 -86h533q24 0 28.5 -8t-0.5 -43l-31 -213q-5 -28 -13 -37.5t-30 -9.5h-532 l-20 -154q-1 -26 -2.5 -44.5t7 -31t15.5 -19.5t22.5 -11t28 -5t31.5 -1h518q24 0 29.5 -7.5t1.5 -41.5l-33 -232q-9 -47 -43 -47h-629q-76 0 -135.5 16t-96 44t-61.5 66t-33 81t-10 89.5zM487 1659q0 82 60 141.5t137 59.5q63 0 105 -44t42 -110q0 -74 -61.5 -134.5 t-134.5 -60.5q-61 0 -104.5 43.5t-43.5 104.5zM928 1659q0 82 59.5 141.5t138.5 59.5q62 0 103 -43t41 -109q0 -76 -61 -136.5t-132 -60.5q-65 0 -107 43t-42 105z" />
<glyph unicode="&#xcc;" horiz-adv-x="733" d="M131 43l191 1348q6 43 53 43h280q34 0 41 -8.5t2 -34.5l-190 -1348q-3 -16 -4.5 -21t-6.5 -12t-14.5 -8.5t-27.5 -1.5h-281q-49 0 -43 43zM141 1797q-2 13 9 24l161 161q19 12 29.5 11t24.5 -15l342 -329q12 -12 14.5 -20.5t-0.5 -13t-12 -13.5l-99 -105q-13 -11 -21 -12 t-26 10l-409 283q-11 6 -13 19z" />
<glyph unicode="&#xcd;" horiz-adv-x="733" d="M131 43l191 1348q6 43 53 43h280q34 0 41 -8.5t2 -34.5l-190 -1348q-3 -16 -4.5 -21t-6.5 -12t-14.5 -8.5t-27.5 -1.5h-281q-49 0 -43 43zM360 1634q-2 4 1 13t16 20l377 289q18 12 26.5 12.5t26.5 -12.5l141 -180q11 -11 8 -23.5t-16 -17.5l-438 -236q-20 -9 -27.5 -7.5 t-19.5 13.5l-86 115q-7 10 -9 14z" />
<glyph unicode="&#xce;" horiz-adv-x="733" d="M104.5 1603q-1.5 10 3 17.5t17.5 21.5l291 248q90 76 159 76q44 0 76 -18t72 -58l238 -245q17 -19 14 -32t-27 -32l-71 -74q-14 -18 -28 -18t-38 18l-274 181l-304 -175q-19 -13 -31 -13t-28 18l-57 63q-11 12 -12.5 22zM131 43l191 1348q6 43 53 43h280q34 0 41 -8.5 t2 -34.5l-190 -1348q-3 -16 -4.5 -21t-6.5 -12t-14.5 -8.5t-27.5 -1.5h-281q-49 0 -43 43z" />
<glyph unicode="&#xcf;" horiz-adv-x="733" d="M131 43l191 1348q6 43 53 43h280q34 0 41 -8.5t2 -34.5l-190 -1348q-3 -16 -4.5 -21t-6.5 -12t-14.5 -8.5t-27.5 -1.5h-281q-49 0 -43 43zM154 1661q0 82 60 141.5t136 59.5q63 0 105.5 -44t42.5 -110q0 -74 -62 -134.5t-135 -60.5q-61 0 -104 43t-43 105zM594 1661 q0 82 60 141.5t139 59.5q62 0 102.5 -43t40.5 -109q0 -76 -61 -136.5t-132 -60.5q-65 0 -107 43t-42 105z" />
<glyph unicode="&#xd0;" horiz-adv-x="1404" d="M74 666l16 120q6 33 17 41.5t38 8.5h70l66 462q6 38 13.5 60t23 41t42 27t68.5 8h365q126 0 224 -31.5t160 -84.5t101.5 -129t55.5 -157.5t16 -177.5q0 -81 -9.5 -160t-33 -165t-59.5 -161t-94 -143.5t-131 -117.5t-174.5 -78t-221.5 -29h-400q-81 0 -101 29t-9 106 l67 483h-69q-47 0 -41 48zM518 336h88q78 0 140 26.5t102.5 71.5t67 107.5t38 130t11.5 143.5q0 140 -58 213.5t-200 73.5h-82l-37 -266h180q28 0 36.5 -8.5t2.5 -41.5l-16 -120q-6 -48 -54 -48h-180z" />
<glyph unicode="&#xd1;" horiz-adv-x="1544" d="M102 43l174 1229q12 96 47 129t121 33h103q72 0 97.5 -15t57.5 -78l211 -446l127 -279h15l108 775q5 26 14 34.5t40 8.5h282q45 0 39 -43l-172 -1229q-12 -77 -49 -119.5t-119 -42.5h-102q-71 0 -100.5 16t-57.5 76l-201 422l-135 303h-14l-111 -774q-5 -27 -13 -35 t-38 -8h-283q-47 0 -41 43zM542 1621.5q-1 10.5 13 29.5q122 198 295 198q53 0 139.5 -46t132.5 -46q25 0 49 18.5t62 63.5q4 5 9.5 11.5t6.5 8.5t5 5.5t5 3.5t5 -0.5t7 -2.5t9 -5l94 -48q25 -13 28 -21t-13 -38q-114 -217 -291 -217q-50 0 -140 45t-133 45q-57 0 -110 -65 q-15 -18 -20.5 -23t-17 -5t-28.5 11l-82 51q-24 16 -25 26.5z" />
<glyph unicode="&#xd2;" horiz-adv-x="1476" d="M150 559q0 268 86.5 470.5t251.5 314.5t386 112q273 0 412 -155.5t139 -426.5q0 -268 -81 -468t-247.5 -314.5t-402.5 -114.5q-544 0 -544 582zM536 1809q-2 13 9 24l162 162q19 12 29 11t24 -15l342 -330q12 -12 14.5 -20.5t-0.5 -13t-12 -13.5l-98 -105 q-13 -11 -21.5 -12t-26.5 10l-409 283q-11 6 -13 19zM545 575q0 -123 46 -187t148 -64q73 0 130.5 46t91 122.5t50.5 167.5t17 190q0 125 -42.5 193.5t-145.5 68.5q-94 0 -163 -81.5t-100.5 -200.5t-31.5 -255z" />
<glyph unicode="&#xd3;" horiz-adv-x="1476" d="M150 559q0 268 86.5 470.5t251.5 314.5t386 112q273 0 412 -155.5t139 -426.5q0 -268 -81 -468t-247.5 -314.5t-402.5 -114.5q-544 0 -544 582zM545 575q0 -123 46 -187t148 -64q73 0 130.5 46t91 122.5t50.5 167.5t17 190q0 125 -42.5 193.5t-145.5 68.5 q-94 0 -163 -81.5t-100.5 -200.5t-31.5 -255zM774.5 1667.5q0.5 11.5 18.5 26.5l376 288q18 12 27 12.5t27 -12.5l141 -180q11 -11 8 -23.5t-16 -17.5l-438 -235q-20 -9 -28 -7.5t-20 13.5l-86 115q-10 9 -9.5 20.5z" />
<glyph unicode="&#xd4;" horiz-adv-x="1476" d="M150 559q0 268 86.5 470.5t251.5 314.5t386 112q273 0 412 -155.5t139 -426.5q0 -268 -81 -468t-247.5 -314.5t-402.5 -114.5q-544 0 -544 582zM479.5 1603q-1.5 10 3 17.5t17.5 21.5l291 248q90 76 159 76q44 0 76 -18t72 -58l237 -245q17 -19 14.5 -32t-26.5 -32 l-72 -74q-14 -18 -27.5 -18t-37.5 18l-275 181l-303 -175q-19 -13 -31 -13t-28 18l-57 63q-11 12 -12.5 22zM545 575q0 -123 46 -187t148 -64q73 0 130.5 46t91 122.5t50.5 167.5t17 190q0 125 -42.5 193.5t-145.5 68.5q-94 0 -163 -81.5t-100.5 -200.5t-31.5 -255z" />
<glyph unicode="&#xd5;" horiz-adv-x="1476" d="M150 559q0 268 86.5 470.5t251.5 314.5t386 112q273 0 412 -155.5t139 -426.5q0 -268 -81 -468t-247.5 -314.5t-402.5 -114.5q-544 0 -544 582zM493 1617.5q-1 10.5 13 29.5q122 198 295 198q53 0 139.5 -46t132.5 -46q25 0 49 18.5t62 63.5q20 25 23.5 27t23.5 -7 l94 -47q25 -13 27.5 -21t-13.5 -38q-114 -217 -290 -217q-50 0 -140 45t-133 45q-56 0 -110 -66q-15 -17 -20.5 -22t-17 -5t-28.5 11l-82 51q-24 16 -25 26.5zM545 575q0 -123 46 -187t148 -64q73 0 130.5 46t91 122.5t50.5 167.5t17 190q0 125 -42.5 193.5t-145.5 68.5 q-94 0 -163 -81.5t-100.5 -200.5t-31.5 -255z" />
<glyph unicode="&#xd6;" horiz-adv-x="1476" d="M150 559q0 268 86.5 470.5t251.5 314.5t386 112q273 0 412 -155.5t139 -426.5q0 -268 -81 -468t-247.5 -314.5t-402.5 -114.5q-544 0 -544 582zM545 575q0 -123 46 -187t148 -64q73 0 130.5 46t91 122.5t50.5 167.5t17 190q0 125 -42.5 193.5t-145.5 68.5 q-94 0 -163 -81.5t-100.5 -200.5t-31.5 -255zM582 1663q0 82 60 141.5t136 59.5q63 0 105.5 -44t42.5 -110q0 -74 -62 -134t-135 -60q-61 0 -104 43t-43 104zM1022 1663q0 82 60 141.5t139 59.5q62 0 102.5 -43t40.5 -109q0 -75 -60.5 -135.5t-132.5 -60.5q-65 0 -107 42.5 t-42 104.5z" />
<glyph unicode="&#xd8;" horiz-adv-x="1476" d="M68 69q1 8 18 27l127 131q-63 129 -63 332q0 268 86.5 470.5t251.5 314.5t386 112q256 0 400 -141l96 98q34 34 51 14l39 -38q13 -11 12 -22.5t-20 -29.5l-111 -112q84 -147 84 -351q0 -268 -81 -468t-247.5 -314.5t-402.5 -114.5q-286 0 -418 156l-112 -117 q-20 -20 -27.5 -21.5t-17.5 9.5l-39 43q-13 14 -12 22zM545 565l448 461q-24 43 -59.5 64.5t-93.5 21.5q-94 0 -163 -81.5t-100.5 -200.5t-31.5 -255v-10zM567 430q40 -106 172 -106q73 0 130.5 46t91 122.5t50.5 167.5t17 190q0 8 -1 25.5t-1 25.5z" />
<glyph unicode="&#xd9;" horiz-adv-x="1474" d="M165 394q-4 81 13 181l115 816q6 43 51 43h283q31 0 38.5 -8.5t2.5 -34.5l-121 -852q-17 -122 33 -175t184 -53q135 0 182 11l150 1069q5 24 15.5 33.5t35.5 9.5h280q31 0 38.5 -8.5t2.5 -34.5l-170 -1192q-12 -73 -47.5 -122t-109.5 -71q-111 -33 -377 -33 q-103 0 -183.5 8.5t-149.5 28.5t-115.5 52t-82 79t-50 109.5t-18.5 143.5zM532 1797q-2 13 9 24l161 161q19 12 29.5 11t24.5 -15l342 -329q12 -12 14.5 -20.5t-0.5 -13t-12 -13.5l-99 -105q-13 -11 -21 -12t-26 10l-409 283q-11 6 -13 19z" />
<glyph unicode="&#xda;" horiz-adv-x="1474" d="M165 394q-4 81 13 181l115 816q6 43 51 43h283q31 0 38.5 -8.5t2.5 -34.5l-121 -852q-17 -122 33 -175t184 -53q135 0 182 11l150 1069q5 24 15.5 33.5t35.5 9.5h280q31 0 38.5 -8.5t2.5 -34.5l-170 -1192q-12 -73 -47.5 -122t-109.5 -71q-111 -33 -377 -33 q-103 0 -183.5 8.5t-149.5 28.5t-115.5 52t-82 79t-50 109.5t-18.5 143.5zM751 1634q-2 4 1 13t16 20l377 289q18 12 26.5 12.5t26.5 -12.5l141 -180q11 -11 8 -23.5t-16 -17.5l-438 -236q-20 -9 -27.5 -7.5t-19.5 13.5l-86 115q-7 10 -9 14z" />
<glyph unicode="&#xdb;" horiz-adv-x="1474" d="M165 394q-4 81 13 181l115 816q6 43 51 43h283q31 0 38.5 -8.5t2.5 -34.5l-121 -852q-17 -122 33 -175t184 -53q135 0 182 11l150 1069q5 24 15.5 33.5t35.5 9.5h280q31 0 38.5 -8.5t2.5 -34.5l-170 -1192q-12 -73 -47.5 -122t-109.5 -71q-111 -33 -377 -33 q-103 0 -183.5 8.5t-149.5 28.5t-115.5 52t-82 79t-50 109.5t-18.5 143.5zM503.5 1603q-1.5 10 3 17.5t17.5 21.5l291 248q90 76 160 76q44 0 75.5 -18t71.5 -58l238 -245q17 -19 14.5 -32t-26.5 -32l-72 -74q-14 -18 -28 -18t-38 18l-274 181l-303 -175q-19 -13 -31.5 -13 t-28.5 18l-57 63q-11 12 -12.5 22z" />
<glyph unicode="&#xdc;" horiz-adv-x="1474" d="M165 394q-4 81 13 181l115 816q6 43 51 43h283q31 0 38.5 -8.5t2.5 -34.5l-121 -852q-17 -122 33 -175t184 -53q135 0 182 11l150 1069q5 24 15.5 33.5t35.5 9.5h280q31 0 38.5 -8.5t2.5 -34.5l-170 -1192q-12 -73 -47.5 -122t-109.5 -71q-111 -33 -377 -33 q-103 0 -183.5 8.5t-149.5 28.5t-115.5 52t-82 79t-50 109.5t-18.5 143.5zM512 1667q0 82 60 141.5t137 59.5q63 0 105 -44t42 -110q0 -74 -62 -134t-135 -60q-61 0 -104 43t-43 104zM952 1667q0 82 60 141.5t139 59.5q62 0 102.5 -43t40.5 -109q0 -76 -60 -136t-132 -60 q-65 0 -107.5 42.5t-42.5 104.5z" />
<glyph unicode="&#xdd;" horiz-adv-x="1310" d="M160 1386q-7 16 3 32t38 16h299q20 0 32 -2.5t18.5 -11t8.5 -15t6 -25.5l72 -250l65 -274h13l145 279l146 254q13 25 27 35t42 10h334q18 0 27 -4t9 -12t-2 -14t-7 -15l-570 -889l-63 -453q-5 -28 -14 -37.5t-39 -9.5h-283q-45 0 -39 47l61 447zM647.5 1640.5 q0.5 11.5 18.5 26.5l376 289q18 12 27 12.5t27 -12.5l141 -180q11 -11 8 -23.5t-16 -17.5l-438 -236q-20 -9 -28 -7.5t-20 13.5l-86 115q-10 9 -9.5 20.5z" />
<glyph unicode="&#xde;" horiz-adv-x="1327" d="M104 47l191 1364q6 47 53 47h260q30 0 37 -10t2 -37l-24 -184h280q207 0 314.5 -115t107.5 -303q0 -31 -4.5 -67t-20 -89.5t-41 -102t-73 -99t-110 -87t-158 -60t-211.5 -23.5h-195l-33 -234q-5 -28 -14 -37.5t-39 -9.5h-283q-45 0 -39 47zM555 584h209q74 0 122 56 t48 126q0 50 -30 88.5t-97 38.5h-209z" />
<glyph unicode="&#xdf;" horiz-adv-x="1265" d="M86 59l133 951q35 250 176.5 381t366.5 131q224 0 345.5 -99t121.5 -268q0 -39 -8.5 -78.5t-29 -85.5t-62.5 -89.5t-101 -74.5v-10q90 -46 126 -119t36 -194q0 -131 -31 -232t-82 -163.5t-126 -103t-154 -57t-174 -18.5q-53 0 -64 9t-6 43l29 202q5 28 12.5 37t38.5 15 q180 33 180 264q0 141 -119 174q-47 12 -59.5 26.5t-7.5 51.5l14 98q5 46 22.5 65.5t73.5 26.5q42 6 82.5 48t40.5 118q0 46 -27.5 78.5t-84.5 32.5q-70 0 -111.5 -47.5t-52.5 -124.5l-138 -988q-5 -33 -17 -46t-50 -13h-246q-57 0 -47 59z" />
<glyph unicode="&#xe0;" horiz-adv-x="1241" d="M104 391q0 337 146 522t430 185q258 0 471 -60q23 -7 33 -16.5t10.5 -21t-2.5 -27.5q-67 -413 -119 -883q-5 -19 -10 -26t-21 -13q-203 -76 -495 -76q-104 0 -182 20.5t-127 56t-79.5 89t-42.5 113.5t-12 137zM443 1556.5q1 13.5 14 20.5l225 131q23 10 31 8t16 -20 l232 -387q9 -21 5.5 -28.5t-20.5 -20.5l-117 -74q-23 -20 -47 4l-329 346q-11 7 -10 20.5zM481 457q0 -90 35.5 -130t106.5 -40q70 0 120 18q7 56 15.5 125.5t10.5 88t8.5 63t13 83.5t20.5 117q-53 15 -100 15q-103 0 -166.5 -85t-63.5 -255z" />
<glyph unicode="&#xe1;" horiz-adv-x="1241" d="M104 391q0 337 146 522t430 185q258 0 471 -60q23 -7 33 -16.5t10.5 -21t-2.5 -27.5q-67 -413 -119 -883q-5 -19 -10 -26t-21 -13q-203 -76 -495 -76q-104 0 -182 20.5t-127 56t-79.5 89t-42.5 113.5t-12 137zM481 457q0 -90 35.5 -130t106.5 -40q70 0 120 18 q7 56 15.5 125.5t10.5 88t8.5 63t13 83.5t20.5 117q-53 15 -100 15q-103 0 -166.5 -85t-63.5 -255zM632 1222q-3 7 7 31l195 383q8 18 17.5 23.5t31.5 1.5l239 -62q17 -4 20.5 -16t-7.5 -22l-299 -381q-10 -18 -20.5 -21.5t-27.5 2.5l-137 49q-16 5 -19 12z" />
<glyph unicode="&#xe2;" horiz-adv-x="1241" d="M104 391q0 337 146 522t430 185q258 0 471 -60q23 -7 33 -16.5t10.5 -21t-2.5 -27.5q-67 -413 -119 -883q-5 -19 -10 -26t-21 -13q-203 -76 -495 -76q-104 0 -182 20.5t-127 56t-79.5 89t-42.5 113.5t-12 137zM306 1251.5q2 11.5 20 30.5l297 289q87 80 157 80 q55 0 88 -18.5t64 -61.5l233 -287q13 -19 10 -31.5t-24 -31.5l-74 -64q-18 -14 -32.5 -13.5t-32.5 17.5l-246 211l-311 -235q-19 -12 -31 -10.5t-29 18.5l-78 76q-13 19 -11 30.5zM481 457q0 -90 35.5 -130t106.5 -40q70 0 120 18q7 56 15.5 125.5t10.5 88t8.5 63t13 83.5 t20.5 117q-53 15 -100 15q-103 0 -166.5 -85t-63.5 -255z" />
<glyph unicode="&#xe3;" horiz-adv-x="1241" d="M104 391q0 337 146 522t430 185q258 0 471 -60q23 -7 33 -16.5t10.5 -21t-2.5 -27.5q-67 -413 -119 -883q-5 -19 -10 -26t-21 -13q-203 -76 -495 -76q-104 0 -182 20.5t-127 56t-79.5 89t-42.5 113.5t-12 137zM311 1308q-1 10 13 29q123 199 294 199q53 0 140 -46 t133 -46q25 0 48.5 18.5t61.5 63.5q20 25 24 27t24 -7l94 -47q25 -13 27.5 -21t-13.5 -38q-114 -217 -291 -217q-50 0 -139.5 45t-132.5 45q-57 0 -111 -66q-12 -14 -15.5 -17.5t-12 -8.5t-16.5 -2t-21 12l-82 51q-24 16 -25 26zM481 457q0 -90 35.5 -130t106.5 -40 q70 0 120 18q7 56 15.5 125.5t10.5 88t8.5 63t13 83.5t20.5 117q-53 15 -100 15q-103 0 -166.5 -85t-63.5 -255z" />
<glyph unicode="&#xe4;" horiz-adv-x="1241" d="M104 391q0 337 146 522t430 185q258 0 471 -60q23 -7 33 -16.5t10.5 -21t-2.5 -27.5q-67 -413 -119 -883q-5 -19 -10 -26t-21 -13q-203 -76 -495 -76q-104 0 -182 20.5t-127 56t-79.5 89t-42.5 113.5t-12 137zM360 1354q0 82 60 141t137 59q63 0 105.5 -43.5t42.5 -109.5 q0 -74 -62 -134.5t-135 -60.5q-62 0 -105 43t-43 105zM481 457q0 -90 35.5 -130t106.5 -40q70 0 120 18q7 56 15.5 125.5t10.5 88t8.5 63t13 83.5t20.5 117q-53 15 -100 15q-103 0 -166.5 -85t-63.5 -255zM801 1354q0 82 59.5 141t138.5 59q62 0 103 -42.5t41 -108.5 q0 -75 -60.5 -136t-132.5 -61q-65 0 -107 43t-42 105z" />
<glyph unicode="&#xe5;" horiz-adv-x="1241" d="M104 391q0 337 146 522t430 185q258 0 471 -60q23 -7 33 -16.5t10.5 -21t-2.5 -27.5q-67 -413 -119 -883q-5 -19 -10 -26t-21 -13q-203 -76 -495 -76q-104 0 -182 20.5t-127 56t-79.5 89t-42.5 113.5t-12 137zM479 1380q0 137 94 227.5t224 90.5q109 0 176 -64t67 -168 q0 -136 -95 -226.5t-226 -90.5q-109 0 -174.5 63.5t-65.5 167.5zM481 457q0 -90 35.5 -130t106.5 -40q70 0 120 18q7 56 15.5 125.5t10.5 88t8.5 63t13 83.5t20.5 117q-53 15 -100 15q-103 0 -166.5 -85t-63.5 -255zM668 1405q0 -37 20 -58.5t55 -21.5q44 0 76.5 31.5 t32.5 83.5q0 35 -22.5 57.5t-57.5 22.5q-43 0 -73.5 -33t-30.5 -82z" />
<glyph unicode="&#xe6;" horiz-adv-x="1777" d="M82 297q0 92 24.5 160.5t66 111t103.5 69t130 36.5t153 10q81 0 191 -10q8 24 8 55q0 90 -125 90q-131 0 -289 -35q-42 -9 -51 31l-37 176q-4 27 2.5 36.5t26.5 16.5q195 64 417 64q209 0 297 -80q135 78 314 78q73 0 135 -9.5t119 -32.5t97 -59t63.5 -91.5t23.5 -127.5 q0 -182 -126.5 -275t-367.5 -93q-84 0 -157 8q0 -5 -1 -14.5t-1 -14.5q0 -36 11 -58.5t36 -33t51 -13.5t70 -3q81 0 215 43q30 9 38.5 6t14.5 -21l78 -192q6 -19 -0.5 -29t-26.5 -22q-75 -46 -202 -71.5t-226 -25.5q-207 0 -317 84q-81 -42 -178 -64t-175 -22 q-405 0 -405 322zM461 352q0 -86 114 -86q87 0 140 27q-8 41 -8 92q0 24 4 74q-43 6 -88 6q-162 0 -162 -113zM1133 645q16 -2 49 -2q114 0 157 24t43 76q0 30 -20.5 50t-67.5 20q-135 0 -161 -168z" />
<glyph unicode="&#xe7;" horiz-adv-x="1060" d="M109 434q0 174 40.5 304t115.5 210t176 119t229 39q179 0 323 -64q24 -11 28.5 -22.5t-5.5 -42.5l-66 -207q-9 -27 -29 -28.5t-49 8.5q-130 24 -180 24q-205 0 -205 -293q0 -85 33 -126.5t119 -41.5q84 0 227 39q23 9 36.5 6.5t17.5 -28.5l65 -203q8 -21 4 -36t-33 -30 q-139 -69 -354 -81l-45 -89q268 -12 268 -215q0 -49 -21 -93.5t-61.5 -81t-108 -58t-153.5 -21.5q-71 0 -150.5 16.5t-127.5 39.5q-5 2 -8 3.5t-5 4t-2.5 4t0.5 5.5t2 6.5t3 9.5t4 12l32 100q7 22 14.5 26t24.5 -3q98 -31 162 -31q109 0 119 72q4 34 -26 48.5t-89 14.5 h-14.5h-12.5h-9.5t-7.5 0.5t-5.5 0.5t-5 1t-3.5 1.5t-3.5 2t-3.5 3t-4 3.5q-22 22 8 72l82 150q-346 46 -346 450z" />
<glyph unicode="&#xe8;" horiz-adv-x="1177" d="M102 397q0 343 155.5 526t440.5 183q73 0 135 -9.5t119 -32.5t97 -59t64 -91.5t24 -127.5q0 -182 -126.5 -275t-367.5 -93q-85 0 -158 8q0 -5 -1 -14.5t-1 -14.5q0 -36 11 -58.5t36 -33t51 -13.5t70 -3q81 0 215 43q30 9 39 6t15 -21l77 -192q6 -19 -0.5 -29t-25.5 -22 q-75 -46 -202 -71.5t-226 -25.5q-238 0 -339.5 104.5t-101.5 315.5zM381 1556.5q1 13.5 14 20.5l226 131q23 10 31 8t16 -20l231 -387q6 -9 7.5 -16t-2 -13t-7.5 -9.5l-12 -10.5l-117 -74q-23 -20 -47 4l-330 346q-11 7 -10 20.5zM518 645q16 -2 49 -2q114 0 157.5 24 t43.5 76q0 30 -20.5 50t-67.5 20q-136 0 -162 -168z" />
<glyph unicode="&#xe9;" horiz-adv-x="1177" d="M102 397q0 343 155.5 526t440.5 183q73 0 135 -9.5t119 -32.5t97 -59t64 -91.5t24 -127.5q0 -182 -126.5 -275t-367.5 -93q-85 0 -158 8q0 -5 -1 -14.5t-1 -14.5q0 -36 11 -58.5t36 -33t51 -13.5t70 -3q81 0 215 43q30 9 39 6t15 -21l77 -192q6 -19 -0.5 -29t-25.5 -22 q-75 -46 -202 -71.5t-226 -25.5q-238 0 -339.5 104.5t-101.5 315.5zM518 645q16 -2 49 -2q114 0 157.5 24t43.5 76q0 30 -20.5 50t-67.5 20q-136 0 -162 -168zM616 1222q-3 7 7 31l194 383q8 18 17.5 23.5t31.5 1.5l240 -62q17 -4 20 -16t-8 -22l-299 -381 q-10 -18 -20 -21.5t-27 2.5l-137 49q-16 5 -19 12z" />
<glyph unicode="&#xea;" horiz-adv-x="1177" d="M102 397q0 343 155.5 526t440.5 183q73 0 135 -9.5t119 -32.5t97 -59t64 -91.5t24 -127.5q0 -182 -126.5 -275t-367.5 -93q-85 0 -158 8q0 -5 -1 -14.5t-1 -14.5q0 -36 11 -58.5t36 -33t51 -13.5t70 -3q81 0 215 43q30 9 39 6t15 -21l77 -192q6 -19 -0.5 -29t-25.5 -22 q-75 -46 -202 -71.5t-226 -25.5q-238 0 -339.5 104.5t-101.5 315.5zM314.5 1251.5q1.5 11.5 19.5 30.5l297 289q87 80 157 80q55 0 88 -18.5t64 -61.5l234 -287q13 -19 9.5 -31.5t-24.5 -31.5l-74 -64q-18 -14 -32.5 -13.5t-32.5 17.5l-246 211l-311 -235q-19 -12 -31 -10.5 t-29 18.5l-77 76q-13 19 -11.5 30.5zM518 645q16 -2 49 -2q114 0 157.5 24t43.5 76q0 30 -20.5 50t-67.5 20q-136 0 -162 -168z" />
<glyph unicode="&#xeb;" horiz-adv-x="1177" d="M102 397q0 343 155.5 526t440.5 183q73 0 135 -9.5t119 -32.5t97 -59t64 -91.5t24 -127.5q0 -182 -126.5 -275t-367.5 -93q-85 0 -158 8q0 -5 -1 -14.5t-1 -14.5q0 -36 11 -58.5t36 -33t51 -13.5t70 -3q81 0 215 43q30 9 39 6t15 -21l77 -192q6 -19 -0.5 -29t-25.5 -22 q-75 -46 -202 -71.5t-226 -25.5q-238 0 -339.5 104.5t-101.5 315.5zM375 1354q0 82 59.5 141t136.5 59q63 0 105.5 -43.5t42.5 -109.5q0 -74 -62 -134.5t-135 -60.5q-61 0 -104 43t-43 105zM518 645q16 -2 49 -2q114 0 157.5 24t43.5 76q0 30 -20.5 50t-67.5 20 q-136 0 -162 -168zM815 1354q0 82 60 141t139 59q62 0 102.5 -42.5t40.5 -108.5q0 -76 -60.5 -136.5t-131.5 -60.5q-65 0 -107.5 43t-42.5 105z" />
<glyph unicode="&#xec;" horiz-adv-x="704" d="M119 41l139 993q5 24 15 32.5t36 8.5h264q31 0 38.5 -7.5t2.5 -33.5l-139 -993q-5 -27 -12.5 -34t-38.5 -7h-264q-47 0 -41 41zM121 1556.5q1 13.5 14 20.5l225 131q23 10 31.5 8t16.5 -20l231 -387q6 -9 7.5 -16t-2 -13t-7.5 -9.5l-12 -10.5l-117 -74q-23 -20 -47 4 l-330 346q-11 7 -10 20.5z" />
<glyph unicode="&#xed;" horiz-adv-x="704" d="M119 41l139 993q5 24 15 32.5t36 8.5h264q31 0 38.5 -7.5t2.5 -33.5l-139 -993q-5 -27 -12.5 -34t-38.5 -7h-264q-47 0 -41 41zM308.5 1222q-3.5 7 6.5 31l195 383q8 18 17.5 23.5t31.5 1.5l240 -62q17 -4 20 -16t-8 -22l-299 -381q-10 -18 -20 -21.5t-27 2.5l-137 49 q-16 5 -19.5 12z" />
<glyph unicode="&#xee;" horiz-adv-x="704" d="M33.5 1251.5q1.5 11.5 19.5 30.5l297 289q87 80 158 80q55 0 87.5 -18.5t63.5 -61.5l234 -287q13 -19 10 -31.5t-24 -31.5l-74 -64q-18 -14 -33 -13.5t-33 17.5l-245 211l-312 -235q-19 -12 -30.5 -10.5t-28.5 18.5l-78 76q-13 19 -11.5 30.5zM119 41l139 993 q5 24 15 32.5t36 8.5h264q31 0 38.5 -7.5t2.5 -33.5l-139 -993q-5 -27 -12.5 -34t-38.5 -7h-264q-47 0 -41 41z" />
<glyph unicode="&#xef;" horiz-adv-x="704" d="M96 1333q0 82 60 141.5t137 59.5q63 0 105 -44t42 -110q0 -74 -61.5 -134t-134.5 -60q-62 0 -105 43t-43 104zM119 41l139 993q5 24 15 32.5t36 8.5h264q31 0 38.5 -7.5t2.5 -33.5l-139 -993q-5 -27 -12.5 -34t-38.5 -7h-264q-47 0 -41 41zM537 1333q0 82 59.5 141.5 t138.5 59.5q62 0 103 -43t41 -109q0 -75 -60.5 -135.5t-132.5 -60.5q-65 0 -107 42.5t-42 104.5z" />
<glyph unicode="&#xf0;" horiz-adv-x="1251" d="M100 395q0 168 61 300t182 210t286 78q135 0 202 -35l15 15q-11 62 -33.5 109.5t-60.5 98.5l-168 -104q-22 -13 -31 6l-27 57q-3 7 -3.5 11.5t1.5 8t4 5.5t6 4.5t5 3.5l139 88q-44 47 -111 92q-17 12 -19.5 23.5t7.5 30.5l82 123q10 18 23 19.5t36 -9.5q120 -52 222 -129 l149 96q19 11 26.5 12t14.5 -10l33 -55q12 -20 -15 -35l-120 -78q198 -187 198 -555q0 -54 -4.5 -110.5t-21 -138t-43 -153t-76.5 -146.5t-116.5 -127.5t-167.5 -86.5t-224 -34q-451 0 -451 415zM480.5 427.5q1.5 -36.5 9 -65.5t35 -48t71.5 -19q155 0 186 244q9 59 6 102 q-62 45 -129 45q-149 0 -174 -188q-6 -34 -4.5 -70.5z" />
<glyph unicode="&#xf1;" horiz-adv-x="1271" d="M84 41l125 879q8 69 35.5 107t95.5 54q42 9 149 17t177 8q150 0 252 -28t166.5 -92t85 -167.5t-0.5 -253.5l-73 -524q-3 -15 -4.5 -20.5t-7 -11.5t-15 -7.5t-27.5 -1.5h-266q-25 0 -35.5 10.5t-7.5 30.5l80 559q14 110 -19 159.5t-137 49.5q-61 0 -108 -8l-107 -760 q-3 -16 -4.5 -21t-6.5 -11.5t-14.5 -7.5t-27.5 -1h-264q-47 0 -41 41zM274 1288q-1 10 13 29q123 199 295 199q53 0 139.5 -46.5t132.5 -46.5q25 0 49 18.5t62 63.5q4 5 9.5 11.5t6.5 8.5t5 5.5t5 3.5t5 -0.5t7 -2.5t9 -5l94 -47q25 -13 27.5 -21.5t-13.5 -38.5 q-114 -217 -291 -217q-50 0 -139.5 45t-132.5 45q-58 0 -111 -65q-15 -18 -20 -22.5t-16.5 -5t-28.5 10.5l-82 52q-24 16 -25 26z" />
<glyph unicode="&#xf2;" horiz-adv-x="1228" d="M104 408q0 328 162 513t445 185q231 0 345.5 -118.5t114.5 -342.5q0 -307 -159 -487.5t-447 -180.5q-461 0 -461 431zM373 1556.5q1 13.5 14 20.5l225 131q23 10 31 8t16 -20l232 -387q6 -9 7.5 -16t-2 -13t-7.5 -9.5l-12 -10.5l-117 -74q-23 -20 -47 4l-330 346 q-11 7 -10 20.5zM483 455q0 -85 30 -123.5t91 -38.5q85 0 137 91.5t52 244.5q0 162 -119 162q-87 0 -139 -86.5t-52 -249.5z" />
<glyph unicode="&#xf3;" horiz-adv-x="1228" d="M104 408q0 328 162 513t445 185q231 0 345.5 -118.5t114.5 -342.5q0 -307 -159 -487.5t-447 -180.5q-461 0 -461 431zM483 455q0 -85 30 -123.5t91 -38.5q85 0 137 91.5t52 244.5q0 162 -119 162q-87 0 -139 -86.5t-52 -249.5zM605.5 1222q-3.5 7 6.5 31l195 383 q8 18 17.5 23.5t31.5 1.5l240 -62q17 -4 20 -16t-8 -22l-299 -381q-10 -18 -20 -21.5t-27 2.5l-137 49q-16 5 -19.5 12z" />
<glyph unicode="&#xf4;" horiz-adv-x="1228" d="M104 408q0 328 162 513t445 185q231 0 345.5 -118.5t114.5 -342.5q0 -307 -159 -487.5t-447 -180.5q-461 0 -461 431zM287.5 1251.5q1.5 11.5 19.5 30.5l297 289q87 80 158 80q55 0 87.5 -18.5t63.5 -61.5l234 -287q13 -19 10 -31.5t-24 -31.5l-74 -64q-18 -14 -33 -13.5 t-33 17.5l-245 211l-312 -235q-19 -12 -30.5 -10.5t-28.5 18.5l-78 76q-13 19 -11.5 30.5zM483 455q0 -85 30 -123.5t91 -38.5q85 0 137 91.5t52 244.5q0 162 -119 162q-87 0 -139 -86.5t-52 -249.5z" />
<glyph unicode="&#xf5;" horiz-adv-x="1228" d="M104 408q0 328 162 513t445 185q231 0 345.5 -118.5t114.5 -342.5q0 -307 -159 -487.5t-447 -180.5q-461 0 -461 431zM331 1308q-1 10 13 29q123 199 295 199q53 0 139.5 -46t132.5 -46q25 0 49 18.5t62 63.5q20 25 23.5 27t23.5 -7l94 -47q25 -13 28 -21t-13 -38 q-114 -217 -291 -217q-50 0 -140 45t-133 45q-56 0 -110 -66q-15 -17 -20.5 -22t-17 -5t-28.5 11l-82 51q-24 16 -25 26zM483 455q0 -85 30 -123.5t91 -38.5q85 0 137 91.5t52 244.5q0 162 -119 162q-87 0 -139 -86.5t-52 -249.5z" />
<glyph unicode="&#xf6;" horiz-adv-x="1228" d="M104 408q0 328 162 513t445 185q231 0 345.5 -118.5t114.5 -342.5q0 -307 -159 -487.5t-447 -180.5q-461 0 -461 431zM365 1354q0 82 59.5 141t136.5 59q63 0 105.5 -43.5t42.5 -109.5q0 -74 -62 -134.5t-135 -60.5q-61 0 -104 43t-43 105zM483 455q0 -85 30 -123.5 t91 -38.5q85 0 137 91.5t52 244.5q0 162 -119 162q-87 0 -139 -86.5t-52 -249.5zM805 1354q0 82 60 141t139 59q62 0 102.5 -42.5t40.5 -108.5q0 -75 -60.5 -136t-132.5 -61q-65 0 -107 43t-42 105z" />
<glyph unicode="&#xf7;" d="M209 604l29 199q4 28 13.5 35.5t35.5 7.5h944q24 0 31.5 -8.5t3.5 -36.5l-27 -191q-6 -49 -51 -49h-938q-25 0 -35 9.5t-6 33.5zM479 240q0 91 70 159t162 68q77 0 126.5 -47.5t49.5 -120.5q0 -93 -70 -161t-164 -68q-75 0 -124.5 48.5t-49.5 121.5zM600 1102 q0 92 70 159.5t161 67.5q77 0 127 -48t50 -120q0 -93 -70 -161t-164 -68q-75 0 -124.5 48.5t-49.5 121.5z" />
<glyph unicode="&#xf8;" horiz-adv-x="1228" d="M56.5 6.5q-0.5 2.5 1.5 6.5t3 5.5t5 5.5l4 5l108 104q-74 104 -74 275q0 328 162 513t445 185q231 0 344 -119l100 98q14 13 19 14t16 -9l20 -21q11 -13 11.5 -18.5t-11.5 -18.5l-108 -104q69 -106 69 -283q0 -307 -159 -487.5t-447 -180.5q-225 0 -338 101l-106 -103 q-12 -12 -18.5 -13.5t-18.5 7.5l-21 23q-3 4 -4.5 8t-2 6.5zM483 432l295 287q-25 72 -104 72q-87 0 -139 -86.5t-52 -249.5v-23zM504 346q27 -53 100 -53q85 0 136.5 90.5t52.5 243.5z" />
<glyph unicode="&#xf9;" horiz-adv-x="1253" d="M150 514l71 520q5 26 13.5 33.5t39.5 7.5h269q47 0 41 -41l-78 -555q-8 -70 -3.5 -116t38.5 -69.5t104 -23.5q57 0 109 9l104 755q5 27 13.5 34t41.5 7h265q45 0 39 -41l-123 -874q-8 -71 -35.5 -108.5t-95.5 -53.5q-43 -8 -151.5 -16.5t-172.5 -8.5q-308 0 -420.5 121.5 t-68.5 419.5zM367 1556.5q1 13.5 14 20.5l225 131q23 10 31 8t16 -20l232 -387q9 -21 5.5 -28.5t-20.5 -20.5l-116 -74q-23 -20 -47 4l-330 346q-11 7 -10 20.5z" />
<glyph unicode="&#xfa;" horiz-adv-x="1253" d="M150 514l71 520q5 26 13.5 33.5t39.5 7.5h269q47 0 41 -41l-78 -555q-8 -70 -3.5 -116t38.5 -69.5t104 -23.5q57 0 109 9l104 755q5 27 13.5 34t41.5 7h265q45 0 39 -41l-123 -874q-8 -71 -35.5 -108.5t-95.5 -53.5q-43 -8 -151.5 -16.5t-172.5 -8.5q-308 0 -420.5 121.5 t-68.5 419.5zM607.5 1222q-3.5 7 6.5 31l195 383q8 18 17.5 23.5t31.5 1.5l240 -62q17 -4 20 -16t-8 -22l-299 -381q-10 -18 -20 -21.5t-27 2.5l-137 49q-16 5 -19.5 12z" />
<glyph unicode="&#xfb;" horiz-adv-x="1253" d="M150 514l71 520q5 26 13.5 33.5t39.5 7.5h269q47 0 41 -41l-78 -555q-8 -70 -3.5 -116t38.5 -69.5t104 -23.5q57 0 109 9l104 755q5 27 13.5 34t41.5 7h265q45 0 39 -41l-123 -874q-8 -71 -35.5 -108.5t-95.5 -53.5q-43 -8 -151.5 -16.5t-172.5 -8.5q-308 0 -420.5 121.5 t-68.5 419.5zM299.5 1251.5q1.5 11.5 19.5 30.5l297 289q87 80 158 80q55 0 88 -18.5t64 -61.5l233 -287q13 -19 10 -31.5t-24 -31.5l-74 -64q-18 -14 -32.5 -13.5t-32.5 17.5l-246 211l-311 -235q-19 -12 -31 -10.5t-29 18.5l-78 76q-13 19 -11.5 30.5z" />
<glyph unicode="&#xfc;" horiz-adv-x="1253" d="M150 514l71 520q5 26 13.5 33.5t39.5 7.5h269q47 0 41 -41l-78 -555q-8 -70 -3.5 -116t38.5 -69.5t104 -23.5q57 0 109 9l104 755q5 27 13.5 34t41.5 7h265q45 0 39 -41l-123 -874q-8 -71 -35.5 -108.5t-95.5 -53.5q-43 -8 -151.5 -16.5t-172.5 -8.5q-308 0 -420.5 121.5 t-68.5 419.5zM379 1358q0 82 60 141.5t136 59.5q63 0 105.5 -44t42.5 -110q0 -74 -62 -134.5t-135 -60.5q-61 0 -104 43t-43 105zM819 1358q0 82 60 141.5t139 59.5q62 0 102.5 -43t40.5 -109q0 -76 -60.5 -136.5t-131.5 -60.5q-65 0 -107.5 43t-42.5 105z" />
<glyph unicode="&#xfd;" horiz-adv-x="1200" d="M47 -401.5q-5 10.5 2 39.5l47 196q5 27 17.5 30.5t38.5 -3.5q55 -8 94 -8q70 0 101 20.5t67 95.5l43 90h-62q-51 0 -66.5 18.5t-27.5 74.5l-182 874q-12 47 37 47h280q42 0 55 -8t17 -39l35 -344l37 -340h12l137 348l129 328q14 34 28.5 44.5t53.5 10.5h317q41 0 21 -39 l-580 -1218q-62 -134 -148 -199.5t-235 -65.5q-118 0 -237 31q-26 6 -31 16.5zM558.5 1222q-3.5 7 6.5 31l195 383q8 18 17.5 23.5t31.5 1.5l240 -62q17 -4 20 -16t-8 -22l-299 -381q-10 -18 -20 -21.5t-27 2.5l-137 49q-16 5 -19.5 12z" />
<glyph unicode="&#xfe;" horiz-adv-x="1257" d="M23 -385l251 1794q6 47 54 47h266q33 0 39.5 -10.5t1.5 -38.5l-47 -320q70 9 139 9q134 0 227.5 -33.5t144.5 -97t73 -142t22 -182.5q0 -136 -34.5 -254t-101.5 -208.5t-174 -142.5t-243 -52q-98 0 -201 20l-57 -389q-5 -26 -12 -31.5t-41 -5.5h-267q-26 0 -35 7.5 t-5 29.5zM483 317q54 -16 123 -16q96 0 155.5 82t59.5 231q0 92 -40.5 129t-123.5 37q-55 0 -110 -14z" />
<glyph unicode="&#xff;" horiz-adv-x="1200" d="M47 -401.5q-5 10.5 2 39.5l47 196q5 27 17.5 30.5t38.5 -3.5q55 -8 94 -8q70 0 101 20.5t67 95.5l43 90h-62q-51 0 -66.5 18.5t-27.5 74.5l-182 874q-12 47 37 47h280q42 0 55 -8t17 -39l35 -344l37 -340h12l137 348l129 328q14 34 28.5 44.5t53.5 10.5h317q41 0 21 -39 l-580 -1218q-62 -134 -148 -199.5t-235 -65.5q-118 0 -237 31q-26 6 -31 16.5zM326 1348q0 82 59.5 141t136.5 59q63 0 105.5 -43.5t42.5 -109.5q0 -74 -62 -134.5t-135 -60.5q-61 0 -104 43t-43 105zM766 1348q0 82 60 141t139 59q62 0 102.5 -42.5t40.5 -108.5 q0 -75 -61 -136t-132 -61q-65 0 -107 43t-42 105z" />
<glyph unicode="&#x131;" horiz-adv-x="684" d="M119 41l139 993q5 24 15 32.5t36 8.5h264q31 0 38.5 -7.5t2.5 -33.5l-139 -993q-5 -27 -12.5 -34t-38.5 -7h-264q-47 0 -41 41z" />
<glyph unicode="&#x152;" horiz-adv-x="1957" d="M150 565q0 271 84 471.5t246 310t386 109.5q201 0 326 -67q83 45 213 45h547q24 0 29 -8t1 -42l-32 -231q-4 -26 -13.5 -35.5t-29.5 -9.5h-434q-123 0 -136 -117l-12 -86h506q25 0 30 -8t1 -43l-31 -213q-6 -47 -45 -47h-506l-20 -154q-1 -26 -2.5 -44.5t7 -31 t15.5 -19.5t22.5 -11t28 -5t31.5 -1h491q26 0 31.5 -7.5t1.5 -41.5l-33 -232q-5 -27 -13.5 -37t-31.5 -10h-600q-127 0 -204 41q-144 -64 -328 -64q-526 0 -526 588zM547 580q0 -127 45 -191.5t147 -64.5q76 0 135 47l3 18l94 672q-45 51 -131 51q-136 0 -214.5 -148.5 t-78.5 -383.5z" />
<glyph unicode="&#x153;" horiz-adv-x="1863" d="M104 408q0 328 162 513t445 185q210 0 325 -100q138 100 348 100q73 0 135 -9.5t119 -32.5t97 -59t64 -91.5t24 -127.5q0 -182 -126.5 -275t-367.5 -93q-85 0 -158 8q0 -5 -1 -14.5t-1 -14.5q0 -36 11 -58.5t36 -33t51 -13.5t70 -3q81 0 215 43q30 9 39 6t15 -21l77 -192 q6 -19 -0.5 -29t-25.5 -22q-75 -46 -202 -71.5t-226 -25.5q-213 0 -324 91q-142 -91 -340 -91q-461 0 -461 431zM483 455q0 -85 30 -123.5t91 -38.5q85 0 137 91.5t52 244.5q0 162 -119 162q-87 0 -139 -86.5t-52 -249.5zM1204 645q16 -2 49 -2q114 0 157.5 24t43.5 76 q0 30 -20.5 50t-67.5 20q-136 0 -162 -168z" />
<glyph unicode="&#x178;" horiz-adv-x="1310" d="M160 1386q-7 16 3 32t38 16h299q20 0 32 -2.5t18.5 -11t8.5 -15t6 -25.5l72 -250l65 -274h13l145 279l146 254q13 25 27 35t42 10h334q18 0 27 -4t9 -12t-2 -14t-7 -15l-570 -889l-63 -453q-5 -28 -14 -37.5t-39 -9.5h-283q-45 0 -39 47l61 447zM438 1647q0 82 60 141 t137 59q63 0 105 -43.5t42 -109.5q0 -74 -61.5 -134.5t-134.5 -60.5q-62 0 -105 43.5t-43 104.5zM879 1647q0 82 59.5 141t138.5 59q62 0 103 -42.5t41 -108.5q0 -76 -60.5 -136.5t-132.5 -60.5q-65 0 -107 43t-42 105z" />
<glyph unicode="&#x192;" d="M59 -207q-2 9 4 29l52 164q5 23 15 26t30 -4q38 -10 82 -10q61 0 94 35t57 137q25 97 42.5 175t37 171.5t27.5 132.5h-154q-22 0 -28.5 10.5t-6.5 36.5v160q1 18 7.5 27.5t14 11.5t21.5 2h199l37 168q15 64 31 111.5t48 105.5t72.5 94.5t106 62t147.5 25.5q134 0 236 -30 q22 -6 27 -15.5t-1 -29.5l-32 -170q-4 -22 -14.5 -25t-45.5 4q-52 8 -100 8q-58 -2 -95 -38t-61 -128q-3 -9 -35 -141h183q21 0 28 -6t7 -31v-170q0 -30 -5.5 -36.5t-33.5 -6.5h-232q-5 -22 -43 -203t-61 -268q-17 -65 -29 -106.5t-32 -94.5t-40.5 -85.5t-51.5 -67.5 t-67.5 -54t-86.5 -31.5t-111 -12.5q-55 0 -121.5 12.5t-103.5 38.5q-13 7 -15 16z" />
<glyph unicode="&#x2c6;" horiz-adv-x="1181" d="M283.5 1251.5q1.5 11.5 19.5 30.5l297 289q87 80 158 80q55 0 87.5 -18.5t63.5 -61.5l234 -287q13 -19 9.5 -31.5t-24.5 -31.5l-73 -64q-18 -14 -33 -13.5t-33 17.5l-246 211l-311 -235q-19 -12 -30.5 -10.5t-28.5 18.5l-78 76q-13 19 -11.5 30.5z" />
<glyph unicode="&#x2c7;" horiz-adv-x="1165" d="M327.5 1560.5q1.5 12.5 20.5 30.5l80 66q22 16 35.5 16.5t25.5 -12.5l244 -211l320 211q26 16 38 15.5t27 -15.5l64 -70q14 -18 13.5 -31.5t-19.5 -31.5l-312 -287q-43 -43 -82 -61.5t-94 -18.5q-35 0 -70.5 22t-62.5 58l-217 289q-12 18 -10.5 30.5z" />
<glyph unicode="&#x2d8;" horiz-adv-x="1138" d="M311 1423q-15 21 11 45l122 111q8 5 13.5 7t9 3.5t8 -1t5.5 -3t6.5 -5.5t7.5 -7q114 -141 231 -141q61 0 120.5 26t158.5 117q25 16 30 16t17 -12l88 -94q25 -25 2 -47q-120 -137 -230.5 -202t-236.5 -65q-120 0 -214 72t-149 180z" />
<glyph unicode="&#x2d9;" horiz-adv-x="1130" d="M522 1354q0 92 66.5 158.5t154.5 66.5q73 0 120.5 -47.5t47.5 -120.5q0 -92 -68 -157.5t-155 -65.5q-72 0 -119 46.5t-47 119.5z" />
<glyph unicode="&#x2da;" horiz-adv-x="1167" d="M492 1380q0 137 93.5 227.5t223.5 90.5q106 0 174 -64t68 -168q0 -136 -95.5 -226.5t-224.5 -90.5q-109 0 -174 63.5t-65 167.5zM678 1405q0 -37 21.5 -58.5t56.5 -21.5q43 0 74.5 31.5t31.5 83.5q0 35 -21.5 57.5t-56.5 22.5q-44 0 -75 -34t-31 -81z" />
<glyph unicode="&#x2db;" horiz-adv-x="976" d="M137 -319q0 79 74.5 192t183.5 182q26 13 33 13l152 4q17 0 17.5 -9t-13.5 -20q-100 -76 -141.5 -137t-41.5 -119q0 -74 97 -74q70 0 133 13q20 5 30.5 1t10.5 -22l22 -100q6 -34 -26 -45q-127 -52 -299 -52q-113 0 -172.5 48t-59.5 125z" />
<glyph unicode="&#x2dc;" horiz-adv-x="1169" d="M288 1267q-1 10 13 29q123 199 295 199q53 0 139.5 -46t132.5 -46q25 0 49 18.5t62 63.5q20 25 23.5 27t23.5 -7l94 -47q25 -13 28 -21t-13 -38q-114 -217 -291 -217q-50 0 -140 45t-133 45q-56 0 -110 -66q-15 -17 -20.5 -22t-17 -5t-28.5 11l-82 51q-24 16 -25 26z" />
<glyph unicode="&#x2dd;" horiz-adv-x="1165" d="M341 1222q-3 7 7 31l195 383q8 18 17.5 23.5t31.5 1.5l229 -62q17 -4 20.5 -16t-7.5 -22l-297 -381q-11 -18 -22 -21.5t-28 2.5l-127 49q-16 5 -19 12zM711.5 1222q-3.5 7 7.5 31l196 383q14 33 48 25l231 -62q17 -4 19 -16t-9 -22l-297 -381q-18 -29 -47 -19l-127 49 q-18 5 -21.5 12z" />
<glyph unicode="&#x3a9;" horiz-adv-x="1572" d="M20 57l33 222q3 23 11 34.5t15.5 13t22.5 1.5h142l10 10q-78 81 -78 297q0 190 57 346t156.5 259.5t235 159.5t293.5 56q273 0 421 -150t148 -417q0 -135 -51.5 -290t-157.5 -261l6 -10h141q11 0 16.5 -1t12.5 -5t8.5 -14.5t-0.5 -28.5l-32 -228q-4 -31 -16 -41t-42 -10 h-475q-120 0 -102 133l8 60q7 51 29.5 86.5t70.5 85.5q41 46 69.5 87t58.5 100t45.5 133t15.5 161q0 130 -50 199t-163 69q-144 0 -233 -128t-89 -341q0 -91 21.5 -154t62.5 -126q35 -51 47.5 -84t5.5 -84l-8 -64q-18 -133 -139 -133h-486q-29 0 -37.5 12t-3.5 45z" />
<glyph unicode="&#x3c0;" horiz-adv-x="1271" d="M84 43l127 897q11 73 40.5 104t106.5 31h754q78 0 100 -31.5t11 -103.5l-127 -897q-4 -20 -6.5 -27t-13.5 -11.5t-34 -4.5h-266q-49 0 -43 43l105 739h-291l-105 -739q-3 -16 -4.5 -21t-6.5 -12t-14.5 -8.5t-27.5 -1.5h-264q-47 0 -41 43z" />
<glyph unicode="&#x401;" horiz-adv-x="1255" d="M145 296.5q-2 46.5 7 92.5l92 655q9 64 25 117.5t47.5 105.5t75.5 87.5t111.5 57.5t153.5 22h600q26 0 31.5 -8t1.5 -42l-33 -231q-5 -27 -13.5 -36t-31.5 -9h-464q-123 0 -136 -117l-12 -86h533q24 0 28.5 -8t-0.5 -43l-31 -213q-5 -28 -13 -37.5t-30 -9.5h-532 l-20 -154q-1 -26 -2.5 -44.5t7 -31t15.5 -19.5t22.5 -11t28 -5t31.5 -1h518q24 0 29.5 -7.5t1.5 -41.5l-33 -232q-9 -47 -43 -47h-629q-76 0 -135.5 16t-96 44t-61.5 66t-33 81t-10 89.5zM498 1659q0 82 60 141.5t136 59.5q63 0 105.5 -44t42.5 -110q0 -74 -62 -134.5 t-135 -60.5q-61 0 -104 43t-43 105zM938 1659q0 82 60 141.5t139 59.5q62 0 102.5 -43t40.5 -109q0 -76 -61 -136.5t-132 -60.5q-65 0 -107 43t-42 105z" />
<glyph unicode="&#x402;" horiz-adv-x="1630" d="M131 1155l33 229q4 33 13 41.5t34 8.5h1081q25 0 32 -8.5t3 -41.5l-33 -229q-9 -47 -47 -47h-399l-35 -240q174 50 338 50q196 0 303 -107.5t107 -325.5q0 -219 -111.5 -404.5t-286.5 -303.5q-29 -19 -40.5 -18.5t-28.5 20.5l-127 133q-21 30 8 63q223 232 223 457 q0 81 -40.5 127.5t-139.5 46.5q-123 0 -248 -43l-74 -520q-5 -27 -13 -35t-38 -8h-283q-49 0 -43 43l152 1065h-305q-44 0 -35 47z" />
<glyph unicode="&#x403;" horiz-adv-x="1183" d="M102 41l142 1003q11 78 40.5 145.5t79.5 123.5t127.5 88.5t174.5 32.5h612q24 0 29.5 -8t1.5 -42l-33 -231q-4 -26 -13.5 -35.5t-29.5 -9.5h-485q-123 0 -136 -117l-135 -950q-5 -27 -12.5 -34t-38.5 -7h-283q-47 0 -41 41zM638 1634q-2 4 1 13t16 20l377 289 q18 12 26.5 12.5t26.5 -12.5l142 -180q11 -11 8 -23.5t-16 -17.5l-439 -236q-20 -9 -27.5 -7.5t-19.5 13.5l-86 115q-7 10 -9 14z" />
<glyph unicode="&#x404;" horiz-adv-x="1333" d="M150 563q0 207 55 376t153 281.5t232.5 173t294.5 60.5q242 0 403 -90q29 -16 29 -35t-19 -53l-71 -168q-17 -40 -32 -47t-50 6q-79 27 -131.5 37t-124.5 10q-106 0 -187 -53t-108 -172h383q26 0 34.5 -8t4.5 -33l-33 -223q-4 -25 -13 -31t-34 -6h-387 q-10 -137 48 -200.5t185 -63.5q22 0 43.5 1t42.5 4.5t37 6t37.5 8.5t33 9t34 11t30 10.5t31.5 11.5t29 11q32 12 41.5 7.5t23.5 -37.5l80 -189q12 -29 7 -44.5t-29 -27.5q-226 -129 -504 -129q-151 0 -262 42.5t-177.5 121.5t-98 184t-31.5 238z" />
<glyph unicode="&#x405;" horiz-adv-x="1224" d="M45.5 153.5q-1.5 14.5 15.5 45.5l91 194q18 34 33 39t44 -8q209 -96 377 -96q43 0 74.5 9t47.5 21t25 28.5t11 27.5t2 22q0 28 -28 53t-111 64q-100 49 -170 93.5t-130 100t-90 122.5t-30 145q0 200 139 321t399 121q128 0 246 -23.5t191 -70.5q32 -18 36 -33t-12 -63 l-55 -170q-13 -39 -32.5 -46.5t-53.5 5.5q-195 59 -330 59q-125 0 -125 -80q0 -27 27 -51t104 -59q110 -46 188.5 -91.5t139 -102.5t90 -128t29.5 -158q0 -230 -160 -348.5t-438 -118.5q-145 0 -288 37.5t-236 110.5q-19 14 -20.5 28.5z" />
<glyph unicode="&#x406;" horiz-adv-x="733" d="M131 43l191 1348q6 43 53 43h280q34 0 41 -8.5t2 -34.5l-190 -1348q-3 -16 -4.5 -21t-6.5 -12t-14.5 -8.5t-27.5 -1.5h-281q-49 0 -43 43z" />
<glyph unicode="&#x407;" horiz-adv-x="733" d="M131 43l191 1348q6 43 53 43h280q34 0 41 -8.5t2 -34.5l-190 -1348q-3 -16 -4.5 -21t-6.5 -12t-14.5 -8.5t-27.5 -1.5h-281q-49 0 -43 43zM152 1671q0 82 60 141.5t136 59.5q63 0 105.5 -44t42.5 -110q0 -74 -62 -134t-135 -60q-61 0 -104 43t-43 104zM592 1671 q0 82 60 141.5t139 59.5q62 0 102.5 -43t40.5 -109q0 -75 -60.5 -135.5t-132.5 -60.5q-65 0 -107 42.5t-42 104.5z" />
<glyph unicode="&#x408;" horiz-adv-x="1206" d="M15 110.5q1 12.5 10 32.5l88 213q10 24 22 26.5t31 -7.5q144 -56 276 -56q47 0 83.5 7.5t63 20t47 35t33 44.5t22.5 58t15.5 66t12.5 77l106 768q3 19 10 27.5t15 10t27 1.5h284q12 0 17 -0.5t12.5 -2t8 -5.5t3 -11.5t-1.5 -19.5l-121 -860q-14 -98 -36.5 -174.5 t-67 -151t-107 -123.5t-159.5 -79t-222 -30q-254 0 -450 103q-12 5 -17.5 11.5t-4.5 19z" />
<glyph unicode="&#x409;" horiz-adv-x="2115" d="M-14.5 251q4.5 12 32.5 23q62 30 102 54.5t76 63.5t58.5 80t46 114.5t41.5 155t43 212.5l66 344q11 74 40.5 105t106.5 31h692q78 0 100 -32t11 -104l-51 -364h231q88 0 160 -15t120.5 -38.5t85 -58.5t57 -70t33 -77t16 -75t3.5 -70q0 -102 -37.5 -197t-106.5 -169.5 t-176 -119t-235 -44.5h-526q-78 0 -99.5 32.5t-13.5 102.5l135 967h-227l-18 -98q-71 -356 -95 -450q-64 -245 -163 -370q-118 -147 -349 -217q-35 -12 -47 -10t-22 27l-86 231q-9 24 -4.5 36zM1264 334h235q43 0 77 17.5t52.5 44.5t27.5 53.5t9 50.5q0 52 -31 82t-90 30 h-239z" />
<glyph unicode="&#x40a;" horiz-adv-x="2121" d="M102 43l191 1348q6 43 51 43h283q31 0 38.5 -8.5t2.5 -34.5l-66 -465h375l65 465q6 43 54 43h280q34 0 41 -8.5t2 -34.5l-63 -457h231q88 0 160 -15t120.5 -38.5t85 -58.5t57 -70t33 -77t16 -75t3.5 -70q0 -107 -39 -203t-109.5 -169t-176 -115.5t-230.5 -42.5h-528 q-79 0 -100.5 29.5t-10.5 105.5q3 35 12.5 105.5t25.5 182t26 187.5h-375l-80 -567q-5 -27 -13 -35t-38 -8h-283q-47 0 -41 43zM1270 334h235q44 0 77.5 16t52 42t27.5 53.5t9 54.5q0 52 -31 82t-90 30h-239z" />
<glyph unicode="&#x40b;" horiz-adv-x="1611" d="M131 1155l33 229q4 33 13 41.5t34 8.5h1081q25 0 32 -8.5t3 -41.5l-33 -229q-9 -47 -47 -47h-399l-35 -238q67 15 104 22.5t106.5 15t145.5 7.5q214 0 305 -117t60 -339l-55 -393q-6 -41 -20.5 -53.5t-53.5 -12.5h-244q-66 0 -57 66l51 364q2 24 3.5 49t-7 47.5t-24 40.5 t-48.5 28.5t-80 10.5q-113 0 -229 -45l-74 -518q-5 -27 -13 -35t-38 -8h-283q-49 0 -43 43l152 1065h-305q-44 0 -35 47z" />
<glyph unicode="&#x40c;" horiz-adv-x="1411" d="M102 33l193 1368q4 22 12 27.5t27 5.5h313q21 0 27 -5.5t0 -27.5l-72 -508h119q59 0 104.5 34t87.5 136l142 346q11 29 43 29h315q22 0 26 -15t-3 -26l-148 -367q-32 -86 -86.5 -152.5t-122.5 -105.5v-10q49 -22 80 -46.5t48 -58t24 -61.5t14 -80l74 -475q6 -41 -33 -41 h-313q-33 0 -39 29l-55 407q-17 108 -66 145t-158 37h-92l-80 -585q-4 -22 -11.5 -27.5t-27.5 -5.5h-311q-14 0 -20.5 1.5t-10 9t-0.5 22.5zM706 1640q-2 4 1 13t16 20l377 289q18 12 26.5 12.5t26.5 -12.5l141 -180q11 -11 8 -23.5t-16 -17.5l-438 -236q-20 -9 -27.5 -7.5 t-19.5 13.5l-86 115q-7 10 -9 14z" />
<glyph unicode="&#x40e;" horiz-adv-x="1249" d="M130.5 18.5q-5.5 6.5 2.5 36.5l55 207q7 27 19.5 30.5t36.5 -3.5q55 -8 104 -8q73 0 108.5 18.5t59.5 71.5l29 61h-64q-54 0 -71.5 18t-30.5 74l-209 871q-10 47 39 47h285q43 0 53 -7t16 -40l60 -338l51 -326h12l133 340l127 315q15 35 28.5 45.5t55.5 10.5h318 q39 0 22 -39l-539 -1143q-37 -78 -72.5 -128.5t-86 -89t-117.5 -56t-158 -17.5q-130 0 -229 31q-32 12 -37.5 18.5zM401 1745q-15 21 11 45l123 111q9 5 14.5 8t11 1.5t7 -1.5t8 -6.5l8.5 -8.5q114 -141 231 -141q61 0 120.5 26t158.5 117q22 16 30 16.5t17 -11.5l88 -95 q12 -12 13.5 -21.5t-1.5 -14t-10 -11.5q-120 -137 -230.5 -201.5t-236.5 -64.5q-120 0 -214 72t-149 180z" />
<glyph unicode="&#x40f;" horiz-adv-x="1490" d="M117 135l176 1256q6 43 51 43h283q31 0 38.5 -8.5t2.5 -34.5l-150 -1059h440l150 1059q6 43 53 43h281q34 0 41 -8.5t2 -34.5l-176 -1256q-11 -73 -41 -104t-107 -31h-299l-59 -324q-3 -43 -49 -43h-205q-28 0 -36 11t-3 37l27 319h-310q-78 0 -98 30.5t-12 104.5z" />
<glyph unicode="&#x410;" horiz-adv-x="1339" d="M-23 39l570 1268q35 78 75.5 103.5t110.5 25.5h162q40 0 62 -3t45 -15t35 -38.5t18 -70.5l213 -1270q6 -39 -29 -39h-295q-26 0 -39.5 6.5t-17.5 28.5l-31 246h-391l-98 -236q-10 -19 -15.5 -26.5t-18.5 -13t-36 -5.5h-299q-35 0 -21 39zM592 584h225l-14 159l-23 295 h-16l-111 -301z" />
<glyph unicode="&#x411;" horiz-adv-x="1368" d="M117 135l164 1163q6 38 13.5 60t23 41t42 27t68.5 8h807q24 0 29.5 -8t1.5 -42l-33 -231q-4 -26 -13.5 -35.5t-29.5 -9.5h-561l-27 -174h232q88 0 160 -15t120.5 -38.5t85 -58.5t57 -70t33 -77t16 -75t3.5 -70q0 -108 -37.5 -203.5t-106.5 -168.5t-175.5 -115.5 t-235.5 -42.5h-527q-81 0 -101 29t-9 106zM516 334h236q43 0 77 17.5t52.5 44.5t27.5 53.5t9 50.5q0 52 -31 82t-90 30h-240z" />
<glyph unicode="&#x412;" horiz-adv-x="1388" d="M117 135l164 1163q6 38 13.5 60t23 41t42 27t68.5 8h492q86 0 156.5 -17t127 -53t88 -99t31.5 -149q0 -214 -188 -321l-2 -13q161 -75 161 -293q0 -100 -41.5 -190t-114 -156t-175.5 -104.5t-220 -38.5h-516q-81 0 -101 29t-9 106zM516 334h236q44 0 76 16t49 41.5 t24.5 50.5t7.5 50q0 51 -30 80.5t-88 29.5h-236zM598 905h209q49 0 86 28t37 91q0 37 -23.5 57.5t-64.5 20.5h-217z" />
<glyph unicode="&#x413;" horiz-adv-x="1183" d="M102 41l142 1003q11 78 40.5 145.5t79.5 123.5t127.5 88.5t174.5 32.5h612q24 0 29.5 -8t1.5 -42l-33 -231q-4 -26 -13.5 -35.5t-29.5 -9.5h-485q-123 0 -136 -117l-135 -950q-5 -27 -12.5 -34t-38.5 -7h-283q-47 0 -41 41z" />
<glyph unicode="&#x414;" horiz-adv-x="1634" d="M-43 -295l53 506q3 22 6 33.5t12 29t28 28t48 15.5l74 11q47 35 84 86t61.5 112.5t33 87t20.5 70.5l153 594q20 78 58 117t127 39h704q78 0 100 -32t11 -104l-137 -968l86 -8q45 -4 58 -26.5t5 -72.5l-94 -518q-3 -43 -51 -43h-209q-30 0 -38 10.5t-3 36.5l31 291h-856 l-60 -291q-12 -47 -65 -47h-201q-24 0 -32.5 11t-6.5 32zM602 326h416l108 776h-288l-93 -373q-67 -279 -143 -403z" />
<glyph unicode="&#x415;" horiz-adv-x="1255" d="M145 296.5q-2 46.5 7 92.5l92 655q9 64 25 117.5t47.5 105.5t75.5 87.5t111.5 57.5t153.5 22h600q26 0 31.5 -8t1.5 -42l-33 -231q-5 -27 -13.5 -36t-31.5 -9h-464q-123 0 -136 -117l-12 -86h533q24 0 28.5 -8t-0.5 -43l-31 -213q-5 -28 -13 -37.5t-30 -9.5h-532 l-20 -154q-1 -26 -2.5 -44.5t7 -31t15.5 -19.5t22.5 -11t28 -5t31.5 -1h518q24 0 29.5 -7.5t1.5 -41.5l-33 -232q-9 -47 -43 -47h-629q-76 0 -135.5 16t-96 44t-61.5 66t-33 81t-10 89.5z" />
<glyph unicode="&#x416;" horiz-adv-x="2074" d="M-7.5 15q-4.5 15 3.5 26l190 475q41 103 88.5 157.5t147.5 88.5v10q-63 35 -93 93t-42 165l-43 367q-6 41 32 41h306q32 0 34 -29l43 -346q8 -57 25.5 -93t44 -51.5t50.5 -20.5t61 -5h78l71 508q0 22 7.5 27.5t29.5 5.5h309q15 0 21.5 -1.5t10.5 -9t1 -22.5l-72 -508h86 q28 0 49 2.5t48 12t47.5 27t42.5 50t39 78.5l141 346q11 29 43 29h305q22 0 25 -15t-4 -26l-146 -367q-77 -205 -211 -258v-10q47 -18 79.5 -45.5t49.5 -63t25 -66t12 -71.5l55 -475q6 -41 -30 -41h-318q-31 0 -37 29l-53 430q-17 98 -58 128.5t-147 30.5h-82l-81 -585 q-4 -22 -12 -27.5t-29 -5.5h-306q-22 0 -29 5.5t-3 27.5l82 585h-72q-109 0 -161.5 -31t-92.5 -128l-176 -430q-11 -29 -43 -29h-314q-23 0 -27.5 15z" />
<glyph unicode="&#x417;" horiz-adv-x="1300" d="M43 133q-3 10 1 21.5t17 35.5l97 179q18 33 31.5 38.5t43.5 -10.5q165 -86 338 -86q117 0 178.5 52t61.5 124q0 57 -37.5 89.5t-111.5 33.5h-103q-56 0 -69.5 15.5t-8.5 54.5l21 147q6 45 26 58.5t66 13.5h104q72 0 118 30.5t46 92.5q0 48 -43 71t-114 23 q-156 0 -330 -63q-29 -12 -45 -4.5t-29 43.5l-61 170q-14 38 -9 51.5t41 36.5q93 50 225.5 80t266.5 30q98 0 184 -17.5t160 -55.5t117 -106t43 -159q0 -103 -64 -203t-186 -151l-2 -12q194 -84 194 -289q0 -107 -50 -199t-135 -154.5t-199 -98t-240 -35.5q-142 0 -284.5 33 t-242.5 102q-13 8 -16 18z" />
<glyph unicode="&#x418;" horiz-adv-x="1556" d="M131 162l172 1229q6 43 51 43h275q31 0 38.5 -8.5t2.5 -34.5l-109 -779h14l213 283l338 446q42 62 76 77.5t107 15.5h90q83 0 109 -33t14 -129l-162 -1229q-5 -24 -15.5 -33.5t-35.5 -9.5h-281q-34 0 -42 8.5t-3 34.5l111 774h-13l-223 -303l-330 -422q-49 -61 -79 -76.5 t-101 -15.5h-94q-83 0 -109.5 43t-13.5 119z" />
<glyph unicode="&#x419;" horiz-adv-x="1556" d="M131 162l172 1229q6 43 51 43h275q31 0 38.5 -8.5t2.5 -34.5l-109 -779h14l213 283l338 446q42 62 76 77.5t107 15.5h90q83 0 109 -33t14 -129l-162 -1229q-5 -24 -15.5 -33.5t-35.5 -9.5h-281q-34 0 -42 8.5t-3 34.5l111 774h-13l-223 -303l-330 -422q-49 -61 -79 -76.5 t-101 -15.5h-94q-83 0 -109.5 43t-13.5 119zM553 1731q-16 21 10 45l123 110q8 5 13.5 7t9 3t7.5 -0.5t5 -2.5t6.5 -6t7.5 -7q114 -141 232 -141q61 0 120 26t158 117q25 16 30 16t17 -12l88 -94q12 -12 13.5 -21.5t-1.5 -14t-10 -11.5q-120 -137 -230.5 -201.5 t-236.5 -64.5q-120 0 -213.5 72t-148.5 180z" />
<glyph unicode="&#x41a;" horiz-adv-x="1411" d="M102 33l193 1368q4 22 12 27.5t27 5.5h313q21 0 27 -5.5t0 -27.5l-72 -508h119q59 0 104.5 34t87.5 136l142 346q11 29 43 29h315q22 0 26 -15t-3 -26l-148 -367q-32 -86 -86.5 -152.5t-122.5 -105.5v-10q49 -22 80 -46.5t48 -58t24 -61.5t14 -80l74 -475q6 -41 -33 -41 h-313q-33 0 -39 29l-55 407q-17 108 -66 145t-158 37h-92l-80 -585q-4 -22 -11.5 -27.5t-27.5 -5.5h-311q-14 0 -20.5 1.5t-10 9t-0.5 22.5z" />
<glyph unicode="&#x41b;" horiz-adv-x="1513" d="M-14.5 251q4.5 12 32.5 23q62 30 102 54.5t76 63.5t58.5 80t46 114.5t41.5 155t43 212.5l66 344q11 74 40.5 105t106.5 31h786q78 0 98.5 -31t12.5 -105l-178 -1255q-5 -27 -13 -35t-38 -8h-283q-47 0 -41 43l150 1059h-322l-20 -98q-71 -355 -93 -444 q-63 -246 -160 -371q-119 -151 -352 -222q-35 -12 -47 -10t-22 27l-86 231q-9 24 -4.5 36z" />
<glyph unicode="&#x41c;" horiz-adv-x="1804" d="M101 19.5q-3 7.5 1 19.5l174 1233q12 94 48.5 128t117.5 34h140q60 0 86.5 -22t44.5 -79l116 -366l97 -342h8l217 370l197 332q35 58 72.5 82.5t107.5 24.5h135q72 0 102 -29.5t19 -118.5l-176 -1247q-3 -19 -9 -27.5t-13.5 -10t-26.5 -1.5h-263q-12 0 -17 0.5t-12.5 2 t-8.5 5.5t-4 11.5t1 19.5l101 711h-10l-99 -185l-176 -307q-29 -51 -56 -70.5t-69 -19.5h-133q-46 0 -62.5 17t-35.5 73l-76 246l-64 221h-12l-96 -686q-2 -15 -5 -22.5t-9.5 -11.5t-12.5 -4.5t-20 -0.5h-277q-12 0 -17 0.5t-12.5 2t-8.5 5.5t-4 11.5z" />
<glyph unicode="&#x41d;" horiz-adv-x="1490" d="M102 43l191 1348q6 43 51 43h283q31 0 38.5 -8.5t2.5 -34.5l-68 -484h440l68 484q6 43 53 43h281q34 0 41 -8.5t2 -34.5l-191 -1348q-3 -16 -4.5 -21t-6.5 -12t-14.5 -8.5t-27.5 -1.5h-280q-49 0 -43 43l77 541h-440l-78 -541q-5 -27 -13 -35t-38 -8h-283q-47 0 -41 43z " />
<glyph unicode="&#x41e;" horiz-adv-x="1476" d="M150 559q0 268 86.5 470.5t251.5 314.5t386 112q273 0 412 -155.5t139 -426.5q0 -268 -81 -468t-247.5 -314.5t-402.5 -114.5q-544 0 -544 582zM545 575q0 -123 46 -187t148 -64q73 0 130.5 46t91 122.5t50.5 167.5t17 190q0 125 -42.5 193.5t-145.5 68.5 q-94 0 -163 -81.5t-100.5 -200.5t-31.5 -255z" />
<glyph unicode="&#x41f;" horiz-adv-x="1490" d="M102 43l179 1255q6 38 13.5 60t23 41t42 27t68.5 8h934q78 0 100 -32t11 -104l-179 -1255q-3 -16 -4.5 -21t-6.5 -12t-14.5 -8.5t-27.5 -1.5h-280q-49 0 -43 43l149 1059h-440l-150 -1059q-5 -27 -13 -35t-38 -8h-283q-47 0 -41 43z" />
<glyph unicode="&#x420;" horiz-adv-x="1327" d="M102 41l179 1257q9 64 40.5 100t106.5 36h496q210 0 320 -112t110 -298q0 -31 -4 -66t-19 -90t-40 -104t-72.5 -101.5t-110 -90t-159 -61.5t-214.5 -24h-194l-64 -446q-5 -27 -12.5 -34t-38.5 -7h-283q-47 0 -41 41zM584 791h204q77 0 126 53.5t49 132.5q0 51 -27.5 87 t-93.5 36h-215z" />
<glyph unicode="&#x421;" horiz-adv-x="1333" d="M150 563q0 207 55 376t153 281.5t232.5 173t294.5 60.5q242 0 403 -90q29 -16 29 -35t-19 -53l-71 -168q-17 -40 -32 -47t-50 6q-79 27 -131.5 37t-124.5 10q-69 0 -129 -30.5t-108 -91t-75.5 -161t-27.5 -231.5q0 -141 53.5 -208.5t179.5 -67.5q22 0 43.5 1t42.5 4.5 t37 6t37.5 8.5t33 9t34 11t30 10.5t31.5 11.5t29 11q32 12 41.5 7.5t23.5 -37.5l80 -189q12 -29 7 -44.5t-29 -27.5q-226 -129 -504 -129q-151 0 -262 42.5t-177.5 121.5t-98 184t-31.5 238z" />
<glyph unicode="&#x422;" horiz-adv-x="1169" d="M131 1155l33 229q4 33 13 41.5t34 8.5h1046q27 0 34 -8.5t3 -41.5l-32 -229q-9 -47 -50 -47h-340l-151 -1065q-5 -27 -13 -35t-38 -8h-283q-47 0 -41 43l152 1065h-332q-44 0 -35 47z" />
<glyph unicode="&#x423;" horiz-adv-x="1249" d="M130.5 18.5q-5.5 6.5 2.5 36.5l55 207q7 27 19.5 30.5t36.5 -3.5q55 -8 104 -8q73 0 108.5 18.5t59.5 71.5l29 61h-64q-54 0 -71.5 18t-30.5 74l-209 871q-10 47 39 47h285q43 0 53 -7t16 -40l60 -338l51 -326h12l133 340l127 315q15 35 28.5 45.5t55.5 10.5h318 q39 0 22 -39l-539 -1143q-37 -78 -72.5 -128.5t-86 -89t-117.5 -56t-158 -17.5q-130 0 -229 31q-32 12 -37.5 18.5z" />
<glyph unicode="&#x424;" horiz-adv-x="1769" d="M147 618q0 297 185.5 491t496.5 239l7 43q5 24 15.5 33.5t35.5 9.5h282q31 0 38.5 -8.5t2.5 -34.5l-6 -41q257 -38 386.5 -175.5t129.5 -367.5q0 -288 -185.5 -477t-504.5 -226l-10 -61q-5 -27 -13 -35t-38 -8h-283q-47 0 -41 43l10 63q-249 28 -378.5 165.5 t-129.5 346.5zM520 647q0 -206 176 -248l92 652q-72 -17 -127 -63t-84 -105.5t-43 -119t-14 -116.5zM1067 401q77 19 135.5 62.5t90 99.5t46.5 112.5t15 112.5q0 95 -45 167t-150 98z" />
<glyph unicode="&#x425;" horiz-adv-x="1296" d="M-36 16q-5 16 7 33l518 703l-284 634q-12 17 -3.5 33.5t36.5 16.5h272q49 0 66.5 -10t31.5 -46l123 -327l213 327q21 33 43 44.5t70 11.5h307q25 0 29 -16.5t-11 -33.5l-464 -634l323 -703q5 -18 -3 -33.5t-26 -15.5h-299q-42 0 -61.5 12t-36.5 49l-139 373l-244 -373 q-30 -38 -50.5 -49.5t-62.5 -11.5h-333q-17 0 -22 16z" />
<glyph unicode="&#x426;" horiz-adv-x="1599" d="M117 135l176 1256q6 43 51 43h283q31 0 38.5 -8.5t2.5 -34.5l-150 -1059h440l150 1059q5 24 15.5 33.5t35.5 9.5h283q34 0 41 -8.5t2 -34.5l-148 -1051h125q48 0 62.5 -24.5t3.5 -73.5l-96 -537q-3 -43 -50 -43h-204q-30 0 -38 10.5t-3 36.5l26 291h-936q-78 0 -98 30.5 t-12 104.5z" />
<glyph unicode="&#x427;" horiz-adv-x="1382" d="M165.5 838.5q-2.5 70.5 10.5 148.5l57 404q5 24 15.5 33.5t36.5 9.5h282q31 0 38.5 -8.5t2.5 -34.5l-51 -367q-20 -131 24.5 -183.5t174.5 -52.5q70 0 164 15l81 588q6 43 52 43h282q31 0 38.5 -8.5t2.5 -34.5l-190 -1348q-5 -27 -13 -35t-38 -8h-283q-47 0 -41 43 l59 416q-158 -15 -223 -15q-108 0 -190.5 18.5t-136.5 53t-89.5 83.5t-49 109t-16 130.5z" />
<glyph unicode="&#x428;" horiz-adv-x="2068" d="M117 135l176 1256q6 43 51 43h283q31 0 38.5 -8.5t2.5 -34.5l-150 -1059h320l149 1059q6 43 53 43h281q34 0 41 -8.5t2 -34.5l-150 -1059h324l150 1059q5 27 13.5 35t39.5 8h282q45 0 39 -43l-176 -1256q-11 -73 -40.5 -104t-106.5 -31h-1512q-78 0 -98 30.5t-12 104.5z " />
<glyph unicode="&#x429;" horiz-adv-x="2177" d="M117 135l176 1256q6 43 51 43h283q31 0 38.5 -8.5t2.5 -34.5l-150 -1059h320l149 1059q6 43 53 43h281q34 0 41 -8.5t2 -34.5l-150 -1059h324l150 1059q5 24 15 33.5t34 9.5h284q31 0 38.5 -8.5t2.5 -34.5l-147 -1051h125q48 0 62 -24t3 -74l-96 -537q-3 -43 -49 -43 h-205q-28 0 -36 10.5t-3 36.5l25 291h-1514q-78 0 -98 30.5t-12 104.5z" />
<glyph unicode="&#x42a;" horiz-adv-x="1714" d="M141 1155l33 231q4 35 11 42.5t32 7.5h674q78 0 99.5 -32t10.5 -104l-51 -366h232q88 0 160 -15t120.5 -38.5t85 -58.5t57 -70t33 -77t16 -75t3.5 -70q0 -102 -38.5 -197t-108 -169.5t-176 -119t-232.5 -44.5h-529q-77 0 -98 33.5t-12 101.5l137 975h-428 q-23 0 -29.5 9.5t-1.5 35.5zM864 334h232q84 0 127 52.5t43 113.5q0 52 -31 82t-90 30h-240z" />
<glyph unicode="&#x42b;" horiz-adv-x="1941" d="M117 135q3 31 6 53t6 47.5t9.5 71.5t13 94t20.5 147t28 198.5t39.5 281t51.5 363.5q6 43 51 43h283q31 0 38.5 -8.5t2.5 -34.5l-64 -457h232q88 0 160 -15t120.5 -38.5t85 -58.5t57 -70t33 -77t16 -75t3.5 -70q0 -102 -37.5 -197t-106.5 -169.5t-176 -119t-235 -44.5 h-527q-81 0 -101 29t-9 106zM516 334h236q44 0 77.5 16t52 42t27.5 53.5t9 54.5q0 52 -31 82t-90 30h-240zM1370 43l191 1348q5 24 15.5 33.5t35.5 9.5h282q31 0 38.5 -8.5t2.5 -34.5l-190 -1348q-5 -27 -13 -35t-38 -8h-283q-47 0 -41 43z" />
<glyph unicode="&#x42c;" horiz-adv-x="1368" d="M117 135q3 31 6 53t6 47.5t9.5 71.5t13 94t20.5 147t28 198.5t39.5 281t51.5 363.5q6 43 51 43h283q31 0 38.5 -8.5t2.5 -34.5l-64 -457h232q88 0 160 -15t120.5 -38.5t85 -58.5t57 -70t33 -77t16 -75t3.5 -70q0 -104 -37.5 -198.5t-106.5 -169t-175.5 -118.5t-235.5 -44 h-527q-81 0 -101 29t-9 106zM516 334h232q84 0 127 52.5t43 113.5q0 52 -31 82t-90 30h-240z" />
<glyph unicode="&#x42d;" horiz-adv-x="1331" d="M48 133.5q0 15.5 18 48.5l90 178q17 34 30.5 39t42.5 -8q4 -2 26.5 -11t29 -11.5t27.5 -11t31.5 -11.5l31.5 -9t36 -8.5l36 -6t42 -4.5t43 -1q123 0 206.5 71t109.5 200h-391q-26 0 -34.5 6.5t-4.5 30.5l33 223q4 26 13 33.5t34 7.5h387q6 62 -12 107.5t-53.5 70 t-77.5 36t-91 11.5q-68 0 -117.5 -9.5t-142.5 -37.5q-26 -10 -42 -2t-27 43l-60 168q-12 28 -11.5 42.5t9.5 23t35 22.5q179 90 420 90q282 0 423.5 -154t141.5 -450q0 -143 -28 -271.5t-86.5 -239t-143.5 -191t-206 -126t-267 -45.5q-295 0 -481 129q-20 12 -20 27.5z" />
<glyph unicode="&#x42e;" horiz-adv-x="2031" d="M102 43l191 1348q6 43 51 43h283q31 0 38.5 -8.5t2.5 -34.5l-68 -486h195q76 258 243.5 403.5t413.5 145.5q136 0 238 -41.5t165 -120t94 -185t31 -241.5q0 -149 -27 -281.5t-84 -244t-140 -192t-201 -126t-260 -45.5q-260 0 -394.5 146.5t-134.5 406.5q0 9 1 27t1 27 h-186l-78 -541q-5 -27 -13 -35t-38 -8h-283q-47 0 -41 43zM1130 571q0 -247 185 -247q71 0 127 45.5t89.5 122t50.5 170.5t17 198q0 250 -184 250q-88 0 -154 -76t-98.5 -197t-32.5 -266z" />
<glyph unicode="&#x42f;" horiz-adv-x="1390" d="M31 53l135 389q62 168 240 215l2 5q-94 31 -141.5 114t-47.5 189q0 217 148 343t385 126h510q76 0 97 -33t13 -103l-178 -1257q-5 -24 -15 -32.5t-34 -8.5h-279q-32 0 -41.5 8t-5.5 33l74 520h-129q-83 0 -129.5 -39t-79.5 -129l-115 -332q-16 -37 -41.5 -49t-64.5 -12 h-273q-48 0 -30 53zM606 971q0 -52 30 -79.5t77 -27.5h223l33 236h-228q-66 0 -100.5 -34t-34.5 -95z" />
<glyph unicode="&#x430;" horiz-adv-x="1241" d="M104 391q0 337 146 522t430 185q258 0 471 -60q23 -7 33 -16.5t10.5 -21t-2.5 -27.5q-67 -413 -119 -883q-5 -19 -10 -26t-21 -13q-203 -76 -495 -76q-104 0 -182 20.5t-127 56t-79.5 89t-42.5 113.5t-12 137zM481 457q0 -90 35.5 -130t106.5 -40q70 0 120 18 q7 56 15.5 125.5t10.5 88t8.5 63t13 83.5t20.5 117q-53 15 -100 15q-103 0 -166.5 -85t-63.5 -255z" />
<glyph unicode="&#x431;" horiz-adv-x="1212" d="M104 420q-2 56 9 158q12 104 19.5 164t27 159.5t42 161t62 139t89.5 125t123 88.5t163 58q111 22 416 43q20 2 27.5 -2t11.5 -21l22 -225q3 -15 -2.5 -23.5t-11 -10.5t-17.5 -3q-57 -7 -148.5 -15.5t-129.5 -13.5q-128 -19 -182.5 -84t-85.5 -207l8 -6q131 78 289 78 q175 0 256.5 -104.5t81.5 -282.5q0 -90 -18 -173.5t-61.5 -163.5t-108.5 -140t-165.5 -98.5t-226.5 -43.5q-112 0 -198 25.5t-139.5 66.5t-88 100t-48.5 119.5t-16 131.5zM481 426q0 -67 27 -104t96 -37q63 0 107.5 41t63 99.5t18.5 125.5q0 129 -119 129q-75 0 -160 -33 q-12 -46 -22.5 -116t-10.5 -105z" />
<glyph unicode="&#x432;" horiz-adv-x="1212" d="M93.5 101q-6.5 19 0.5 42l82 572q24 185 154 290t358 105q194 0 311.5 -72t124.5 -200q0 -166 -131 -234v-10q158 -65 158 -217q0 -76 -36 -146t-104.5 -127.5t-180.5 -92t-250 -34.5q-279 0 -453 89q-27 16 -33.5 35zM479 274q45 -10 105 -10q92 0 140 37t48 84 q0 72 -100 72h-31q-30 0 -38.5 9t-4.5 38l16 110q3 17 7.5 27t14.5 15.5t15 7t23 4.5q96 15 96 90q0 28 -25.5 48.5t-70.5 20.5q-56 0 -87 -28.5t-38 -73.5z" />
<glyph unicode="&#x433;" horiz-adv-x="1093" d="M72 268q0 42 14 81.5t35 71t57.5 64t68.5 55.5t83 51t86.5 45.5t91.5 43.5q15 7 39.5 18.5t37 17.5t30 15t26.5 15t18.5 13.5t13 14.5t3.5 14q0 14 -9.5 20.5t-19.5 7.5t-31 1h-6q-42 0 -143 -23.5t-184 -54.5q-36 -16 -52 25l-55 158q-9 23 -6 37t9.5 20t14.5 11 q2 1 3 1q221 113 487 113q163 0 260.5 -63t97.5 -193q0 -65 -23 -120t-59 -96t-99.5 -82.5t-124 -71.5t-152.5 -70q-10 -4 -39 -16.5t-39.5 -18t-27.5 -16.5t-23 -22.5t-6 -25.5q0 -35 63 -35q55 0 164 27t209 64q3 1 14 4.5t13 4t9 0.5t9.5 -4t7 -11t8.5 -19l60 -170 q4 -10 5 -18t1 -12.5t-3 -9l-4 -6t-5 -4.5l-5 -3q-114 -70 -258 -101.5t-254 -31.5q-207 0 -309 67t-102 217z" />
<glyph unicode="&#x434;" horiz-adv-x="1267" d="M104 438q8 155 71 278t183 198t279 75q139 0 225 -37l10 2q2 62 -4 106.5t-26.5 85t-64.5 61t-111 20.5q-102 0 -228 -27q-1 0 -7.5 -1.5t-9 -1.5t-8 1t-8.5 4t-6.5 9.5t-5.5 15.5l-37 209q-6 30 21 37q150 51 313 51q562 0 545 -617q-2 -54 -5.5 -106t-14 -124 t-26 -136.5t-42.5 -136.5t-62 -132t-86.5 -116t-113 -94.5t-145 -61.5t-179.5 -23q-113 0 -197.5 25t-134.5 66.5t-80 102.5t-39 125t-6 142zM485 432q0 -137 119 -137q60 0 104 37.5t66.5 98.5t33 117t13.5 114q-66 30 -151 30q-52 0 -90 -25t-57.5 -66t-28.5 -83t-9 -86z " />
<glyph unicode="&#x435;" horiz-adv-x="1177" d="M102 397q0 343 155.5 526t440.5 183q73 0 135 -9.5t119 -32.5t97 -59t64 -91.5t24 -127.5q0 -182 -126.5 -275t-367.5 -93q-85 0 -158 8q0 -5 -1 -14.5t-1 -14.5q0 -36 11 -58.5t36 -33t51 -13.5t70 -3q81 0 215 43q30 9 39 6t15 -21l77 -192q6 -19 -0.5 -29t-25.5 -22 q-75 -46 -202 -71.5t-226 -25.5q-238 0 -339.5 104.5t-101.5 315.5zM518 645q16 -2 49 -2q114 0 157.5 24t43.5 76q0 30 -20.5 50t-67.5 20q-136 0 -162 -168z" />
<glyph unicode="&#x436;" horiz-adv-x="1736" d="M-6 37l151 354q17 39 31 63.5t37.5 52t57 45.5t79.5 28l2 6q-59 23 -87 69.5t-40 116.5l-32 268q0 35 26 35h287q8 0 12.5 -1t9 -7t7.5 -18l34 -207q17 -79 48 -110.5t83 -31.5h37l47 342q4 22 11 27.5t28 5.5h287q14 0 20.5 -1.5t10 -9t0.5 -22.5l-47 -342h28 q51 0 87.5 31t72.5 111l92 207q10 26 37 26h303q17 0 21 -12.5t-2 -22.5l-113 -268q-52 -141 -174 -186l-2 -6q35 -8 60 -22.5t39.5 -29.5t25.5 -41t15.5 -44.5t10.5 -51.5l52 -354q0 -9 -0.5 -12t-2.5 -11t-8.5 -11t-17.5 -3h-289q-24 0 -31 25l-43 299q-18 112 -139 112 h-61l-56 -403q-4 -22 -11.5 -27.5t-26.5 -5.5h-287q-22 0 -28.5 5.5t-2.5 27.5l55 403h-49q-122 0 -168 -112l-133 -299q-9 -25 -37 -25h-295q-38 0 -22 37z" />
<glyph unicode="&#x437;" horiz-adv-x="1050" d="M37 100l59 193q6 20 19.5 23t44.5 -5q150 -35 268 -35q170 0 170 82q0 40 -38 54t-140 22q-39 5 -55.5 21t-10.5 51l13 78q3 20 10 32.5t21 19.5t25.5 9.5t33.5 5.5q88 11 124.5 30.5t36.5 59.5q0 27 -18.5 41.5t-40 17.5t-55.5 3q-29 0 -102 -10.5t-140 -28.5 q-29 -8 -39 -5.5t-14 19.5l-45 174q-10 28 -5.5 42.5t34.5 25.5q83 38 200.5 61t216.5 23q116 0 203 -28.5t139 -91t52 -153.5q0 -84 -53.5 -155.5t-133.5 -108.5v-8q70 -26 110 -87t40 -136q0 -78 -31 -140t-82 -102.5t-120 -67t-141 -38t-149 -11.5q-99 0 -205.5 18.5 t-187.5 53.5q-28 14 -14 51z" />
<glyph unicode="&#x438;" horiz-adv-x="1253" d="M150 514l71 520q5 26 13.5 33.5t39.5 7.5h269q47 0 41 -41l-78 -555q-8 -70 -3.5 -116t38.5 -69.5t104 -23.5q57 0 109 9l104 755q5 27 13.5 34t41.5 7h265q45 0 39 -41l-123 -874q-8 -71 -35.5 -108.5t-95.5 -53.5q-43 -8 -151.5 -16.5t-172.5 -8.5q-308 0 -420.5 121.5 t-68.5 419.5z" />
<glyph unicode="&#x439;" horiz-adv-x="1253" d="M150 514l71 520q5 26 13.5 33.5t39.5 7.5h269q47 0 41 -41l-78 -555q-8 -70 -3.5 -116t38.5 -69.5t104 -23.5q57 0 109 9l104 755q5 27 13.5 34t41.5 7h265q45 0 39 -41l-123 -874q-8 -71 -35.5 -108.5t-95.5 -53.5q-43 -8 -151.5 -16.5t-172.5 -8.5q-308 0 -420.5 121.5 t-68.5 419.5zM332 1419q-16 21 10 45l123 111q8 5 13.5 7t9 3t7.5 -0.5t5 -2.5t6.5 -6t7.5 -7q115 -142 231 -142q61 0 120 26.5t159 117.5q25 16 30 16t17 -12l88 -94q25 -25 2 -47q-120 -137 -230.5 -202t-236.5 -65q-120 0 -213.5 72t-148.5 180z" />
<glyph unicode="&#x43a;" horiz-adv-x="1232" d="M84 33l141 1009q4 22 12 27.5t27 5.5h287q23 0 30 -5.5t3 -27.5l-47 -335h53q54 0 93.5 29t74.5 106l92 207q10 26 37 26h295q17 0 20.5 -12.5t-2.5 -22.5l-113 -268q-52 -141 -174 -186l-2 -6q35 -8 60 -22.5t40 -29.5t26 -40.5t15.5 -44.5t10.5 -52l57 -354v-3 q1 -34 -28 -34h-291q-24 0 -31 25l-47 299q-10 57 -44.5 79.5t-98.5 22.5h-82l-56 -393q-4 -22 -11.5 -27.5t-29.5 -5.5h-286q-14 0 -20.5 1.5t-10 9t-0.5 22.5z" />
<glyph unicode="&#x43b;" horiz-adv-x="1234" d="M3.5 204q4.5 16 33.5 32q85 38 128.5 83t73.5 133t58 261l37 233q11 74 41 101.5t110 27.5h590q76 0 99 -30.5t12 -104.5l-127 -897q-5 -28 -13 -35.5t-38 -7.5h-269q-29 0 -36.5 10t-2.5 35l103 737h-166l-12 -75q-14 -87 -24.5 -143.5t-25.5 -123t-30 -109t-35.5 -91 t-45 -80.5t-57 -66.5t-72.5 -58.5t-89.5 -47t-110.5 -43q-31 -9 -44 -1t-19 33l-64 183q-9 28 -4.5 44z" />
<glyph unicode="&#x43c;" horiz-adv-x="1583" d="M82 43l125 887q12 77 52 112t110 35l155 -2q53 0 86 -18.5t49 -75.5l78 -254l60 -213h16l133 227l123 222q35 62 76 87t108 25h154q75 0 106 -30t21 -107l-127 -895q-4 -29 -14 -36t-41 -7h-252q-21 0 -30.5 2t-15.5 11.5t-3 29.5l67 481h-8l-86 -162l-84 -163 q-22 -41 -51 -57.5t-72 -16.5h-131q-47 0 -68 16t-32 58l-41 176l-33 147h-8l-66 -479q-4 -29 -14 -36t-43 -7h-254q-19 0 -27.5 2t-14.5 11.5t-3 29.5z" />
<glyph unicode="&#x43d;" horiz-adv-x="1261" d="M82 41l139 993q6 41 51 41h265q34 0 41 -7.5t2 -33.5l-45 -329h286l45 329q6 41 54 41h264q31 0 38.5 -7.5t2.5 -33.5l-140 -993q-5 -27 -12.5 -34t-38.5 -7h-264q-25 0 -35.5 10.5t-7.5 30.5l53 381h-286l-54 -381q-3 -16 -4.5 -21t-6.5 -11.5t-14.5 -7.5t-27.5 -1h-264 q-47 0 -41 41z" />
<glyph unicode="&#x43e;" horiz-adv-x="1228" d="M104 408q0 328 162 513t445 185q231 0 345.5 -118.5t114.5 -342.5q0 -307 -159 -487.5t-447 -180.5q-461 0 -461 431zM483 455q0 -85 30 -123.5t91 -38.5q85 0 137 91.5t52 244.5q0 162 -119 162q-87 0 -139 -86.5t-52 -249.5z" />
<glyph unicode="&#x43f;" horiz-adv-x="1271" d="M84 41l125 879q8 69 35.5 107t95.5 54q42 9 149 17t177 8q150 0 252 -28t166.5 -92t85 -167.5t-0.5 -253.5l-73 -524q-3 -15 -4.5 -20.5t-7 -11.5t-15 -7.5t-27.5 -1.5h-266q-25 0 -35.5 10.5t-7.5 30.5l80 559q14 110 -19 159.5t-137 49.5q-61 0 -108 -8l-107 -760 q-3 -16 -4.5 -21t-6.5 -11.5t-14.5 -7.5t-27.5 -1h-264q-47 0 -41 41z" />
<glyph unicode="&#x440;" horiz-adv-x="1257" d="M23 -385l184 1317q5 28 16.5 45t44.5 33q179 86 459 86q134 0 227.5 -33.5t144.5 -97t73 -142t22 -182.5q0 -136 -34.5 -254t-101.5 -208.5t-174 -142.5t-243 -52q-98 0 -201 20l-57 -389q-5 -26 -12 -31.5t-41 -5.5h-267q-26 0 -35 7.5t-5 29.5zM483 317q54 -16 123 -16 q96 0 155.5 82t59.5 231q0 92 -40.5 129t-123.5 37q-55 0 -110 -14z" />
<glyph unicode="&#x441;" horiz-adv-x="1060" d="M109 434q0 174 40.5 304t115.5 210t176 119t229 39q179 0 323 -64q24 -11 28.5 -22.5t-5.5 -42.5l-66 -207q-9 -27 -29 -28.5t-49 8.5q-130 24 -180 24q-205 0 -205 -293q0 -85 33 -126.5t119 -41.5q84 0 227 39q23 9 36.5 6.5t17.5 -28.5l65 -203q8 -21 4 -36t-33 -30 q-167 -84 -405 -84q-442 0 -442 457z" />
<glyph unicode="&#x442;" horiz-adv-x="1902" d="M82 41l125 879q8 69 35.5 107t95.5 54q43 9 144.5 17t170.5 8q251 0 377 -90q65 41 161.5 66.5t180.5 25.5q106 0 187 -24.5t132.5 -69t82.5 -107.5t36.5 -141t-4.5 -168l-80 -557q-5 -27 -12.5 -34t-38.5 -7h-264q-47 0 -41 41l74 516q19 121 -12.5 180.5t-137.5 59.5 q-22 0 -65 -7t-68 -14q9 -86 -6 -201l-76 -534q-5 -27 -12.5 -34t-38.5 -7h-268q-25 0 -35.5 10.5t-7.5 30.5l80 559q14 110 -18 159.5t-134 49.5q-51 0 -98 -8l-107 -760q-3 -16 -4.5 -21t-6.5 -11.5t-14.5 -7.5t-27.5 -1h-264q-47 0 -41 41z" />
<glyph unicode="&#x443;" horiz-adv-x="1200" d="M47 -401.5q-5 10.5 2 39.5l47 196q5 27 17.5 30.5t38.5 -3.5q55 -8 94 -8q70 0 101 20.5t67 95.5l43 90h-62q-51 0 -66.5 18.5t-27.5 74.5l-182 874q-12 47 37 47h280q42 0 55 -8t17 -39l35 -344l37 -340h12l137 348l129 328q14 34 28.5 44.5t53.5 10.5h317q41 0 21 -39 l-580 -1218q-62 -134 -148 -199.5t-235 -65.5q-118 0 -237 31q-26 6 -31 16.5z" />
<glyph unicode="&#x444;" horiz-adv-x="1617" d="M111 473q0 117 36 219t96.5 175t140.5 126t169 80.5t180 30.5l51 354q5 24 15.5 32.5t36.5 8.5h264q32 0 40 -8t3 -33l-51 -360q209 -12 336.5 -134.5t127.5 -340.5q0 -170 -71 -312t-214.5 -234.5t-336.5 -103.5l-49 -346q-5 -26 -14 -33.5t-40 -7.5h-264q-47 0 -41 41 l49 350q-224 23 -344 153t-120 343zM465 467q0 -88 36 -145.5t113 -67.5l76 541q-102 -11 -163.5 -95t-61.5 -233zM973 252q74 11 125.5 63t74.5 122t23 151q0 183 -147 203z" />
<glyph unicode="&#x445;" horiz-adv-x="1097" d="M-37 15.5q-6 15.5 12 35.5l402 516l-234 469q-8 12 -1 24.5t28 12.5h287q36 0 50.5 -9t24.5 -38l68 -205l121 205q17 28 35.5 37.5t52.5 9.5h319q22 0 26.5 -12.5t-7.5 -24.5l-369 -469l260 -516q12 -20 2 -35.5t-39 -15.5h-270q-35 0 -51 13.5t-27 45.5l-92 252 l-164 -252q-22 -32 -42 -45.5t-54 -13.5h-303q-29 0 -35 15.5z" />
<glyph unicode="&#x446;" horiz-adv-x="1339" d="M142 269q-18 94 1 206l80 557q5 27 12.5 34t38.5 7h265q47 0 41 -41l-74 -516q-19 -122 12 -181t137 -59q22 0 65 7t68 14q-9 82 7 201l75 534q5 26 13 33.5t39 7.5h268q25 0 35.5 -10.5t7.5 -30.5l-80 -592q-12 -109 3.5 -146.5t90.5 -70.5q41 -19 53 -34.5t5 -53.5 l-111 -495q-6 -35 -41 -35h-186q-25 0 -33 8.5t-6 28.5l45 346q-48 21 -74 67q-66 -41 -152.5 -65.5t-168.5 -24.5q-133 0 -227 37.5t-142.5 105t-66.5 161.5z" />
<glyph unicode="&#x447;" horiz-adv-x="1214" d="M135 608q-2 62 6 133l43 301q6 33 41 33h283q26 0 33 -7t2 -26l-35 -245q-14 -102 11 -139t120 -37q56 0 125 10l57 411q6 33 41 33h281q28 0 35 -6.5t2 -26.5l-142 -1009q-6 -24 -14 -29q-8 -4 -31 -4h-280q-39 0 -33 33l43 311q-120 -10 -174 -10q-110 0 -189.5 19.5 t-125.5 55.5t-71.5 86.5t-27.5 112.5z" />
<glyph unicode="&#x448;" horiz-adv-x="1904" d="M143 271q-19 94 0 206l80 557q5 27 12.5 34t38.5 7h265q47 0 41 -41l-74 -516q-19 -122 12 -180.5t137 -58.5q23 0 66 6.5t67 13.5q-9 82 7 201l75 534q5 26 13 33.5t39 7.5h268q25 0 35.5 -10.5t7.5 -30.5l-80 -559q-13 -111 18.5 -160t133.5 -49q51 0 98 8l106 760 q3 15 4.5 20.5t7 11.5t15 7.5t27.5 1.5h264q47 0 41 -41l-125 -878q-8 -69 -36.5 -108.5t-94.5 -53.5q-50 -8 -150.5 -16.5t-165.5 -8.5q-250 0 -376 90q-65 -41 -161.5 -66.5t-180.5 -25.5q-131 0 -224.5 37.5t-142.5 105t-68 161.5z" />
<glyph unicode="&#x449;" horiz-adv-x="1986" d="M143 271q-19 94 0 206l80 557q5 27 12.5 34t38.5 7h265q47 0 41 -41l-74 -516q-19 -122 12 -180.5t137 -58.5q86 0 131 18q-8 68 5 178l79 557q5 26 13 33.5t39 7.5h264q47 0 41 -41l-74 -516q-19 -121 12.5 -180.5t137.5 -59.5q22 0 65 7t68 14q-9 86 6 201l76 534 q5 27 12.5 34t38.5 7h268q25 0 35.5 -10.5t7.5 -30.5l-80 -592q-12 -109 3.5 -146.5t90.5 -70.5q41 -19 53 -34.5t5 -53.5l-105 -495q-6 -35 -41 -35h-192q-25 0 -33 8.5t-6 28.5l45 346q-48 21 -74 67q-66 -41 -152.5 -65.5t-168.5 -24.5q-201 0 -316 88 q-66 -39 -158.5 -62.5t-172.5 -23.5q-131 0 -224.5 37.5t-142.5 105t-68 161.5z" />
<glyph unicode="&#x44a;" horiz-adv-x="1400" d="M86 834l27 192q4 34 12 41.5t33 7.5h538q77 0 99 -28.5t14 -90.5l-25 -168q93 17 164 17q402 0 402 -352q0 -64 -14 -125t-52 -126.5t-96 -114t-155 -79.5t-220 -31q-286 0 -446 86q-27 16 -33.5 35.5t0.5 42.5l88 641h-305q-40 0 -31 52zM717 297q43 -8 100 -8 q79 0 117.5 43t38.5 98q0 86 -94 86q-49 0 -131 -27z" />
<glyph unicode="&#x44b;" horiz-adv-x="1718" d="M95.5 98.5q-6.5 19.5 0.5 42.5l125 893q6 41 51 41h265q34 0 41 -7.5t2 -33.5l-35 -246q100 17 166 17q112 0 192 -26.5t124.5 -75.5t64.5 -110t20 -140q0 -64 -14 -125t-52 -126.5t-96 -114t-155 -79.5t-220 -31q-286 0 -446 86q-27 16 -33.5 35.5zM479 297 q43 -8 101 -8q79 0 117 42.5t38 98.5q0 86 -94 86q-49 0 -131 -27zM1180 41l139 993q6 41 51 41h264q34 0 41 -7.5t2 -33.5l-139 -993q-3 -16 -4.5 -21t-6.5 -11.5t-14.5 -7.5t-27.5 -1h-264q-47 0 -41 41z" />
<glyph unicode="&#x44c;" horiz-adv-x="1169" d="M95.5 98.5q-6.5 19.5 0.5 42.5l125 893q6 41 51 41h265q34 0 41 -7.5t2 -33.5l-35 -246q100 17 166 17q112 0 192 -26.5t124.5 -75.5t64.5 -110t20 -140q0 -64 -14 -125t-52 -126.5t-96 -114t-155 -79.5t-220 -31q-286 0 -446 86q-27 16 -33.5 35.5zM479 297 q43 -8 101 -8q79 0 117 42.5t38 98.5q0 86 -94 86q-49 0 -131 -27z" />
<glyph unicode="&#x44d;" horiz-adv-x="1067" d="M57 133l76 197q12 27 23 29.5t39 -7.5q123 -39 217 -39q77 0 122.5 25t61.5 88h-229q-32 0 -25 27l27 190q1 8 3 13t8.5 8.5t18.5 3.5h226q-8 106 -138 106q-76 0 -186 -26q-30 -11 -49.5 -8.5t-24.5 28.5l-51 205q-7 29 0.5 40t42.5 25q160 68 334 68 q222 0 338.5 -119.5t116.5 -347.5q0 -320 -148.5 -491t-406.5 -171q-233 0 -387 91q-31 17 -9 65z" />
<glyph unicode="&#x44e;" horiz-adv-x="1724" d="M82 41l139 993q6 41 51 41h265q34 0 41 -7.5t2 -33.5l-45 -329h131q63 194 200.5 298.5t347.5 104.5q451 0 451 -455q0 -314 -154.5 -495t-443.5 -181q-228 0 -339.5 110t-111.5 312v23h-122l-54 -381q-3 -16 -4.5 -21t-6.5 -11.5t-14.5 -7.5t-27.5 -1h-264q-47 0 -41 41 zM999 449q0 -80 27 -117t82 -37q75 0 125.5 92.5t50.5 243.5q0 160 -106 160q-78 0 -128.5 -88.5t-50.5 -253.5z" />
<glyph unicode="&#x44f;" horiz-adv-x="1228" d="M31 39l100 272q28 68 71.5 112t127.5 62l2 4q-154 51 -154 228q0 164 110.5 262t295.5 98h485q45 0 71.5 -11t34 -29t9.5 -40.5t-3 -45.5v-3.5t-0.5 -3.5t-0.5 -4l-127 -903q-5 -20 -13.5 -28.5t-29.5 -8.5h-271q-28 0 -35 8.5t-2 28.5l50 354h-107q-65 0 -102.5 -22.5 t-65.5 -85.5l-82 -228q-12 -34 -35 -44.5t-57 -10.5h-250q-39 0 -22 39zM541 696q0 -41 25.5 -60.5t66.5 -19.5h151l27 193h-152q-61 0 -89.5 -36t-28.5 -77z" />
<glyph unicode="&#x451;" horiz-adv-x="1177" d="M102 397q0 343 155.5 526t440.5 183q73 0 135 -9.5t119 -32.5t97 -59t64 -91.5t24 -127.5q0 -182 -126.5 -275t-367.5 -93q-85 0 -158 8q0 -5 -1 -14.5t-1 -14.5q0 -36 11 -58.5t36 -33t51 -13.5t70 -3q81 0 215 43q30 9 39 6t15 -21l77 -192q6 -19 -0.5 -29t-25.5 -22 q-75 -46 -202 -71.5t-226 -25.5q-238 0 -339.5 104.5t-101.5 315.5zM354 1337q0 82 60 141.5t137 59.5q63 0 105 -44t42 -110q0 -74 -61.5 -134t-134.5 -60q-62 0 -105 43t-43 104zM518 645q16 -2 49 -2q114 0 157.5 24t43.5 76q0 30 -20.5 50t-67.5 20q-136 0 -162 -168z M795 1337q0 82 59.5 141.5t138.5 59.5q62 0 103 -43t41 -109q0 -75 -60.5 -135.5t-132.5 -60.5q-65 0 -107 42.5t-42 104.5z" />
<glyph unicode="&#x452;" horiz-adv-x="1273" d="M102 39l160 1139h-88q-9 0 -12 0.5t-7 6t1 17.5l12 94q4 16 9.5 19.5t17.5 3.5h88l18 135q5 24 15 32.5t34 8.5h266q31 0 38.5 -7.5t2.5 -33.5l-18 -135h313q22 0 19 -29l-13 -82q-1 -19 -7.5 -24.5t-18.5 -5.5h-314l-22 -168q107 22 195 22q90 0 162.5 -22t131 -69.5 t91 -132t32.5 -200.5q0 -127 -34 -246t-92.5 -214.5t-126.5 -170t-146 -131.5q-31 -19 -48 -14.5t-36 29.5l-123 139q-5 7 -6 13t2 12.5t6 10.5t11.5 14t13.5 16q207 250 207 477q0 78 -39 125t-127 47q-52 0 -117 -15l-92 -655q-5 -27 -14 -36t-39 -9h-265q-24 0 -34 9.5 t-7 29.5z" />
<glyph unicode="&#x453;" horiz-adv-x="1093" d="M72 268q0 42 14 81.5t35 71t57.5 64t68.5 55.5t83 51t86.5 45.5t91.5 43.5q15 7 39.5 18.5t37 17.5t30 15t26.5 15t18.5 13.5t13 14.5t3.5 14q0 14 -9.5 20.5t-19.5 7.5t-31 1h-6q-42 0 -143 -23.5t-184 -54.5q-36 -16 -52 25l-55 158q-9 23 -6 37t9.5 20t14.5 11 q2 1 3 1q221 113 487 113q163 0 260.5 -63t97.5 -193q0 -65 -23 -120t-59 -96t-99.5 -82.5t-124 -71.5t-152.5 -70q-10 -4 -39 -16.5t-39.5 -18t-27.5 -16.5t-23 -22.5t-6 -25.5q0 -35 63 -35q55 0 164 27t209 64q3 1 14 4.5t13 4t9 0.5t9.5 -4t7 -11t8.5 -19l60 -170 q4 -10 5 -18t1 -12.5t-3 -9l-4 -6t-5 -4.5l-5 -3q-114 -70 -258 -101.5t-254 -31.5q-207 0 -309 67t-102 217zM509 1253q-3 7 7 31l195 383q8 18 17.5 23.5t31.5 1.5l239 -62q17 -4 20.5 -16.5t-7.5 -22.5l-299 -381q-10 -18 -20 -21t-27 3l-138 49q-16 5 -19 12z" />
<glyph unicode="&#x454;" horiz-adv-x="1060" d="M109 434q0 174 40.5 304t115.5 210t176 119t229 39q179 0 323 -64q24 -11 28.5 -22.5t-5.5 -42.5l-66 -207q-9 -27 -29 -28.5t-49 8.5q-130 24 -180 24q-148 0 -172 -108h230q17 0 21.5 -6.5t2.5 -18.5l-26 -190q-2 -27 -31 -27h-225q1 -61 36.5 -86t110.5 -25 q84 0 227 39q23 9 36.5 6.5t17.5 -28.5l65 -203q8 -21 4 -36t-33 -30q-167 -84 -405 -84q-442 0 -442 457z" />
<glyph unicode="&#x455;" horiz-adv-x="1026" d="M46.5 122.5q2.5 8.5 10.5 27.5l76 169q11 28 24 32.5t36 -7.5q168 -70 290 -70q90 0 90 62q0 19 -24.5 37t-99.5 53q-286 126 -289 336q0 156 114.5 250t319.5 94q98 0 197 -21.5t165 -56.5q24 -13 26.5 -24t-11.5 -46l-58 -145q-12 -28 -24.5 -34t-38.5 3 q-158 45 -256 45q-25 0 -40 -12.5t-18.5 -22.5t-3.5 -16q0 -24 22 -40t87 -44q77 -32 129.5 -62.5t96.5 -72.5t65.5 -97t21.5 -124q0 -176 -128 -267.5t-345 -91.5q-117 0 -232.5 28.5t-187.5 84.5q-11 7 -14 15.5t-0.5 17z" />
<glyph unicode="&#x456;" horiz-adv-x="684" d="M119 41l139 993q5 24 15 32.5t36 8.5h264q31 0 38.5 -7.5t2.5 -33.5l-139 -993q-5 -27 -12.5 -34t-38.5 -7h-264q-47 0 -41 41zM295 1327q0 92 66.5 158.5t154.5 66.5q72 0 120 -47.5t48 -120.5q0 -95 -68.5 -159t-154.5 -64q-72 0 -119 46.5t-47 119.5z" />
<glyph unicode="&#x457;" horiz-adv-x="684" d="M92 1358q0 82 60 141.5t137 59.5q63 0 105 -44t42 -110q0 -74 -61.5 -134.5t-134.5 -60.5q-62 0 -105 43t-43 105zM119 41l139 993q5 24 15 32.5t36 8.5h264q31 0 38.5 -7.5t2.5 -33.5l-139 -993q-5 -27 -12.5 -34t-38.5 -7h-264q-47 0 -41 41zM532 1358q0 82 60 141.5 t139 59.5q62 0 102.5 -43t40.5 -109q0 -76 -60.5 -136.5t-131.5 -60.5q-65 0 -107.5 43t-42.5 105z" />
<glyph unicode="&#x458;" horiz-adv-x="686" d="M-170 -179q6 10 37 23q137 58 194.5 129t77.5 207l119 854q5 24 15 32.5t36 8.5h269q31 0 37 -7.5t1 -33.5l-122 -882q-20 -145 -60.5 -247t-107 -171t-147.5 -110.5t-197 -74.5q-32 -8 -42.5 -9t-18.5 4.5t-15 23.5l-72 207q-10 36 -4 46zM299 1327q0 92 66.5 158.5 t154.5 66.5q72 0 120 -47.5t48 -120.5q0 -95 -68.5 -159t-154.5 -64q-72 0 -119 46.5t-47 119.5z" />
<glyph unicode="&#x459;" horiz-adv-x="1742" d="M3.5 204q4.5 16 33.5 32q85 38 128.5 83t73.5 133t58 261l37 233q11 74 41 101.5t110 27.5h553q75 0 98.5 -27.5t12.5 -99.5l-25 -160q100 17 166 17q402 0 402 -352q0 -64 -14 -125t-52 -126.5t-96 -114t-155 -79.5t-220 -31q-286 0 -446 86q-27 16 -33.5 35.5t0.5 42.5 l88 641h-127l-12 -75q-14 -87 -24.5 -143.5t-25.5 -123t-30 -109t-35.5 -91t-45 -80.5t-57 -66.5t-72.5 -58.5t-89.5 -47t-110.5 -43q-31 -9 -44 -1t-19 33l-64 183q-9 28 -4.5 44zM1059 297q43 -8 100 -8q79 0 117.5 43t38.5 98q0 86 -94 86q-49 0 -131 -27z" />
<glyph unicode="&#x45a;" horiz-adv-x="1765" d="M84 41l139 993q6 41 51 41h265q34 0 41 -7.5t2 -33.5l-43 -311h239l45 311q6 41 51 41h265q34 0 41 -7.5t2 -33.5l-35 -246q100 17 166 17q112 0 192 -26.5t124.5 -75.5t64.5 -110t20 -140q0 -44 -7 -88t-24.5 -91.5t-44 -89.5t-69 -80.5t-97 -66t-130 -44t-164.5 -16.5 q-287 0 -447 86q-27 16 -33.5 35.5t0.5 42.5l41 303h-239l-58 -403q-3 -16 -4.5 -21t-6.5 -11.5t-14.5 -7.5t-27.5 -1h-264q-47 0 -41 41zM1081 297q43 -8 101 -8q79 0 117 42.5t38 98.5q0 86 -94 86q-49 0 -131 -27z" />
<glyph unicode="&#x45b;" horiz-adv-x="1271" d="M82 39l162 1147h-88q-9 0 -12 0.5t-6.5 6t1.5 17.5l13 95q1 16 6 19t18 3h88l17 127q5 24 15 32.5t34 8.5h266q34 0 41 -7.5t2 -33.5l-16 -127h311q23 0 20 -29l-12 -81q-4 -19 -10.5 -25t-18.5 -6h-311l-24 -180q46 11 117.5 18.5t115.5 7.5q210 0 302 -109t63 -319 l-80 -565q-5 -26 -12.5 -32.5t-41.5 -6.5h-266q-25 0 -35.5 9.5t-7.5 29.5l70 500q6 34 8.5 53t0 46.5t-14 42t-36.5 25.5t-65 11q-108 0 -164 -21l-92 -657q-3 -15 -4.5 -20.5t-7 -11t-14.5 -6.5t-27 -1h-264q-24 0 -34 9.5t-7 29.5z" />
<glyph unicode="&#x45c;" horiz-adv-x="1232" d="M84 33l141 1009q4 22 12 27.5t27 5.5h287q23 0 30 -5.5t3 -27.5l-47 -335h53q54 0 93.5 29t74.5 106l92 207q10 26 37 26h295q17 0 20.5 -12.5t-2.5 -22.5l-113 -268q-52 -141 -174 -186l-2 -6q35 -8 60 -22.5t40 -29.5t26 -40.5t15.5 -44.5t10.5 -52l57 -354v-3 q1 -34 -28 -34h-291q-24 0 -31 25l-47 299q-10 57 -44.5 79.5t-98.5 22.5h-82l-56 -393q-4 -22 -11.5 -27.5t-29.5 -5.5h-286q-14 0 -20.5 1.5t-10 9t-0.5 22.5zM564.5 1222q-3.5 7 6.5 31l195 383q8 18 17.5 23.5t31.5 1.5l240 -62q17 -4 20 -16t-8 -22l-299 -381 q-10 -18 -20 -21.5t-27 2.5l-137 49q-16 5 -19.5 12z" />
<glyph unicode="&#x45e;" horiz-adv-x="1200" d="M47 -401.5q-5 10.5 2 39.5l47 196q5 27 17.5 30.5t38.5 -3.5q55 -8 94 -8q70 0 101 20.5t67 95.5l43 90h-62q-51 0 -66.5 18.5t-27.5 74.5l-182 874q-12 47 37 47h280q42 0 55 -8t17 -39l35 -344l37 -340h12l137 348l129 328q14 34 28.5 44.5t53.5 10.5h317q41 0 21 -39 l-580 -1218q-62 -134 -148 -199.5t-235 -65.5q-118 0 -237 31q-26 6 -31 16.5zM322 1423q-16 21 10 45l123 111q8 5 13.5 7t9 3t7.5 -0.5t5 -2.5t6.5 -6t7.5 -7q114 -141 231 -141q61 0 120.5 26t158.5 117q25 16 30 16t17 -12l88 -94q25 -25 2 -47q-120 -137 -230.5 -202 t-236.5 -65q-120 0 -213.5 72t-148.5 180z" />
<glyph unicode="&#x45f;" horiz-adv-x="1253" d="M150 514l71 520q5 26 13.5 33.5t39.5 7.5h269q47 0 41 -41l-78 -555q-8 -70 -3.5 -116t38.5 -69.5t104 -23.5q57 0 109 9l104 755q5 27 13.5 34t41.5 7h265q45 0 39 -41l-123 -874q-8 -71 -35.5 -108.5t-95.5 -53.5q-43 -8 -151.5 -16.5t-172.5 -8.5q-308 0 -420.5 121.5 t-68.5 419.5zM358 -543l76 379q3 12 5.5 19t7.5 14.5t14.5 10.5t23.5 3l256 21q47 0 31 -47l-172 -398q-11 -25 -20 -33t-31 -8h-150q-50 0 -41 39z" />
<glyph unicode="&#x490;" horiz-adv-x="1183" d="M102 41l142 1003q9 65 25 117.5t48.5 105t79 88t118.5 57.5t165 22h297l49 243q6 43 53 43h236q31 0 38.5 -8.5t2.5 -34.5l-62 -434q-12 -75 -40 -105t-107 -30h-399q-123 0 -136 -117l-135 -950q-5 -27 -12.5 -34t-38.5 -7h-283q-47 0 -41 41z" />
<glyph unicode="&#x491;" horiz-adv-x="1011" d="M84 41l104 735q6 39 12 67t18 61.5t28 57t42.5 46.5t60.5 37t82 23t108 9l237 -2l47 238q6 43 51 43h209q31 0 38.5 -8.5t2.5 -34.5l-57 -395q-11 -74 -40.5 -105t-106.5 -31h-275q-62 0 -83.5 -23.5t-26.5 -72.5l-93 -645q-3 -16 -4.5 -21t-6.5 -11.5t-14.5 -7.5 t-27.5 -1h-264q-47 0 -41 41z" />
<glyph unicode="&#x4d9;" horiz-adv-x="1177" d="M74 299q0 182 126 275.5t367 93.5q75 0 158 -9q0 5 1 14.5t1 14.5q0 29 -8 49.5t-21 32t-36.5 18t-45.5 8t-57 1.5q-81 0 -215 -43q-30 -10 -38.5 -7t-14.5 21l-78 193q-6 19 0.5 29t26.5 22q72 46 199.5 71t228.5 25q238 0 339 -104.5t101 -315.5q0 -343 -155.5 -525.5 t-440.5 -182.5q-92 0 -167 16t-138 51t-98 99t-35 153zM442 342q0 -30 20.5 -50t67.5 -20q136 0 162 168q-16 2 -49 2q-114 0 -157.5 -24t-43.5 -76z" />
<glyph unicode="&#x2000;" horiz-adv-x="1003" />
<glyph unicode="&#x2001;" horiz-adv-x="2006" />
<glyph unicode="&#x2002;" horiz-adv-x="1003" />
<glyph unicode="&#x2003;" horiz-adv-x="2006" />
<glyph unicode="&#x2004;" horiz-adv-x="668" />
<glyph unicode="&#x2005;" horiz-adv-x="501" />
<glyph unicode="&#x2006;" horiz-adv-x="334" />
<glyph unicode="&#x2007;" horiz-adv-x="334" />
<glyph unicode="&#x2008;" horiz-adv-x="250" />
<glyph unicode="&#x2009;" horiz-adv-x="401" />
<glyph unicode="&#x200a;" horiz-adv-x="111" />
<glyph unicode="&#x2010;" horiz-adv-x="880" d="M147 516l29 203q4 33 13 41t34 8h537q26 0 31.5 -7.5t1.5 -41.5l-29 -203q-6 -47 -47 -47h-537q-39 0 -33 47z" />
<glyph unicode="&#x2011;" horiz-adv-x="880" d="M147 516l29 203q4 33 13 41t34 8h537q26 0 31.5 -7.5t1.5 -41.5l-29 -203q-6 -47 -47 -47h-537q-39 0 -33 47z" />
<glyph unicode="&#x2012;" horiz-adv-x="880" d="M147 516l29 203q4 33 13 41t34 8h537q26 0 31.5 -7.5t1.5 -41.5l-29 -203q-6 -47 -47 -47h-537q-39 0 -33 47z" />
<glyph unicode="&#x2013;" horiz-adv-x="993" d="M61 526l21 146q6 47 53 47h823q47 0 41 -47l-20 -146q-4 -33 -15.5 -41t-39.5 -8h-824q-27 0 -35 8t-4 41z" />
<glyph unicode="&#x2014;" horiz-adv-x="1986" d="M61 526l21 146q6 47 53 47h1815q47 0 41 -47l-21 -146q-4 -33 -15.5 -41t-39.5 -8h-1815q-27 0 -35 8t-4 41z" />
<glyph unicode="&#x2018;" horiz-adv-x="727" d="M204 866q-5 16 9 39l211 490q12 27 20.5 36t30.5 9h135q28 0 39.5 -11t7.5 -34l-94 -490q-6 -31 -18.5 -43t-46.5 -12h-252q-37 0 -42 16z" />
<glyph unicode="&#x2019;" horiz-adv-x="727" d="M250 895l98 489q5 32 17 44t45 12h252q16 0 25.5 -3.5t14 -7t4 -12.5t-2 -14.5t-5.5 -18.5l-211 -489q-11 -26 -22 -35.5t-33 -9.5h-133q-29 0 -41 11t-8 34z" />
<glyph unicode="&#x201a;" horiz-adv-x="606" d="M49 -231l96 532q6 32 18.5 43.5t45.5 11.5h252q34 0 40 -17.5t-5 -37.5l-211 -532q-11 -27 -21 -36t-33 -9h-135q-59 0 -47 45z" />
<glyph unicode="&#x201c;" horiz-adv-x="1118" d="M204 866q-5 16 9 39l211 490q12 27 20.5 36t30.5 9h135q28 0 39.5 -11t7.5 -34l-94 -490q-6 -31 -18.5 -43t-46.5 -12h-252q-37 0 -42 16zM681.5 866q-5.5 16 8.5 39l211 490q12 27 21 36t32 9h136q28 0 39.5 -11t7.5 -34l-97 -490q-7 -32 -18.5 -43.5t-44.5 -11.5h-252 q-38 0 -43.5 16z" />
<glyph unicode="&#x201d;" horiz-adv-x="1118" d="M211 895l98 489q5 32 17 44t45 12h252q37 0 42.5 -16.5t-8.5 -39.5l-211 -489q-11 -27 -21 -36t-32 -9h-135q-28 0 -39.5 11t-7.5 34zM688 895l96 489q5 31 17.5 43.5t46.5 12.5h254q34 0 40 -18t-5 -38l-213 -489q-11 -27 -20.5 -36t-31.5 -9h-135q-29 0 -41 11t-8 34z " />
<glyph unicode="&#x201e;" horiz-adv-x="1110" d="M47 -238l100 545q5 30 16.5 39.5t45.5 9.5h252q37 0 42.5 -13t-5.5 -36l-215 -545q-7 -24 -17 -31t-35 -7h-135q-31 0 -42 7t-7 31zM518 -238l100 545q5 30 16.5 39.5t45.5 9.5h252q37 0 42.5 -13t-5.5 -36l-215 -545q-11 -25 -19.5 -31.5t-32.5 -6.5h-135q-31 0 -42 7 t-7 31z" />
<glyph unicode="&#x2020;" horiz-adv-x="1169" d="M147 764l31 219q6 47 45 47h289l51 363q5 24 15 32.5t36 8.5h232q34 0 41 -7.5t2 -33.5l-51 -363h286q41 0 35 -47l-31 -219q-4 -34 -12.5 -41.5t-34.5 -7.5h-286l-125 -881q-5 -26 -13.5 -32.5t-42.5 -6.5h-231q-27 0 -35 8t-4 31l125 881h-289q-25 0 -31 7.5t-2 41.5z " />
<glyph unicode="&#x2021;" horiz-adv-x="1169" d="M82 297l31 219q5 28 13 37.5t30 9.5h290l27 191h-291q-24 0 -28 7t0 42l30 219q5 28 13 37.5t30 9.5h291l45 326q5 23 15 31t36 8h232q34 0 41 -6.5t2 -32.5l-45 -326h289q38 0 32 -47l-30 -219q-4 -34 -13 -41.5t-35 -7.5h-288l-27 -191h289q39 0 33 -47l-31 -219 q-4 -34 -11.5 -41.5t-33.5 -7.5h-289l-59 -412q-5 -26 -13.5 -33.5t-42.5 -7.5h-231q-26 0 -34.5 9t-4.5 32l59 412h-290q-24 0 -29.5 7.5t-1.5 41.5z" />
<glyph unicode="&#x2022;" horiz-adv-x="923" d="M213 621q0 139 104.5 242.5t243.5 103.5q120 0 193 -80t73 -201q0 -139 -107 -237.5t-245 -98.5q-116 0 -189 77t-73 194z" />
<glyph unicode="&#x2026;" horiz-adv-x="1820" d="M88 147q0 92 70 160t161 68q78 0 128.5 -48.5t50.5 -123.5q0 -92 -71 -159t-163 -67q-75 0 -125.5 48.5t-50.5 121.5zM686 147q0 92 70.5 160t161.5 68q78 0 128 -48.5t50 -123.5q0 -92 -71 -159t-163 -67q-75 0 -125.5 48.5t-50.5 121.5zM1268 147q0 92 70 160t161 68 q79 0 128.5 -48.5t49.5 -123.5q0 -93 -70 -159.5t-163 -66.5q-75 0 -125.5 48.5t-50.5 121.5z" />
<glyph unicode="&#x202f;" horiz-adv-x="401" />
<glyph unicode="&#x2030;" horiz-adv-x="2926" d="M127 885q0 245 120.5 377.5t336.5 132.5q174 0 261 -92t87 -261q0 -231 -120.5 -369t-332.5 -138q-175 0 -263.5 91t-88.5 259zM406 891q0 -131 96 -131q69 0 110 73t41 207q0 129 -96 129q-69 0 -110 -72t-41 -206zM420 -37l1038 1473q11 18 20 23t33 5h146 q24 0 29 -12.5t-9 -32.5l-1024 -1462q-28 -39 -88 -39h-127q-45 0 -18 45zM1174 338q0 245 120 377.5t336 132.5q174 0 261 -91.5t87 -260.5q0 -231 -120 -369.5t-332 -138.5q-175 0 -263.5 91t-88.5 259zM1452 344q0 -131 96 -131q69 0 110.5 73.5t41.5 207.5 q0 129 -96 129q-69 0 -110.5 -72.5t-41.5 -206.5zM2052 338q0 245 120.5 377.5t336.5 132.5q174 0 261 -91.5t87 -260.5q0 -231 -120.5 -369.5t-332.5 -138.5q-175 0 -263.5 91t-88.5 259zM2331 344q0 -131 96 -131q69 0 110 73.5t41 207.5q0 129 -96 129q-69 0 -110 -72.5 t-41 -206.5z" />
<glyph unicode="&#x2039;" horiz-adv-x="827" d="M132 528q0 5 1 9q6 42 45 92l211 297q25 32 44.5 42.5t64.5 10.5h233q20 0 24 -13t-12 -36l-284 -395l176 -431q10 -24 -0.5 -36.5t-34.5 -12.5h-215q-44 0 -60 9.5t-28 35.5l-143 346q-24 60 -22 82z" />
<glyph unicode="&#x203a;" horiz-adv-x="827" d="M82 104l311 445l-170 381q-9 23 0 36t29 13h233q45 0 61 -10.5t29 -42.5l132 -303q20 -48 14 -93q-11 -48 -43 -90l-238 -340q-19 -25 -38.5 -35t-61.5 -10h-240q-53 0 -18 49z" />
<glyph unicode="&#x2044;" horiz-adv-x="335" d="M-422 -68q-4 14 8 31l1039 1473q11 18 20 23t33 5h145q24 0 29.5 -12.5t-8.5 -32.5l-1024 -1462q-28 -39 -88 -39h-127q-23 0 -27 14z" />
<glyph unicode="&#x205f;" horiz-adv-x="501" />
<glyph unicode="&#x20ac;" d="M108 486.5q0 8.5 1 21.5l16 110q1 5 2.5 13t2.5 11t3.5 7t8 5t14.5 1h870q21 0 25 -9t-2 -28l-17 -110q-2 -28 -8 -32q-6 -5 -23 -5h-368q0 -88 58 -124t165 -36q47 0 91 6.5t63 11.5t66.5 21t58.5 19q29 13 41 10t22 -27l96 -198q19 -41 -30 -66q-106 -62 -218.5 -86.5 t-252.5 -24.5q-274 0 -418 133t-144 361h-100q-13 0 -18 3.5t-5 12zM144.5 739.5q-4.5 8.5 0.5 28.5l17 111q2 27 9 32q7 4 22 4h96q144 484 657 484q98 0 202 -20.5t175 -55.5q29 -15 29 -31.5t-15 -46.5l-71 -190q-10 -25 -25.5 -27t-50.5 10q-117 33 -232 33 q-182 0 -253 -156h360q21 0 23.5 -8.5t-1.5 -27.5l-18 -111q-1 -5 -2.5 -13.5t-2 -11.5t-3.5 -6.5t-8.5 -4.5t-14.5 -1h-870q-19 0 -23.5 8.5z" />
<glyph unicode="&#x2122;" horiz-adv-x="1880" d="M131 1276v129q0 19 6 24t25 5h653q19 0 25 -5t6 -24v-129q0 -27 -31 -27h-205v-600q0 -9 -0.5 -12t-3 -7.5t-9 -5.5t-17.5 -1h-189q-31 0 -31 26v600h-198q-31 0 -31 27zM895 653v688q0 51 27 71t82 20h86q42 0 63 -12.5t35 -43.5l84 -198l86 -211h4l88 215l82 190 q14 32 37.5 46t72.5 14h66q53 0 81 -17t28 -74v-688q0 -16 -6 -20t-25 -4h-172q-19 0 -25 4t-6 20v387h-8l-53 -151l-43 -115q-12 -30 -28 -40.5t-46 -10.5h-90q-32 0 -47 10t-27 41l-43 107l-53 145h-8v-373q0 -16 -5.5 -20t-23.5 -4h-182q-19 0 -25 4t-6 20z" />
<glyph unicode="&#x2202;" horiz-adv-x="1214" d="M125 367q0 154 43.5 274t117 191.5t164 108t191.5 36.5q131 0 197 -37q4 36 4 49q0 119 -83.5 176t-260.5 82q-19 4 -25.5 6.5t-10.5 12.5t-1 30l24 156q5 24 16.5 33.5t35.5 9.5q316 -5 466 -148t150 -444q0 -436 -169 -687t-462 -251q-87 0 -156.5 21.5t-125 67.5 t-85.5 125.5t-30 187.5zM459 391q0 -80 32.5 -117.5t79.5 -37.5q91 0 158.5 110.5t85.5 315.5q-75 53 -162 53q-83 0 -138.5 -99t-55.5 -225z" />
<glyph unicode="&#x220f;" horiz-adv-x="1490" d="M61 -260l220 1558q6 38 13.5 60t23 41t42 27t68.5 8h934q78 0 100 -32t11 -104l-220 -1558q-5 -27 -13.5 -35t-41.5 -8h-280q-47 0 -41 43l190 1362h-440l-191 -1362q-5 -27 -13.5 -35t-39.5 -8h-283q-45 0 -39 43z" />
<glyph unicode="&#x2211;" horiz-adv-x="1243" d="M-18 -188l6 49q5 34 24.5 74t32.5 57.5t49 66.5l404 535l-265 481q-42 80 -30 154l12 90q10 71 38.5 96t98.5 25h879q27 0 34 -8t3 -41l-33 -230q-6 -47 -49 -47h-518l-2 -20l211 -412q1 -3 6 -14.5t6.5 -14t5 -12t4.5 -13t2.5 -11t1.5 -12t-0.5 -11t-1.5 -12.5 q-3 -32 -47 -88l-340 -455v-16h592q25 0 32 -8.5t3 -41.5l-33 -231q-9 -47 -47 -47h-975q-64 0 -89 26.5t-15 90.5z" />
<glyph unicode="&#x221a;" horiz-adv-x="1280" d="M42 652.5q4 7.5 32 17.5l370 141q37 13 51 6.5t19 -33.5l109 -614l12 -2l516 1415q12 30 24 38.5t39 8.5h183q31 0 38 -10t-5 -45l-709 -1811q-41 -96 -152 -96q-23 0 -39 2.5t-35 10.5t-31.5 26.5t-17.5 46.5l-151 764l-182 -67q-39 -18 -43 16l-27 154q-5 24 -1 31.5z " />
<glyph unicode="&#x221e;" horiz-adv-x="1638" d="M133 569q0 150 106.5 253.5t274.5 103.5q166 0 360 -174q80 83 168 128.5t201 45.5q164 0 268.5 -100.5t104.5 -254.5q0 -150 -110 -255t-279 -105q-173 0 -353 180q-87 -87 -171.5 -133.5t-196.5 -46.5q-159 0 -266 101t-107 257zM399 569q0 -59 34.5 -99t84.5 -40 q86 0 203 135q-115 140 -205 140q-49 0 -83 -40t-34 -96zM1028 569q68 -72 113 -105.5t90 -33.5q50 0 83.5 41.5t33.5 99.5q0 59 -33.5 96.5t-81.5 37.5q-79 0 -205 -136z" />
<glyph unicode="&#x222b;" horiz-adv-x="903" d="M-113 -371q-4 10 2 27l37 170q2 9 4.5 14t7.5 7t8 2t12 -1.5t13 -1.5q39 -6 86 -6q37 0 65.5 8t49.5 27.5t35.5 42t26 60.5t19.5 73t17 90q129 771 158 934q43 254 75 350q55 167 164 230q88 51 228 51q97 0 170 -18q2 0 9.5 -2t8.5 -2t6.5 -2t6.5 -3.5t4 -4t3 -5.5v-7.5 t-1 -10.5l-27 -162q-4 -17 -17.5 -25t-27.5 -6q-35 6 -88 6q-86 0 -127.5 -44.5t-62.5 -149.5q-29 -122 -53.5 -252t-36.5 -204.5t-35.5 -234.5t-32.5 -221q-6 -38 -17 -112q-12 -79 -18.5 -118t-20 -108t-25.5 -104t-33 -88.5t-44.5 -81t-58 -62t-75 -51t-94 -28 t-116.5 -11.5q-92 0 -178 19q-23 6 -27 16z" />
<glyph unicode="&#x2248;" d="M164 375q-20 17 2 45q147 196 352 196q50 0 104.5 -17.5t93.5 -38.5t86 -38.5t85 -17.5q48 0 85.5 18t78.5 60q27 34 49 12l131 -117q22 -22 4 -47q-66 -88 -169.5 -146.5t-193.5 -58.5q-48 0 -101 18t-92 39.5t-86.5 39.5t-86.5 18q-98 0 -162 -72q-31 -31 -53 -12z M229 840q-20 17 2 45q147 196 353 196q63 0 131 -28t129 -56t108 -28q48 0 85.5 18t78.5 60q27 34 49 12l131 -117q22 -22 4 -47q-66 -88 -169 -146.5t-193 -58.5q-48 0 -101 18t-92 39.5t-87 39.5t-87 18q-99 0 -161 -72q-31 -31 -54 -12z" />
<glyph unicode="&#x2260;" d="M163.5 139q-2.5 12 14.5 29l125 137h-92q-24 0 -32.5 9.5t-4.5 33.5l29 199q4 29 12 36t33 7h317l172 188h-458q-43 0 -37 47l26 191q4 33 14 41t37 8h682l129 141q20 22 33.5 30.5t34.5 8.5h150q44 0 14 -37l-133 -143h35q26 0 31 -7.5t1 -41.5l-26 -191q-6 -47 -47 -47 h-256l-174 -188h409q24 0 29.5 -8t1.5 -37l-27 -191q-6 -49 -47 -49h-627l-131 -143q-30 -35 -71 -35h-146q-18 0 -20.5 12z" />
<glyph unicode="&#x2264;" d="M129 43l29 199q4 28 13.5 35.5t35.5 7.5h944q24 0 31.5 -8.5t3.5 -36.5l-27 -191q-6 -49 -49 -49h-938q-51 0 -43 43zM229 809l11 65q3 26 11 44t24 31.5t28 20t37 17.5l938 361q27 11 39.5 8.5t12.5 -16t-3 -33.5l-27 -199q-3 -24 -4.5 -31.5t-8 -21t-18.5 -20 t-34 -13.5l-565 -180l514 -185q38 -12 44.5 -32t-3.5 -54l-27 -178q-3 -19 -5 -27t-8 -16t-17 -7t-29 9l-838 361q-44 20 -60.5 42.5t-11.5 53.5z" />
<glyph unicode="&#x2265;" d="M125 49l27 191q4 28 13.5 36.5t33.5 8.5h946q25 0 32 -7.5t3 -35.5l-29 -199q-8 -43 -49 -43h-940q-43 0 -37 49zM177.5 359.5q-0.5 13.5 2.5 33.5l27 199q8 46 17 58q14 17 48 28l568 184l-516 180q-37 12 -43.5 32t2.5 54l26 179q3 17 5.5 26.5t9 17t18 6.5t29.5 -9 l835 -361q29 -14 42.5 -24t23.5 -32.5t6 -56.5l-10 -65q-5 -31 -28 -53.5t-73 -42.5l-936 -361q-27 -11 -40 -8.5t-13.5 16z" />
<glyph unicode="&#x25ca;" horiz-adv-x="1085" d="M61 651l359 692h182l352 -692l-354 -688h-182zM324 653l190 -374l184 372l-188 377z" />
<glyph unicode="&#x25fc;" horiz-adv-x="1075" d="M0 0v1075h1075v-1075h-1075z" />
</font>
</defs>
</svg>
